%TF.GenerationSoftware,KiCad,Pcbnew,9.0.6*%
%TF.CreationDate,2026-03-17T16:47:10+13:00*%
%TF.ProjectId,DaisySeedPedal125b_potty,44616973-7953-4656-9564-506564616c31,rev?*%
%TF.SameCoordinates,Original*%
%TF.FileFunction,Legend,Top*%
%TF.FilePolarity,Positive*%
%FSLAX46Y46*%
G04 Gerber Fmt 4.6, Leading zero omitted, Abs format (unit mm)*
G04 Created by KiCad (PCBNEW 9.0.6) date 2026-03-17 16:47:10*
%MOMM*%
%LPD*%
G01*
G04 APERTURE LIST*
G04 Aperture macros list*
%AMRoundRect*
0 Rectangle with rounded corners*
0 $1 Rounding radius*
0 $2 $3 $4 $5 $6 $7 $8 $9 X,Y pos of 4 corners*
0 Add a 4 corners polygon primitive as box body*
4,1,4,$2,$3,$4,$5,$6,$7,$8,$9,$2,$3,0*
0 Add four circle primitives for the rounded corners*
1,1,$1+$1,$2,$3*
1,1,$1+$1,$4,$5*
1,1,$1+$1,$6,$7*
1,1,$1+$1,$8,$9*
0 Add four rect primitives between the rounded corners*
20,1,$1+$1,$2,$3,$4,$5,0*
20,1,$1+$1,$4,$5,$6,$7,0*
20,1,$1+$1,$6,$7,$8,$9,0*
20,1,$1+$1,$8,$9,$2,$3,0*%
G04 Aperture macros list end*
%ADD10C,0.150000*%
%ADD11C,0.100000*%
%ADD12C,0.120000*%
%ADD13C,0.127000*%
%ADD14C,0.200000*%
%ADD15RoundRect,0.250000X-0.450000X0.262500X-0.450000X-0.262500X0.450000X-0.262500X0.450000X0.262500X0*%
%ADD16O,1.700000X1.700000*%
%ADD17R,1.700000X1.700000*%
%ADD18C,3.000000*%
%ADD19RoundRect,0.250000X-0.250000X-0.475000X0.250000X-0.475000X0.250000X0.475000X-0.250000X0.475000X0*%
%ADD20R,1.780000X2.000000*%
%ADD21RoundRect,0.250000X0.262500X0.450000X-0.262500X0.450000X-0.262500X-0.450000X0.262500X-0.450000X0*%
%ADD22RoundRect,0.250000X0.450000X-0.262500X0.450000X0.262500X-0.450000X0.262500X-0.450000X-0.262500X0*%
%ADD23R,0.800000X1.800000*%
%ADD24RoundRect,0.150000X0.150000X-0.825000X0.150000X0.825000X-0.150000X0.825000X-0.150000X-0.825000X0*%
%ADD25C,2.100000*%
%ADD26RoundRect,0.250000X-0.475000X0.250000X-0.475000X-0.250000X0.475000X-0.250000X0.475000X0.250000X0*%
%ADD27RoundRect,0.250000X0.250000X0.475000X-0.250000X0.475000X-0.250000X-0.475000X0.250000X-0.475000X0*%
%ADD28RoundRect,0.250000X-0.262500X-0.450000X0.262500X-0.450000X0.262500X0.450000X-0.262500X0.450000X0*%
%ADD29RoundRect,0.250000X0.300000X-0.300000X0.300000X0.300000X-0.300000X0.300000X-0.300000X-0.300000X0*%
%ADD30RoundRect,0.137500X-0.137500X0.587500X-0.137500X-0.587500X0.137500X-0.587500X0.137500X0.587500X0*%
%ADD31RoundRect,0.250000X0.475000X-0.250000X0.475000X0.250000X-0.475000X0.250000X-0.475000X-0.250000X0*%
%ADD32RoundRect,0.225000X0.225000X0.375000X-0.225000X0.375000X-0.225000X-0.375000X0.225000X-0.375000X0*%
%ADD33R,2.000000X2.000000*%
%ADD34R,2.000000X1.500000*%
%ADD35R,2.000000X3.800000*%
%ADD36C,2.000000*%
%ADD37R,2.000000X1.905000*%
%ADD38O,2.000000X1.905000*%
%ADD39RoundRect,0.150000X-0.512500X-0.150000X0.512500X-0.150000X0.512500X0.150000X-0.512500X0.150000X0*%
%ADD40C,1.500000*%
%ADD41C,0.800000*%
%ADD42O,1.600000X2.000000*%
G04 APERTURE END LIST*
D10*
X119295180Y-42866667D02*
X120295180Y-42866667D01*
X120295180Y-42866667D02*
X119580895Y-43200000D01*
X119580895Y-43200000D02*
X120295180Y-43533333D01*
X120295180Y-43533333D02*
X119295180Y-43533333D01*
X119295180Y-44009524D02*
X119961847Y-44009524D01*
X120295180Y-44009524D02*
X120247561Y-43961905D01*
X120247561Y-43961905D02*
X120199942Y-44009524D01*
X120199942Y-44009524D02*
X120247561Y-44057143D01*
X120247561Y-44057143D02*
X120295180Y-44009524D01*
X120295180Y-44009524D02*
X120199942Y-44009524D01*
X119295180Y-44914285D02*
X120295180Y-44914285D01*
X119342800Y-44914285D02*
X119295180Y-44819047D01*
X119295180Y-44819047D02*
X119295180Y-44628571D01*
X119295180Y-44628571D02*
X119342800Y-44533333D01*
X119342800Y-44533333D02*
X119390419Y-44485714D01*
X119390419Y-44485714D02*
X119485657Y-44438095D01*
X119485657Y-44438095D02*
X119771371Y-44438095D01*
X119771371Y-44438095D02*
X119866609Y-44485714D01*
X119866609Y-44485714D02*
X119914228Y-44533333D01*
X119914228Y-44533333D02*
X119961847Y-44628571D01*
X119961847Y-44628571D02*
X119961847Y-44819047D01*
X119961847Y-44819047D02*
X119914228Y-44914285D01*
X119295180Y-45390476D02*
X119961847Y-45390476D01*
X120295180Y-45390476D02*
X120247561Y-45342857D01*
X120247561Y-45342857D02*
X120199942Y-45390476D01*
X120199942Y-45390476D02*
X120247561Y-45438095D01*
X120247561Y-45438095D02*
X120295180Y-45390476D01*
X120295180Y-45390476D02*
X120199942Y-45390476D01*
X119295180Y-46628571D02*
X120295180Y-46628571D01*
X119961847Y-47104761D02*
X119295180Y-47104761D01*
X119866609Y-47104761D02*
X119914228Y-47152380D01*
X119914228Y-47152380D02*
X119961847Y-47247618D01*
X119961847Y-47247618D02*
X119961847Y-47390475D01*
X119961847Y-47390475D02*
X119914228Y-47485713D01*
X119914228Y-47485713D02*
X119818990Y-47533332D01*
X119818990Y-47533332D02*
X119295180Y-47533332D01*
X170669104Y-129666666D02*
X170669104Y-129190476D01*
X170954819Y-129761904D02*
X169954819Y-129428571D01*
X169954819Y-129428571D02*
X170954819Y-129095238D01*
X170288152Y-128333333D02*
X170954819Y-128333333D01*
X170288152Y-128761904D02*
X170811961Y-128761904D01*
X170811961Y-128761904D02*
X170907200Y-128714285D01*
X170907200Y-128714285D02*
X170954819Y-128619047D01*
X170954819Y-128619047D02*
X170954819Y-128476190D01*
X170954819Y-128476190D02*
X170907200Y-128380952D01*
X170907200Y-128380952D02*
X170859580Y-128333333D01*
X170954819Y-127428571D02*
X169954819Y-127428571D01*
X170907200Y-127428571D02*
X170954819Y-127523809D01*
X170954819Y-127523809D02*
X170954819Y-127714285D01*
X170954819Y-127714285D02*
X170907200Y-127809523D01*
X170907200Y-127809523D02*
X170859580Y-127857142D01*
X170859580Y-127857142D02*
X170764342Y-127904761D01*
X170764342Y-127904761D02*
X170478628Y-127904761D01*
X170478628Y-127904761D02*
X170383390Y-127857142D01*
X170383390Y-127857142D02*
X170335771Y-127809523D01*
X170335771Y-127809523D02*
X170288152Y-127714285D01*
X170288152Y-127714285D02*
X170288152Y-127523809D01*
X170288152Y-127523809D02*
X170335771Y-127428571D01*
X170954819Y-126952380D02*
X170288152Y-126952380D01*
X169954819Y-126952380D02*
X170002438Y-126999999D01*
X170002438Y-126999999D02*
X170050057Y-126952380D01*
X170050057Y-126952380D02*
X170002438Y-126904761D01*
X170002438Y-126904761D02*
X169954819Y-126952380D01*
X169954819Y-126952380D02*
X170050057Y-126952380D01*
X170954819Y-126333333D02*
X170907200Y-126428571D01*
X170907200Y-126428571D02*
X170859580Y-126476190D01*
X170859580Y-126476190D02*
X170764342Y-126523809D01*
X170764342Y-126523809D02*
X170478628Y-126523809D01*
X170478628Y-126523809D02*
X170383390Y-126476190D01*
X170383390Y-126476190D02*
X170335771Y-126428571D01*
X170335771Y-126428571D02*
X170288152Y-126333333D01*
X170288152Y-126333333D02*
X170288152Y-126190476D01*
X170288152Y-126190476D02*
X170335771Y-126095238D01*
X170335771Y-126095238D02*
X170383390Y-126047619D01*
X170383390Y-126047619D02*
X170478628Y-126000000D01*
X170478628Y-126000000D02*
X170764342Y-126000000D01*
X170764342Y-126000000D02*
X170859580Y-126047619D01*
X170859580Y-126047619D02*
X170907200Y-126095238D01*
X170907200Y-126095238D02*
X170954819Y-126190476D01*
X170954819Y-126190476D02*
X170954819Y-126333333D01*
X169954819Y-124619047D02*
X169954819Y-124428571D01*
X169954819Y-124428571D02*
X170002438Y-124333333D01*
X170002438Y-124333333D02*
X170097676Y-124238095D01*
X170097676Y-124238095D02*
X170288152Y-124190476D01*
X170288152Y-124190476D02*
X170621485Y-124190476D01*
X170621485Y-124190476D02*
X170811961Y-124238095D01*
X170811961Y-124238095D02*
X170907200Y-124333333D01*
X170907200Y-124333333D02*
X170954819Y-124428571D01*
X170954819Y-124428571D02*
X170954819Y-124619047D01*
X170954819Y-124619047D02*
X170907200Y-124714285D01*
X170907200Y-124714285D02*
X170811961Y-124809523D01*
X170811961Y-124809523D02*
X170621485Y-124857142D01*
X170621485Y-124857142D02*
X170288152Y-124857142D01*
X170288152Y-124857142D02*
X170097676Y-124809523D01*
X170097676Y-124809523D02*
X170002438Y-124714285D01*
X170002438Y-124714285D02*
X169954819Y-124619047D01*
X170288152Y-123333333D02*
X170954819Y-123333333D01*
X170288152Y-123761904D02*
X170811961Y-123761904D01*
X170811961Y-123761904D02*
X170907200Y-123714285D01*
X170907200Y-123714285D02*
X170954819Y-123619047D01*
X170954819Y-123619047D02*
X170954819Y-123476190D01*
X170954819Y-123476190D02*
X170907200Y-123380952D01*
X170907200Y-123380952D02*
X170859580Y-123333333D01*
X170288152Y-122999999D02*
X170288152Y-122619047D01*
X169954819Y-122857142D02*
X170811961Y-122857142D01*
X170811961Y-122857142D02*
X170907200Y-122809523D01*
X170907200Y-122809523D02*
X170954819Y-122714285D01*
X170954819Y-122714285D02*
X170954819Y-122619047D01*
X170288152Y-122285713D02*
X171288152Y-122285713D01*
X170335771Y-122285713D02*
X170288152Y-122190475D01*
X170288152Y-122190475D02*
X170288152Y-121999999D01*
X170288152Y-121999999D02*
X170335771Y-121904761D01*
X170335771Y-121904761D02*
X170383390Y-121857142D01*
X170383390Y-121857142D02*
X170478628Y-121809523D01*
X170478628Y-121809523D02*
X170764342Y-121809523D01*
X170764342Y-121809523D02*
X170859580Y-121857142D01*
X170859580Y-121857142D02*
X170907200Y-121904761D01*
X170907200Y-121904761D02*
X170954819Y-121999999D01*
X170954819Y-121999999D02*
X170954819Y-122190475D01*
X170954819Y-122190475D02*
X170907200Y-122285713D01*
X170288152Y-120952380D02*
X170954819Y-120952380D01*
X170288152Y-121380951D02*
X170811961Y-121380951D01*
X170811961Y-121380951D02*
X170907200Y-121333332D01*
X170907200Y-121333332D02*
X170954819Y-121238094D01*
X170954819Y-121238094D02*
X170954819Y-121095237D01*
X170954819Y-121095237D02*
X170907200Y-120999999D01*
X170907200Y-120999999D02*
X170859580Y-120952380D01*
X170288152Y-120619046D02*
X170288152Y-120238094D01*
X169954819Y-120476189D02*
X170811961Y-120476189D01*
X170811961Y-120476189D02*
X170907200Y-120428570D01*
X170907200Y-120428570D02*
X170954819Y-120333332D01*
X170954819Y-120333332D02*
X170954819Y-120238094D01*
X135238094Y-89419903D02*
X135238094Y-88419903D01*
X135238094Y-88419903D02*
X135619046Y-88419903D01*
X135619046Y-88419903D02*
X135714284Y-88467522D01*
X135714284Y-88467522D02*
X135761903Y-88515141D01*
X135761903Y-88515141D02*
X135809522Y-88610379D01*
X135809522Y-88610379D02*
X135809522Y-88753236D01*
X135809522Y-88753236D02*
X135761903Y-88848474D01*
X135761903Y-88848474D02*
X135714284Y-88896093D01*
X135714284Y-88896093D02*
X135619046Y-88943712D01*
X135619046Y-88943712D02*
X135238094Y-88943712D01*
X136380951Y-89419903D02*
X136285713Y-89372284D01*
X136285713Y-89372284D02*
X136238094Y-89324664D01*
X136238094Y-89324664D02*
X136190475Y-89229426D01*
X136190475Y-89229426D02*
X136190475Y-88943712D01*
X136190475Y-88943712D02*
X136238094Y-88848474D01*
X136238094Y-88848474D02*
X136285713Y-88800855D01*
X136285713Y-88800855D02*
X136380951Y-88753236D01*
X136380951Y-88753236D02*
X136523808Y-88753236D01*
X136523808Y-88753236D02*
X136619046Y-88800855D01*
X136619046Y-88800855D02*
X136666665Y-88848474D01*
X136666665Y-88848474D02*
X136714284Y-88943712D01*
X136714284Y-88943712D02*
X136714284Y-89229426D01*
X136714284Y-89229426D02*
X136666665Y-89324664D01*
X136666665Y-89324664D02*
X136619046Y-89372284D01*
X136619046Y-89372284D02*
X136523808Y-89419903D01*
X136523808Y-89419903D02*
X136380951Y-89419903D01*
X136999999Y-88753236D02*
X137380951Y-88753236D01*
X137142856Y-88419903D02*
X137142856Y-89277045D01*
X137142856Y-89277045D02*
X137190475Y-89372284D01*
X137190475Y-89372284D02*
X137285713Y-89419903D01*
X137285713Y-89419903D02*
X137380951Y-89419903D01*
X137571428Y-88753236D02*
X137952380Y-88753236D01*
X137714285Y-88419903D02*
X137714285Y-89277045D01*
X137714285Y-89277045D02*
X137761904Y-89372284D01*
X137761904Y-89372284D02*
X137857142Y-89419903D01*
X137857142Y-89419903D02*
X137952380Y-89419903D01*
X138190476Y-88753236D02*
X138428571Y-89419903D01*
X138666666Y-88753236D02*
X138428571Y-89419903D01*
X138428571Y-89419903D02*
X138333333Y-89657998D01*
X138333333Y-89657998D02*
X138285714Y-89705617D01*
X138285714Y-89705617D02*
X138190476Y-89753236D01*
X140333333Y-88467522D02*
X140238095Y-88419903D01*
X140238095Y-88419903D02*
X140095238Y-88419903D01*
X140095238Y-88419903D02*
X139952381Y-88467522D01*
X139952381Y-88467522D02*
X139857143Y-88562760D01*
X139857143Y-88562760D02*
X139809524Y-88657998D01*
X139809524Y-88657998D02*
X139761905Y-88848474D01*
X139761905Y-88848474D02*
X139761905Y-88991331D01*
X139761905Y-88991331D02*
X139809524Y-89181807D01*
X139809524Y-89181807D02*
X139857143Y-89277045D01*
X139857143Y-89277045D02*
X139952381Y-89372284D01*
X139952381Y-89372284D02*
X140095238Y-89419903D01*
X140095238Y-89419903D02*
X140190476Y-89419903D01*
X140190476Y-89419903D02*
X140333333Y-89372284D01*
X140333333Y-89372284D02*
X140380952Y-89324664D01*
X140380952Y-89324664D02*
X140380952Y-88991331D01*
X140380952Y-88991331D02*
X140190476Y-88991331D01*
X141238095Y-88753236D02*
X141238095Y-89419903D01*
X140809524Y-88753236D02*
X140809524Y-89277045D01*
X140809524Y-89277045D02*
X140857143Y-89372284D01*
X140857143Y-89372284D02*
X140952381Y-89419903D01*
X140952381Y-89419903D02*
X141095238Y-89419903D01*
X141095238Y-89419903D02*
X141190476Y-89372284D01*
X141190476Y-89372284D02*
X141238095Y-89324664D01*
X141714286Y-89419903D02*
X141714286Y-88753236D01*
X141714286Y-88419903D02*
X141666667Y-88467522D01*
X141666667Y-88467522D02*
X141714286Y-88515141D01*
X141714286Y-88515141D02*
X141761905Y-88467522D01*
X141761905Y-88467522D02*
X141714286Y-88419903D01*
X141714286Y-88419903D02*
X141714286Y-88515141D01*
X142047619Y-88753236D02*
X142428571Y-88753236D01*
X142190476Y-88419903D02*
X142190476Y-89277045D01*
X142190476Y-89277045D02*
X142238095Y-89372284D01*
X142238095Y-89372284D02*
X142333333Y-89419903D01*
X142333333Y-89419903D02*
X142428571Y-89419903D01*
X143190476Y-89419903D02*
X143190476Y-88896093D01*
X143190476Y-88896093D02*
X143142857Y-88800855D01*
X143142857Y-88800855D02*
X143047619Y-88753236D01*
X143047619Y-88753236D02*
X142857143Y-88753236D01*
X142857143Y-88753236D02*
X142761905Y-88800855D01*
X143190476Y-89372284D02*
X143095238Y-89419903D01*
X143095238Y-89419903D02*
X142857143Y-89419903D01*
X142857143Y-89419903D02*
X142761905Y-89372284D01*
X142761905Y-89372284D02*
X142714286Y-89277045D01*
X142714286Y-89277045D02*
X142714286Y-89181807D01*
X142714286Y-89181807D02*
X142761905Y-89086569D01*
X142761905Y-89086569D02*
X142857143Y-89038950D01*
X142857143Y-89038950D02*
X143095238Y-89038950D01*
X143095238Y-89038950D02*
X143190476Y-88991331D01*
X143666667Y-89419903D02*
X143666667Y-88753236D01*
X143666667Y-88943712D02*
X143714286Y-88848474D01*
X143714286Y-88848474D02*
X143761905Y-88800855D01*
X143761905Y-88800855D02*
X143857143Y-88753236D01*
X143857143Y-88753236D02*
X143952381Y-88753236D01*
X145047620Y-89419903D02*
X145047620Y-88419903D01*
X145047620Y-88419903D02*
X145428572Y-88419903D01*
X145428572Y-88419903D02*
X145523810Y-88467522D01*
X145523810Y-88467522D02*
X145571429Y-88515141D01*
X145571429Y-88515141D02*
X145619048Y-88610379D01*
X145619048Y-88610379D02*
X145619048Y-88753236D01*
X145619048Y-88753236D02*
X145571429Y-88848474D01*
X145571429Y-88848474D02*
X145523810Y-88896093D01*
X145523810Y-88896093D02*
X145428572Y-88943712D01*
X145428572Y-88943712D02*
X145047620Y-88943712D01*
X146428572Y-89372284D02*
X146333334Y-89419903D01*
X146333334Y-89419903D02*
X146142858Y-89419903D01*
X146142858Y-89419903D02*
X146047620Y-89372284D01*
X146047620Y-89372284D02*
X146000001Y-89277045D01*
X146000001Y-89277045D02*
X146000001Y-88896093D01*
X146000001Y-88896093D02*
X146047620Y-88800855D01*
X146047620Y-88800855D02*
X146142858Y-88753236D01*
X146142858Y-88753236D02*
X146333334Y-88753236D01*
X146333334Y-88753236D02*
X146428572Y-88800855D01*
X146428572Y-88800855D02*
X146476191Y-88896093D01*
X146476191Y-88896093D02*
X146476191Y-88991331D01*
X146476191Y-88991331D02*
X146000001Y-89086569D01*
X147333334Y-89419903D02*
X147333334Y-88419903D01*
X147333334Y-89372284D02*
X147238096Y-89419903D01*
X147238096Y-89419903D02*
X147047620Y-89419903D01*
X147047620Y-89419903D02*
X146952382Y-89372284D01*
X146952382Y-89372284D02*
X146904763Y-89324664D01*
X146904763Y-89324664D02*
X146857144Y-89229426D01*
X146857144Y-89229426D02*
X146857144Y-88943712D01*
X146857144Y-88943712D02*
X146904763Y-88848474D01*
X146904763Y-88848474D02*
X146952382Y-88800855D01*
X146952382Y-88800855D02*
X147047620Y-88753236D01*
X147047620Y-88753236D02*
X147238096Y-88753236D01*
X147238096Y-88753236D02*
X147333334Y-88800855D01*
X148238096Y-89419903D02*
X148238096Y-88896093D01*
X148238096Y-88896093D02*
X148190477Y-88800855D01*
X148190477Y-88800855D02*
X148095239Y-88753236D01*
X148095239Y-88753236D02*
X147904763Y-88753236D01*
X147904763Y-88753236D02*
X147809525Y-88800855D01*
X148238096Y-89372284D02*
X148142858Y-89419903D01*
X148142858Y-89419903D02*
X147904763Y-89419903D01*
X147904763Y-89419903D02*
X147809525Y-89372284D01*
X147809525Y-89372284D02*
X147761906Y-89277045D01*
X147761906Y-89277045D02*
X147761906Y-89181807D01*
X147761906Y-89181807D02*
X147809525Y-89086569D01*
X147809525Y-89086569D02*
X147904763Y-89038950D01*
X147904763Y-89038950D02*
X148142858Y-89038950D01*
X148142858Y-89038950D02*
X148238096Y-88991331D01*
X148857144Y-89419903D02*
X148761906Y-89372284D01*
X148761906Y-89372284D02*
X148714287Y-89277045D01*
X148714287Y-89277045D02*
X148714287Y-88419903D01*
X133166665Y-92639791D02*
X133166665Y-91639791D01*
X133166665Y-91639791D02*
X133499998Y-92354076D01*
X133499998Y-92354076D02*
X133833331Y-91639791D01*
X133833331Y-91639791D02*
X133833331Y-92639791D01*
X134738093Y-92639791D02*
X134738093Y-92115981D01*
X134738093Y-92115981D02*
X134690474Y-92020743D01*
X134690474Y-92020743D02*
X134595236Y-91973124D01*
X134595236Y-91973124D02*
X134404760Y-91973124D01*
X134404760Y-91973124D02*
X134309522Y-92020743D01*
X134738093Y-92592172D02*
X134642855Y-92639791D01*
X134642855Y-92639791D02*
X134404760Y-92639791D01*
X134404760Y-92639791D02*
X134309522Y-92592172D01*
X134309522Y-92592172D02*
X134261903Y-92496933D01*
X134261903Y-92496933D02*
X134261903Y-92401695D01*
X134261903Y-92401695D02*
X134309522Y-92306457D01*
X134309522Y-92306457D02*
X134404760Y-92258838D01*
X134404760Y-92258838D02*
X134642855Y-92258838D01*
X134642855Y-92258838D02*
X134738093Y-92211219D01*
X135642855Y-92639791D02*
X135642855Y-91639791D01*
X135642855Y-92592172D02*
X135547617Y-92639791D01*
X135547617Y-92639791D02*
X135357141Y-92639791D01*
X135357141Y-92639791D02*
X135261903Y-92592172D01*
X135261903Y-92592172D02*
X135214284Y-92544552D01*
X135214284Y-92544552D02*
X135166665Y-92449314D01*
X135166665Y-92449314D02*
X135166665Y-92163600D01*
X135166665Y-92163600D02*
X135214284Y-92068362D01*
X135214284Y-92068362D02*
X135261903Y-92020743D01*
X135261903Y-92020743D02*
X135357141Y-91973124D01*
X135357141Y-91973124D02*
X135547617Y-91973124D01*
X135547617Y-91973124D02*
X135642855Y-92020743D01*
X136499998Y-92592172D02*
X136404760Y-92639791D01*
X136404760Y-92639791D02*
X136214284Y-92639791D01*
X136214284Y-92639791D02*
X136119046Y-92592172D01*
X136119046Y-92592172D02*
X136071427Y-92496933D01*
X136071427Y-92496933D02*
X136071427Y-92115981D01*
X136071427Y-92115981D02*
X136119046Y-92020743D01*
X136119046Y-92020743D02*
X136214284Y-91973124D01*
X136214284Y-91973124D02*
X136404760Y-91973124D01*
X136404760Y-91973124D02*
X136499998Y-92020743D01*
X136499998Y-92020743D02*
X136547617Y-92115981D01*
X136547617Y-92115981D02*
X136547617Y-92211219D01*
X136547617Y-92211219D02*
X136071427Y-92306457D01*
X137738094Y-92639791D02*
X137738094Y-91639791D01*
X137738094Y-92020743D02*
X137833332Y-91973124D01*
X137833332Y-91973124D02*
X138023808Y-91973124D01*
X138023808Y-91973124D02*
X138119046Y-92020743D01*
X138119046Y-92020743D02*
X138166665Y-92068362D01*
X138166665Y-92068362D02*
X138214284Y-92163600D01*
X138214284Y-92163600D02*
X138214284Y-92449314D01*
X138214284Y-92449314D02*
X138166665Y-92544552D01*
X138166665Y-92544552D02*
X138119046Y-92592172D01*
X138119046Y-92592172D02*
X138023808Y-92639791D01*
X138023808Y-92639791D02*
X137833332Y-92639791D01*
X137833332Y-92639791D02*
X137738094Y-92592172D01*
X138547618Y-91973124D02*
X138785713Y-92639791D01*
X139023808Y-91973124D02*
X138785713Y-92639791D01*
X138785713Y-92639791D02*
X138690475Y-92877886D01*
X138690475Y-92877886D02*
X138642856Y-92925505D01*
X138642856Y-92925505D02*
X138547618Y-92973124D01*
X140452380Y-91639791D02*
X140452380Y-92354076D01*
X140452380Y-92354076D02*
X140404761Y-92496933D01*
X140404761Y-92496933D02*
X140309523Y-92592172D01*
X140309523Y-92592172D02*
X140166666Y-92639791D01*
X140166666Y-92639791D02*
X140071428Y-92639791D01*
X141309523Y-92592172D02*
X141214285Y-92639791D01*
X141214285Y-92639791D02*
X141023809Y-92639791D01*
X141023809Y-92639791D02*
X140928571Y-92592172D01*
X140928571Y-92592172D02*
X140880952Y-92496933D01*
X140880952Y-92496933D02*
X140880952Y-92115981D01*
X140880952Y-92115981D02*
X140928571Y-92020743D01*
X140928571Y-92020743D02*
X141023809Y-91973124D01*
X141023809Y-91973124D02*
X141214285Y-91973124D01*
X141214285Y-91973124D02*
X141309523Y-92020743D01*
X141309523Y-92020743D02*
X141357142Y-92115981D01*
X141357142Y-92115981D02*
X141357142Y-92211219D01*
X141357142Y-92211219D02*
X140880952Y-92306457D01*
X141785714Y-92639791D02*
X141785714Y-91973124D01*
X141785714Y-92163600D02*
X141833333Y-92068362D01*
X141833333Y-92068362D02*
X141880952Y-92020743D01*
X141880952Y-92020743D02*
X141976190Y-91973124D01*
X141976190Y-91973124D02*
X142071428Y-91973124D01*
X142785714Y-92592172D02*
X142690476Y-92639791D01*
X142690476Y-92639791D02*
X142500000Y-92639791D01*
X142500000Y-92639791D02*
X142404762Y-92592172D01*
X142404762Y-92592172D02*
X142357143Y-92496933D01*
X142357143Y-92496933D02*
X142357143Y-92115981D01*
X142357143Y-92115981D02*
X142404762Y-92020743D01*
X142404762Y-92020743D02*
X142500000Y-91973124D01*
X142500000Y-91973124D02*
X142690476Y-91973124D01*
X142690476Y-91973124D02*
X142785714Y-92020743D01*
X142785714Y-92020743D02*
X142833333Y-92115981D01*
X142833333Y-92115981D02*
X142833333Y-92211219D01*
X142833333Y-92211219D02*
X142357143Y-92306457D01*
X143261905Y-92639791D02*
X143261905Y-91973124D01*
X143261905Y-92068362D02*
X143309524Y-92020743D01*
X143309524Y-92020743D02*
X143404762Y-91973124D01*
X143404762Y-91973124D02*
X143547619Y-91973124D01*
X143547619Y-91973124D02*
X143642857Y-92020743D01*
X143642857Y-92020743D02*
X143690476Y-92115981D01*
X143690476Y-92115981D02*
X143690476Y-92639791D01*
X143690476Y-92115981D02*
X143738095Y-92020743D01*
X143738095Y-92020743D02*
X143833333Y-91973124D01*
X143833333Y-91973124D02*
X143976190Y-91973124D01*
X143976190Y-91973124D02*
X144071429Y-92020743D01*
X144071429Y-92020743D02*
X144119048Y-92115981D01*
X144119048Y-92115981D02*
X144119048Y-92639791D01*
X144500000Y-91973124D02*
X144738095Y-92639791D01*
X144976190Y-91973124D02*
X144738095Y-92639791D01*
X144738095Y-92639791D02*
X144642857Y-92877886D01*
X144642857Y-92877886D02*
X144595238Y-92925505D01*
X144595238Y-92925505D02*
X144500000Y-92973124D01*
X146690476Y-92544552D02*
X146642857Y-92592172D01*
X146642857Y-92592172D02*
X146500000Y-92639791D01*
X146500000Y-92639791D02*
X146404762Y-92639791D01*
X146404762Y-92639791D02*
X146261905Y-92592172D01*
X146261905Y-92592172D02*
X146166667Y-92496933D01*
X146166667Y-92496933D02*
X146119048Y-92401695D01*
X146119048Y-92401695D02*
X146071429Y-92211219D01*
X146071429Y-92211219D02*
X146071429Y-92068362D01*
X146071429Y-92068362D02*
X146119048Y-91877886D01*
X146119048Y-91877886D02*
X146166667Y-91782648D01*
X146166667Y-91782648D02*
X146261905Y-91687410D01*
X146261905Y-91687410D02*
X146404762Y-91639791D01*
X146404762Y-91639791D02*
X146500000Y-91639791D01*
X146500000Y-91639791D02*
X146642857Y-91687410D01*
X146642857Y-91687410D02*
X146690476Y-91735029D01*
X147261905Y-92639791D02*
X147166667Y-92592172D01*
X147166667Y-92592172D02*
X147119048Y-92544552D01*
X147119048Y-92544552D02*
X147071429Y-92449314D01*
X147071429Y-92449314D02*
X147071429Y-92163600D01*
X147071429Y-92163600D02*
X147119048Y-92068362D01*
X147119048Y-92068362D02*
X147166667Y-92020743D01*
X147166667Y-92020743D02*
X147261905Y-91973124D01*
X147261905Y-91973124D02*
X147404762Y-91973124D01*
X147404762Y-91973124D02*
X147500000Y-92020743D01*
X147500000Y-92020743D02*
X147547619Y-92068362D01*
X147547619Y-92068362D02*
X147595238Y-92163600D01*
X147595238Y-92163600D02*
X147595238Y-92449314D01*
X147595238Y-92449314D02*
X147547619Y-92544552D01*
X147547619Y-92544552D02*
X147500000Y-92592172D01*
X147500000Y-92592172D02*
X147404762Y-92639791D01*
X147404762Y-92639791D02*
X147261905Y-92639791D01*
X148166667Y-92639791D02*
X148071429Y-92592172D01*
X148071429Y-92592172D02*
X148023810Y-92544552D01*
X148023810Y-92544552D02*
X147976191Y-92449314D01*
X147976191Y-92449314D02*
X147976191Y-92163600D01*
X147976191Y-92163600D02*
X148023810Y-92068362D01*
X148023810Y-92068362D02*
X148071429Y-92020743D01*
X148071429Y-92020743D02*
X148166667Y-91973124D01*
X148166667Y-91973124D02*
X148309524Y-91973124D01*
X148309524Y-91973124D02*
X148404762Y-92020743D01*
X148404762Y-92020743D02*
X148452381Y-92068362D01*
X148452381Y-92068362D02*
X148500000Y-92163600D01*
X148500000Y-92163600D02*
X148500000Y-92449314D01*
X148500000Y-92449314D02*
X148452381Y-92544552D01*
X148452381Y-92544552D02*
X148404762Y-92592172D01*
X148404762Y-92592172D02*
X148309524Y-92639791D01*
X148309524Y-92639791D02*
X148166667Y-92639791D01*
X148928572Y-91973124D02*
X148928572Y-92973124D01*
X148928572Y-92020743D02*
X149023810Y-91973124D01*
X149023810Y-91973124D02*
X149214286Y-91973124D01*
X149214286Y-91973124D02*
X149309524Y-92020743D01*
X149309524Y-92020743D02*
X149357143Y-92068362D01*
X149357143Y-92068362D02*
X149404762Y-92163600D01*
X149404762Y-92163600D02*
X149404762Y-92449314D01*
X149404762Y-92449314D02*
X149357143Y-92544552D01*
X149357143Y-92544552D02*
X149309524Y-92592172D01*
X149309524Y-92592172D02*
X149214286Y-92639791D01*
X149214286Y-92639791D02*
X149023810Y-92639791D01*
X149023810Y-92639791D02*
X148928572Y-92592172D01*
X150214286Y-92592172D02*
X150119048Y-92639791D01*
X150119048Y-92639791D02*
X149928572Y-92639791D01*
X149928572Y-92639791D02*
X149833334Y-92592172D01*
X149833334Y-92592172D02*
X149785715Y-92496933D01*
X149785715Y-92496933D02*
X149785715Y-92115981D01*
X149785715Y-92115981D02*
X149833334Y-92020743D01*
X149833334Y-92020743D02*
X149928572Y-91973124D01*
X149928572Y-91973124D02*
X150119048Y-91973124D01*
X150119048Y-91973124D02*
X150214286Y-92020743D01*
X150214286Y-92020743D02*
X150261905Y-92115981D01*
X150261905Y-92115981D02*
X150261905Y-92211219D01*
X150261905Y-92211219D02*
X149785715Y-92306457D01*
X150690477Y-92639791D02*
X150690477Y-91973124D01*
X150690477Y-92163600D02*
X150738096Y-92068362D01*
X150738096Y-92068362D02*
X150785715Y-92020743D01*
X150785715Y-92020743D02*
X150880953Y-91973124D01*
X150880953Y-91973124D02*
X150976191Y-91973124D01*
X139047619Y-93249735D02*
X139142857Y-93249735D01*
X139142857Y-93249735D02*
X139238095Y-93297354D01*
X139238095Y-93297354D02*
X139285714Y-93344973D01*
X139285714Y-93344973D02*
X139333333Y-93440211D01*
X139333333Y-93440211D02*
X139380952Y-93630687D01*
X139380952Y-93630687D02*
X139380952Y-93868782D01*
X139380952Y-93868782D02*
X139333333Y-94059258D01*
X139333333Y-94059258D02*
X139285714Y-94154496D01*
X139285714Y-94154496D02*
X139238095Y-94202116D01*
X139238095Y-94202116D02*
X139142857Y-94249735D01*
X139142857Y-94249735D02*
X139047619Y-94249735D01*
X139047619Y-94249735D02*
X138952381Y-94202116D01*
X138952381Y-94202116D02*
X138904762Y-94154496D01*
X138904762Y-94154496D02*
X138857143Y-94059258D01*
X138857143Y-94059258D02*
X138809524Y-93868782D01*
X138809524Y-93868782D02*
X138809524Y-93630687D01*
X138809524Y-93630687D02*
X138857143Y-93440211D01*
X138857143Y-93440211D02*
X138904762Y-93344973D01*
X138904762Y-93344973D02*
X138952381Y-93297354D01*
X138952381Y-93297354D02*
X139047619Y-93249735D01*
X139761905Y-93344973D02*
X139809524Y-93297354D01*
X139809524Y-93297354D02*
X139904762Y-93249735D01*
X139904762Y-93249735D02*
X140142857Y-93249735D01*
X140142857Y-93249735D02*
X140238095Y-93297354D01*
X140238095Y-93297354D02*
X140285714Y-93344973D01*
X140285714Y-93344973D02*
X140333333Y-93440211D01*
X140333333Y-93440211D02*
X140333333Y-93535449D01*
X140333333Y-93535449D02*
X140285714Y-93678306D01*
X140285714Y-93678306D02*
X139714286Y-94249735D01*
X139714286Y-94249735D02*
X140333333Y-94249735D01*
X141476190Y-93202116D02*
X140619048Y-94487830D01*
X141761905Y-93344973D02*
X141809524Y-93297354D01*
X141809524Y-93297354D02*
X141904762Y-93249735D01*
X141904762Y-93249735D02*
X142142857Y-93249735D01*
X142142857Y-93249735D02*
X142238095Y-93297354D01*
X142238095Y-93297354D02*
X142285714Y-93344973D01*
X142285714Y-93344973D02*
X142333333Y-93440211D01*
X142333333Y-93440211D02*
X142333333Y-93535449D01*
X142333333Y-93535449D02*
X142285714Y-93678306D01*
X142285714Y-93678306D02*
X141714286Y-94249735D01*
X141714286Y-94249735D02*
X142333333Y-94249735D01*
X142952381Y-93249735D02*
X143047619Y-93249735D01*
X143047619Y-93249735D02*
X143142857Y-93297354D01*
X143142857Y-93297354D02*
X143190476Y-93344973D01*
X143190476Y-93344973D02*
X143238095Y-93440211D01*
X143238095Y-93440211D02*
X143285714Y-93630687D01*
X143285714Y-93630687D02*
X143285714Y-93868782D01*
X143285714Y-93868782D02*
X143238095Y-94059258D01*
X143238095Y-94059258D02*
X143190476Y-94154496D01*
X143190476Y-94154496D02*
X143142857Y-94202116D01*
X143142857Y-94202116D02*
X143047619Y-94249735D01*
X143047619Y-94249735D02*
X142952381Y-94249735D01*
X142952381Y-94249735D02*
X142857143Y-94202116D01*
X142857143Y-94202116D02*
X142809524Y-94154496D01*
X142809524Y-94154496D02*
X142761905Y-94059258D01*
X142761905Y-94059258D02*
X142714286Y-93868782D01*
X142714286Y-93868782D02*
X142714286Y-93630687D01*
X142714286Y-93630687D02*
X142761905Y-93440211D01*
X142761905Y-93440211D02*
X142809524Y-93344973D01*
X142809524Y-93344973D02*
X142857143Y-93297354D01*
X142857143Y-93297354D02*
X142952381Y-93249735D01*
X143666667Y-93344973D02*
X143714286Y-93297354D01*
X143714286Y-93297354D02*
X143809524Y-93249735D01*
X143809524Y-93249735D02*
X144047619Y-93249735D01*
X144047619Y-93249735D02*
X144142857Y-93297354D01*
X144142857Y-93297354D02*
X144190476Y-93344973D01*
X144190476Y-93344973D02*
X144238095Y-93440211D01*
X144238095Y-93440211D02*
X144238095Y-93535449D01*
X144238095Y-93535449D02*
X144190476Y-93678306D01*
X144190476Y-93678306D02*
X143619048Y-94249735D01*
X143619048Y-94249735D02*
X144238095Y-94249735D01*
X145095238Y-93249735D02*
X144904762Y-93249735D01*
X144904762Y-93249735D02*
X144809524Y-93297354D01*
X144809524Y-93297354D02*
X144761905Y-93344973D01*
X144761905Y-93344973D02*
X144666667Y-93487830D01*
X144666667Y-93487830D02*
X144619048Y-93678306D01*
X144619048Y-93678306D02*
X144619048Y-94059258D01*
X144619048Y-94059258D02*
X144666667Y-94154496D01*
X144666667Y-94154496D02*
X144714286Y-94202116D01*
X144714286Y-94202116D02*
X144809524Y-94249735D01*
X144809524Y-94249735D02*
X145000000Y-94249735D01*
X145000000Y-94249735D02*
X145095238Y-94202116D01*
X145095238Y-94202116D02*
X145142857Y-94154496D01*
X145142857Y-94154496D02*
X145190476Y-94059258D01*
X145190476Y-94059258D02*
X145190476Y-93821163D01*
X145190476Y-93821163D02*
X145142857Y-93725925D01*
X145142857Y-93725925D02*
X145095238Y-93678306D01*
X145095238Y-93678306D02*
X145000000Y-93630687D01*
X145000000Y-93630687D02*
X144809524Y-93630687D01*
X144809524Y-93630687D02*
X144714286Y-93678306D01*
X144714286Y-93678306D02*
X144666667Y-93725925D01*
X144666667Y-93725925D02*
X144619048Y-93821163D01*
X113654819Y-76054761D02*
X112654819Y-76054761D01*
X112654819Y-76054761D02*
X112654819Y-75816666D01*
X112654819Y-75816666D02*
X112702438Y-75673809D01*
X112702438Y-75673809D02*
X112797676Y-75578571D01*
X112797676Y-75578571D02*
X112892914Y-75530952D01*
X112892914Y-75530952D02*
X113083390Y-75483333D01*
X113083390Y-75483333D02*
X113226247Y-75483333D01*
X113226247Y-75483333D02*
X113416723Y-75530952D01*
X113416723Y-75530952D02*
X113511961Y-75578571D01*
X113511961Y-75578571D02*
X113607200Y-75673809D01*
X113607200Y-75673809D02*
X113654819Y-75816666D01*
X113654819Y-75816666D02*
X113654819Y-76054761D01*
X113654819Y-74626190D02*
X113131009Y-74626190D01*
X113131009Y-74626190D02*
X113035771Y-74673809D01*
X113035771Y-74673809D02*
X112988152Y-74769047D01*
X112988152Y-74769047D02*
X112988152Y-74959523D01*
X112988152Y-74959523D02*
X113035771Y-75054761D01*
X113607200Y-74626190D02*
X113654819Y-74721428D01*
X113654819Y-74721428D02*
X113654819Y-74959523D01*
X113654819Y-74959523D02*
X113607200Y-75054761D01*
X113607200Y-75054761D02*
X113511961Y-75102380D01*
X113511961Y-75102380D02*
X113416723Y-75102380D01*
X113416723Y-75102380D02*
X113321485Y-75054761D01*
X113321485Y-75054761D02*
X113273866Y-74959523D01*
X113273866Y-74959523D02*
X113273866Y-74721428D01*
X113273866Y-74721428D02*
X113226247Y-74626190D01*
X113654819Y-74149999D02*
X112988152Y-74149999D01*
X112654819Y-74149999D02*
X112702438Y-74197618D01*
X112702438Y-74197618D02*
X112750057Y-74149999D01*
X112750057Y-74149999D02*
X112702438Y-74102380D01*
X112702438Y-74102380D02*
X112654819Y-74149999D01*
X112654819Y-74149999D02*
X112750057Y-74149999D01*
X113607200Y-73721428D02*
X113654819Y-73626190D01*
X113654819Y-73626190D02*
X113654819Y-73435714D01*
X113654819Y-73435714D02*
X113607200Y-73340476D01*
X113607200Y-73340476D02*
X113511961Y-73292857D01*
X113511961Y-73292857D02*
X113464342Y-73292857D01*
X113464342Y-73292857D02*
X113369104Y-73340476D01*
X113369104Y-73340476D02*
X113321485Y-73435714D01*
X113321485Y-73435714D02*
X113321485Y-73578571D01*
X113321485Y-73578571D02*
X113273866Y-73673809D01*
X113273866Y-73673809D02*
X113178628Y-73721428D01*
X113178628Y-73721428D02*
X113131009Y-73721428D01*
X113131009Y-73721428D02*
X113035771Y-73673809D01*
X113035771Y-73673809D02*
X112988152Y-73578571D01*
X112988152Y-73578571D02*
X112988152Y-73435714D01*
X112988152Y-73435714D02*
X113035771Y-73340476D01*
X112988152Y-72959523D02*
X113654819Y-72721428D01*
X112988152Y-72483333D02*
X113654819Y-72721428D01*
X113654819Y-72721428D02*
X113892914Y-72816666D01*
X113892914Y-72816666D02*
X113940533Y-72864285D01*
X113940533Y-72864285D02*
X113988152Y-72959523D01*
X113607200Y-71388094D02*
X113654819Y-71245237D01*
X113654819Y-71245237D02*
X113654819Y-71007142D01*
X113654819Y-71007142D02*
X113607200Y-70911904D01*
X113607200Y-70911904D02*
X113559580Y-70864285D01*
X113559580Y-70864285D02*
X113464342Y-70816666D01*
X113464342Y-70816666D02*
X113369104Y-70816666D01*
X113369104Y-70816666D02*
X113273866Y-70864285D01*
X113273866Y-70864285D02*
X113226247Y-70911904D01*
X113226247Y-70911904D02*
X113178628Y-71007142D01*
X113178628Y-71007142D02*
X113131009Y-71197618D01*
X113131009Y-71197618D02*
X113083390Y-71292856D01*
X113083390Y-71292856D02*
X113035771Y-71340475D01*
X113035771Y-71340475D02*
X112940533Y-71388094D01*
X112940533Y-71388094D02*
X112845295Y-71388094D01*
X112845295Y-71388094D02*
X112750057Y-71340475D01*
X112750057Y-71340475D02*
X112702438Y-71292856D01*
X112702438Y-71292856D02*
X112654819Y-71197618D01*
X112654819Y-71197618D02*
X112654819Y-70959523D01*
X112654819Y-70959523D02*
X112702438Y-70816666D01*
X113607200Y-70007142D02*
X113654819Y-70102380D01*
X113654819Y-70102380D02*
X113654819Y-70292856D01*
X113654819Y-70292856D02*
X113607200Y-70388094D01*
X113607200Y-70388094D02*
X113511961Y-70435713D01*
X113511961Y-70435713D02*
X113131009Y-70435713D01*
X113131009Y-70435713D02*
X113035771Y-70388094D01*
X113035771Y-70388094D02*
X112988152Y-70292856D01*
X112988152Y-70292856D02*
X112988152Y-70102380D01*
X112988152Y-70102380D02*
X113035771Y-70007142D01*
X113035771Y-70007142D02*
X113131009Y-69959523D01*
X113131009Y-69959523D02*
X113226247Y-69959523D01*
X113226247Y-69959523D02*
X113321485Y-70435713D01*
X113607200Y-69149999D02*
X113654819Y-69245237D01*
X113654819Y-69245237D02*
X113654819Y-69435713D01*
X113654819Y-69435713D02*
X113607200Y-69530951D01*
X113607200Y-69530951D02*
X113511961Y-69578570D01*
X113511961Y-69578570D02*
X113131009Y-69578570D01*
X113131009Y-69578570D02*
X113035771Y-69530951D01*
X113035771Y-69530951D02*
X112988152Y-69435713D01*
X112988152Y-69435713D02*
X112988152Y-69245237D01*
X112988152Y-69245237D02*
X113035771Y-69149999D01*
X113035771Y-69149999D02*
X113131009Y-69102380D01*
X113131009Y-69102380D02*
X113226247Y-69102380D01*
X113226247Y-69102380D02*
X113321485Y-69578570D01*
X113654819Y-68245237D02*
X112654819Y-68245237D01*
X113607200Y-68245237D02*
X113654819Y-68340475D01*
X113654819Y-68340475D02*
X113654819Y-68530951D01*
X113654819Y-68530951D02*
X113607200Y-68626189D01*
X113607200Y-68626189D02*
X113559580Y-68673808D01*
X113559580Y-68673808D02*
X113464342Y-68721427D01*
X113464342Y-68721427D02*
X113178628Y-68721427D01*
X113178628Y-68721427D02*
X113083390Y-68673808D01*
X113083390Y-68673808D02*
X113035771Y-68626189D01*
X113035771Y-68626189D02*
X112988152Y-68530951D01*
X112988152Y-68530951D02*
X112988152Y-68340475D01*
X112988152Y-68340475D02*
X113035771Y-68245237D01*
X113330895Y-121154762D02*
X113330895Y-121630952D01*
X113045180Y-121059524D02*
X114045180Y-121392857D01*
X114045180Y-121392857D02*
X113045180Y-121726190D01*
X113711847Y-122488095D02*
X113045180Y-122488095D01*
X113711847Y-122059524D02*
X113188038Y-122059524D01*
X113188038Y-122059524D02*
X113092800Y-122107143D01*
X113092800Y-122107143D02*
X113045180Y-122202381D01*
X113045180Y-122202381D02*
X113045180Y-122345238D01*
X113045180Y-122345238D02*
X113092800Y-122440476D01*
X113092800Y-122440476D02*
X113140419Y-122488095D01*
X113045180Y-123392857D02*
X114045180Y-123392857D01*
X113092800Y-123392857D02*
X113045180Y-123297619D01*
X113045180Y-123297619D02*
X113045180Y-123107143D01*
X113045180Y-123107143D02*
X113092800Y-123011905D01*
X113092800Y-123011905D02*
X113140419Y-122964286D01*
X113140419Y-122964286D02*
X113235657Y-122916667D01*
X113235657Y-122916667D02*
X113521371Y-122916667D01*
X113521371Y-122916667D02*
X113616609Y-122964286D01*
X113616609Y-122964286D02*
X113664228Y-123011905D01*
X113664228Y-123011905D02*
X113711847Y-123107143D01*
X113711847Y-123107143D02*
X113711847Y-123297619D01*
X113711847Y-123297619D02*
X113664228Y-123392857D01*
X113045180Y-123869048D02*
X113711847Y-123869048D01*
X114045180Y-123869048D02*
X113997561Y-123821429D01*
X113997561Y-123821429D02*
X113949942Y-123869048D01*
X113949942Y-123869048D02*
X113997561Y-123916667D01*
X113997561Y-123916667D02*
X114045180Y-123869048D01*
X114045180Y-123869048D02*
X113949942Y-123869048D01*
X113045180Y-124488095D02*
X113092800Y-124392857D01*
X113092800Y-124392857D02*
X113140419Y-124345238D01*
X113140419Y-124345238D02*
X113235657Y-124297619D01*
X113235657Y-124297619D02*
X113521371Y-124297619D01*
X113521371Y-124297619D02*
X113616609Y-124345238D01*
X113616609Y-124345238D02*
X113664228Y-124392857D01*
X113664228Y-124392857D02*
X113711847Y-124488095D01*
X113711847Y-124488095D02*
X113711847Y-124630952D01*
X113711847Y-124630952D02*
X113664228Y-124726190D01*
X113664228Y-124726190D02*
X113616609Y-124773809D01*
X113616609Y-124773809D02*
X113521371Y-124821428D01*
X113521371Y-124821428D02*
X113235657Y-124821428D01*
X113235657Y-124821428D02*
X113140419Y-124773809D01*
X113140419Y-124773809D02*
X113092800Y-124726190D01*
X113092800Y-124726190D02*
X113045180Y-124630952D01*
X113045180Y-124630952D02*
X113045180Y-124488095D01*
X113045180Y-126011905D02*
X114045180Y-126011905D01*
X113711847Y-126488095D02*
X113045180Y-126488095D01*
X113616609Y-126488095D02*
X113664228Y-126535714D01*
X113664228Y-126535714D02*
X113711847Y-126630952D01*
X113711847Y-126630952D02*
X113711847Y-126773809D01*
X113711847Y-126773809D02*
X113664228Y-126869047D01*
X113664228Y-126869047D02*
X113568990Y-126916666D01*
X113568990Y-126916666D02*
X113045180Y-126916666D01*
X113711847Y-127392857D02*
X112711847Y-127392857D01*
X113664228Y-127392857D02*
X113711847Y-127488095D01*
X113711847Y-127488095D02*
X113711847Y-127678571D01*
X113711847Y-127678571D02*
X113664228Y-127773809D01*
X113664228Y-127773809D02*
X113616609Y-127821428D01*
X113616609Y-127821428D02*
X113521371Y-127869047D01*
X113521371Y-127869047D02*
X113235657Y-127869047D01*
X113235657Y-127869047D02*
X113140419Y-127821428D01*
X113140419Y-127821428D02*
X113092800Y-127773809D01*
X113092800Y-127773809D02*
X113045180Y-127678571D01*
X113045180Y-127678571D02*
X113045180Y-127488095D01*
X113045180Y-127488095D02*
X113092800Y-127392857D01*
X113711847Y-128726190D02*
X113045180Y-128726190D01*
X113711847Y-128297619D02*
X113188038Y-128297619D01*
X113188038Y-128297619D02*
X113092800Y-128345238D01*
X113092800Y-128345238D02*
X113045180Y-128440476D01*
X113045180Y-128440476D02*
X113045180Y-128583333D01*
X113045180Y-128583333D02*
X113092800Y-128678571D01*
X113092800Y-128678571D02*
X113140419Y-128726190D01*
X113711847Y-129059524D02*
X113711847Y-129440476D01*
X114045180Y-129202381D02*
X113188038Y-129202381D01*
X113188038Y-129202381D02*
X113092800Y-129250000D01*
X113092800Y-129250000D02*
X113045180Y-129345238D01*
X113045180Y-129345238D02*
X113045180Y-129440476D01*
X136627692Y-71329771D02*
X136427692Y-71044057D01*
X136284835Y-71329771D02*
X136284835Y-70729771D01*
X136284835Y-70729771D02*
X136513406Y-70729771D01*
X136513406Y-70729771D02*
X136570549Y-70758342D01*
X136570549Y-70758342D02*
X136599120Y-70786914D01*
X136599120Y-70786914D02*
X136627692Y-70844057D01*
X136627692Y-70844057D02*
X136627692Y-70929771D01*
X136627692Y-70929771D02*
X136599120Y-70986914D01*
X136599120Y-70986914D02*
X136570549Y-71015485D01*
X136570549Y-71015485D02*
X136513406Y-71044057D01*
X136513406Y-71044057D02*
X136284835Y-71044057D01*
X137199120Y-71329771D02*
X136856263Y-71329771D01*
X137027692Y-71329771D02*
X137027692Y-70729771D01*
X137027692Y-70729771D02*
X136970549Y-70815485D01*
X136970549Y-70815485D02*
X136913406Y-70872628D01*
X136913406Y-70872628D02*
X136856263Y-70901200D01*
X137541978Y-70986914D02*
X137484835Y-70958342D01*
X137484835Y-70958342D02*
X137456264Y-70929771D01*
X137456264Y-70929771D02*
X137427692Y-70872628D01*
X137427692Y-70872628D02*
X137427692Y-70844057D01*
X137427692Y-70844057D02*
X137456264Y-70786914D01*
X137456264Y-70786914D02*
X137484835Y-70758342D01*
X137484835Y-70758342D02*
X137541978Y-70729771D01*
X137541978Y-70729771D02*
X137656264Y-70729771D01*
X137656264Y-70729771D02*
X137713407Y-70758342D01*
X137713407Y-70758342D02*
X137741978Y-70786914D01*
X137741978Y-70786914D02*
X137770549Y-70844057D01*
X137770549Y-70844057D02*
X137770549Y-70872628D01*
X137770549Y-70872628D02*
X137741978Y-70929771D01*
X137741978Y-70929771D02*
X137713407Y-70958342D01*
X137713407Y-70958342D02*
X137656264Y-70986914D01*
X137656264Y-70986914D02*
X137541978Y-70986914D01*
X137541978Y-70986914D02*
X137484835Y-71015485D01*
X137484835Y-71015485D02*
X137456264Y-71044057D01*
X137456264Y-71044057D02*
X137427692Y-71101200D01*
X137427692Y-71101200D02*
X137427692Y-71215485D01*
X137427692Y-71215485D02*
X137456264Y-71272628D01*
X137456264Y-71272628D02*
X137484835Y-71301200D01*
X137484835Y-71301200D02*
X137541978Y-71329771D01*
X137541978Y-71329771D02*
X137656264Y-71329771D01*
X137656264Y-71329771D02*
X137713407Y-71301200D01*
X137713407Y-71301200D02*
X137741978Y-71272628D01*
X137741978Y-71272628D02*
X137770549Y-71215485D01*
X137770549Y-71215485D02*
X137770549Y-71101200D01*
X137770549Y-71101200D02*
X137741978Y-71044057D01*
X137741978Y-71044057D02*
X137713407Y-71015485D01*
X137713407Y-71015485D02*
X137656264Y-70986914D01*
X147189285Y-47687628D02*
X147160713Y-47716200D01*
X147160713Y-47716200D02*
X147074999Y-47744771D01*
X147074999Y-47744771D02*
X147017856Y-47744771D01*
X147017856Y-47744771D02*
X146932142Y-47716200D01*
X146932142Y-47716200D02*
X146874999Y-47659057D01*
X146874999Y-47659057D02*
X146846428Y-47601914D01*
X146846428Y-47601914D02*
X146817856Y-47487628D01*
X146817856Y-47487628D02*
X146817856Y-47401914D01*
X146817856Y-47401914D02*
X146846428Y-47287628D01*
X146846428Y-47287628D02*
X146874999Y-47230485D01*
X146874999Y-47230485D02*
X146932142Y-47173342D01*
X146932142Y-47173342D02*
X147017856Y-47144771D01*
X147017856Y-47144771D02*
X147074999Y-47144771D01*
X147074999Y-47144771D02*
X147160713Y-47173342D01*
X147160713Y-47173342D02*
X147189285Y-47201914D01*
X147417856Y-47201914D02*
X147446428Y-47173342D01*
X147446428Y-47173342D02*
X147503571Y-47144771D01*
X147503571Y-47144771D02*
X147646428Y-47144771D01*
X147646428Y-47144771D02*
X147703571Y-47173342D01*
X147703571Y-47173342D02*
X147732142Y-47201914D01*
X147732142Y-47201914D02*
X147760713Y-47259057D01*
X147760713Y-47259057D02*
X147760713Y-47316200D01*
X147760713Y-47316200D02*
X147732142Y-47401914D01*
X147732142Y-47401914D02*
X147389285Y-47744771D01*
X147389285Y-47744771D02*
X147760713Y-47744771D01*
X148103571Y-47401914D02*
X148046428Y-47373342D01*
X148046428Y-47373342D02*
X148017857Y-47344771D01*
X148017857Y-47344771D02*
X147989285Y-47287628D01*
X147989285Y-47287628D02*
X147989285Y-47259057D01*
X147989285Y-47259057D02*
X148017857Y-47201914D01*
X148017857Y-47201914D02*
X148046428Y-47173342D01*
X148046428Y-47173342D02*
X148103571Y-47144771D01*
X148103571Y-47144771D02*
X148217857Y-47144771D01*
X148217857Y-47144771D02*
X148275000Y-47173342D01*
X148275000Y-47173342D02*
X148303571Y-47201914D01*
X148303571Y-47201914D02*
X148332142Y-47259057D01*
X148332142Y-47259057D02*
X148332142Y-47287628D01*
X148332142Y-47287628D02*
X148303571Y-47344771D01*
X148303571Y-47344771D02*
X148275000Y-47373342D01*
X148275000Y-47373342D02*
X148217857Y-47401914D01*
X148217857Y-47401914D02*
X148103571Y-47401914D01*
X148103571Y-47401914D02*
X148046428Y-47430485D01*
X148046428Y-47430485D02*
X148017857Y-47459057D01*
X148017857Y-47459057D02*
X147989285Y-47516200D01*
X147989285Y-47516200D02*
X147989285Y-47630485D01*
X147989285Y-47630485D02*
X148017857Y-47687628D01*
X148017857Y-47687628D02*
X148046428Y-47716200D01*
X148046428Y-47716200D02*
X148103571Y-47744771D01*
X148103571Y-47744771D02*
X148217857Y-47744771D01*
X148217857Y-47744771D02*
X148275000Y-47716200D01*
X148275000Y-47716200D02*
X148303571Y-47687628D01*
X148303571Y-47687628D02*
X148332142Y-47630485D01*
X148332142Y-47630485D02*
X148332142Y-47516200D01*
X148332142Y-47516200D02*
X148303571Y-47459057D01*
X148303571Y-47459057D02*
X148275000Y-47430485D01*
X148275000Y-47430485D02*
X148217857Y-47401914D01*
X136338095Y-54429819D02*
X136338095Y-55239342D01*
X136338095Y-55239342D02*
X136385714Y-55334580D01*
X136385714Y-55334580D02*
X136433333Y-55382200D01*
X136433333Y-55382200D02*
X136528571Y-55429819D01*
X136528571Y-55429819D02*
X136719047Y-55429819D01*
X136719047Y-55429819D02*
X136814285Y-55382200D01*
X136814285Y-55382200D02*
X136861904Y-55334580D01*
X136861904Y-55334580D02*
X136909523Y-55239342D01*
X136909523Y-55239342D02*
X136909523Y-54429819D01*
X137814285Y-54763152D02*
X137814285Y-55429819D01*
X137576190Y-54382200D02*
X137338095Y-55096485D01*
X137338095Y-55096485D02*
X137957142Y-55096485D01*
X133139285Y-62419771D02*
X132939285Y-62134057D01*
X132796428Y-62419771D02*
X132796428Y-61819771D01*
X132796428Y-61819771D02*
X133024999Y-61819771D01*
X133024999Y-61819771D02*
X133082142Y-61848342D01*
X133082142Y-61848342D02*
X133110713Y-61876914D01*
X133110713Y-61876914D02*
X133139285Y-61934057D01*
X133139285Y-61934057D02*
X133139285Y-62019771D01*
X133139285Y-62019771D02*
X133110713Y-62076914D01*
X133110713Y-62076914D02*
X133082142Y-62105485D01*
X133082142Y-62105485D02*
X133024999Y-62134057D01*
X133024999Y-62134057D02*
X132796428Y-62134057D01*
X133367856Y-61876914D02*
X133396428Y-61848342D01*
X133396428Y-61848342D02*
X133453571Y-61819771D01*
X133453571Y-61819771D02*
X133596428Y-61819771D01*
X133596428Y-61819771D02*
X133653571Y-61848342D01*
X133653571Y-61848342D02*
X133682142Y-61876914D01*
X133682142Y-61876914D02*
X133710713Y-61934057D01*
X133710713Y-61934057D02*
X133710713Y-61991200D01*
X133710713Y-61991200D02*
X133682142Y-62076914D01*
X133682142Y-62076914D02*
X133339285Y-62419771D01*
X133339285Y-62419771D02*
X133710713Y-62419771D01*
X134082142Y-61819771D02*
X134139285Y-61819771D01*
X134139285Y-61819771D02*
X134196428Y-61848342D01*
X134196428Y-61848342D02*
X134225000Y-61876914D01*
X134225000Y-61876914D02*
X134253571Y-61934057D01*
X134253571Y-61934057D02*
X134282142Y-62048342D01*
X134282142Y-62048342D02*
X134282142Y-62191200D01*
X134282142Y-62191200D02*
X134253571Y-62305485D01*
X134253571Y-62305485D02*
X134225000Y-62362628D01*
X134225000Y-62362628D02*
X134196428Y-62391200D01*
X134196428Y-62391200D02*
X134139285Y-62419771D01*
X134139285Y-62419771D02*
X134082142Y-62419771D01*
X134082142Y-62419771D02*
X134025000Y-62391200D01*
X134025000Y-62391200D02*
X133996428Y-62362628D01*
X133996428Y-62362628D02*
X133967857Y-62305485D01*
X133967857Y-62305485D02*
X133939285Y-62191200D01*
X133939285Y-62191200D02*
X133939285Y-62048342D01*
X133939285Y-62048342D02*
X133967857Y-61934057D01*
X133967857Y-61934057D02*
X133996428Y-61876914D01*
X133996428Y-61876914D02*
X134025000Y-61848342D01*
X134025000Y-61848342D02*
X134082142Y-61819771D01*
X164764819Y-80483333D02*
X165479104Y-80483333D01*
X165479104Y-80483333D02*
X165621961Y-80530952D01*
X165621961Y-80530952D02*
X165717200Y-80626190D01*
X165717200Y-80626190D02*
X165764819Y-80769047D01*
X165764819Y-80769047D02*
X165764819Y-80864285D01*
X164764819Y-80102380D02*
X164764819Y-79435714D01*
X164764819Y-79435714D02*
X165764819Y-79864285D01*
X165881486Y-101054903D02*
X165681486Y-100769189D01*
X165538629Y-101054903D02*
X165538629Y-100454903D01*
X165538629Y-100454903D02*
X165767200Y-100454903D01*
X165767200Y-100454903D02*
X165824343Y-100483474D01*
X165824343Y-100483474D02*
X165852914Y-100512046D01*
X165852914Y-100512046D02*
X165881486Y-100569189D01*
X165881486Y-100569189D02*
X165881486Y-100654903D01*
X165881486Y-100654903D02*
X165852914Y-100712046D01*
X165852914Y-100712046D02*
X165824343Y-100740617D01*
X165824343Y-100740617D02*
X165767200Y-100769189D01*
X165767200Y-100769189D02*
X165538629Y-100769189D01*
X166452914Y-101054903D02*
X166110057Y-101054903D01*
X166281486Y-101054903D02*
X166281486Y-100454903D01*
X166281486Y-100454903D02*
X166224343Y-100540617D01*
X166224343Y-100540617D02*
X166167200Y-100597760D01*
X166167200Y-100597760D02*
X166110057Y-100626332D01*
X167024343Y-101054903D02*
X166681486Y-101054903D01*
X166852915Y-101054903D02*
X166852915Y-100454903D01*
X166852915Y-100454903D02*
X166795772Y-100540617D01*
X166795772Y-100540617D02*
X166738629Y-100597760D01*
X166738629Y-100597760D02*
X166681486Y-100626332D01*
X122111905Y-111204819D02*
X122111905Y-110204819D01*
X122683333Y-111204819D02*
X122254762Y-110633390D01*
X122683333Y-110204819D02*
X122111905Y-110776247D01*
X123064286Y-110300057D02*
X123111905Y-110252438D01*
X123111905Y-110252438D02*
X123207143Y-110204819D01*
X123207143Y-110204819D02*
X123445238Y-110204819D01*
X123445238Y-110204819D02*
X123540476Y-110252438D01*
X123540476Y-110252438D02*
X123588095Y-110300057D01*
X123588095Y-110300057D02*
X123635714Y-110395295D01*
X123635714Y-110395295D02*
X123635714Y-110490533D01*
X123635714Y-110490533D02*
X123588095Y-110633390D01*
X123588095Y-110633390D02*
X123016667Y-111204819D01*
X123016667Y-111204819D02*
X123635714Y-111204819D01*
X148163416Y-110401360D02*
X148163416Y-111210883D01*
X148163416Y-111210883D02*
X148211035Y-111306121D01*
X148211035Y-111306121D02*
X148258654Y-111353741D01*
X148258654Y-111353741D02*
X148353892Y-111401360D01*
X148353892Y-111401360D02*
X148544368Y-111401360D01*
X148544368Y-111401360D02*
X148639606Y-111353741D01*
X148639606Y-111353741D02*
X148687225Y-111306121D01*
X148687225Y-111306121D02*
X148734844Y-111210883D01*
X148734844Y-111210883D02*
X148734844Y-110401360D01*
X149115797Y-110401360D02*
X149734844Y-110401360D01*
X149734844Y-110401360D02*
X149401511Y-110782312D01*
X149401511Y-110782312D02*
X149544368Y-110782312D01*
X149544368Y-110782312D02*
X149639606Y-110829931D01*
X149639606Y-110829931D02*
X149687225Y-110877550D01*
X149687225Y-110877550D02*
X149734844Y-110972788D01*
X149734844Y-110972788D02*
X149734844Y-111210883D01*
X149734844Y-111210883D02*
X149687225Y-111306121D01*
X149687225Y-111306121D02*
X149639606Y-111353741D01*
X149639606Y-111353741D02*
X149544368Y-111401360D01*
X149544368Y-111401360D02*
X149258654Y-111401360D01*
X149258654Y-111401360D02*
X149163416Y-111353741D01*
X149163416Y-111353741D02*
X149115797Y-111306121D01*
X130925000Y-102149771D02*
X130725000Y-101864057D01*
X130582143Y-102149771D02*
X130582143Y-101549771D01*
X130582143Y-101549771D02*
X130810714Y-101549771D01*
X130810714Y-101549771D02*
X130867857Y-101578342D01*
X130867857Y-101578342D02*
X130896428Y-101606914D01*
X130896428Y-101606914D02*
X130925000Y-101664057D01*
X130925000Y-101664057D02*
X130925000Y-101749771D01*
X130925000Y-101749771D02*
X130896428Y-101806914D01*
X130896428Y-101806914D02*
X130867857Y-101835485D01*
X130867857Y-101835485D02*
X130810714Y-101864057D01*
X130810714Y-101864057D02*
X130582143Y-101864057D01*
X131496428Y-102149771D02*
X131153571Y-102149771D01*
X131325000Y-102149771D02*
X131325000Y-101549771D01*
X131325000Y-101549771D02*
X131267857Y-101635485D01*
X131267857Y-101635485D02*
X131210714Y-101692628D01*
X131210714Y-101692628D02*
X131153571Y-101721200D01*
X140510595Y-105614070D02*
X140510595Y-106423593D01*
X140510595Y-106423593D02*
X140558214Y-106518831D01*
X140558214Y-106518831D02*
X140605833Y-106566451D01*
X140605833Y-106566451D02*
X140701071Y-106614070D01*
X140701071Y-106614070D02*
X140891547Y-106614070D01*
X140891547Y-106614070D02*
X140986785Y-106566451D01*
X140986785Y-106566451D02*
X141034404Y-106518831D01*
X141034404Y-106518831D02*
X141082023Y-106423593D01*
X141082023Y-106423593D02*
X141082023Y-105614070D01*
X141510595Y-105709308D02*
X141558214Y-105661689D01*
X141558214Y-105661689D02*
X141653452Y-105614070D01*
X141653452Y-105614070D02*
X141891547Y-105614070D01*
X141891547Y-105614070D02*
X141986785Y-105661689D01*
X141986785Y-105661689D02*
X142034404Y-105709308D01*
X142034404Y-105709308D02*
X142082023Y-105804546D01*
X142082023Y-105804546D02*
X142082023Y-105899784D01*
X142082023Y-105899784D02*
X142034404Y-106042641D01*
X142034404Y-106042641D02*
X141462976Y-106614070D01*
X141462976Y-106614070D02*
X142082023Y-106614070D01*
X134939285Y-115390520D02*
X134739285Y-115104806D01*
X134596428Y-115390520D02*
X134596428Y-114790520D01*
X134596428Y-114790520D02*
X134824999Y-114790520D01*
X134824999Y-114790520D02*
X134882142Y-114819091D01*
X134882142Y-114819091D02*
X134910713Y-114847663D01*
X134910713Y-114847663D02*
X134939285Y-114904806D01*
X134939285Y-114904806D02*
X134939285Y-114990520D01*
X134939285Y-114990520D02*
X134910713Y-115047663D01*
X134910713Y-115047663D02*
X134882142Y-115076234D01*
X134882142Y-115076234D02*
X134824999Y-115104806D01*
X134824999Y-115104806D02*
X134596428Y-115104806D01*
X135510713Y-115390520D02*
X135167856Y-115390520D01*
X135339285Y-115390520D02*
X135339285Y-114790520D01*
X135339285Y-114790520D02*
X135282142Y-114876234D01*
X135282142Y-114876234D02*
X135224999Y-114933377D01*
X135224999Y-114933377D02*
X135167856Y-114961949D01*
X136025000Y-114990520D02*
X136025000Y-115390520D01*
X135882142Y-114761949D02*
X135739285Y-115190520D01*
X135739285Y-115190520D02*
X136110714Y-115190520D01*
X154833333Y-124612295D02*
X154833333Y-125183723D01*
X154833333Y-125183723D02*
X154795238Y-125298009D01*
X154795238Y-125298009D02*
X154719047Y-125374200D01*
X154719047Y-125374200D02*
X154604762Y-125412295D01*
X154604762Y-125412295D02*
X154528571Y-125412295D01*
X155557143Y-124878961D02*
X155557143Y-125412295D01*
X155366667Y-124574200D02*
X155176190Y-125145628D01*
X155176190Y-125145628D02*
X155671429Y-125145628D01*
X165906486Y-96547760D02*
X165877914Y-96576332D01*
X165877914Y-96576332D02*
X165792200Y-96604903D01*
X165792200Y-96604903D02*
X165735057Y-96604903D01*
X165735057Y-96604903D02*
X165649343Y-96576332D01*
X165649343Y-96576332D02*
X165592200Y-96519189D01*
X165592200Y-96519189D02*
X165563629Y-96462046D01*
X165563629Y-96462046D02*
X165535057Y-96347760D01*
X165535057Y-96347760D02*
X165535057Y-96262046D01*
X165535057Y-96262046D02*
X165563629Y-96147760D01*
X165563629Y-96147760D02*
X165592200Y-96090617D01*
X165592200Y-96090617D02*
X165649343Y-96033474D01*
X165649343Y-96033474D02*
X165735057Y-96004903D01*
X165735057Y-96004903D02*
X165792200Y-96004903D01*
X165792200Y-96004903D02*
X165877914Y-96033474D01*
X165877914Y-96033474D02*
X165906486Y-96062046D01*
X166477914Y-96604903D02*
X166135057Y-96604903D01*
X166306486Y-96604903D02*
X166306486Y-96004903D01*
X166306486Y-96004903D02*
X166249343Y-96090617D01*
X166249343Y-96090617D02*
X166192200Y-96147760D01*
X166192200Y-96147760D02*
X166135057Y-96176332D01*
X166849343Y-96004903D02*
X166906486Y-96004903D01*
X166906486Y-96004903D02*
X166963629Y-96033474D01*
X166963629Y-96033474D02*
X166992201Y-96062046D01*
X166992201Y-96062046D02*
X167020772Y-96119189D01*
X167020772Y-96119189D02*
X167049343Y-96233474D01*
X167049343Y-96233474D02*
X167049343Y-96376332D01*
X167049343Y-96376332D02*
X167020772Y-96490617D01*
X167020772Y-96490617D02*
X166992201Y-96547760D01*
X166992201Y-96547760D02*
X166963629Y-96576332D01*
X166963629Y-96576332D02*
X166906486Y-96604903D01*
X166906486Y-96604903D02*
X166849343Y-96604903D01*
X166849343Y-96604903D02*
X166792201Y-96576332D01*
X166792201Y-96576332D02*
X166763629Y-96547760D01*
X166763629Y-96547760D02*
X166735058Y-96490617D01*
X166735058Y-96490617D02*
X166706486Y-96376332D01*
X166706486Y-96376332D02*
X166706486Y-96233474D01*
X166706486Y-96233474D02*
X166735058Y-96119189D01*
X166735058Y-96119189D02*
X166763629Y-96062046D01*
X166763629Y-96062046D02*
X166792201Y-96033474D01*
X166792201Y-96033474D02*
X166849343Y-96004903D01*
X157339285Y-59922628D02*
X157310713Y-59951200D01*
X157310713Y-59951200D02*
X157224999Y-59979771D01*
X157224999Y-59979771D02*
X157167856Y-59979771D01*
X157167856Y-59979771D02*
X157082142Y-59951200D01*
X157082142Y-59951200D02*
X157024999Y-59894057D01*
X157024999Y-59894057D02*
X156996428Y-59836914D01*
X156996428Y-59836914D02*
X156967856Y-59722628D01*
X156967856Y-59722628D02*
X156967856Y-59636914D01*
X156967856Y-59636914D02*
X156996428Y-59522628D01*
X156996428Y-59522628D02*
X157024999Y-59465485D01*
X157024999Y-59465485D02*
X157082142Y-59408342D01*
X157082142Y-59408342D02*
X157167856Y-59379771D01*
X157167856Y-59379771D02*
X157224999Y-59379771D01*
X157224999Y-59379771D02*
X157310713Y-59408342D01*
X157310713Y-59408342D02*
X157339285Y-59436914D01*
X157910713Y-59979771D02*
X157567856Y-59979771D01*
X157739285Y-59979771D02*
X157739285Y-59379771D01*
X157739285Y-59379771D02*
X157682142Y-59465485D01*
X157682142Y-59465485D02*
X157624999Y-59522628D01*
X157624999Y-59522628D02*
X157567856Y-59551200D01*
X158196428Y-59979771D02*
X158310714Y-59979771D01*
X158310714Y-59979771D02*
X158367857Y-59951200D01*
X158367857Y-59951200D02*
X158396428Y-59922628D01*
X158396428Y-59922628D02*
X158453571Y-59836914D01*
X158453571Y-59836914D02*
X158482142Y-59722628D01*
X158482142Y-59722628D02*
X158482142Y-59494057D01*
X158482142Y-59494057D02*
X158453571Y-59436914D01*
X158453571Y-59436914D02*
X158425000Y-59408342D01*
X158425000Y-59408342D02*
X158367857Y-59379771D01*
X158367857Y-59379771D02*
X158253571Y-59379771D01*
X158253571Y-59379771D02*
X158196428Y-59408342D01*
X158196428Y-59408342D02*
X158167857Y-59436914D01*
X158167857Y-59436914D02*
X158139285Y-59494057D01*
X158139285Y-59494057D02*
X158139285Y-59636914D01*
X158139285Y-59636914D02*
X158167857Y-59694057D01*
X158167857Y-59694057D02*
X158196428Y-59722628D01*
X158196428Y-59722628D02*
X158253571Y-59751200D01*
X158253571Y-59751200D02*
X158367857Y-59751200D01*
X158367857Y-59751200D02*
X158425000Y-59722628D01*
X158425000Y-59722628D02*
X158453571Y-59694057D01*
X158453571Y-59694057D02*
X158482142Y-59636914D01*
X122011905Y-101904819D02*
X122011905Y-100904819D01*
X122583333Y-101904819D02*
X122154762Y-101333390D01*
X122583333Y-100904819D02*
X122011905Y-101476247D01*
X123535714Y-101904819D02*
X122964286Y-101904819D01*
X123250000Y-101904819D02*
X123250000Y-100904819D01*
X123250000Y-100904819D02*
X123154762Y-101047676D01*
X123154762Y-101047676D02*
X123059524Y-101142914D01*
X123059524Y-101142914D02*
X122964286Y-101190533D01*
X157439285Y-62047628D02*
X157410713Y-62076200D01*
X157410713Y-62076200D02*
X157324999Y-62104771D01*
X157324999Y-62104771D02*
X157267856Y-62104771D01*
X157267856Y-62104771D02*
X157182142Y-62076200D01*
X157182142Y-62076200D02*
X157124999Y-62019057D01*
X157124999Y-62019057D02*
X157096428Y-61961914D01*
X157096428Y-61961914D02*
X157067856Y-61847628D01*
X157067856Y-61847628D02*
X157067856Y-61761914D01*
X157067856Y-61761914D02*
X157096428Y-61647628D01*
X157096428Y-61647628D02*
X157124999Y-61590485D01*
X157124999Y-61590485D02*
X157182142Y-61533342D01*
X157182142Y-61533342D02*
X157267856Y-61504771D01*
X157267856Y-61504771D02*
X157324999Y-61504771D01*
X157324999Y-61504771D02*
X157410713Y-61533342D01*
X157410713Y-61533342D02*
X157439285Y-61561914D01*
X158010713Y-62104771D02*
X157667856Y-62104771D01*
X157839285Y-62104771D02*
X157839285Y-61504771D01*
X157839285Y-61504771D02*
X157782142Y-61590485D01*
X157782142Y-61590485D02*
X157724999Y-61647628D01*
X157724999Y-61647628D02*
X157667856Y-61676200D01*
X158353571Y-61761914D02*
X158296428Y-61733342D01*
X158296428Y-61733342D02*
X158267857Y-61704771D01*
X158267857Y-61704771D02*
X158239285Y-61647628D01*
X158239285Y-61647628D02*
X158239285Y-61619057D01*
X158239285Y-61619057D02*
X158267857Y-61561914D01*
X158267857Y-61561914D02*
X158296428Y-61533342D01*
X158296428Y-61533342D02*
X158353571Y-61504771D01*
X158353571Y-61504771D02*
X158467857Y-61504771D01*
X158467857Y-61504771D02*
X158525000Y-61533342D01*
X158525000Y-61533342D02*
X158553571Y-61561914D01*
X158553571Y-61561914D02*
X158582142Y-61619057D01*
X158582142Y-61619057D02*
X158582142Y-61647628D01*
X158582142Y-61647628D02*
X158553571Y-61704771D01*
X158553571Y-61704771D02*
X158525000Y-61733342D01*
X158525000Y-61733342D02*
X158467857Y-61761914D01*
X158467857Y-61761914D02*
X158353571Y-61761914D01*
X158353571Y-61761914D02*
X158296428Y-61790485D01*
X158296428Y-61790485D02*
X158267857Y-61819057D01*
X158267857Y-61819057D02*
X158239285Y-61876200D01*
X158239285Y-61876200D02*
X158239285Y-61990485D01*
X158239285Y-61990485D02*
X158267857Y-62047628D01*
X158267857Y-62047628D02*
X158296428Y-62076200D01*
X158296428Y-62076200D02*
X158353571Y-62104771D01*
X158353571Y-62104771D02*
X158467857Y-62104771D01*
X158467857Y-62104771D02*
X158525000Y-62076200D01*
X158525000Y-62076200D02*
X158553571Y-62047628D01*
X158553571Y-62047628D02*
X158582142Y-61990485D01*
X158582142Y-61990485D02*
X158582142Y-61876200D01*
X158582142Y-61876200D02*
X158553571Y-61819057D01*
X158553571Y-61819057D02*
X158525000Y-61790485D01*
X158525000Y-61790485D02*
X158467857Y-61761914D01*
X146800000Y-45912628D02*
X146771428Y-45941200D01*
X146771428Y-45941200D02*
X146685714Y-45969771D01*
X146685714Y-45969771D02*
X146628571Y-45969771D01*
X146628571Y-45969771D02*
X146542857Y-45941200D01*
X146542857Y-45941200D02*
X146485714Y-45884057D01*
X146485714Y-45884057D02*
X146457143Y-45826914D01*
X146457143Y-45826914D02*
X146428571Y-45712628D01*
X146428571Y-45712628D02*
X146428571Y-45626914D01*
X146428571Y-45626914D02*
X146457143Y-45512628D01*
X146457143Y-45512628D02*
X146485714Y-45455485D01*
X146485714Y-45455485D02*
X146542857Y-45398342D01*
X146542857Y-45398342D02*
X146628571Y-45369771D01*
X146628571Y-45369771D02*
X146685714Y-45369771D01*
X146685714Y-45369771D02*
X146771428Y-45398342D01*
X146771428Y-45398342D02*
X146800000Y-45426914D01*
X147371428Y-45969771D02*
X147028571Y-45969771D01*
X147200000Y-45969771D02*
X147200000Y-45369771D01*
X147200000Y-45369771D02*
X147142857Y-45455485D01*
X147142857Y-45455485D02*
X147085714Y-45512628D01*
X147085714Y-45512628D02*
X147028571Y-45541200D01*
X129064285Y-71294771D02*
X128864285Y-71009057D01*
X128721428Y-71294771D02*
X128721428Y-70694771D01*
X128721428Y-70694771D02*
X128949999Y-70694771D01*
X128949999Y-70694771D02*
X129007142Y-70723342D01*
X129007142Y-70723342D02*
X129035713Y-70751914D01*
X129035713Y-70751914D02*
X129064285Y-70809057D01*
X129064285Y-70809057D02*
X129064285Y-70894771D01*
X129064285Y-70894771D02*
X129035713Y-70951914D01*
X129035713Y-70951914D02*
X129007142Y-70980485D01*
X129007142Y-70980485D02*
X128949999Y-71009057D01*
X128949999Y-71009057D02*
X128721428Y-71009057D01*
X129292856Y-70751914D02*
X129321428Y-70723342D01*
X129321428Y-70723342D02*
X129378571Y-70694771D01*
X129378571Y-70694771D02*
X129521428Y-70694771D01*
X129521428Y-70694771D02*
X129578571Y-70723342D01*
X129578571Y-70723342D02*
X129607142Y-70751914D01*
X129607142Y-70751914D02*
X129635713Y-70809057D01*
X129635713Y-70809057D02*
X129635713Y-70866200D01*
X129635713Y-70866200D02*
X129607142Y-70951914D01*
X129607142Y-70951914D02*
X129264285Y-71294771D01*
X129264285Y-71294771D02*
X129635713Y-71294771D01*
X129835714Y-70694771D02*
X130235714Y-70694771D01*
X130235714Y-70694771D02*
X129978571Y-71294771D01*
X157217119Y-104739097D02*
X157017119Y-104453383D01*
X156874262Y-104739097D02*
X156874262Y-104139097D01*
X156874262Y-104139097D02*
X157102833Y-104139097D01*
X157102833Y-104139097D02*
X157159976Y-104167668D01*
X157159976Y-104167668D02*
X157188547Y-104196240D01*
X157188547Y-104196240D02*
X157217119Y-104253383D01*
X157217119Y-104253383D02*
X157217119Y-104339097D01*
X157217119Y-104339097D02*
X157188547Y-104396240D01*
X157188547Y-104396240D02*
X157159976Y-104424811D01*
X157159976Y-104424811D02*
X157102833Y-104453383D01*
X157102833Y-104453383D02*
X156874262Y-104453383D01*
X157445690Y-104196240D02*
X157474262Y-104167668D01*
X157474262Y-104167668D02*
X157531405Y-104139097D01*
X157531405Y-104139097D02*
X157674262Y-104139097D01*
X157674262Y-104139097D02*
X157731405Y-104167668D01*
X157731405Y-104167668D02*
X157759976Y-104196240D01*
X157759976Y-104196240D02*
X157788547Y-104253383D01*
X157788547Y-104253383D02*
X157788547Y-104310526D01*
X157788547Y-104310526D02*
X157759976Y-104396240D01*
X157759976Y-104396240D02*
X157417119Y-104739097D01*
X157417119Y-104739097D02*
X157788547Y-104739097D01*
X157988548Y-104139097D02*
X158359976Y-104139097D01*
X158359976Y-104139097D02*
X158159976Y-104367668D01*
X158159976Y-104367668D02*
X158245691Y-104367668D01*
X158245691Y-104367668D02*
X158302834Y-104396240D01*
X158302834Y-104396240D02*
X158331405Y-104424811D01*
X158331405Y-104424811D02*
X158359976Y-104481954D01*
X158359976Y-104481954D02*
X158359976Y-104624811D01*
X158359976Y-104624811D02*
X158331405Y-104681954D01*
X158331405Y-104681954D02*
X158302834Y-104710526D01*
X158302834Y-104710526D02*
X158245691Y-104739097D01*
X158245691Y-104739097D02*
X158074262Y-104739097D01*
X158074262Y-104739097D02*
X158017119Y-104710526D01*
X158017119Y-104710526D02*
X157988548Y-104681954D01*
X121564285Y-62187628D02*
X121535713Y-62216200D01*
X121535713Y-62216200D02*
X121449999Y-62244771D01*
X121449999Y-62244771D02*
X121392856Y-62244771D01*
X121392856Y-62244771D02*
X121307142Y-62216200D01*
X121307142Y-62216200D02*
X121249999Y-62159057D01*
X121249999Y-62159057D02*
X121221428Y-62101914D01*
X121221428Y-62101914D02*
X121192856Y-61987628D01*
X121192856Y-61987628D02*
X121192856Y-61901914D01*
X121192856Y-61901914D02*
X121221428Y-61787628D01*
X121221428Y-61787628D02*
X121249999Y-61730485D01*
X121249999Y-61730485D02*
X121307142Y-61673342D01*
X121307142Y-61673342D02*
X121392856Y-61644771D01*
X121392856Y-61644771D02*
X121449999Y-61644771D01*
X121449999Y-61644771D02*
X121535713Y-61673342D01*
X121535713Y-61673342D02*
X121564285Y-61701914D01*
X121792856Y-61701914D02*
X121821428Y-61673342D01*
X121821428Y-61673342D02*
X121878571Y-61644771D01*
X121878571Y-61644771D02*
X122021428Y-61644771D01*
X122021428Y-61644771D02*
X122078571Y-61673342D01*
X122078571Y-61673342D02*
X122107142Y-61701914D01*
X122107142Y-61701914D02*
X122135713Y-61759057D01*
X122135713Y-61759057D02*
X122135713Y-61816200D01*
X122135713Y-61816200D02*
X122107142Y-61901914D01*
X122107142Y-61901914D02*
X121764285Y-62244771D01*
X121764285Y-62244771D02*
X122135713Y-62244771D01*
X122507142Y-61644771D02*
X122564285Y-61644771D01*
X122564285Y-61644771D02*
X122621428Y-61673342D01*
X122621428Y-61673342D02*
X122650000Y-61701914D01*
X122650000Y-61701914D02*
X122678571Y-61759057D01*
X122678571Y-61759057D02*
X122707142Y-61873342D01*
X122707142Y-61873342D02*
X122707142Y-62016200D01*
X122707142Y-62016200D02*
X122678571Y-62130485D01*
X122678571Y-62130485D02*
X122650000Y-62187628D01*
X122650000Y-62187628D02*
X122621428Y-62216200D01*
X122621428Y-62216200D02*
X122564285Y-62244771D01*
X122564285Y-62244771D02*
X122507142Y-62244771D01*
X122507142Y-62244771D02*
X122450000Y-62216200D01*
X122450000Y-62216200D02*
X122421428Y-62187628D01*
X122421428Y-62187628D02*
X122392857Y-62130485D01*
X122392857Y-62130485D02*
X122364285Y-62016200D01*
X122364285Y-62016200D02*
X122364285Y-61873342D01*
X122364285Y-61873342D02*
X122392857Y-61759057D01*
X122392857Y-61759057D02*
X122421428Y-61701914D01*
X122421428Y-61701914D02*
X122450000Y-61673342D01*
X122450000Y-61673342D02*
X122507142Y-61644771D01*
X113657143Y-114269771D02*
X113657143Y-113669771D01*
X113657143Y-113669771D02*
X113800000Y-113669771D01*
X113800000Y-113669771D02*
X113885714Y-113698342D01*
X113885714Y-113698342D02*
X113942857Y-113755485D01*
X113942857Y-113755485D02*
X113971428Y-113812628D01*
X113971428Y-113812628D02*
X114000000Y-113926914D01*
X114000000Y-113926914D02*
X114000000Y-114012628D01*
X114000000Y-114012628D02*
X113971428Y-114126914D01*
X113971428Y-114126914D02*
X113942857Y-114184057D01*
X113942857Y-114184057D02*
X113885714Y-114241200D01*
X113885714Y-114241200D02*
X113800000Y-114269771D01*
X113800000Y-114269771D02*
X113657143Y-114269771D01*
X114200000Y-113669771D02*
X114571428Y-113669771D01*
X114571428Y-113669771D02*
X114371428Y-113898342D01*
X114371428Y-113898342D02*
X114457143Y-113898342D01*
X114457143Y-113898342D02*
X114514286Y-113926914D01*
X114514286Y-113926914D02*
X114542857Y-113955485D01*
X114542857Y-113955485D02*
X114571428Y-114012628D01*
X114571428Y-114012628D02*
X114571428Y-114155485D01*
X114571428Y-114155485D02*
X114542857Y-114212628D01*
X114542857Y-114212628D02*
X114514286Y-114241200D01*
X114514286Y-114241200D02*
X114457143Y-114269771D01*
X114457143Y-114269771D02*
X114285714Y-114269771D01*
X114285714Y-114269771D02*
X114228571Y-114241200D01*
X114228571Y-114241200D02*
X114200000Y-114212628D01*
X130650000Y-110574771D02*
X130450000Y-110289057D01*
X130307143Y-110574771D02*
X130307143Y-109974771D01*
X130307143Y-109974771D02*
X130535714Y-109974771D01*
X130535714Y-109974771D02*
X130592857Y-110003342D01*
X130592857Y-110003342D02*
X130621428Y-110031914D01*
X130621428Y-110031914D02*
X130650000Y-110089057D01*
X130650000Y-110089057D02*
X130650000Y-110174771D01*
X130650000Y-110174771D02*
X130621428Y-110231914D01*
X130621428Y-110231914D02*
X130592857Y-110260485D01*
X130592857Y-110260485D02*
X130535714Y-110289057D01*
X130535714Y-110289057D02*
X130307143Y-110289057D01*
X130878571Y-110031914D02*
X130907143Y-110003342D01*
X130907143Y-110003342D02*
X130964286Y-109974771D01*
X130964286Y-109974771D02*
X131107143Y-109974771D01*
X131107143Y-109974771D02*
X131164286Y-110003342D01*
X131164286Y-110003342D02*
X131192857Y-110031914D01*
X131192857Y-110031914D02*
X131221428Y-110089057D01*
X131221428Y-110089057D02*
X131221428Y-110146200D01*
X131221428Y-110146200D02*
X131192857Y-110231914D01*
X131192857Y-110231914D02*
X130850000Y-110574771D01*
X130850000Y-110574771D02*
X131221428Y-110574771D01*
X164584819Y-65223333D02*
X165299104Y-65223333D01*
X165299104Y-65223333D02*
X165441961Y-65270952D01*
X165441961Y-65270952D02*
X165537200Y-65366190D01*
X165537200Y-65366190D02*
X165584819Y-65509047D01*
X165584819Y-65509047D02*
X165584819Y-65604285D01*
X164584819Y-64318571D02*
X164584819Y-64509047D01*
X164584819Y-64509047D02*
X164632438Y-64604285D01*
X164632438Y-64604285D02*
X164680057Y-64651904D01*
X164680057Y-64651904D02*
X164822914Y-64747142D01*
X164822914Y-64747142D02*
X165013390Y-64794761D01*
X165013390Y-64794761D02*
X165394342Y-64794761D01*
X165394342Y-64794761D02*
X165489580Y-64747142D01*
X165489580Y-64747142D02*
X165537200Y-64699523D01*
X165537200Y-64699523D02*
X165584819Y-64604285D01*
X165584819Y-64604285D02*
X165584819Y-64413809D01*
X165584819Y-64413809D02*
X165537200Y-64318571D01*
X165537200Y-64318571D02*
X165489580Y-64270952D01*
X165489580Y-64270952D02*
X165394342Y-64223333D01*
X165394342Y-64223333D02*
X165156247Y-64223333D01*
X165156247Y-64223333D02*
X165061009Y-64270952D01*
X165061009Y-64270952D02*
X165013390Y-64318571D01*
X165013390Y-64318571D02*
X164965771Y-64413809D01*
X164965771Y-64413809D02*
X164965771Y-64604285D01*
X164965771Y-64604285D02*
X165013390Y-64699523D01*
X165013390Y-64699523D02*
X165061009Y-64747142D01*
X165061009Y-64747142D02*
X165156247Y-64794761D01*
X157566700Y-94157287D02*
X157366700Y-93871573D01*
X157223843Y-94157287D02*
X157223843Y-93557287D01*
X157223843Y-93557287D02*
X157452414Y-93557287D01*
X157452414Y-93557287D02*
X157509557Y-93585858D01*
X157509557Y-93585858D02*
X157538128Y-93614430D01*
X157538128Y-93614430D02*
X157566700Y-93671573D01*
X157566700Y-93671573D02*
X157566700Y-93757287D01*
X157566700Y-93757287D02*
X157538128Y-93814430D01*
X157538128Y-93814430D02*
X157509557Y-93843001D01*
X157509557Y-93843001D02*
X157452414Y-93871573D01*
X157452414Y-93871573D02*
X157223843Y-93871573D01*
X157766700Y-93557287D02*
X158166700Y-93557287D01*
X158166700Y-93557287D02*
X157909557Y-94157287D01*
X132900000Y-110517628D02*
X132871428Y-110546200D01*
X132871428Y-110546200D02*
X132785714Y-110574771D01*
X132785714Y-110574771D02*
X132728571Y-110574771D01*
X132728571Y-110574771D02*
X132642857Y-110546200D01*
X132642857Y-110546200D02*
X132585714Y-110489057D01*
X132585714Y-110489057D02*
X132557143Y-110431914D01*
X132557143Y-110431914D02*
X132528571Y-110317628D01*
X132528571Y-110317628D02*
X132528571Y-110231914D01*
X132528571Y-110231914D02*
X132557143Y-110117628D01*
X132557143Y-110117628D02*
X132585714Y-110060485D01*
X132585714Y-110060485D02*
X132642857Y-110003342D01*
X132642857Y-110003342D02*
X132728571Y-109974771D01*
X132728571Y-109974771D02*
X132785714Y-109974771D01*
X132785714Y-109974771D02*
X132871428Y-110003342D01*
X132871428Y-110003342D02*
X132900000Y-110031914D01*
X133242857Y-110231914D02*
X133185714Y-110203342D01*
X133185714Y-110203342D02*
X133157143Y-110174771D01*
X133157143Y-110174771D02*
X133128571Y-110117628D01*
X133128571Y-110117628D02*
X133128571Y-110089057D01*
X133128571Y-110089057D02*
X133157143Y-110031914D01*
X133157143Y-110031914D02*
X133185714Y-110003342D01*
X133185714Y-110003342D02*
X133242857Y-109974771D01*
X133242857Y-109974771D02*
X133357143Y-109974771D01*
X133357143Y-109974771D02*
X133414286Y-110003342D01*
X133414286Y-110003342D02*
X133442857Y-110031914D01*
X133442857Y-110031914D02*
X133471428Y-110089057D01*
X133471428Y-110089057D02*
X133471428Y-110117628D01*
X133471428Y-110117628D02*
X133442857Y-110174771D01*
X133442857Y-110174771D02*
X133414286Y-110203342D01*
X133414286Y-110203342D02*
X133357143Y-110231914D01*
X133357143Y-110231914D02*
X133242857Y-110231914D01*
X133242857Y-110231914D02*
X133185714Y-110260485D01*
X133185714Y-110260485D02*
X133157143Y-110289057D01*
X133157143Y-110289057D02*
X133128571Y-110346200D01*
X133128571Y-110346200D02*
X133128571Y-110460485D01*
X133128571Y-110460485D02*
X133157143Y-110517628D01*
X133157143Y-110517628D02*
X133185714Y-110546200D01*
X133185714Y-110546200D02*
X133242857Y-110574771D01*
X133242857Y-110574771D02*
X133357143Y-110574771D01*
X133357143Y-110574771D02*
X133414286Y-110546200D01*
X133414286Y-110546200D02*
X133442857Y-110517628D01*
X133442857Y-110517628D02*
X133471428Y-110460485D01*
X133471428Y-110460485D02*
X133471428Y-110346200D01*
X133471428Y-110346200D02*
X133442857Y-110289057D01*
X133442857Y-110289057D02*
X133414286Y-110260485D01*
X133414286Y-110260485D02*
X133357143Y-110231914D01*
X154525749Y-104508937D02*
X154497177Y-104537509D01*
X154497177Y-104537509D02*
X154411463Y-104566080D01*
X154411463Y-104566080D02*
X154354320Y-104566080D01*
X154354320Y-104566080D02*
X154268606Y-104537509D01*
X154268606Y-104537509D02*
X154211463Y-104480366D01*
X154211463Y-104480366D02*
X154182892Y-104423223D01*
X154182892Y-104423223D02*
X154154320Y-104308937D01*
X154154320Y-104308937D02*
X154154320Y-104223223D01*
X154154320Y-104223223D02*
X154182892Y-104108937D01*
X154182892Y-104108937D02*
X154211463Y-104051794D01*
X154211463Y-104051794D02*
X154268606Y-103994651D01*
X154268606Y-103994651D02*
X154354320Y-103966080D01*
X154354320Y-103966080D02*
X154411463Y-103966080D01*
X154411463Y-103966080D02*
X154497177Y-103994651D01*
X154497177Y-103994651D02*
X154525749Y-104023223D01*
X155097177Y-104566080D02*
X154754320Y-104566080D01*
X154925749Y-104566080D02*
X154925749Y-103966080D01*
X154925749Y-103966080D02*
X154868606Y-104051794D01*
X154868606Y-104051794D02*
X154811463Y-104108937D01*
X154811463Y-104108937D02*
X154754320Y-104137509D01*
X155611464Y-104166080D02*
X155611464Y-104566080D01*
X155468606Y-103937509D02*
X155325749Y-104366080D01*
X155325749Y-104366080D02*
X155697178Y-104366080D01*
X154880776Y-102626265D02*
X154852204Y-102654837D01*
X154852204Y-102654837D02*
X154766490Y-102683408D01*
X154766490Y-102683408D02*
X154709347Y-102683408D01*
X154709347Y-102683408D02*
X154623633Y-102654837D01*
X154623633Y-102654837D02*
X154566490Y-102597694D01*
X154566490Y-102597694D02*
X154537919Y-102540551D01*
X154537919Y-102540551D02*
X154509347Y-102426265D01*
X154509347Y-102426265D02*
X154509347Y-102340551D01*
X154509347Y-102340551D02*
X154537919Y-102226265D01*
X154537919Y-102226265D02*
X154566490Y-102169122D01*
X154566490Y-102169122D02*
X154623633Y-102111979D01*
X154623633Y-102111979D02*
X154709347Y-102083408D01*
X154709347Y-102083408D02*
X154766490Y-102083408D01*
X154766490Y-102083408D02*
X154852204Y-102111979D01*
X154852204Y-102111979D02*
X154880776Y-102140551D01*
X155452204Y-102683408D02*
X155109347Y-102683408D01*
X155280776Y-102683408D02*
X155280776Y-102083408D01*
X155280776Y-102083408D02*
X155223633Y-102169122D01*
X155223633Y-102169122D02*
X155166490Y-102226265D01*
X155166490Y-102226265D02*
X155109347Y-102254837D01*
X155652205Y-102083408D02*
X156023633Y-102083408D01*
X156023633Y-102083408D02*
X155823633Y-102311979D01*
X155823633Y-102311979D02*
X155909348Y-102311979D01*
X155909348Y-102311979D02*
X155966491Y-102340551D01*
X155966491Y-102340551D02*
X155995062Y-102369122D01*
X155995062Y-102369122D02*
X156023633Y-102426265D01*
X156023633Y-102426265D02*
X156023633Y-102569122D01*
X156023633Y-102569122D02*
X155995062Y-102626265D01*
X155995062Y-102626265D02*
X155966491Y-102654837D01*
X155966491Y-102654837D02*
X155909348Y-102683408D01*
X155909348Y-102683408D02*
X155737919Y-102683408D01*
X155737919Y-102683408D02*
X155680776Y-102654837D01*
X155680776Y-102654837D02*
X155652205Y-102626265D01*
X150892400Y-106623056D02*
X150692400Y-106337342D01*
X150549543Y-106623056D02*
X150549543Y-106023056D01*
X150549543Y-106023056D02*
X150778114Y-106023056D01*
X150778114Y-106023056D02*
X150835257Y-106051627D01*
X150835257Y-106051627D02*
X150863828Y-106080199D01*
X150863828Y-106080199D02*
X150892400Y-106137342D01*
X150892400Y-106137342D02*
X150892400Y-106223056D01*
X150892400Y-106223056D02*
X150863828Y-106280199D01*
X150863828Y-106280199D02*
X150835257Y-106308770D01*
X150835257Y-106308770D02*
X150778114Y-106337342D01*
X150778114Y-106337342D02*
X150549543Y-106337342D01*
X151463828Y-106623056D02*
X151120971Y-106623056D01*
X151292400Y-106623056D02*
X151292400Y-106023056D01*
X151292400Y-106023056D02*
X151235257Y-106108770D01*
X151235257Y-106108770D02*
X151178114Y-106165913D01*
X151178114Y-106165913D02*
X151120971Y-106194485D01*
X151663829Y-106023056D02*
X152035257Y-106023056D01*
X152035257Y-106023056D02*
X151835257Y-106251627D01*
X151835257Y-106251627D02*
X151920972Y-106251627D01*
X151920972Y-106251627D02*
X151978115Y-106280199D01*
X151978115Y-106280199D02*
X152006686Y-106308770D01*
X152006686Y-106308770D02*
X152035257Y-106365913D01*
X152035257Y-106365913D02*
X152035257Y-106508770D01*
X152035257Y-106508770D02*
X152006686Y-106565913D01*
X152006686Y-106565913D02*
X151978115Y-106594485D01*
X151978115Y-106594485D02*
X151920972Y-106623056D01*
X151920972Y-106623056D02*
X151749543Y-106623056D01*
X151749543Y-106623056D02*
X151692400Y-106594485D01*
X151692400Y-106594485D02*
X151663829Y-106565913D01*
X153883957Y-110509635D02*
X153883957Y-111319158D01*
X153883957Y-111319158D02*
X153931576Y-111414396D01*
X153931576Y-111414396D02*
X153979195Y-111462016D01*
X153979195Y-111462016D02*
X154074433Y-111509635D01*
X154074433Y-111509635D02*
X154264909Y-111509635D01*
X154264909Y-111509635D02*
X154360147Y-111462016D01*
X154360147Y-111462016D02*
X154407766Y-111414396D01*
X154407766Y-111414396D02*
X154455385Y-111319158D01*
X154455385Y-111319158D02*
X154455385Y-110509635D01*
X155407766Y-110509635D02*
X154931576Y-110509635D01*
X154931576Y-110509635D02*
X154883957Y-110985825D01*
X154883957Y-110985825D02*
X154931576Y-110938206D01*
X154931576Y-110938206D02*
X155026814Y-110890587D01*
X155026814Y-110890587D02*
X155264909Y-110890587D01*
X155264909Y-110890587D02*
X155360147Y-110938206D01*
X155360147Y-110938206D02*
X155407766Y-110985825D01*
X155407766Y-110985825D02*
X155455385Y-111081063D01*
X155455385Y-111081063D02*
X155455385Y-111319158D01*
X155455385Y-111319158D02*
X155407766Y-111414396D01*
X155407766Y-111414396D02*
X155360147Y-111462016D01*
X155360147Y-111462016D02*
X155264909Y-111509635D01*
X155264909Y-111509635D02*
X155026814Y-111509635D01*
X155026814Y-111509635D02*
X154931576Y-111462016D01*
X154931576Y-111462016D02*
X154883957Y-111414396D01*
X170957619Y-114145255D02*
X170986191Y-114173827D01*
X170986191Y-114173827D02*
X171014762Y-114259541D01*
X171014762Y-114259541D02*
X171014762Y-114316684D01*
X171014762Y-114316684D02*
X170986191Y-114402398D01*
X170986191Y-114402398D02*
X170929048Y-114459541D01*
X170929048Y-114459541D02*
X170871905Y-114488112D01*
X170871905Y-114488112D02*
X170757619Y-114516684D01*
X170757619Y-114516684D02*
X170671905Y-114516684D01*
X170671905Y-114516684D02*
X170557619Y-114488112D01*
X170557619Y-114488112D02*
X170500476Y-114459541D01*
X170500476Y-114459541D02*
X170443333Y-114402398D01*
X170443333Y-114402398D02*
X170414762Y-114316684D01*
X170414762Y-114316684D02*
X170414762Y-114259541D01*
X170414762Y-114259541D02*
X170443333Y-114173827D01*
X170443333Y-114173827D02*
X170471905Y-114145255D01*
X170471905Y-113916684D02*
X170443333Y-113888112D01*
X170443333Y-113888112D02*
X170414762Y-113830970D01*
X170414762Y-113830970D02*
X170414762Y-113688112D01*
X170414762Y-113688112D02*
X170443333Y-113630970D01*
X170443333Y-113630970D02*
X170471905Y-113602398D01*
X170471905Y-113602398D02*
X170529048Y-113573827D01*
X170529048Y-113573827D02*
X170586191Y-113573827D01*
X170586191Y-113573827D02*
X170671905Y-113602398D01*
X170671905Y-113602398D02*
X171014762Y-113945255D01*
X171014762Y-113945255D02*
X171014762Y-113573827D01*
X171014762Y-113288112D02*
X171014762Y-113173826D01*
X171014762Y-113173826D02*
X170986191Y-113116683D01*
X170986191Y-113116683D02*
X170957619Y-113088112D01*
X170957619Y-113088112D02*
X170871905Y-113030969D01*
X170871905Y-113030969D02*
X170757619Y-113002398D01*
X170757619Y-113002398D02*
X170529048Y-113002398D01*
X170529048Y-113002398D02*
X170471905Y-113030969D01*
X170471905Y-113030969D02*
X170443333Y-113059541D01*
X170443333Y-113059541D02*
X170414762Y-113116683D01*
X170414762Y-113116683D02*
X170414762Y-113230969D01*
X170414762Y-113230969D02*
X170443333Y-113288112D01*
X170443333Y-113288112D02*
X170471905Y-113316683D01*
X170471905Y-113316683D02*
X170529048Y-113345255D01*
X170529048Y-113345255D02*
X170671905Y-113345255D01*
X170671905Y-113345255D02*
X170729048Y-113316683D01*
X170729048Y-113316683D02*
X170757619Y-113288112D01*
X170757619Y-113288112D02*
X170786191Y-113230969D01*
X170786191Y-113230969D02*
X170786191Y-113116683D01*
X170786191Y-113116683D02*
X170757619Y-113059541D01*
X170757619Y-113059541D02*
X170729048Y-113030969D01*
X170729048Y-113030969D02*
X170671905Y-113002398D01*
X163581486Y-101179903D02*
X163381486Y-100894189D01*
X163238629Y-101179903D02*
X163238629Y-100579903D01*
X163238629Y-100579903D02*
X163467200Y-100579903D01*
X163467200Y-100579903D02*
X163524343Y-100608474D01*
X163524343Y-100608474D02*
X163552914Y-100637046D01*
X163552914Y-100637046D02*
X163581486Y-100694189D01*
X163581486Y-100694189D02*
X163581486Y-100779903D01*
X163581486Y-100779903D02*
X163552914Y-100837046D01*
X163552914Y-100837046D02*
X163524343Y-100865617D01*
X163524343Y-100865617D02*
X163467200Y-100894189D01*
X163467200Y-100894189D02*
X163238629Y-100894189D01*
X164152914Y-101179903D02*
X163810057Y-101179903D01*
X163981486Y-101179903D02*
X163981486Y-100579903D01*
X163981486Y-100579903D02*
X163924343Y-100665617D01*
X163924343Y-100665617D02*
X163867200Y-100722760D01*
X163867200Y-100722760D02*
X163810057Y-100751332D01*
X164381486Y-100637046D02*
X164410058Y-100608474D01*
X164410058Y-100608474D02*
X164467201Y-100579903D01*
X164467201Y-100579903D02*
X164610058Y-100579903D01*
X164610058Y-100579903D02*
X164667201Y-100608474D01*
X164667201Y-100608474D02*
X164695772Y-100637046D01*
X164695772Y-100637046D02*
X164724343Y-100694189D01*
X164724343Y-100694189D02*
X164724343Y-100751332D01*
X164724343Y-100751332D02*
X164695772Y-100837046D01*
X164695772Y-100837046D02*
X164352915Y-101179903D01*
X164352915Y-101179903D02*
X164724343Y-101179903D01*
X169191070Y-102586530D02*
X169162498Y-102615102D01*
X169162498Y-102615102D02*
X169076784Y-102643673D01*
X169076784Y-102643673D02*
X169019641Y-102643673D01*
X169019641Y-102643673D02*
X168933927Y-102615102D01*
X168933927Y-102615102D02*
X168876784Y-102557959D01*
X168876784Y-102557959D02*
X168848213Y-102500816D01*
X168848213Y-102500816D02*
X168819641Y-102386530D01*
X168819641Y-102386530D02*
X168819641Y-102300816D01*
X168819641Y-102300816D02*
X168848213Y-102186530D01*
X168848213Y-102186530D02*
X168876784Y-102129387D01*
X168876784Y-102129387D02*
X168933927Y-102072244D01*
X168933927Y-102072244D02*
X169019641Y-102043673D01*
X169019641Y-102043673D02*
X169076784Y-102043673D01*
X169076784Y-102043673D02*
X169162498Y-102072244D01*
X169162498Y-102072244D02*
X169191070Y-102100816D01*
X169391070Y-102043673D02*
X169762498Y-102043673D01*
X169762498Y-102043673D02*
X169562498Y-102272244D01*
X169562498Y-102272244D02*
X169648213Y-102272244D01*
X169648213Y-102272244D02*
X169705356Y-102300816D01*
X169705356Y-102300816D02*
X169733927Y-102329387D01*
X169733927Y-102329387D02*
X169762498Y-102386530D01*
X169762498Y-102386530D02*
X169762498Y-102529387D01*
X169762498Y-102529387D02*
X169733927Y-102586530D01*
X169733927Y-102586530D02*
X169705356Y-102615102D01*
X169705356Y-102615102D02*
X169648213Y-102643673D01*
X169648213Y-102643673D02*
X169476784Y-102643673D01*
X169476784Y-102643673D02*
X169419641Y-102615102D01*
X169419641Y-102615102D02*
X169391070Y-102586530D01*
X132847500Y-102164379D02*
X132818928Y-102192951D01*
X132818928Y-102192951D02*
X132733214Y-102221522D01*
X132733214Y-102221522D02*
X132676071Y-102221522D01*
X132676071Y-102221522D02*
X132590357Y-102192951D01*
X132590357Y-102192951D02*
X132533214Y-102135808D01*
X132533214Y-102135808D02*
X132504643Y-102078665D01*
X132504643Y-102078665D02*
X132476071Y-101964379D01*
X132476071Y-101964379D02*
X132476071Y-101878665D01*
X132476071Y-101878665D02*
X132504643Y-101764379D01*
X132504643Y-101764379D02*
X132533214Y-101707236D01*
X132533214Y-101707236D02*
X132590357Y-101650093D01*
X132590357Y-101650093D02*
X132676071Y-101621522D01*
X132676071Y-101621522D02*
X132733214Y-101621522D01*
X132733214Y-101621522D02*
X132818928Y-101650093D01*
X132818928Y-101650093D02*
X132847500Y-101678665D01*
X133047500Y-101621522D02*
X133447500Y-101621522D01*
X133447500Y-101621522D02*
X133190357Y-102221522D01*
X163656486Y-96547760D02*
X163627914Y-96576332D01*
X163627914Y-96576332D02*
X163542200Y-96604903D01*
X163542200Y-96604903D02*
X163485057Y-96604903D01*
X163485057Y-96604903D02*
X163399343Y-96576332D01*
X163399343Y-96576332D02*
X163342200Y-96519189D01*
X163342200Y-96519189D02*
X163313629Y-96462046D01*
X163313629Y-96462046D02*
X163285057Y-96347760D01*
X163285057Y-96347760D02*
X163285057Y-96262046D01*
X163285057Y-96262046D02*
X163313629Y-96147760D01*
X163313629Y-96147760D02*
X163342200Y-96090617D01*
X163342200Y-96090617D02*
X163399343Y-96033474D01*
X163399343Y-96033474D02*
X163485057Y-96004903D01*
X163485057Y-96004903D02*
X163542200Y-96004903D01*
X163542200Y-96004903D02*
X163627914Y-96033474D01*
X163627914Y-96033474D02*
X163656486Y-96062046D01*
X164227914Y-96604903D02*
X163885057Y-96604903D01*
X164056486Y-96604903D02*
X164056486Y-96004903D01*
X164056486Y-96004903D02*
X163999343Y-96090617D01*
X163999343Y-96090617D02*
X163942200Y-96147760D01*
X163942200Y-96147760D02*
X163885057Y-96176332D01*
X164456486Y-96062046D02*
X164485058Y-96033474D01*
X164485058Y-96033474D02*
X164542201Y-96004903D01*
X164542201Y-96004903D02*
X164685058Y-96004903D01*
X164685058Y-96004903D02*
X164742201Y-96033474D01*
X164742201Y-96033474D02*
X164770772Y-96062046D01*
X164770772Y-96062046D02*
X164799343Y-96119189D01*
X164799343Y-96119189D02*
X164799343Y-96176332D01*
X164799343Y-96176332D02*
X164770772Y-96262046D01*
X164770772Y-96262046D02*
X164427915Y-96604903D01*
X164427915Y-96604903D02*
X164799343Y-96604903D01*
X153318973Y-106365628D02*
X153118973Y-106079914D01*
X152976116Y-106365628D02*
X152976116Y-105765628D01*
X152976116Y-105765628D02*
X153204687Y-105765628D01*
X153204687Y-105765628D02*
X153261830Y-105794199D01*
X153261830Y-105794199D02*
X153290401Y-105822771D01*
X153290401Y-105822771D02*
X153318973Y-105879914D01*
X153318973Y-105879914D02*
X153318973Y-105965628D01*
X153318973Y-105965628D02*
X153290401Y-106022771D01*
X153290401Y-106022771D02*
X153261830Y-106051342D01*
X153261830Y-106051342D02*
X153204687Y-106079914D01*
X153204687Y-106079914D02*
X152976116Y-106079914D01*
X153547544Y-105822771D02*
X153576116Y-105794199D01*
X153576116Y-105794199D02*
X153633259Y-105765628D01*
X153633259Y-105765628D02*
X153776116Y-105765628D01*
X153776116Y-105765628D02*
X153833259Y-105794199D01*
X153833259Y-105794199D02*
X153861830Y-105822771D01*
X153861830Y-105822771D02*
X153890401Y-105879914D01*
X153890401Y-105879914D02*
X153890401Y-105937057D01*
X153890401Y-105937057D02*
X153861830Y-106022771D01*
X153861830Y-106022771D02*
X153518973Y-106365628D01*
X153518973Y-106365628D02*
X153890401Y-106365628D01*
X154118973Y-105822771D02*
X154147545Y-105794199D01*
X154147545Y-105794199D02*
X154204688Y-105765628D01*
X154204688Y-105765628D02*
X154347545Y-105765628D01*
X154347545Y-105765628D02*
X154404688Y-105794199D01*
X154404688Y-105794199D02*
X154433259Y-105822771D01*
X154433259Y-105822771D02*
X154461830Y-105879914D01*
X154461830Y-105879914D02*
X154461830Y-105937057D01*
X154461830Y-105937057D02*
X154433259Y-106022771D01*
X154433259Y-106022771D02*
X154090402Y-106365628D01*
X154090402Y-106365628D02*
X154461830Y-106365628D01*
X116939285Y-86737628D02*
X116910713Y-86766200D01*
X116910713Y-86766200D02*
X116824999Y-86794771D01*
X116824999Y-86794771D02*
X116767856Y-86794771D01*
X116767856Y-86794771D02*
X116682142Y-86766200D01*
X116682142Y-86766200D02*
X116624999Y-86709057D01*
X116624999Y-86709057D02*
X116596428Y-86651914D01*
X116596428Y-86651914D02*
X116567856Y-86537628D01*
X116567856Y-86537628D02*
X116567856Y-86451914D01*
X116567856Y-86451914D02*
X116596428Y-86337628D01*
X116596428Y-86337628D02*
X116624999Y-86280485D01*
X116624999Y-86280485D02*
X116682142Y-86223342D01*
X116682142Y-86223342D02*
X116767856Y-86194771D01*
X116767856Y-86194771D02*
X116824999Y-86194771D01*
X116824999Y-86194771D02*
X116910713Y-86223342D01*
X116910713Y-86223342D02*
X116939285Y-86251914D01*
X117167856Y-86251914D02*
X117196428Y-86223342D01*
X117196428Y-86223342D02*
X117253571Y-86194771D01*
X117253571Y-86194771D02*
X117396428Y-86194771D01*
X117396428Y-86194771D02*
X117453571Y-86223342D01*
X117453571Y-86223342D02*
X117482142Y-86251914D01*
X117482142Y-86251914D02*
X117510713Y-86309057D01*
X117510713Y-86309057D02*
X117510713Y-86366200D01*
X117510713Y-86366200D02*
X117482142Y-86451914D01*
X117482142Y-86451914D02*
X117139285Y-86794771D01*
X117139285Y-86794771D02*
X117510713Y-86794771D01*
X117739285Y-86251914D02*
X117767857Y-86223342D01*
X117767857Y-86223342D02*
X117825000Y-86194771D01*
X117825000Y-86194771D02*
X117967857Y-86194771D01*
X117967857Y-86194771D02*
X118025000Y-86223342D01*
X118025000Y-86223342D02*
X118053571Y-86251914D01*
X118053571Y-86251914D02*
X118082142Y-86309057D01*
X118082142Y-86309057D02*
X118082142Y-86366200D01*
X118082142Y-86366200D02*
X118053571Y-86451914D01*
X118053571Y-86451914D02*
X117710714Y-86794771D01*
X117710714Y-86794771D02*
X118082142Y-86794771D01*
X152710124Y-54904527D02*
X152681552Y-54933099D01*
X152681552Y-54933099D02*
X152595838Y-54961670D01*
X152595838Y-54961670D02*
X152538695Y-54961670D01*
X152538695Y-54961670D02*
X152452981Y-54933099D01*
X152452981Y-54933099D02*
X152395838Y-54875956D01*
X152395838Y-54875956D02*
X152367267Y-54818813D01*
X152367267Y-54818813D02*
X152338695Y-54704527D01*
X152338695Y-54704527D02*
X152338695Y-54618813D01*
X152338695Y-54618813D02*
X152367267Y-54504527D01*
X152367267Y-54504527D02*
X152395838Y-54447384D01*
X152395838Y-54447384D02*
X152452981Y-54390241D01*
X152452981Y-54390241D02*
X152538695Y-54361670D01*
X152538695Y-54361670D02*
X152595838Y-54361670D01*
X152595838Y-54361670D02*
X152681552Y-54390241D01*
X152681552Y-54390241D02*
X152710124Y-54418813D01*
X152910124Y-54361670D02*
X153281552Y-54361670D01*
X153281552Y-54361670D02*
X153081552Y-54590241D01*
X153081552Y-54590241D02*
X153167267Y-54590241D01*
X153167267Y-54590241D02*
X153224410Y-54618813D01*
X153224410Y-54618813D02*
X153252981Y-54647384D01*
X153252981Y-54647384D02*
X153281552Y-54704527D01*
X153281552Y-54704527D02*
X153281552Y-54847384D01*
X153281552Y-54847384D02*
X153252981Y-54904527D01*
X153252981Y-54904527D02*
X153224410Y-54933099D01*
X153224410Y-54933099D02*
X153167267Y-54961670D01*
X153167267Y-54961670D02*
X152995838Y-54961670D01*
X152995838Y-54961670D02*
X152938695Y-54933099D01*
X152938695Y-54933099D02*
X152910124Y-54904527D01*
X153652981Y-54361670D02*
X153710124Y-54361670D01*
X153710124Y-54361670D02*
X153767267Y-54390241D01*
X153767267Y-54390241D02*
X153795839Y-54418813D01*
X153795839Y-54418813D02*
X153824410Y-54475956D01*
X153824410Y-54475956D02*
X153852981Y-54590241D01*
X153852981Y-54590241D02*
X153852981Y-54733099D01*
X153852981Y-54733099D02*
X153824410Y-54847384D01*
X153824410Y-54847384D02*
X153795839Y-54904527D01*
X153795839Y-54904527D02*
X153767267Y-54933099D01*
X153767267Y-54933099D02*
X153710124Y-54961670D01*
X153710124Y-54961670D02*
X153652981Y-54961670D01*
X153652981Y-54961670D02*
X153595839Y-54933099D01*
X153595839Y-54933099D02*
X153567267Y-54904527D01*
X153567267Y-54904527D02*
X153538696Y-54847384D01*
X153538696Y-54847384D02*
X153510124Y-54733099D01*
X153510124Y-54733099D02*
X153510124Y-54590241D01*
X153510124Y-54590241D02*
X153538696Y-54475956D01*
X153538696Y-54475956D02*
X153567267Y-54418813D01*
X153567267Y-54418813D02*
X153595839Y-54390241D01*
X153595839Y-54390241D02*
X153652981Y-54361670D01*
X139350000Y-115132271D02*
X139150000Y-114846557D01*
X139007143Y-115132271D02*
X139007143Y-114532271D01*
X139007143Y-114532271D02*
X139235714Y-114532271D01*
X139235714Y-114532271D02*
X139292857Y-114560842D01*
X139292857Y-114560842D02*
X139321428Y-114589414D01*
X139321428Y-114589414D02*
X139350000Y-114646557D01*
X139350000Y-114646557D02*
X139350000Y-114732271D01*
X139350000Y-114732271D02*
X139321428Y-114789414D01*
X139321428Y-114789414D02*
X139292857Y-114817985D01*
X139292857Y-114817985D02*
X139235714Y-114846557D01*
X139235714Y-114846557D02*
X139007143Y-114846557D01*
X139550000Y-114532271D02*
X139921428Y-114532271D01*
X139921428Y-114532271D02*
X139721428Y-114760842D01*
X139721428Y-114760842D02*
X139807143Y-114760842D01*
X139807143Y-114760842D02*
X139864286Y-114789414D01*
X139864286Y-114789414D02*
X139892857Y-114817985D01*
X139892857Y-114817985D02*
X139921428Y-114875128D01*
X139921428Y-114875128D02*
X139921428Y-115017985D01*
X139921428Y-115017985D02*
X139892857Y-115075128D01*
X139892857Y-115075128D02*
X139864286Y-115103700D01*
X139864286Y-115103700D02*
X139807143Y-115132271D01*
X139807143Y-115132271D02*
X139635714Y-115132271D01*
X139635714Y-115132271D02*
X139578571Y-115103700D01*
X139578571Y-115103700D02*
X139550000Y-115075128D01*
X162602256Y-113873776D02*
X162630828Y-113902348D01*
X162630828Y-113902348D02*
X162659399Y-113988062D01*
X162659399Y-113988062D02*
X162659399Y-114045205D01*
X162659399Y-114045205D02*
X162630828Y-114130919D01*
X162630828Y-114130919D02*
X162573685Y-114188062D01*
X162573685Y-114188062D02*
X162516542Y-114216633D01*
X162516542Y-114216633D02*
X162402256Y-114245205D01*
X162402256Y-114245205D02*
X162316542Y-114245205D01*
X162316542Y-114245205D02*
X162202256Y-114216633D01*
X162202256Y-114216633D02*
X162145113Y-114188062D01*
X162145113Y-114188062D02*
X162087970Y-114130919D01*
X162087970Y-114130919D02*
X162059399Y-114045205D01*
X162059399Y-114045205D02*
X162059399Y-113988062D01*
X162059399Y-113988062D02*
X162087970Y-113902348D01*
X162087970Y-113902348D02*
X162116542Y-113873776D01*
X162259399Y-113359491D02*
X162659399Y-113359491D01*
X162030828Y-113502348D02*
X162459399Y-113645205D01*
X162459399Y-113645205D02*
X162459399Y-113273776D01*
X158880709Y-110581818D02*
X158880709Y-111391341D01*
X158880709Y-111391341D02*
X158928328Y-111486579D01*
X158928328Y-111486579D02*
X158975947Y-111534199D01*
X158975947Y-111534199D02*
X159071185Y-111581818D01*
X159071185Y-111581818D02*
X159261661Y-111581818D01*
X159261661Y-111581818D02*
X159356899Y-111534199D01*
X159356899Y-111534199D02*
X159404518Y-111486579D01*
X159404518Y-111486579D02*
X159452137Y-111391341D01*
X159452137Y-111391341D02*
X159452137Y-110581818D01*
X160356899Y-110581818D02*
X160166423Y-110581818D01*
X160166423Y-110581818D02*
X160071185Y-110629437D01*
X160071185Y-110629437D02*
X160023566Y-110677056D01*
X160023566Y-110677056D02*
X159928328Y-110819913D01*
X159928328Y-110819913D02*
X159880709Y-111010389D01*
X159880709Y-111010389D02*
X159880709Y-111391341D01*
X159880709Y-111391341D02*
X159928328Y-111486579D01*
X159928328Y-111486579D02*
X159975947Y-111534199D01*
X159975947Y-111534199D02*
X160071185Y-111581818D01*
X160071185Y-111581818D02*
X160261661Y-111581818D01*
X160261661Y-111581818D02*
X160356899Y-111534199D01*
X160356899Y-111534199D02*
X160404518Y-111486579D01*
X160404518Y-111486579D02*
X160452137Y-111391341D01*
X160452137Y-111391341D02*
X160452137Y-111153246D01*
X160452137Y-111153246D02*
X160404518Y-111058008D01*
X160404518Y-111058008D02*
X160356899Y-111010389D01*
X160356899Y-111010389D02*
X160261661Y-110962770D01*
X160261661Y-110962770D02*
X160071185Y-110962770D01*
X160071185Y-110962770D02*
X159975947Y-111010389D01*
X159975947Y-111010389D02*
X159928328Y-111058008D01*
X159928328Y-111058008D02*
X159880709Y-111153246D01*
X149050000Y-45912628D02*
X149021428Y-45941200D01*
X149021428Y-45941200D02*
X148935714Y-45969771D01*
X148935714Y-45969771D02*
X148878571Y-45969771D01*
X148878571Y-45969771D02*
X148792857Y-45941200D01*
X148792857Y-45941200D02*
X148735714Y-45884057D01*
X148735714Y-45884057D02*
X148707143Y-45826914D01*
X148707143Y-45826914D02*
X148678571Y-45712628D01*
X148678571Y-45712628D02*
X148678571Y-45626914D01*
X148678571Y-45626914D02*
X148707143Y-45512628D01*
X148707143Y-45512628D02*
X148735714Y-45455485D01*
X148735714Y-45455485D02*
X148792857Y-45398342D01*
X148792857Y-45398342D02*
X148878571Y-45369771D01*
X148878571Y-45369771D02*
X148935714Y-45369771D01*
X148935714Y-45369771D02*
X149021428Y-45398342D01*
X149021428Y-45398342D02*
X149050000Y-45426914D01*
X149278571Y-45426914D02*
X149307143Y-45398342D01*
X149307143Y-45398342D02*
X149364286Y-45369771D01*
X149364286Y-45369771D02*
X149507143Y-45369771D01*
X149507143Y-45369771D02*
X149564286Y-45398342D01*
X149564286Y-45398342D02*
X149592857Y-45426914D01*
X149592857Y-45426914D02*
X149621428Y-45484057D01*
X149621428Y-45484057D02*
X149621428Y-45541200D01*
X149621428Y-45541200D02*
X149592857Y-45626914D01*
X149592857Y-45626914D02*
X149250000Y-45969771D01*
X149250000Y-45969771D02*
X149621428Y-45969771D01*
X144464285Y-74394771D02*
X144264285Y-74109057D01*
X144121428Y-74394771D02*
X144121428Y-73794771D01*
X144121428Y-73794771D02*
X144349999Y-73794771D01*
X144349999Y-73794771D02*
X144407142Y-73823342D01*
X144407142Y-73823342D02*
X144435713Y-73851914D01*
X144435713Y-73851914D02*
X144464285Y-73909057D01*
X144464285Y-73909057D02*
X144464285Y-73994771D01*
X144464285Y-73994771D02*
X144435713Y-74051914D01*
X144435713Y-74051914D02*
X144407142Y-74080485D01*
X144407142Y-74080485D02*
X144349999Y-74109057D01*
X144349999Y-74109057D02*
X144121428Y-74109057D01*
X144692856Y-73851914D02*
X144721428Y-73823342D01*
X144721428Y-73823342D02*
X144778571Y-73794771D01*
X144778571Y-73794771D02*
X144921428Y-73794771D01*
X144921428Y-73794771D02*
X144978571Y-73823342D01*
X144978571Y-73823342D02*
X145007142Y-73851914D01*
X145007142Y-73851914D02*
X145035713Y-73909057D01*
X145035713Y-73909057D02*
X145035713Y-73966200D01*
X145035713Y-73966200D02*
X145007142Y-74051914D01*
X145007142Y-74051914D02*
X144664285Y-74394771D01*
X144664285Y-74394771D02*
X145035713Y-74394771D01*
X145321428Y-74394771D02*
X145435714Y-74394771D01*
X145435714Y-74394771D02*
X145492857Y-74366200D01*
X145492857Y-74366200D02*
X145521428Y-74337628D01*
X145521428Y-74337628D02*
X145578571Y-74251914D01*
X145578571Y-74251914D02*
X145607142Y-74137628D01*
X145607142Y-74137628D02*
X145607142Y-73909057D01*
X145607142Y-73909057D02*
X145578571Y-73851914D01*
X145578571Y-73851914D02*
X145550000Y-73823342D01*
X145550000Y-73823342D02*
X145492857Y-73794771D01*
X145492857Y-73794771D02*
X145378571Y-73794771D01*
X145378571Y-73794771D02*
X145321428Y-73823342D01*
X145321428Y-73823342D02*
X145292857Y-73851914D01*
X145292857Y-73851914D02*
X145264285Y-73909057D01*
X145264285Y-73909057D02*
X145264285Y-74051914D01*
X145264285Y-74051914D02*
X145292857Y-74109057D01*
X145292857Y-74109057D02*
X145321428Y-74137628D01*
X145321428Y-74137628D02*
X145378571Y-74166200D01*
X145378571Y-74166200D02*
X145492857Y-74166200D01*
X145492857Y-74166200D02*
X145550000Y-74137628D01*
X145550000Y-74137628D02*
X145578571Y-74109057D01*
X145578571Y-74109057D02*
X145607142Y-74051914D01*
X140657143Y-48119771D02*
X140657143Y-47519771D01*
X140657143Y-47519771D02*
X140800000Y-47519771D01*
X140800000Y-47519771D02*
X140885714Y-47548342D01*
X140885714Y-47548342D02*
X140942857Y-47605485D01*
X140942857Y-47605485D02*
X140971428Y-47662628D01*
X140971428Y-47662628D02*
X141000000Y-47776914D01*
X141000000Y-47776914D02*
X141000000Y-47862628D01*
X141000000Y-47862628D02*
X140971428Y-47976914D01*
X140971428Y-47976914D02*
X140942857Y-48034057D01*
X140942857Y-48034057D02*
X140885714Y-48091200D01*
X140885714Y-48091200D02*
X140800000Y-48119771D01*
X140800000Y-48119771D02*
X140657143Y-48119771D01*
X141228571Y-47576914D02*
X141257143Y-47548342D01*
X141257143Y-47548342D02*
X141314286Y-47519771D01*
X141314286Y-47519771D02*
X141457143Y-47519771D01*
X141457143Y-47519771D02*
X141514286Y-47548342D01*
X141514286Y-47548342D02*
X141542857Y-47576914D01*
X141542857Y-47576914D02*
X141571428Y-47634057D01*
X141571428Y-47634057D02*
X141571428Y-47691200D01*
X141571428Y-47691200D02*
X141542857Y-47776914D01*
X141542857Y-47776914D02*
X141200000Y-48119771D01*
X141200000Y-48119771D02*
X141571428Y-48119771D01*
X128383333Y-124562295D02*
X128383333Y-125133723D01*
X128383333Y-125133723D02*
X128345238Y-125248009D01*
X128345238Y-125248009D02*
X128269047Y-125324200D01*
X128269047Y-125324200D02*
X128154762Y-125362295D01*
X128154762Y-125362295D02*
X128078571Y-125362295D01*
X128726190Y-124638485D02*
X128764286Y-124600390D01*
X128764286Y-124600390D02*
X128840476Y-124562295D01*
X128840476Y-124562295D02*
X129030952Y-124562295D01*
X129030952Y-124562295D02*
X129107143Y-124600390D01*
X129107143Y-124600390D02*
X129145238Y-124638485D01*
X129145238Y-124638485D02*
X129183333Y-124714676D01*
X129183333Y-124714676D02*
X129183333Y-124790866D01*
X129183333Y-124790866D02*
X129145238Y-124905152D01*
X129145238Y-124905152D02*
X128688095Y-125362295D01*
X128688095Y-125362295D02*
X129183333Y-125362295D01*
X132215476Y-41750390D02*
X132139286Y-41712295D01*
X132139286Y-41712295D02*
X132025000Y-41712295D01*
X132025000Y-41712295D02*
X131910714Y-41750390D01*
X131910714Y-41750390D02*
X131834524Y-41826580D01*
X131834524Y-41826580D02*
X131796429Y-41902771D01*
X131796429Y-41902771D02*
X131758333Y-42055152D01*
X131758333Y-42055152D02*
X131758333Y-42169438D01*
X131758333Y-42169438D02*
X131796429Y-42321819D01*
X131796429Y-42321819D02*
X131834524Y-42398009D01*
X131834524Y-42398009D02*
X131910714Y-42474200D01*
X131910714Y-42474200D02*
X132025000Y-42512295D01*
X132025000Y-42512295D02*
X132101191Y-42512295D01*
X132101191Y-42512295D02*
X132215476Y-42474200D01*
X132215476Y-42474200D02*
X132253572Y-42436104D01*
X132253572Y-42436104D02*
X132253572Y-42169438D01*
X132253572Y-42169438D02*
X132101191Y-42169438D01*
X132596429Y-42512295D02*
X132596429Y-41712295D01*
X132596429Y-41712295D02*
X133053572Y-42512295D01*
X133053572Y-42512295D02*
X133053572Y-41712295D01*
X133434524Y-42512295D02*
X133434524Y-41712295D01*
X133434524Y-41712295D02*
X133625000Y-41712295D01*
X133625000Y-41712295D02*
X133739286Y-41750390D01*
X133739286Y-41750390D02*
X133815476Y-41826580D01*
X133815476Y-41826580D02*
X133853571Y-41902771D01*
X133853571Y-41902771D02*
X133891667Y-42055152D01*
X133891667Y-42055152D02*
X133891667Y-42169438D01*
X133891667Y-42169438D02*
X133853571Y-42321819D01*
X133853571Y-42321819D02*
X133815476Y-42398009D01*
X133815476Y-42398009D02*
X133739286Y-42474200D01*
X133739286Y-42474200D02*
X133625000Y-42512295D01*
X133625000Y-42512295D02*
X133434524Y-42512295D01*
X166546414Y-109727867D02*
X167355937Y-109727867D01*
X167355937Y-109727867D02*
X167451175Y-109680248D01*
X167451175Y-109680248D02*
X167498795Y-109632629D01*
X167498795Y-109632629D02*
X167546414Y-109537391D01*
X167546414Y-109537391D02*
X167546414Y-109346915D01*
X167546414Y-109346915D02*
X167498795Y-109251677D01*
X167498795Y-109251677D02*
X167451175Y-109204058D01*
X167451175Y-109204058D02*
X167355937Y-109156439D01*
X167355937Y-109156439D02*
X166546414Y-109156439D01*
X167546414Y-108156439D02*
X167546414Y-108727867D01*
X167546414Y-108442153D02*
X166546414Y-108442153D01*
X166546414Y-108442153D02*
X166689271Y-108537391D01*
X166689271Y-108537391D02*
X166784509Y-108632629D01*
X166784509Y-108632629D02*
X166832128Y-108727867D01*
X136230952Y-41712295D02*
X136497619Y-42512295D01*
X136497619Y-42512295D02*
X136764285Y-41712295D01*
X137030952Y-42512295D02*
X137030952Y-41978961D01*
X137030952Y-41712295D02*
X136992856Y-41750390D01*
X136992856Y-41750390D02*
X137030952Y-41788485D01*
X137030952Y-41788485D02*
X137069047Y-41750390D01*
X137069047Y-41750390D02*
X137030952Y-41712295D01*
X137030952Y-41712295D02*
X137030952Y-41788485D01*
X137411904Y-41978961D02*
X137411904Y-42512295D01*
X137411904Y-42055152D02*
X137449999Y-42017057D01*
X137449999Y-42017057D02*
X137526189Y-41978961D01*
X137526189Y-41978961D02*
X137640475Y-41978961D01*
X137640475Y-41978961D02*
X137716666Y-42017057D01*
X137716666Y-42017057D02*
X137754761Y-42093247D01*
X137754761Y-42093247D02*
X137754761Y-42512295D01*
X145050000Y-113837628D02*
X145021428Y-113866200D01*
X145021428Y-113866200D02*
X144935714Y-113894771D01*
X144935714Y-113894771D02*
X144878571Y-113894771D01*
X144878571Y-113894771D02*
X144792857Y-113866200D01*
X144792857Y-113866200D02*
X144735714Y-113809057D01*
X144735714Y-113809057D02*
X144707143Y-113751914D01*
X144707143Y-113751914D02*
X144678571Y-113637628D01*
X144678571Y-113637628D02*
X144678571Y-113551914D01*
X144678571Y-113551914D02*
X144707143Y-113437628D01*
X144707143Y-113437628D02*
X144735714Y-113380485D01*
X144735714Y-113380485D02*
X144792857Y-113323342D01*
X144792857Y-113323342D02*
X144878571Y-113294771D01*
X144878571Y-113294771D02*
X144935714Y-113294771D01*
X144935714Y-113294771D02*
X145021428Y-113323342D01*
X145021428Y-113323342D02*
X145050000Y-113351914D01*
X145564286Y-113294771D02*
X145450000Y-113294771D01*
X145450000Y-113294771D02*
X145392857Y-113323342D01*
X145392857Y-113323342D02*
X145364286Y-113351914D01*
X145364286Y-113351914D02*
X145307143Y-113437628D01*
X145307143Y-113437628D02*
X145278571Y-113551914D01*
X145278571Y-113551914D02*
X145278571Y-113780485D01*
X145278571Y-113780485D02*
X145307143Y-113837628D01*
X145307143Y-113837628D02*
X145335714Y-113866200D01*
X145335714Y-113866200D02*
X145392857Y-113894771D01*
X145392857Y-113894771D02*
X145507143Y-113894771D01*
X145507143Y-113894771D02*
X145564286Y-113866200D01*
X145564286Y-113866200D02*
X145592857Y-113837628D01*
X145592857Y-113837628D02*
X145621428Y-113780485D01*
X145621428Y-113780485D02*
X145621428Y-113637628D01*
X145621428Y-113637628D02*
X145592857Y-113580485D01*
X145592857Y-113580485D02*
X145564286Y-113551914D01*
X145564286Y-113551914D02*
X145507143Y-113523342D01*
X145507143Y-113523342D02*
X145392857Y-113523342D01*
X145392857Y-113523342D02*
X145335714Y-113551914D01*
X145335714Y-113551914D02*
X145307143Y-113580485D01*
X145307143Y-113580485D02*
X145278571Y-113637628D01*
X121564285Y-60187628D02*
X121535713Y-60216200D01*
X121535713Y-60216200D02*
X121449999Y-60244771D01*
X121449999Y-60244771D02*
X121392856Y-60244771D01*
X121392856Y-60244771D02*
X121307142Y-60216200D01*
X121307142Y-60216200D02*
X121249999Y-60159057D01*
X121249999Y-60159057D02*
X121221428Y-60101914D01*
X121221428Y-60101914D02*
X121192856Y-59987628D01*
X121192856Y-59987628D02*
X121192856Y-59901914D01*
X121192856Y-59901914D02*
X121221428Y-59787628D01*
X121221428Y-59787628D02*
X121249999Y-59730485D01*
X121249999Y-59730485D02*
X121307142Y-59673342D01*
X121307142Y-59673342D02*
X121392856Y-59644771D01*
X121392856Y-59644771D02*
X121449999Y-59644771D01*
X121449999Y-59644771D02*
X121535713Y-59673342D01*
X121535713Y-59673342D02*
X121564285Y-59701914D01*
X121792856Y-59701914D02*
X121821428Y-59673342D01*
X121821428Y-59673342D02*
X121878571Y-59644771D01*
X121878571Y-59644771D02*
X122021428Y-59644771D01*
X122021428Y-59644771D02*
X122078571Y-59673342D01*
X122078571Y-59673342D02*
X122107142Y-59701914D01*
X122107142Y-59701914D02*
X122135713Y-59759057D01*
X122135713Y-59759057D02*
X122135713Y-59816200D01*
X122135713Y-59816200D02*
X122107142Y-59901914D01*
X122107142Y-59901914D02*
X121764285Y-60244771D01*
X121764285Y-60244771D02*
X122135713Y-60244771D01*
X122707142Y-60244771D02*
X122364285Y-60244771D01*
X122535714Y-60244771D02*
X122535714Y-59644771D01*
X122535714Y-59644771D02*
X122478571Y-59730485D01*
X122478571Y-59730485D02*
X122421428Y-59787628D01*
X122421428Y-59787628D02*
X122364285Y-59816200D01*
X113407143Y-102919771D02*
X113407143Y-102319771D01*
X113407143Y-102319771D02*
X113550000Y-102319771D01*
X113550000Y-102319771D02*
X113635714Y-102348342D01*
X113635714Y-102348342D02*
X113692857Y-102405485D01*
X113692857Y-102405485D02*
X113721428Y-102462628D01*
X113721428Y-102462628D02*
X113750000Y-102576914D01*
X113750000Y-102576914D02*
X113750000Y-102662628D01*
X113750000Y-102662628D02*
X113721428Y-102776914D01*
X113721428Y-102776914D02*
X113692857Y-102834057D01*
X113692857Y-102834057D02*
X113635714Y-102891200D01*
X113635714Y-102891200D02*
X113550000Y-102919771D01*
X113550000Y-102919771D02*
X113407143Y-102919771D01*
X114264286Y-102519771D02*
X114264286Y-102919771D01*
X114121428Y-102291200D02*
X113978571Y-102719771D01*
X113978571Y-102719771D02*
X114350000Y-102719771D01*
X131391785Y-46539771D02*
X131191785Y-46254057D01*
X131048928Y-46539771D02*
X131048928Y-45939771D01*
X131048928Y-45939771D02*
X131277499Y-45939771D01*
X131277499Y-45939771D02*
X131334642Y-45968342D01*
X131334642Y-45968342D02*
X131363213Y-45996914D01*
X131363213Y-45996914D02*
X131391785Y-46054057D01*
X131391785Y-46054057D02*
X131391785Y-46139771D01*
X131391785Y-46139771D02*
X131363213Y-46196914D01*
X131363213Y-46196914D02*
X131334642Y-46225485D01*
X131334642Y-46225485D02*
X131277499Y-46254057D01*
X131277499Y-46254057D02*
X131048928Y-46254057D01*
X131963213Y-46539771D02*
X131620356Y-46539771D01*
X131791785Y-46539771D02*
X131791785Y-45939771D01*
X131791785Y-45939771D02*
X131734642Y-46025485D01*
X131734642Y-46025485D02*
X131677499Y-46082628D01*
X131677499Y-46082628D02*
X131620356Y-46111200D01*
X132163214Y-45939771D02*
X132563214Y-45939771D01*
X132563214Y-45939771D02*
X132306071Y-46539771D01*
X161406486Y-96547760D02*
X161377914Y-96576332D01*
X161377914Y-96576332D02*
X161292200Y-96604903D01*
X161292200Y-96604903D02*
X161235057Y-96604903D01*
X161235057Y-96604903D02*
X161149343Y-96576332D01*
X161149343Y-96576332D02*
X161092200Y-96519189D01*
X161092200Y-96519189D02*
X161063629Y-96462046D01*
X161063629Y-96462046D02*
X161035057Y-96347760D01*
X161035057Y-96347760D02*
X161035057Y-96262046D01*
X161035057Y-96262046D02*
X161063629Y-96147760D01*
X161063629Y-96147760D02*
X161092200Y-96090617D01*
X161092200Y-96090617D02*
X161149343Y-96033474D01*
X161149343Y-96033474D02*
X161235057Y-96004903D01*
X161235057Y-96004903D02*
X161292200Y-96004903D01*
X161292200Y-96004903D02*
X161377914Y-96033474D01*
X161377914Y-96033474D02*
X161406486Y-96062046D01*
X161977914Y-96604903D02*
X161635057Y-96604903D01*
X161806486Y-96604903D02*
X161806486Y-96004903D01*
X161806486Y-96004903D02*
X161749343Y-96090617D01*
X161749343Y-96090617D02*
X161692200Y-96147760D01*
X161692200Y-96147760D02*
X161635057Y-96176332D01*
X162549343Y-96604903D02*
X162206486Y-96604903D01*
X162377915Y-96604903D02*
X162377915Y-96004903D01*
X162377915Y-96004903D02*
X162320772Y-96090617D01*
X162320772Y-96090617D02*
X162263629Y-96147760D01*
X162263629Y-96147760D02*
X162206486Y-96176332D01*
X159492201Y-96597760D02*
X159463629Y-96626332D01*
X159463629Y-96626332D02*
X159377915Y-96654903D01*
X159377915Y-96654903D02*
X159320772Y-96654903D01*
X159320772Y-96654903D02*
X159235058Y-96626332D01*
X159235058Y-96626332D02*
X159177915Y-96569189D01*
X159177915Y-96569189D02*
X159149344Y-96512046D01*
X159149344Y-96512046D02*
X159120772Y-96397760D01*
X159120772Y-96397760D02*
X159120772Y-96312046D01*
X159120772Y-96312046D02*
X159149344Y-96197760D01*
X159149344Y-96197760D02*
X159177915Y-96140617D01*
X159177915Y-96140617D02*
X159235058Y-96083474D01*
X159235058Y-96083474D02*
X159320772Y-96054903D01*
X159320772Y-96054903D02*
X159377915Y-96054903D01*
X159377915Y-96054903D02*
X159463629Y-96083474D01*
X159463629Y-96083474D02*
X159492201Y-96112046D01*
X159777915Y-96654903D02*
X159892201Y-96654903D01*
X159892201Y-96654903D02*
X159949344Y-96626332D01*
X159949344Y-96626332D02*
X159977915Y-96597760D01*
X159977915Y-96597760D02*
X160035058Y-96512046D01*
X160035058Y-96512046D02*
X160063629Y-96397760D01*
X160063629Y-96397760D02*
X160063629Y-96169189D01*
X160063629Y-96169189D02*
X160035058Y-96112046D01*
X160035058Y-96112046D02*
X160006487Y-96083474D01*
X160006487Y-96083474D02*
X159949344Y-96054903D01*
X159949344Y-96054903D02*
X159835058Y-96054903D01*
X159835058Y-96054903D02*
X159777915Y-96083474D01*
X159777915Y-96083474D02*
X159749344Y-96112046D01*
X159749344Y-96112046D02*
X159720772Y-96169189D01*
X159720772Y-96169189D02*
X159720772Y-96312046D01*
X159720772Y-96312046D02*
X159749344Y-96369189D01*
X159749344Y-96369189D02*
X159777915Y-96397760D01*
X159777915Y-96397760D02*
X159835058Y-96426332D01*
X159835058Y-96426332D02*
X159949344Y-96426332D01*
X159949344Y-96426332D02*
X160006487Y-96397760D01*
X160006487Y-96397760D02*
X160035058Y-96369189D01*
X160035058Y-96369189D02*
X160063629Y-96312046D01*
X153714285Y-87762628D02*
X153685713Y-87791200D01*
X153685713Y-87791200D02*
X153599999Y-87819771D01*
X153599999Y-87819771D02*
X153542856Y-87819771D01*
X153542856Y-87819771D02*
X153457142Y-87791200D01*
X153457142Y-87791200D02*
X153399999Y-87734057D01*
X153399999Y-87734057D02*
X153371428Y-87676914D01*
X153371428Y-87676914D02*
X153342856Y-87562628D01*
X153342856Y-87562628D02*
X153342856Y-87476914D01*
X153342856Y-87476914D02*
X153371428Y-87362628D01*
X153371428Y-87362628D02*
X153399999Y-87305485D01*
X153399999Y-87305485D02*
X153457142Y-87248342D01*
X153457142Y-87248342D02*
X153542856Y-87219771D01*
X153542856Y-87219771D02*
X153599999Y-87219771D01*
X153599999Y-87219771D02*
X153685713Y-87248342D01*
X153685713Y-87248342D02*
X153714285Y-87276914D01*
X153942856Y-87276914D02*
X153971428Y-87248342D01*
X153971428Y-87248342D02*
X154028571Y-87219771D01*
X154028571Y-87219771D02*
X154171428Y-87219771D01*
X154171428Y-87219771D02*
X154228571Y-87248342D01*
X154228571Y-87248342D02*
X154257142Y-87276914D01*
X154257142Y-87276914D02*
X154285713Y-87334057D01*
X154285713Y-87334057D02*
X154285713Y-87391200D01*
X154285713Y-87391200D02*
X154257142Y-87476914D01*
X154257142Y-87476914D02*
X153914285Y-87819771D01*
X153914285Y-87819771D02*
X154285713Y-87819771D01*
X154828571Y-87219771D02*
X154542857Y-87219771D01*
X154542857Y-87219771D02*
X154514285Y-87505485D01*
X154514285Y-87505485D02*
X154542857Y-87476914D01*
X154542857Y-87476914D02*
X154600000Y-87448342D01*
X154600000Y-87448342D02*
X154742857Y-87448342D01*
X154742857Y-87448342D02*
X154800000Y-87476914D01*
X154800000Y-87476914D02*
X154828571Y-87505485D01*
X154828571Y-87505485D02*
X154857142Y-87562628D01*
X154857142Y-87562628D02*
X154857142Y-87705485D01*
X154857142Y-87705485D02*
X154828571Y-87762628D01*
X154828571Y-87762628D02*
X154800000Y-87791200D01*
X154800000Y-87791200D02*
X154742857Y-87819771D01*
X154742857Y-87819771D02*
X154600000Y-87819771D01*
X154600000Y-87819771D02*
X154542857Y-87791200D01*
X154542857Y-87791200D02*
X154514285Y-87762628D01*
X135229626Y-110574771D02*
X135029626Y-110289057D01*
X134886769Y-110574771D02*
X134886769Y-109974771D01*
X134886769Y-109974771D02*
X135115340Y-109974771D01*
X135115340Y-109974771D02*
X135172483Y-110003342D01*
X135172483Y-110003342D02*
X135201054Y-110031914D01*
X135201054Y-110031914D02*
X135229626Y-110089057D01*
X135229626Y-110089057D02*
X135229626Y-110174771D01*
X135229626Y-110174771D02*
X135201054Y-110231914D01*
X135201054Y-110231914D02*
X135172483Y-110260485D01*
X135172483Y-110260485D02*
X135115340Y-110289057D01*
X135115340Y-110289057D02*
X134886769Y-110289057D01*
X135772483Y-109974771D02*
X135486769Y-109974771D01*
X135486769Y-109974771D02*
X135458197Y-110260485D01*
X135458197Y-110260485D02*
X135486769Y-110231914D01*
X135486769Y-110231914D02*
X135543912Y-110203342D01*
X135543912Y-110203342D02*
X135686769Y-110203342D01*
X135686769Y-110203342D02*
X135743912Y-110231914D01*
X135743912Y-110231914D02*
X135772483Y-110260485D01*
X135772483Y-110260485D02*
X135801054Y-110317628D01*
X135801054Y-110317628D02*
X135801054Y-110460485D01*
X135801054Y-110460485D02*
X135772483Y-110517628D01*
X135772483Y-110517628D02*
X135743912Y-110546200D01*
X135743912Y-110546200D02*
X135686769Y-110574771D01*
X135686769Y-110574771D02*
X135543912Y-110574771D01*
X135543912Y-110574771D02*
X135486769Y-110546200D01*
X135486769Y-110546200D02*
X135458197Y-110517628D01*
X132689285Y-115230128D02*
X132660713Y-115258700D01*
X132660713Y-115258700D02*
X132574999Y-115287271D01*
X132574999Y-115287271D02*
X132517856Y-115287271D01*
X132517856Y-115287271D02*
X132432142Y-115258700D01*
X132432142Y-115258700D02*
X132374999Y-115201557D01*
X132374999Y-115201557D02*
X132346428Y-115144414D01*
X132346428Y-115144414D02*
X132317856Y-115030128D01*
X132317856Y-115030128D02*
X132317856Y-114944414D01*
X132317856Y-114944414D02*
X132346428Y-114830128D01*
X132346428Y-114830128D02*
X132374999Y-114772985D01*
X132374999Y-114772985D02*
X132432142Y-114715842D01*
X132432142Y-114715842D02*
X132517856Y-114687271D01*
X132517856Y-114687271D02*
X132574999Y-114687271D01*
X132574999Y-114687271D02*
X132660713Y-114715842D01*
X132660713Y-114715842D02*
X132689285Y-114744414D01*
X133260713Y-115287271D02*
X132917856Y-115287271D01*
X133089285Y-115287271D02*
X133089285Y-114687271D01*
X133089285Y-114687271D02*
X133032142Y-114772985D01*
X133032142Y-114772985D02*
X132974999Y-114830128D01*
X132974999Y-114830128D02*
X132917856Y-114858700D01*
X133775000Y-114687271D02*
X133660714Y-114687271D01*
X133660714Y-114687271D02*
X133603571Y-114715842D01*
X133603571Y-114715842D02*
X133575000Y-114744414D01*
X133575000Y-114744414D02*
X133517857Y-114830128D01*
X133517857Y-114830128D02*
X133489285Y-114944414D01*
X133489285Y-114944414D02*
X133489285Y-115172985D01*
X133489285Y-115172985D02*
X133517857Y-115230128D01*
X133517857Y-115230128D02*
X133546428Y-115258700D01*
X133546428Y-115258700D02*
X133603571Y-115287271D01*
X133603571Y-115287271D02*
X133717857Y-115287271D01*
X133717857Y-115287271D02*
X133775000Y-115258700D01*
X133775000Y-115258700D02*
X133803571Y-115230128D01*
X133803571Y-115230128D02*
X133832142Y-115172985D01*
X133832142Y-115172985D02*
X133832142Y-115030128D01*
X133832142Y-115030128D02*
X133803571Y-114972985D01*
X133803571Y-114972985D02*
X133775000Y-114944414D01*
X133775000Y-114944414D02*
X133717857Y-114915842D01*
X133717857Y-114915842D02*
X133603571Y-114915842D01*
X133603571Y-114915842D02*
X133546428Y-114944414D01*
X133546428Y-114944414D02*
X133517857Y-114972985D01*
X133517857Y-114972985D02*
X133489285Y-115030128D01*
X154810124Y-54879527D02*
X154781552Y-54908099D01*
X154781552Y-54908099D02*
X154695838Y-54936670D01*
X154695838Y-54936670D02*
X154638695Y-54936670D01*
X154638695Y-54936670D02*
X154552981Y-54908099D01*
X154552981Y-54908099D02*
X154495838Y-54850956D01*
X154495838Y-54850956D02*
X154467267Y-54793813D01*
X154467267Y-54793813D02*
X154438695Y-54679527D01*
X154438695Y-54679527D02*
X154438695Y-54593813D01*
X154438695Y-54593813D02*
X154467267Y-54479527D01*
X154467267Y-54479527D02*
X154495838Y-54422384D01*
X154495838Y-54422384D02*
X154552981Y-54365241D01*
X154552981Y-54365241D02*
X154638695Y-54336670D01*
X154638695Y-54336670D02*
X154695838Y-54336670D01*
X154695838Y-54336670D02*
X154781552Y-54365241D01*
X154781552Y-54365241D02*
X154810124Y-54393813D01*
X155038695Y-54393813D02*
X155067267Y-54365241D01*
X155067267Y-54365241D02*
X155124410Y-54336670D01*
X155124410Y-54336670D02*
X155267267Y-54336670D01*
X155267267Y-54336670D02*
X155324410Y-54365241D01*
X155324410Y-54365241D02*
X155352981Y-54393813D01*
X155352981Y-54393813D02*
X155381552Y-54450956D01*
X155381552Y-54450956D02*
X155381552Y-54508099D01*
X155381552Y-54508099D02*
X155352981Y-54593813D01*
X155352981Y-54593813D02*
X155010124Y-54936670D01*
X155010124Y-54936670D02*
X155381552Y-54936670D01*
X155581553Y-54336670D02*
X155981553Y-54336670D01*
X155981553Y-54336670D02*
X155724410Y-54936670D01*
X142237628Y-62435714D02*
X142266200Y-62464286D01*
X142266200Y-62464286D02*
X142294771Y-62550000D01*
X142294771Y-62550000D02*
X142294771Y-62607143D01*
X142294771Y-62607143D02*
X142266200Y-62692857D01*
X142266200Y-62692857D02*
X142209057Y-62750000D01*
X142209057Y-62750000D02*
X142151914Y-62778571D01*
X142151914Y-62778571D02*
X142037628Y-62807143D01*
X142037628Y-62807143D02*
X141951914Y-62807143D01*
X141951914Y-62807143D02*
X141837628Y-62778571D01*
X141837628Y-62778571D02*
X141780485Y-62750000D01*
X141780485Y-62750000D02*
X141723342Y-62692857D01*
X141723342Y-62692857D02*
X141694771Y-62607143D01*
X141694771Y-62607143D02*
X141694771Y-62550000D01*
X141694771Y-62550000D02*
X141723342Y-62464286D01*
X141723342Y-62464286D02*
X141751914Y-62435714D01*
X142294771Y-61864286D02*
X142294771Y-62207143D01*
X142294771Y-62035714D02*
X141694771Y-62035714D01*
X141694771Y-62035714D02*
X141780485Y-62092857D01*
X141780485Y-62092857D02*
X141837628Y-62150000D01*
X141837628Y-62150000D02*
X141866200Y-62207143D01*
X141694771Y-61664285D02*
X141694771Y-61264285D01*
X141694771Y-61264285D02*
X142294771Y-61521428D01*
X145971037Y-102086704D02*
X145942465Y-102115276D01*
X145942465Y-102115276D02*
X145856751Y-102143847D01*
X145856751Y-102143847D02*
X145799608Y-102143847D01*
X145799608Y-102143847D02*
X145713894Y-102115276D01*
X145713894Y-102115276D02*
X145656751Y-102058133D01*
X145656751Y-102058133D02*
X145628180Y-102000990D01*
X145628180Y-102000990D02*
X145599608Y-101886704D01*
X145599608Y-101886704D02*
X145599608Y-101800990D01*
X145599608Y-101800990D02*
X145628180Y-101686704D01*
X145628180Y-101686704D02*
X145656751Y-101629561D01*
X145656751Y-101629561D02*
X145713894Y-101572418D01*
X145713894Y-101572418D02*
X145799608Y-101543847D01*
X145799608Y-101543847D02*
X145856751Y-101543847D01*
X145856751Y-101543847D02*
X145942465Y-101572418D01*
X145942465Y-101572418D02*
X145971037Y-101600990D01*
X146542465Y-102143847D02*
X146199608Y-102143847D01*
X146371037Y-102143847D02*
X146371037Y-101543847D01*
X146371037Y-101543847D02*
X146313894Y-101629561D01*
X146313894Y-101629561D02*
X146256751Y-101686704D01*
X146256751Y-101686704D02*
X146199608Y-101715276D01*
X147085323Y-101543847D02*
X146799609Y-101543847D01*
X146799609Y-101543847D02*
X146771037Y-101829561D01*
X146771037Y-101829561D02*
X146799609Y-101800990D01*
X146799609Y-101800990D02*
X146856752Y-101772418D01*
X146856752Y-101772418D02*
X146999609Y-101772418D01*
X146999609Y-101772418D02*
X147056752Y-101800990D01*
X147056752Y-101800990D02*
X147085323Y-101829561D01*
X147085323Y-101829561D02*
X147113894Y-101886704D01*
X147113894Y-101886704D02*
X147113894Y-102029561D01*
X147113894Y-102029561D02*
X147085323Y-102086704D01*
X147085323Y-102086704D02*
X147056752Y-102115276D01*
X147056752Y-102115276D02*
X146999609Y-102143847D01*
X146999609Y-102143847D02*
X146856752Y-102143847D01*
X146856752Y-102143847D02*
X146799609Y-102115276D01*
X146799609Y-102115276D02*
X146771037Y-102086704D01*
X161331486Y-101129903D02*
X161131486Y-100844189D01*
X160988629Y-101129903D02*
X160988629Y-100529903D01*
X160988629Y-100529903D02*
X161217200Y-100529903D01*
X161217200Y-100529903D02*
X161274343Y-100558474D01*
X161274343Y-100558474D02*
X161302914Y-100587046D01*
X161302914Y-100587046D02*
X161331486Y-100644189D01*
X161331486Y-100644189D02*
X161331486Y-100729903D01*
X161331486Y-100729903D02*
X161302914Y-100787046D01*
X161302914Y-100787046D02*
X161274343Y-100815617D01*
X161274343Y-100815617D02*
X161217200Y-100844189D01*
X161217200Y-100844189D02*
X160988629Y-100844189D01*
X161902914Y-101129903D02*
X161560057Y-101129903D01*
X161731486Y-101129903D02*
X161731486Y-100529903D01*
X161731486Y-100529903D02*
X161674343Y-100615617D01*
X161674343Y-100615617D02*
X161617200Y-100672760D01*
X161617200Y-100672760D02*
X161560057Y-100701332D01*
X162274343Y-100529903D02*
X162331486Y-100529903D01*
X162331486Y-100529903D02*
X162388629Y-100558474D01*
X162388629Y-100558474D02*
X162417201Y-100587046D01*
X162417201Y-100587046D02*
X162445772Y-100644189D01*
X162445772Y-100644189D02*
X162474343Y-100758474D01*
X162474343Y-100758474D02*
X162474343Y-100901332D01*
X162474343Y-100901332D02*
X162445772Y-101015617D01*
X162445772Y-101015617D02*
X162417201Y-101072760D01*
X162417201Y-101072760D02*
X162388629Y-101101332D01*
X162388629Y-101101332D02*
X162331486Y-101129903D01*
X162331486Y-101129903D02*
X162274343Y-101129903D01*
X162274343Y-101129903D02*
X162217201Y-101101332D01*
X162217201Y-101101332D02*
X162188629Y-101072760D01*
X162188629Y-101072760D02*
X162160058Y-101015617D01*
X162160058Y-101015617D02*
X162131486Y-100901332D01*
X162131486Y-100901332D02*
X162131486Y-100758474D01*
X162131486Y-100758474D02*
X162160058Y-100644189D01*
X162160058Y-100644189D02*
X162188629Y-100587046D01*
X162188629Y-100587046D02*
X162217201Y-100558474D01*
X162217201Y-100558474D02*
X162274343Y-100529903D01*
X137327500Y-115210520D02*
X137127500Y-114924806D01*
X136984643Y-115210520D02*
X136984643Y-114610520D01*
X136984643Y-114610520D02*
X137213214Y-114610520D01*
X137213214Y-114610520D02*
X137270357Y-114639091D01*
X137270357Y-114639091D02*
X137298928Y-114667663D01*
X137298928Y-114667663D02*
X137327500Y-114724806D01*
X137327500Y-114724806D02*
X137327500Y-114810520D01*
X137327500Y-114810520D02*
X137298928Y-114867663D01*
X137298928Y-114867663D02*
X137270357Y-114896234D01*
X137270357Y-114896234D02*
X137213214Y-114924806D01*
X137213214Y-114924806D02*
X136984643Y-114924806D01*
X137841786Y-114610520D02*
X137727500Y-114610520D01*
X137727500Y-114610520D02*
X137670357Y-114639091D01*
X137670357Y-114639091D02*
X137641786Y-114667663D01*
X137641786Y-114667663D02*
X137584643Y-114753377D01*
X137584643Y-114753377D02*
X137556071Y-114867663D01*
X137556071Y-114867663D02*
X137556071Y-115096234D01*
X137556071Y-115096234D02*
X137584643Y-115153377D01*
X137584643Y-115153377D02*
X137613214Y-115181949D01*
X137613214Y-115181949D02*
X137670357Y-115210520D01*
X137670357Y-115210520D02*
X137784643Y-115210520D01*
X137784643Y-115210520D02*
X137841786Y-115181949D01*
X137841786Y-115181949D02*
X137870357Y-115153377D01*
X137870357Y-115153377D02*
X137898928Y-115096234D01*
X137898928Y-115096234D02*
X137898928Y-114953377D01*
X137898928Y-114953377D02*
X137870357Y-114896234D01*
X137870357Y-114896234D02*
X137841786Y-114867663D01*
X137841786Y-114867663D02*
X137784643Y-114839091D01*
X137784643Y-114839091D02*
X137670357Y-114839091D01*
X137670357Y-114839091D02*
X137613214Y-114867663D01*
X137613214Y-114867663D02*
X137584643Y-114896234D01*
X137584643Y-114896234D02*
X137556071Y-114953377D01*
X151869484Y-51803452D02*
X151869484Y-52612975D01*
X151869484Y-52612975D02*
X151917103Y-52708213D01*
X151917103Y-52708213D02*
X151964722Y-52755833D01*
X151964722Y-52755833D02*
X152059960Y-52803452D01*
X152059960Y-52803452D02*
X152250436Y-52803452D01*
X152250436Y-52803452D02*
X152345674Y-52755833D01*
X152345674Y-52755833D02*
X152393293Y-52708213D01*
X152393293Y-52708213D02*
X152440912Y-52612975D01*
X152440912Y-52612975D02*
X152440912Y-51803452D01*
X153059960Y-52232023D02*
X152964722Y-52184404D01*
X152964722Y-52184404D02*
X152917103Y-52136785D01*
X152917103Y-52136785D02*
X152869484Y-52041547D01*
X152869484Y-52041547D02*
X152869484Y-51993928D01*
X152869484Y-51993928D02*
X152917103Y-51898690D01*
X152917103Y-51898690D02*
X152964722Y-51851071D01*
X152964722Y-51851071D02*
X153059960Y-51803452D01*
X153059960Y-51803452D02*
X153250436Y-51803452D01*
X153250436Y-51803452D02*
X153345674Y-51851071D01*
X153345674Y-51851071D02*
X153393293Y-51898690D01*
X153393293Y-51898690D02*
X153440912Y-51993928D01*
X153440912Y-51993928D02*
X153440912Y-52041547D01*
X153440912Y-52041547D02*
X153393293Y-52136785D01*
X153393293Y-52136785D02*
X153345674Y-52184404D01*
X153345674Y-52184404D02*
X153250436Y-52232023D01*
X153250436Y-52232023D02*
X153059960Y-52232023D01*
X153059960Y-52232023D02*
X152964722Y-52279642D01*
X152964722Y-52279642D02*
X152917103Y-52327261D01*
X152917103Y-52327261D02*
X152869484Y-52422499D01*
X152869484Y-52422499D02*
X152869484Y-52612975D01*
X152869484Y-52612975D02*
X152917103Y-52708213D01*
X152917103Y-52708213D02*
X152964722Y-52755833D01*
X152964722Y-52755833D02*
X153059960Y-52803452D01*
X153059960Y-52803452D02*
X153250436Y-52803452D01*
X153250436Y-52803452D02*
X153345674Y-52755833D01*
X153345674Y-52755833D02*
X153393293Y-52708213D01*
X153393293Y-52708213D02*
X153440912Y-52612975D01*
X153440912Y-52612975D02*
X153440912Y-52422499D01*
X153440912Y-52422499D02*
X153393293Y-52327261D01*
X153393293Y-52327261D02*
X153345674Y-52279642D01*
X153345674Y-52279642D02*
X153250436Y-52232023D01*
X112789285Y-97819771D02*
X112589285Y-97534057D01*
X112446428Y-97819771D02*
X112446428Y-97219771D01*
X112446428Y-97219771D02*
X112674999Y-97219771D01*
X112674999Y-97219771D02*
X112732142Y-97248342D01*
X112732142Y-97248342D02*
X112760713Y-97276914D01*
X112760713Y-97276914D02*
X112789285Y-97334057D01*
X112789285Y-97334057D02*
X112789285Y-97419771D01*
X112789285Y-97419771D02*
X112760713Y-97476914D01*
X112760713Y-97476914D02*
X112732142Y-97505485D01*
X112732142Y-97505485D02*
X112674999Y-97534057D01*
X112674999Y-97534057D02*
X112446428Y-97534057D01*
X113017856Y-97276914D02*
X113046428Y-97248342D01*
X113046428Y-97248342D02*
X113103571Y-97219771D01*
X113103571Y-97219771D02*
X113246428Y-97219771D01*
X113246428Y-97219771D02*
X113303571Y-97248342D01*
X113303571Y-97248342D02*
X113332142Y-97276914D01*
X113332142Y-97276914D02*
X113360713Y-97334057D01*
X113360713Y-97334057D02*
X113360713Y-97391200D01*
X113360713Y-97391200D02*
X113332142Y-97476914D01*
X113332142Y-97476914D02*
X112989285Y-97819771D01*
X112989285Y-97819771D02*
X113360713Y-97819771D01*
X113932142Y-97819771D02*
X113589285Y-97819771D01*
X113760714Y-97819771D02*
X113760714Y-97219771D01*
X113760714Y-97219771D02*
X113703571Y-97305485D01*
X113703571Y-97305485D02*
X113646428Y-97362628D01*
X113646428Y-97362628D02*
X113589285Y-97391200D01*
X141789285Y-74394771D02*
X141589285Y-74109057D01*
X141446428Y-74394771D02*
X141446428Y-73794771D01*
X141446428Y-73794771D02*
X141674999Y-73794771D01*
X141674999Y-73794771D02*
X141732142Y-73823342D01*
X141732142Y-73823342D02*
X141760713Y-73851914D01*
X141760713Y-73851914D02*
X141789285Y-73909057D01*
X141789285Y-73909057D02*
X141789285Y-73994771D01*
X141789285Y-73994771D02*
X141760713Y-74051914D01*
X141760713Y-74051914D02*
X141732142Y-74080485D01*
X141732142Y-74080485D02*
X141674999Y-74109057D01*
X141674999Y-74109057D02*
X141446428Y-74109057D01*
X142017856Y-73851914D02*
X142046428Y-73823342D01*
X142046428Y-73823342D02*
X142103571Y-73794771D01*
X142103571Y-73794771D02*
X142246428Y-73794771D01*
X142246428Y-73794771D02*
X142303571Y-73823342D01*
X142303571Y-73823342D02*
X142332142Y-73851914D01*
X142332142Y-73851914D02*
X142360713Y-73909057D01*
X142360713Y-73909057D02*
X142360713Y-73966200D01*
X142360713Y-73966200D02*
X142332142Y-74051914D01*
X142332142Y-74051914D02*
X141989285Y-74394771D01*
X141989285Y-74394771D02*
X142360713Y-74394771D01*
X142703571Y-74051914D02*
X142646428Y-74023342D01*
X142646428Y-74023342D02*
X142617857Y-73994771D01*
X142617857Y-73994771D02*
X142589285Y-73937628D01*
X142589285Y-73937628D02*
X142589285Y-73909057D01*
X142589285Y-73909057D02*
X142617857Y-73851914D01*
X142617857Y-73851914D02*
X142646428Y-73823342D01*
X142646428Y-73823342D02*
X142703571Y-73794771D01*
X142703571Y-73794771D02*
X142817857Y-73794771D01*
X142817857Y-73794771D02*
X142875000Y-73823342D01*
X142875000Y-73823342D02*
X142903571Y-73851914D01*
X142903571Y-73851914D02*
X142932142Y-73909057D01*
X142932142Y-73909057D02*
X142932142Y-73937628D01*
X142932142Y-73937628D02*
X142903571Y-73994771D01*
X142903571Y-73994771D02*
X142875000Y-74023342D01*
X142875000Y-74023342D02*
X142817857Y-74051914D01*
X142817857Y-74051914D02*
X142703571Y-74051914D01*
X142703571Y-74051914D02*
X142646428Y-74080485D01*
X142646428Y-74080485D02*
X142617857Y-74109057D01*
X142617857Y-74109057D02*
X142589285Y-74166200D01*
X142589285Y-74166200D02*
X142589285Y-74280485D01*
X142589285Y-74280485D02*
X142617857Y-74337628D01*
X142617857Y-74337628D02*
X142646428Y-74366200D01*
X142646428Y-74366200D02*
X142703571Y-74394771D01*
X142703571Y-74394771D02*
X142817857Y-74394771D01*
X142817857Y-74394771D02*
X142875000Y-74366200D01*
X142875000Y-74366200D02*
X142903571Y-74337628D01*
X142903571Y-74337628D02*
X142932142Y-74280485D01*
X142932142Y-74280485D02*
X142932142Y-74166200D01*
X142932142Y-74166200D02*
X142903571Y-74109057D01*
X142903571Y-74109057D02*
X142875000Y-74080485D01*
X142875000Y-74080485D02*
X142817857Y-74051914D01*
X149234285Y-67389771D02*
X149034285Y-67104057D01*
X148891428Y-67389771D02*
X148891428Y-66789771D01*
X148891428Y-66789771D02*
X149119999Y-66789771D01*
X149119999Y-66789771D02*
X149177142Y-66818342D01*
X149177142Y-66818342D02*
X149205713Y-66846914D01*
X149205713Y-66846914D02*
X149234285Y-66904057D01*
X149234285Y-66904057D02*
X149234285Y-66989771D01*
X149234285Y-66989771D02*
X149205713Y-67046914D01*
X149205713Y-67046914D02*
X149177142Y-67075485D01*
X149177142Y-67075485D02*
X149119999Y-67104057D01*
X149119999Y-67104057D02*
X148891428Y-67104057D01*
X149462856Y-66846914D02*
X149491428Y-66818342D01*
X149491428Y-66818342D02*
X149548571Y-66789771D01*
X149548571Y-66789771D02*
X149691428Y-66789771D01*
X149691428Y-66789771D02*
X149748571Y-66818342D01*
X149748571Y-66818342D02*
X149777142Y-66846914D01*
X149777142Y-66846914D02*
X149805713Y-66904057D01*
X149805713Y-66904057D02*
X149805713Y-66961200D01*
X149805713Y-66961200D02*
X149777142Y-67046914D01*
X149777142Y-67046914D02*
X149434285Y-67389771D01*
X149434285Y-67389771D02*
X149805713Y-67389771D01*
X150348571Y-66789771D02*
X150062857Y-66789771D01*
X150062857Y-66789771D02*
X150034285Y-67075485D01*
X150034285Y-67075485D02*
X150062857Y-67046914D01*
X150062857Y-67046914D02*
X150120000Y-67018342D01*
X150120000Y-67018342D02*
X150262857Y-67018342D01*
X150262857Y-67018342D02*
X150320000Y-67046914D01*
X150320000Y-67046914D02*
X150348571Y-67075485D01*
X150348571Y-67075485D02*
X150377142Y-67132628D01*
X150377142Y-67132628D02*
X150377142Y-67275485D01*
X150377142Y-67275485D02*
X150348571Y-67332628D01*
X150348571Y-67332628D02*
X150320000Y-67361200D01*
X150320000Y-67361200D02*
X150262857Y-67389771D01*
X150262857Y-67389771D02*
X150120000Y-67389771D01*
X150120000Y-67389771D02*
X150062857Y-67361200D01*
X150062857Y-67361200D02*
X150034285Y-67332628D01*
X148643183Y-100990403D02*
X148443183Y-100704689D01*
X148300326Y-100990403D02*
X148300326Y-100390403D01*
X148300326Y-100390403D02*
X148528897Y-100390403D01*
X148528897Y-100390403D02*
X148586040Y-100418974D01*
X148586040Y-100418974D02*
X148614611Y-100447546D01*
X148614611Y-100447546D02*
X148643183Y-100504689D01*
X148643183Y-100504689D02*
X148643183Y-100590403D01*
X148643183Y-100590403D02*
X148614611Y-100647546D01*
X148614611Y-100647546D02*
X148586040Y-100676117D01*
X148586040Y-100676117D02*
X148528897Y-100704689D01*
X148528897Y-100704689D02*
X148300326Y-100704689D01*
X149214611Y-100990403D02*
X148871754Y-100990403D01*
X149043183Y-100990403D02*
X149043183Y-100390403D01*
X149043183Y-100390403D02*
X148986040Y-100476117D01*
X148986040Y-100476117D02*
X148928897Y-100533260D01*
X148928897Y-100533260D02*
X148871754Y-100561832D01*
X149757469Y-100390403D02*
X149471755Y-100390403D01*
X149471755Y-100390403D02*
X149443183Y-100676117D01*
X149443183Y-100676117D02*
X149471755Y-100647546D01*
X149471755Y-100647546D02*
X149528898Y-100618974D01*
X149528898Y-100618974D02*
X149671755Y-100618974D01*
X149671755Y-100618974D02*
X149728898Y-100647546D01*
X149728898Y-100647546D02*
X149757469Y-100676117D01*
X149757469Y-100676117D02*
X149786040Y-100733260D01*
X149786040Y-100733260D02*
X149786040Y-100876117D01*
X149786040Y-100876117D02*
X149757469Y-100933260D01*
X149757469Y-100933260D02*
X149728898Y-100961832D01*
X149728898Y-100961832D02*
X149671755Y-100990403D01*
X149671755Y-100990403D02*
X149528898Y-100990403D01*
X149528898Y-100990403D02*
X149471755Y-100961832D01*
X149471755Y-100961832D02*
X149443183Y-100933260D01*
X147314285Y-49762628D02*
X147285713Y-49791200D01*
X147285713Y-49791200D02*
X147199999Y-49819771D01*
X147199999Y-49819771D02*
X147142856Y-49819771D01*
X147142856Y-49819771D02*
X147057142Y-49791200D01*
X147057142Y-49791200D02*
X146999999Y-49734057D01*
X146999999Y-49734057D02*
X146971428Y-49676914D01*
X146971428Y-49676914D02*
X146942856Y-49562628D01*
X146942856Y-49562628D02*
X146942856Y-49476914D01*
X146942856Y-49476914D02*
X146971428Y-49362628D01*
X146971428Y-49362628D02*
X146999999Y-49305485D01*
X146999999Y-49305485D02*
X147057142Y-49248342D01*
X147057142Y-49248342D02*
X147142856Y-49219771D01*
X147142856Y-49219771D02*
X147199999Y-49219771D01*
X147199999Y-49219771D02*
X147285713Y-49248342D01*
X147285713Y-49248342D02*
X147314285Y-49276914D01*
X147542856Y-49276914D02*
X147571428Y-49248342D01*
X147571428Y-49248342D02*
X147628571Y-49219771D01*
X147628571Y-49219771D02*
X147771428Y-49219771D01*
X147771428Y-49219771D02*
X147828571Y-49248342D01*
X147828571Y-49248342D02*
X147857142Y-49276914D01*
X147857142Y-49276914D02*
X147885713Y-49334057D01*
X147885713Y-49334057D02*
X147885713Y-49391200D01*
X147885713Y-49391200D02*
X147857142Y-49476914D01*
X147857142Y-49476914D02*
X147514285Y-49819771D01*
X147514285Y-49819771D02*
X147885713Y-49819771D01*
X148400000Y-49219771D02*
X148285714Y-49219771D01*
X148285714Y-49219771D02*
X148228571Y-49248342D01*
X148228571Y-49248342D02*
X148200000Y-49276914D01*
X148200000Y-49276914D02*
X148142857Y-49362628D01*
X148142857Y-49362628D02*
X148114285Y-49476914D01*
X148114285Y-49476914D02*
X148114285Y-49705485D01*
X148114285Y-49705485D02*
X148142857Y-49762628D01*
X148142857Y-49762628D02*
X148171428Y-49791200D01*
X148171428Y-49791200D02*
X148228571Y-49819771D01*
X148228571Y-49819771D02*
X148342857Y-49819771D01*
X148342857Y-49819771D02*
X148400000Y-49791200D01*
X148400000Y-49791200D02*
X148428571Y-49762628D01*
X148428571Y-49762628D02*
X148457142Y-49705485D01*
X148457142Y-49705485D02*
X148457142Y-49562628D01*
X148457142Y-49562628D02*
X148428571Y-49505485D01*
X148428571Y-49505485D02*
X148400000Y-49476914D01*
X148400000Y-49476914D02*
X148342857Y-49448342D01*
X148342857Y-49448342D02*
X148228571Y-49448342D01*
X148228571Y-49448342D02*
X148171428Y-49476914D01*
X148171428Y-49476914D02*
X148142857Y-49505485D01*
X148142857Y-49505485D02*
X148114285Y-49562628D01*
X130439285Y-115287271D02*
X130239285Y-115001557D01*
X130096428Y-115287271D02*
X130096428Y-114687271D01*
X130096428Y-114687271D02*
X130324999Y-114687271D01*
X130324999Y-114687271D02*
X130382142Y-114715842D01*
X130382142Y-114715842D02*
X130410713Y-114744414D01*
X130410713Y-114744414D02*
X130439285Y-114801557D01*
X130439285Y-114801557D02*
X130439285Y-114887271D01*
X130439285Y-114887271D02*
X130410713Y-114944414D01*
X130410713Y-114944414D02*
X130382142Y-114972985D01*
X130382142Y-114972985D02*
X130324999Y-115001557D01*
X130324999Y-115001557D02*
X130096428Y-115001557D01*
X131010713Y-115287271D02*
X130667856Y-115287271D01*
X130839285Y-115287271D02*
X130839285Y-114687271D01*
X130839285Y-114687271D02*
X130782142Y-114772985D01*
X130782142Y-114772985D02*
X130724999Y-114830128D01*
X130724999Y-114830128D02*
X130667856Y-114858700D01*
X131525000Y-114687271D02*
X131410714Y-114687271D01*
X131410714Y-114687271D02*
X131353571Y-114715842D01*
X131353571Y-114715842D02*
X131325000Y-114744414D01*
X131325000Y-114744414D02*
X131267857Y-114830128D01*
X131267857Y-114830128D02*
X131239285Y-114944414D01*
X131239285Y-114944414D02*
X131239285Y-115172985D01*
X131239285Y-115172985D02*
X131267857Y-115230128D01*
X131267857Y-115230128D02*
X131296428Y-115258700D01*
X131296428Y-115258700D02*
X131353571Y-115287271D01*
X131353571Y-115287271D02*
X131467857Y-115287271D01*
X131467857Y-115287271D02*
X131525000Y-115258700D01*
X131525000Y-115258700D02*
X131553571Y-115230128D01*
X131553571Y-115230128D02*
X131582142Y-115172985D01*
X131582142Y-115172985D02*
X131582142Y-115030128D01*
X131582142Y-115030128D02*
X131553571Y-114972985D01*
X131553571Y-114972985D02*
X131525000Y-114944414D01*
X131525000Y-114944414D02*
X131467857Y-114915842D01*
X131467857Y-114915842D02*
X131353571Y-114915842D01*
X131353571Y-114915842D02*
X131296428Y-114944414D01*
X131296428Y-114944414D02*
X131267857Y-114972985D01*
X131267857Y-114972985D02*
X131239285Y-115030128D01*
D11*
X168916666Y-41482419D02*
X168583333Y-41006228D01*
X168345238Y-41482419D02*
X168345238Y-40482419D01*
X168345238Y-40482419D02*
X168726190Y-40482419D01*
X168726190Y-40482419D02*
X168821428Y-40530038D01*
X168821428Y-40530038D02*
X168869047Y-40577657D01*
X168869047Y-40577657D02*
X168916666Y-40672895D01*
X168916666Y-40672895D02*
X168916666Y-40815752D01*
X168916666Y-40815752D02*
X168869047Y-40910990D01*
X168869047Y-40910990D02*
X168821428Y-40958609D01*
X168821428Y-40958609D02*
X168726190Y-41006228D01*
X168726190Y-41006228D02*
X168345238Y-41006228D01*
X169345238Y-40958609D02*
X169678571Y-40958609D01*
X169821428Y-41482419D02*
X169345238Y-41482419D01*
X169345238Y-41482419D02*
X169345238Y-40482419D01*
X169345238Y-40482419D02*
X169821428Y-40482419D01*
X170583333Y-40958609D02*
X170250000Y-40958609D01*
X170250000Y-41482419D02*
X170250000Y-40482419D01*
X170250000Y-40482419D02*
X170726190Y-40482419D01*
X171250000Y-40482419D02*
X171250000Y-40720514D01*
X171011905Y-40625276D02*
X171250000Y-40720514D01*
X171250000Y-40720514D02*
X171488095Y-40625276D01*
X171107143Y-40910990D02*
X171250000Y-40720514D01*
X171250000Y-40720514D02*
X171392857Y-40910990D01*
X172011905Y-40482419D02*
X172011905Y-40720514D01*
X171773810Y-40625276D02*
X172011905Y-40720514D01*
X172011905Y-40720514D02*
X172250000Y-40625276D01*
X171869048Y-40910990D02*
X172011905Y-40720514D01*
X172011905Y-40720514D02*
X172154762Y-40910990D01*
D10*
X145000000Y-111462628D02*
X144971428Y-111491200D01*
X144971428Y-111491200D02*
X144885714Y-111519771D01*
X144885714Y-111519771D02*
X144828571Y-111519771D01*
X144828571Y-111519771D02*
X144742857Y-111491200D01*
X144742857Y-111491200D02*
X144685714Y-111434057D01*
X144685714Y-111434057D02*
X144657143Y-111376914D01*
X144657143Y-111376914D02*
X144628571Y-111262628D01*
X144628571Y-111262628D02*
X144628571Y-111176914D01*
X144628571Y-111176914D02*
X144657143Y-111062628D01*
X144657143Y-111062628D02*
X144685714Y-111005485D01*
X144685714Y-111005485D02*
X144742857Y-110948342D01*
X144742857Y-110948342D02*
X144828571Y-110919771D01*
X144828571Y-110919771D02*
X144885714Y-110919771D01*
X144885714Y-110919771D02*
X144971428Y-110948342D01*
X144971428Y-110948342D02*
X145000000Y-110976914D01*
X145542857Y-110919771D02*
X145257143Y-110919771D01*
X145257143Y-110919771D02*
X145228571Y-111205485D01*
X145228571Y-111205485D02*
X145257143Y-111176914D01*
X145257143Y-111176914D02*
X145314286Y-111148342D01*
X145314286Y-111148342D02*
X145457143Y-111148342D01*
X145457143Y-111148342D02*
X145514286Y-111176914D01*
X145514286Y-111176914D02*
X145542857Y-111205485D01*
X145542857Y-111205485D02*
X145571428Y-111262628D01*
X145571428Y-111262628D02*
X145571428Y-111405485D01*
X145571428Y-111405485D02*
X145542857Y-111462628D01*
X145542857Y-111462628D02*
X145514286Y-111491200D01*
X145514286Y-111491200D02*
X145457143Y-111519771D01*
X145457143Y-111519771D02*
X145314286Y-111519771D01*
X145314286Y-111519771D02*
X145257143Y-111491200D01*
X145257143Y-111491200D02*
X145228571Y-111462628D01*
X151614285Y-87837628D02*
X151585713Y-87866200D01*
X151585713Y-87866200D02*
X151499999Y-87894771D01*
X151499999Y-87894771D02*
X151442856Y-87894771D01*
X151442856Y-87894771D02*
X151357142Y-87866200D01*
X151357142Y-87866200D02*
X151299999Y-87809057D01*
X151299999Y-87809057D02*
X151271428Y-87751914D01*
X151271428Y-87751914D02*
X151242856Y-87637628D01*
X151242856Y-87637628D02*
X151242856Y-87551914D01*
X151242856Y-87551914D02*
X151271428Y-87437628D01*
X151271428Y-87437628D02*
X151299999Y-87380485D01*
X151299999Y-87380485D02*
X151357142Y-87323342D01*
X151357142Y-87323342D02*
X151442856Y-87294771D01*
X151442856Y-87294771D02*
X151499999Y-87294771D01*
X151499999Y-87294771D02*
X151585713Y-87323342D01*
X151585713Y-87323342D02*
X151614285Y-87351914D01*
X151842856Y-87351914D02*
X151871428Y-87323342D01*
X151871428Y-87323342D02*
X151928571Y-87294771D01*
X151928571Y-87294771D02*
X152071428Y-87294771D01*
X152071428Y-87294771D02*
X152128571Y-87323342D01*
X152128571Y-87323342D02*
X152157142Y-87351914D01*
X152157142Y-87351914D02*
X152185713Y-87409057D01*
X152185713Y-87409057D02*
X152185713Y-87466200D01*
X152185713Y-87466200D02*
X152157142Y-87551914D01*
X152157142Y-87551914D02*
X151814285Y-87894771D01*
X151814285Y-87894771D02*
X152185713Y-87894771D01*
X152700000Y-87494771D02*
X152700000Y-87894771D01*
X152557142Y-87266200D02*
X152414285Y-87694771D01*
X152414285Y-87694771D02*
X152785714Y-87694771D01*
X151774285Y-67389771D02*
X151574285Y-67104057D01*
X151431428Y-67389771D02*
X151431428Y-66789771D01*
X151431428Y-66789771D02*
X151659999Y-66789771D01*
X151659999Y-66789771D02*
X151717142Y-66818342D01*
X151717142Y-66818342D02*
X151745713Y-66846914D01*
X151745713Y-66846914D02*
X151774285Y-66904057D01*
X151774285Y-66904057D02*
X151774285Y-66989771D01*
X151774285Y-66989771D02*
X151745713Y-67046914D01*
X151745713Y-67046914D02*
X151717142Y-67075485D01*
X151717142Y-67075485D02*
X151659999Y-67104057D01*
X151659999Y-67104057D02*
X151431428Y-67104057D01*
X152002856Y-66846914D02*
X152031428Y-66818342D01*
X152031428Y-66818342D02*
X152088571Y-66789771D01*
X152088571Y-66789771D02*
X152231428Y-66789771D01*
X152231428Y-66789771D02*
X152288571Y-66818342D01*
X152288571Y-66818342D02*
X152317142Y-66846914D01*
X152317142Y-66846914D02*
X152345713Y-66904057D01*
X152345713Y-66904057D02*
X152345713Y-66961200D01*
X152345713Y-66961200D02*
X152317142Y-67046914D01*
X152317142Y-67046914D02*
X151974285Y-67389771D01*
X151974285Y-67389771D02*
X152345713Y-67389771D01*
X152860000Y-66989771D02*
X152860000Y-67389771D01*
X152717142Y-66761200D02*
X152574285Y-67189771D01*
X152574285Y-67189771D02*
X152945714Y-67189771D01*
X135200000Y-102221522D02*
X135000000Y-101935808D01*
X134857143Y-102221522D02*
X134857143Y-101621522D01*
X134857143Y-101621522D02*
X135085714Y-101621522D01*
X135085714Y-101621522D02*
X135142857Y-101650093D01*
X135142857Y-101650093D02*
X135171428Y-101678665D01*
X135171428Y-101678665D02*
X135200000Y-101735808D01*
X135200000Y-101735808D02*
X135200000Y-101821522D01*
X135200000Y-101821522D02*
X135171428Y-101878665D01*
X135171428Y-101878665D02*
X135142857Y-101907236D01*
X135142857Y-101907236D02*
X135085714Y-101935808D01*
X135085714Y-101935808D02*
X134857143Y-101935808D01*
X135714286Y-101821522D02*
X135714286Y-102221522D01*
X135571428Y-101592951D02*
X135428571Y-102021522D01*
X135428571Y-102021522D02*
X135800000Y-102021522D01*
X159389112Y-100880011D02*
X159189112Y-100594297D01*
X159046255Y-100880011D02*
X159046255Y-100280011D01*
X159046255Y-100280011D02*
X159274826Y-100280011D01*
X159274826Y-100280011D02*
X159331969Y-100308582D01*
X159331969Y-100308582D02*
X159360540Y-100337154D01*
X159360540Y-100337154D02*
X159389112Y-100394297D01*
X159389112Y-100394297D02*
X159389112Y-100480011D01*
X159389112Y-100480011D02*
X159360540Y-100537154D01*
X159360540Y-100537154D02*
X159331969Y-100565725D01*
X159331969Y-100565725D02*
X159274826Y-100594297D01*
X159274826Y-100594297D02*
X159046255Y-100594297D01*
X159674826Y-100880011D02*
X159789112Y-100880011D01*
X159789112Y-100880011D02*
X159846255Y-100851440D01*
X159846255Y-100851440D02*
X159874826Y-100822868D01*
X159874826Y-100822868D02*
X159931969Y-100737154D01*
X159931969Y-100737154D02*
X159960540Y-100622868D01*
X159960540Y-100622868D02*
X159960540Y-100394297D01*
X159960540Y-100394297D02*
X159931969Y-100337154D01*
X159931969Y-100337154D02*
X159903398Y-100308582D01*
X159903398Y-100308582D02*
X159846255Y-100280011D01*
X159846255Y-100280011D02*
X159731969Y-100280011D01*
X159731969Y-100280011D02*
X159674826Y-100308582D01*
X159674826Y-100308582D02*
X159646255Y-100337154D01*
X159646255Y-100337154D02*
X159617683Y-100394297D01*
X159617683Y-100394297D02*
X159617683Y-100537154D01*
X159617683Y-100537154D02*
X159646255Y-100594297D01*
X159646255Y-100594297D02*
X159674826Y-100622868D01*
X159674826Y-100622868D02*
X159731969Y-100651440D01*
X159731969Y-100651440D02*
X159846255Y-100651440D01*
X159846255Y-100651440D02*
X159903398Y-100622868D01*
X159903398Y-100622868D02*
X159931969Y-100594297D01*
X159931969Y-100594297D02*
X159960540Y-100537154D01*
X142307143Y-45919771D02*
X142307143Y-45319771D01*
X142307143Y-45319771D02*
X142450000Y-45319771D01*
X142450000Y-45319771D02*
X142535714Y-45348342D01*
X142535714Y-45348342D02*
X142592857Y-45405485D01*
X142592857Y-45405485D02*
X142621428Y-45462628D01*
X142621428Y-45462628D02*
X142650000Y-45576914D01*
X142650000Y-45576914D02*
X142650000Y-45662628D01*
X142650000Y-45662628D02*
X142621428Y-45776914D01*
X142621428Y-45776914D02*
X142592857Y-45834057D01*
X142592857Y-45834057D02*
X142535714Y-45891200D01*
X142535714Y-45891200D02*
X142450000Y-45919771D01*
X142450000Y-45919771D02*
X142307143Y-45919771D01*
X143221428Y-45919771D02*
X142878571Y-45919771D01*
X143050000Y-45919771D02*
X143050000Y-45319771D01*
X143050000Y-45319771D02*
X142992857Y-45405485D01*
X142992857Y-45405485D02*
X142935714Y-45462628D01*
X142935714Y-45462628D02*
X142878571Y-45491200D01*
X112901914Y-105307142D02*
X112873342Y-105364285D01*
X112873342Y-105364285D02*
X112816200Y-105421428D01*
X112816200Y-105421428D02*
X112730485Y-105507142D01*
X112730485Y-105507142D02*
X112701914Y-105564285D01*
X112701914Y-105564285D02*
X112701914Y-105621428D01*
X112844771Y-105592857D02*
X112816200Y-105650000D01*
X112816200Y-105650000D02*
X112759057Y-105707142D01*
X112759057Y-105707142D02*
X112644771Y-105735714D01*
X112644771Y-105735714D02*
X112444771Y-105735714D01*
X112444771Y-105735714D02*
X112330485Y-105707142D01*
X112330485Y-105707142D02*
X112273342Y-105650000D01*
X112273342Y-105650000D02*
X112244771Y-105592857D01*
X112244771Y-105592857D02*
X112244771Y-105478571D01*
X112244771Y-105478571D02*
X112273342Y-105421428D01*
X112273342Y-105421428D02*
X112330485Y-105364285D01*
X112330485Y-105364285D02*
X112444771Y-105335714D01*
X112444771Y-105335714D02*
X112644771Y-105335714D01*
X112644771Y-105335714D02*
X112759057Y-105364285D01*
X112759057Y-105364285D02*
X112816200Y-105421428D01*
X112816200Y-105421428D02*
X112844771Y-105478571D01*
X112844771Y-105478571D02*
X112844771Y-105592857D01*
X112844771Y-104764286D02*
X112844771Y-105107143D01*
X112844771Y-104935714D02*
X112244771Y-104935714D01*
X112244771Y-104935714D02*
X112330485Y-104992857D01*
X112330485Y-104992857D02*
X112387628Y-105050000D01*
X112387628Y-105050000D02*
X112416200Y-105107143D01*
X163656700Y-94172287D02*
X163456700Y-93886573D01*
X163313843Y-94172287D02*
X163313843Y-93572287D01*
X163313843Y-93572287D02*
X163542414Y-93572287D01*
X163542414Y-93572287D02*
X163599557Y-93600858D01*
X163599557Y-93600858D02*
X163628128Y-93629430D01*
X163628128Y-93629430D02*
X163656700Y-93686573D01*
X163656700Y-93686573D02*
X163656700Y-93772287D01*
X163656700Y-93772287D02*
X163628128Y-93829430D01*
X163628128Y-93829430D02*
X163599557Y-93858001D01*
X163599557Y-93858001D02*
X163542414Y-93886573D01*
X163542414Y-93886573D02*
X163313843Y-93886573D01*
X163999557Y-93829430D02*
X163942414Y-93800858D01*
X163942414Y-93800858D02*
X163913843Y-93772287D01*
X163913843Y-93772287D02*
X163885271Y-93715144D01*
X163885271Y-93715144D02*
X163885271Y-93686573D01*
X163885271Y-93686573D02*
X163913843Y-93629430D01*
X163913843Y-93629430D02*
X163942414Y-93600858D01*
X163942414Y-93600858D02*
X163999557Y-93572287D01*
X163999557Y-93572287D02*
X164113843Y-93572287D01*
X164113843Y-93572287D02*
X164170986Y-93600858D01*
X164170986Y-93600858D02*
X164199557Y-93629430D01*
X164199557Y-93629430D02*
X164228128Y-93686573D01*
X164228128Y-93686573D02*
X164228128Y-93715144D01*
X164228128Y-93715144D02*
X164199557Y-93772287D01*
X164199557Y-93772287D02*
X164170986Y-93800858D01*
X164170986Y-93800858D02*
X164113843Y-93829430D01*
X164113843Y-93829430D02*
X163999557Y-93829430D01*
X163999557Y-93829430D02*
X163942414Y-93858001D01*
X163942414Y-93858001D02*
X163913843Y-93886573D01*
X163913843Y-93886573D02*
X163885271Y-93943716D01*
X163885271Y-93943716D02*
X163885271Y-94058001D01*
X163885271Y-94058001D02*
X163913843Y-94115144D01*
X163913843Y-94115144D02*
X163942414Y-94143716D01*
X163942414Y-94143716D02*
X163999557Y-94172287D01*
X163999557Y-94172287D02*
X164113843Y-94172287D01*
X164113843Y-94172287D02*
X164170986Y-94143716D01*
X164170986Y-94143716D02*
X164199557Y-94115144D01*
X164199557Y-94115144D02*
X164228128Y-94058001D01*
X164228128Y-94058001D02*
X164228128Y-93943716D01*
X164228128Y-93943716D02*
X164199557Y-93886573D01*
X164199557Y-93886573D02*
X164170986Y-93858001D01*
X164170986Y-93858001D02*
X164113843Y-93829430D01*
X118989285Y-86812628D02*
X118960713Y-86841200D01*
X118960713Y-86841200D02*
X118874999Y-86869771D01*
X118874999Y-86869771D02*
X118817856Y-86869771D01*
X118817856Y-86869771D02*
X118732142Y-86841200D01*
X118732142Y-86841200D02*
X118674999Y-86784057D01*
X118674999Y-86784057D02*
X118646428Y-86726914D01*
X118646428Y-86726914D02*
X118617856Y-86612628D01*
X118617856Y-86612628D02*
X118617856Y-86526914D01*
X118617856Y-86526914D02*
X118646428Y-86412628D01*
X118646428Y-86412628D02*
X118674999Y-86355485D01*
X118674999Y-86355485D02*
X118732142Y-86298342D01*
X118732142Y-86298342D02*
X118817856Y-86269771D01*
X118817856Y-86269771D02*
X118874999Y-86269771D01*
X118874999Y-86269771D02*
X118960713Y-86298342D01*
X118960713Y-86298342D02*
X118989285Y-86326914D01*
X119217856Y-86326914D02*
X119246428Y-86298342D01*
X119246428Y-86298342D02*
X119303571Y-86269771D01*
X119303571Y-86269771D02*
X119446428Y-86269771D01*
X119446428Y-86269771D02*
X119503571Y-86298342D01*
X119503571Y-86298342D02*
X119532142Y-86326914D01*
X119532142Y-86326914D02*
X119560713Y-86384057D01*
X119560713Y-86384057D02*
X119560713Y-86441200D01*
X119560713Y-86441200D02*
X119532142Y-86526914D01*
X119532142Y-86526914D02*
X119189285Y-86869771D01*
X119189285Y-86869771D02*
X119560713Y-86869771D01*
X119760714Y-86269771D02*
X120132142Y-86269771D01*
X120132142Y-86269771D02*
X119932142Y-86498342D01*
X119932142Y-86498342D02*
X120017857Y-86498342D01*
X120017857Y-86498342D02*
X120075000Y-86526914D01*
X120075000Y-86526914D02*
X120103571Y-86555485D01*
X120103571Y-86555485D02*
X120132142Y-86612628D01*
X120132142Y-86612628D02*
X120132142Y-86755485D01*
X120132142Y-86755485D02*
X120103571Y-86812628D01*
X120103571Y-86812628D02*
X120075000Y-86841200D01*
X120075000Y-86841200D02*
X120017857Y-86869771D01*
X120017857Y-86869771D02*
X119846428Y-86869771D01*
X119846428Y-86869771D02*
X119789285Y-86841200D01*
X119789285Y-86841200D02*
X119760714Y-86812628D01*
X123666666Y-45801319D02*
X123666666Y-46515604D01*
X123666666Y-46515604D02*
X123619047Y-46658461D01*
X123619047Y-46658461D02*
X123523809Y-46753700D01*
X123523809Y-46753700D02*
X123380952Y-46801319D01*
X123380952Y-46801319D02*
X123285714Y-46801319D01*
X124047619Y-45801319D02*
X124666666Y-45801319D01*
X124666666Y-45801319D02*
X124333333Y-46182271D01*
X124333333Y-46182271D02*
X124476190Y-46182271D01*
X124476190Y-46182271D02*
X124571428Y-46229890D01*
X124571428Y-46229890D02*
X124619047Y-46277509D01*
X124619047Y-46277509D02*
X124666666Y-46372747D01*
X124666666Y-46372747D02*
X124666666Y-46610842D01*
X124666666Y-46610842D02*
X124619047Y-46706080D01*
X124619047Y-46706080D02*
X124571428Y-46753700D01*
X124571428Y-46753700D02*
X124476190Y-46801319D01*
X124476190Y-46801319D02*
X124190476Y-46801319D01*
X124190476Y-46801319D02*
X124095238Y-46753700D01*
X124095238Y-46753700D02*
X124047619Y-46706080D01*
X134214285Y-71269771D02*
X134014285Y-70984057D01*
X133871428Y-71269771D02*
X133871428Y-70669771D01*
X133871428Y-70669771D02*
X134099999Y-70669771D01*
X134099999Y-70669771D02*
X134157142Y-70698342D01*
X134157142Y-70698342D02*
X134185713Y-70726914D01*
X134185713Y-70726914D02*
X134214285Y-70784057D01*
X134214285Y-70784057D02*
X134214285Y-70869771D01*
X134214285Y-70869771D02*
X134185713Y-70926914D01*
X134185713Y-70926914D02*
X134157142Y-70955485D01*
X134157142Y-70955485D02*
X134099999Y-70984057D01*
X134099999Y-70984057D02*
X133871428Y-70984057D01*
X134785713Y-71269771D02*
X134442856Y-71269771D01*
X134614285Y-71269771D02*
X134614285Y-70669771D01*
X134614285Y-70669771D02*
X134557142Y-70755485D01*
X134557142Y-70755485D02*
X134499999Y-70812628D01*
X134499999Y-70812628D02*
X134442856Y-70841200D01*
X135071428Y-71269771D02*
X135185714Y-71269771D01*
X135185714Y-71269771D02*
X135242857Y-71241200D01*
X135242857Y-71241200D02*
X135271428Y-71212628D01*
X135271428Y-71212628D02*
X135328571Y-71126914D01*
X135328571Y-71126914D02*
X135357142Y-71012628D01*
X135357142Y-71012628D02*
X135357142Y-70784057D01*
X135357142Y-70784057D02*
X135328571Y-70726914D01*
X135328571Y-70726914D02*
X135300000Y-70698342D01*
X135300000Y-70698342D02*
X135242857Y-70669771D01*
X135242857Y-70669771D02*
X135128571Y-70669771D01*
X135128571Y-70669771D02*
X135071428Y-70698342D01*
X135071428Y-70698342D02*
X135042857Y-70726914D01*
X135042857Y-70726914D02*
X135014285Y-70784057D01*
X135014285Y-70784057D02*
X135014285Y-70926914D01*
X135014285Y-70926914D02*
X135042857Y-70984057D01*
X135042857Y-70984057D02*
X135071428Y-71012628D01*
X135071428Y-71012628D02*
X135128571Y-71041200D01*
X135128571Y-71041200D02*
X135242857Y-71041200D01*
X135242857Y-71041200D02*
X135300000Y-71012628D01*
X135300000Y-71012628D02*
X135328571Y-70984057D01*
X135328571Y-70984057D02*
X135357142Y-70926914D01*
X131739285Y-71219771D02*
X131539285Y-70934057D01*
X131396428Y-71219771D02*
X131396428Y-70619771D01*
X131396428Y-70619771D02*
X131624999Y-70619771D01*
X131624999Y-70619771D02*
X131682142Y-70648342D01*
X131682142Y-70648342D02*
X131710713Y-70676914D01*
X131710713Y-70676914D02*
X131739285Y-70734057D01*
X131739285Y-70734057D02*
X131739285Y-70819771D01*
X131739285Y-70819771D02*
X131710713Y-70876914D01*
X131710713Y-70876914D02*
X131682142Y-70905485D01*
X131682142Y-70905485D02*
X131624999Y-70934057D01*
X131624999Y-70934057D02*
X131396428Y-70934057D01*
X131967856Y-70676914D02*
X131996428Y-70648342D01*
X131996428Y-70648342D02*
X132053571Y-70619771D01*
X132053571Y-70619771D02*
X132196428Y-70619771D01*
X132196428Y-70619771D02*
X132253571Y-70648342D01*
X132253571Y-70648342D02*
X132282142Y-70676914D01*
X132282142Y-70676914D02*
X132310713Y-70734057D01*
X132310713Y-70734057D02*
X132310713Y-70791200D01*
X132310713Y-70791200D02*
X132282142Y-70876914D01*
X132282142Y-70876914D02*
X131939285Y-71219771D01*
X131939285Y-71219771D02*
X132310713Y-71219771D01*
X132825000Y-70619771D02*
X132710714Y-70619771D01*
X132710714Y-70619771D02*
X132653571Y-70648342D01*
X132653571Y-70648342D02*
X132625000Y-70676914D01*
X132625000Y-70676914D02*
X132567857Y-70762628D01*
X132567857Y-70762628D02*
X132539285Y-70876914D01*
X132539285Y-70876914D02*
X132539285Y-71105485D01*
X132539285Y-71105485D02*
X132567857Y-71162628D01*
X132567857Y-71162628D02*
X132596428Y-71191200D01*
X132596428Y-71191200D02*
X132653571Y-71219771D01*
X132653571Y-71219771D02*
X132767857Y-71219771D01*
X132767857Y-71219771D02*
X132825000Y-71191200D01*
X132825000Y-71191200D02*
X132853571Y-71162628D01*
X132853571Y-71162628D02*
X132882142Y-71105485D01*
X132882142Y-71105485D02*
X132882142Y-70962628D01*
X132882142Y-70962628D02*
X132853571Y-70905485D01*
X132853571Y-70905485D02*
X132825000Y-70876914D01*
X132825000Y-70876914D02*
X132767857Y-70848342D01*
X132767857Y-70848342D02*
X132653571Y-70848342D01*
X132653571Y-70848342D02*
X132596428Y-70876914D01*
X132596428Y-70876914D02*
X132567857Y-70905485D01*
X132567857Y-70905485D02*
X132539285Y-70962628D01*
D12*
X137723407Y-68410640D02*
X137723407Y-68864768D01*
X136253407Y-68410640D02*
X136253407Y-68864768D01*
X144638748Y-46815000D02*
X145161252Y-46815000D01*
X144638748Y-48285000D02*
X145161252Y-48285000D01*
X133230000Y-51740000D02*
X133230000Y-58210000D01*
X133230000Y-58210000D02*
X140970000Y-58210000D01*
X140970000Y-51740000D02*
X133230000Y-51740000D01*
X140970000Y-53975000D02*
X140970000Y-51740000D01*
X140970000Y-58210000D02*
X140970000Y-55975000D01*
X140970000Y-55975000D02*
G75*
G02*
X140970000Y-53975000I0J1000000D01*
G01*
X136414564Y-61265000D02*
X135960436Y-61265000D01*
X136414564Y-62735000D02*
X135960436Y-62735000D01*
X112950000Y-78820000D02*
X112950000Y-81480000D01*
X161270000Y-78820000D02*
X112950000Y-78820000D01*
X161270000Y-78820000D02*
X161270000Y-81480000D01*
X161270000Y-81480000D02*
X112950000Y-81480000D01*
X163870000Y-80150000D02*
X163870000Y-81480000D01*
X163870000Y-81480000D02*
X162540000Y-81480000D01*
X165532201Y-103212196D02*
X165532201Y-102758068D01*
X167002201Y-103212196D02*
X167002201Y-102758068D01*
X117700000Y-107390000D02*
X118200000Y-107390000D01*
X117710000Y-114050000D02*
X117700000Y-107390000D01*
X117710000Y-114050000D02*
X118210000Y-114050000D01*
X118210000Y-114050000D02*
X118210000Y-114650000D01*
X119710000Y-114050000D02*
X119710000Y-114650000D01*
X119800000Y-107390000D02*
X121400000Y-107390000D01*
X121400000Y-114050000D02*
X119710000Y-114050000D01*
X123000000Y-107390000D02*
X123600000Y-107390000D01*
X123600000Y-114090000D02*
X123000000Y-114090000D01*
X125200000Y-107390000D02*
X125800000Y-107390000D01*
X125800000Y-114090000D02*
X125200000Y-114090000D01*
X127400000Y-107390000D02*
X127900000Y-107390000D01*
X127900000Y-107390000D02*
X127900000Y-114090000D01*
X127900000Y-114090000D02*
X127400000Y-114090000D01*
X146365321Y-110946541D02*
X146365321Y-108996541D01*
X146365321Y-110946541D02*
X146365321Y-114396541D01*
X151485321Y-110946541D02*
X151485321Y-108996541D01*
X151485321Y-110946541D02*
X151485321Y-112896541D01*
X130065000Y-104494564D02*
X130065000Y-104040436D01*
X131535000Y-104494564D02*
X131535000Y-104040436D01*
X136900000Y-106175000D02*
X136900000Y-104225000D01*
X136900000Y-106175000D02*
X136900000Y-109625000D01*
X145770000Y-106175000D02*
X145770000Y-104225000D01*
X145770000Y-106175000D02*
X145770000Y-108125000D01*
X134590000Y-112994564D02*
X134590000Y-112540436D01*
X136060000Y-112994564D02*
X136060000Y-112540436D01*
D13*
X145420000Y-120650000D02*
X148340000Y-120650000D01*
X145420000Y-129350000D02*
X145420000Y-120650000D01*
X145420000Y-129350000D02*
X148340000Y-129350000D01*
X148340000Y-120650000D02*
X148340000Y-115900000D01*
X148340000Y-134100000D02*
X148340000Y-129350000D01*
X150880000Y-115900000D02*
X148340000Y-115900000D01*
X150880000Y-134100000D02*
X148340000Y-134100000D01*
X168950000Y-115900000D02*
X166320000Y-115900000D01*
X168950000Y-115900000D02*
X168950000Y-134100000D01*
X168950000Y-134100000D02*
X166320000Y-134100000D01*
D14*
X165050000Y-115270000D02*
G75*
G02*
X164850000Y-115270000I-100000J0D01*
G01*
X164850000Y-115270000D02*
G75*
G02*
X165050000Y-115270000I100000J0D01*
G01*
D12*
X165557201Y-98373880D02*
X165557201Y-98896384D01*
X167027201Y-98373880D02*
X167027201Y-98896384D01*
X160736252Y-58865000D02*
X160213748Y-58865000D01*
X160736252Y-60335000D02*
X160213748Y-60335000D01*
X117650000Y-98090000D02*
X118150000Y-98090000D01*
X117660000Y-104750000D02*
X117650000Y-98090000D01*
X117660000Y-104750000D02*
X118160000Y-104750000D01*
X118160000Y-104750000D02*
X118160000Y-105350000D01*
X119660000Y-104750000D02*
X119660000Y-105350000D01*
X119750000Y-98090000D02*
X121350000Y-98090000D01*
X121350000Y-104750000D02*
X119660000Y-104750000D01*
X122950000Y-98090000D02*
X123550000Y-98090000D01*
X123550000Y-104790000D02*
X122950000Y-104790000D01*
X125150000Y-98090000D02*
X125750000Y-98090000D01*
X125750000Y-104790000D02*
X125150000Y-104790000D01*
X127350000Y-98090000D02*
X127850000Y-98090000D01*
X127850000Y-98090000D02*
X127850000Y-104790000D01*
X127850000Y-104790000D02*
X127350000Y-104790000D01*
X160736252Y-61065000D02*
X160213748Y-61065000D01*
X160736252Y-62535000D02*
X160213748Y-62535000D01*
X146165000Y-43188748D02*
X146165000Y-43711252D01*
X147635000Y-43188748D02*
X147635000Y-43711252D01*
X128740000Y-68335436D02*
X128740000Y-68789564D01*
X130210000Y-68335436D02*
X130210000Y-68789564D01*
X159710334Y-105427837D02*
X160164462Y-105427837D01*
X159710334Y-106897837D02*
X160164462Y-106897837D01*
X124986252Y-61190000D02*
X124463748Y-61190000D01*
X124986252Y-62660000D02*
X124463748Y-62660000D01*
X115100000Y-114710000D02*
X115100000Y-110850000D01*
X115100000Y-114710000D02*
X117100000Y-114710000D01*
X117100000Y-114710000D02*
X117100000Y-110850000D01*
X130042126Y-107815436D02*
X130042126Y-108269564D01*
X131512126Y-107815436D02*
X131512126Y-108269564D01*
X112970000Y-63570000D02*
X114300000Y-63570000D01*
X112970000Y-64900000D02*
X112970000Y-63570000D01*
X115570000Y-63570000D02*
X163890000Y-63570000D01*
X115570000Y-66230000D02*
X115570000Y-63570000D01*
X115570000Y-66230000D02*
X163890000Y-66230000D01*
X163890000Y-66230000D02*
X163890000Y-63570000D01*
X158701700Y-93527952D02*
X158701700Y-93982080D01*
X160171700Y-93527952D02*
X160171700Y-93982080D01*
X132292126Y-107781248D02*
X132292126Y-108303752D01*
X133762126Y-107781248D02*
X133762126Y-108303752D01*
X151895153Y-103689876D02*
X152417657Y-103689876D01*
X151895153Y-105159876D02*
X152417657Y-105159876D01*
X152255239Y-101628637D02*
X152777743Y-101628637D01*
X152255239Y-103098637D02*
X152777743Y-103098637D01*
X148594718Y-104853021D02*
X148594718Y-105307149D01*
X150064718Y-104853021D02*
X150064718Y-105307149D01*
X152485862Y-109044816D02*
X152840862Y-109044816D01*
X152485862Y-111054816D02*
X152485862Y-109044816D01*
X152485862Y-111054816D02*
X152485862Y-113064816D01*
X152485862Y-113064816D02*
X152840862Y-113064816D01*
X156450862Y-109044816D02*
X156450862Y-107579816D01*
X156805862Y-109044816D02*
X156450862Y-109044816D01*
X156805862Y-111054816D02*
X156805862Y-109044816D01*
X156805862Y-111054816D02*
X156805862Y-113064816D01*
X156805862Y-113064816D02*
X156450862Y-113064816D01*
X168083739Y-112999541D02*
X168606243Y-112999541D01*
X168083739Y-114469541D02*
X168606243Y-114469541D01*
X163282201Y-102770568D02*
X163282201Y-103224696D01*
X164752201Y-102770568D02*
X164752201Y-103224696D01*
X169635398Y-103286394D02*
X169112894Y-103286394D01*
X169635398Y-104756394D02*
X169112894Y-104756394D01*
X132275000Y-104528752D02*
X132275000Y-104006248D01*
X133745000Y-104528752D02*
X133745000Y-104006248D01*
X163307201Y-98896384D02*
X163307201Y-98373880D01*
X164777201Y-98896384D02*
X164777201Y-98373880D01*
X156486752Y-105435857D02*
X156032624Y-105435857D01*
X156486752Y-106905857D02*
X156032624Y-106905857D01*
X116540000Y-84436252D02*
X116540000Y-83913748D01*
X118010000Y-84436252D02*
X118010000Y-83913748D01*
X152285839Y-57228151D02*
X152285839Y-56705647D01*
X153755839Y-57228151D02*
X153755839Y-56705647D01*
X138715000Y-112839564D02*
X138715000Y-112385436D01*
X140185000Y-112839564D02*
X140185000Y-112385436D01*
X164811967Y-112995073D02*
X164289463Y-112995073D01*
X164811967Y-114465073D02*
X164289463Y-114465073D01*
X157502614Y-109116999D02*
X157857614Y-109116999D01*
X157502614Y-111126999D02*
X157502614Y-109116999D01*
X157502614Y-111126999D02*
X157502614Y-113136999D01*
X157502614Y-113136999D02*
X157857614Y-113136999D01*
X161467614Y-109116999D02*
X161467614Y-107651999D01*
X161822614Y-109116999D02*
X161467614Y-109116999D01*
X161822614Y-111126999D02*
X161822614Y-109116999D01*
X161822614Y-111126999D02*
X161822614Y-113136999D01*
X161822614Y-113136999D02*
X161467614Y-113136999D01*
X148415000Y-43188748D02*
X148415000Y-43711252D01*
X149885000Y-43188748D02*
X149885000Y-43711252D01*
X144065000Y-76160436D02*
X144065000Y-76614564D01*
X145535000Y-76160436D02*
X145535000Y-76614564D01*
X140360000Y-46850000D02*
X136350000Y-46850000D01*
X140360000Y-48850000D02*
X136350000Y-48850000D01*
X140360000Y-48850000D02*
X140360000Y-46850000D01*
D13*
X115050000Y-115877064D02*
X117680000Y-115877064D01*
X115050000Y-134077064D02*
X115050000Y-115877064D01*
X115050000Y-134077064D02*
X117680000Y-134077064D01*
X133120000Y-115877064D02*
X135660000Y-115877064D01*
X133120000Y-134077064D02*
X135660000Y-134077064D01*
X135660000Y-115877064D02*
X135660000Y-120627064D01*
X135660000Y-129327064D02*
X135660000Y-134077064D01*
X138580000Y-120627064D02*
X135660000Y-120627064D01*
X138580000Y-120627064D02*
X138580000Y-129327064D01*
X138580000Y-129327064D02*
X135660000Y-129327064D01*
D14*
X119150000Y-134707064D02*
G75*
G02*
X118950000Y-134707064I-100000J0D01*
G01*
X118950000Y-134707064D02*
G75*
G02*
X119150000Y-134707064I100000J0D01*
G01*
D11*
X131675000Y-43100000D02*
X133975000Y-43100000D01*
X133975000Y-45400000D01*
X131675000Y-45400000D01*
X131675000Y-43100000D01*
D12*
X165181595Y-105555963D02*
X165181595Y-106815963D01*
X165181595Y-112375963D02*
X165181595Y-111115963D01*
X168941595Y-105555963D02*
X165181595Y-105555963D01*
X171191595Y-112375963D02*
X165181595Y-112375963D01*
X138175000Y-44275000D02*
G75*
G02*
X135775000Y-44275000I-1200000J0D01*
G01*
X135775000Y-44275000D02*
G75*
G02*
X138175000Y-44275000I1200000J0D01*
G01*
X142263748Y-112790000D02*
X142786252Y-112790000D01*
X142263748Y-114260000D02*
X142786252Y-114260000D01*
X124986252Y-59090000D02*
X124463748Y-59090000D01*
X124986252Y-60560000D02*
X124463748Y-60560000D01*
X114825000Y-103210000D02*
X114825000Y-99350000D01*
X114825000Y-103210000D02*
X116825000Y-103210000D01*
X116825000Y-103210000D02*
X116825000Y-99350000D01*
X128875436Y-45485000D02*
X129329564Y-45485000D01*
X128875436Y-46955000D02*
X129329564Y-46955000D01*
X161057201Y-98896384D02*
X161057201Y-98373880D01*
X162527201Y-98896384D02*
X162527201Y-98373880D01*
X158807201Y-98373880D02*
X158807201Y-98896384D01*
X160277201Y-98373880D02*
X160277201Y-98896384D01*
X153215000Y-85261252D02*
X153215000Y-84738748D01*
X154685000Y-85261252D02*
X154685000Y-84738748D01*
X134542126Y-107815436D02*
X134542126Y-108269564D01*
X136012126Y-107815436D02*
X136012126Y-108269564D01*
X132340000Y-112506248D02*
X132340000Y-113028752D01*
X133810000Y-112506248D02*
X133810000Y-113028752D01*
X154410839Y-57228151D02*
X154410839Y-56705647D01*
X155880839Y-57228151D02*
X155880839Y-56705647D01*
X139488748Y-61265000D02*
X140011252Y-61265000D01*
X139488748Y-62735000D02*
X140011252Y-62735000D01*
X146381091Y-105365398D02*
X146381091Y-104842894D01*
X147851091Y-105365398D02*
X147851091Y-104842894D01*
X161032201Y-102770568D02*
X161032201Y-103224696D01*
X162502201Y-102770568D02*
X162502201Y-103224696D01*
X136615000Y-112410436D02*
X136615000Y-112864564D01*
X138085000Y-112410436D02*
X138085000Y-112864564D01*
X146446389Y-51138633D02*
X151066389Y-51138633D01*
X146446389Y-61358633D02*
X146446389Y-51138633D01*
X149686389Y-51138633D02*
X149686389Y-61358633D01*
X151066389Y-51138633D02*
X151066389Y-61358633D01*
X151066389Y-54398633D02*
X149686389Y-54398633D01*
X151066389Y-58098633D02*
X149686389Y-58098633D01*
X151066389Y-61358633D02*
X146446389Y-61358633D01*
X112465000Y-99885436D02*
X112465000Y-100339564D01*
X113935000Y-99885436D02*
X113935000Y-100339564D01*
X141490000Y-76160436D02*
X141490000Y-76614564D01*
X142960000Y-76160436D02*
X142960000Y-76614564D01*
X148885000Y-69659564D02*
X148885000Y-69205436D01*
X150355000Y-69659564D02*
X150355000Y-69205436D01*
X148829046Y-101603660D02*
X149283174Y-101603660D01*
X148829046Y-103073660D02*
X149283174Y-103073660D01*
X144613748Y-48990000D02*
X145136252Y-48990000D01*
X144613748Y-50460000D02*
X145136252Y-50460000D01*
X130090000Y-112994564D02*
X130090000Y-112540436D01*
X131560000Y-112994564D02*
X131560000Y-112540436D01*
X142263748Y-110540000D02*
X142786252Y-110540000D01*
X142263748Y-112010000D02*
X142786252Y-112010000D01*
X151105000Y-85261252D02*
X151105000Y-84738748D01*
X152575000Y-85261252D02*
X152575000Y-84738748D01*
X151425000Y-69659564D02*
X151425000Y-69205436D01*
X152895000Y-69659564D02*
X152895000Y-69205436D01*
X134565000Y-104494564D02*
X134565000Y-104040436D01*
X136035000Y-104494564D02*
X136035000Y-104040436D01*
X158729112Y-102987304D02*
X158729112Y-102533176D01*
X160199112Y-102987304D02*
X160199112Y-102533176D01*
X145060000Y-42850000D02*
X141050000Y-42850000D01*
X145060000Y-44850000D02*
X141050000Y-44850000D01*
X145060000Y-44850000D02*
X145060000Y-42850000D01*
X114962500Y-103640000D02*
X113162500Y-103640000D01*
X114962500Y-103640000D02*
X115762500Y-103640000D01*
X114962500Y-106760000D02*
X114162500Y-106760000D01*
X114962500Y-106760000D02*
X115762500Y-106760000D01*
X161181700Y-93487952D02*
X161181700Y-93942080D01*
X162651700Y-93487952D02*
X162651700Y-93942080D01*
X118650000Y-84436252D02*
X118650000Y-83913748D01*
X120120000Y-84436252D02*
X120120000Y-83913748D01*
D10*
X120950000Y-41234000D02*
X120950000Y-53334000D01*
X121200000Y-41234000D02*
X121200000Y-39234000D01*
X126800000Y-39234000D02*
X121200000Y-39234000D01*
X126800000Y-41234000D02*
X126800000Y-39234000D01*
X127050000Y-41234000D02*
X120950000Y-41234000D01*
X127050000Y-41234000D02*
X127050000Y-53334000D01*
X127050000Y-53334000D02*
X120950000Y-53334000D01*
D12*
X133790000Y-68360436D02*
X133790000Y-68814564D01*
X135260000Y-68360436D02*
X135260000Y-68814564D01*
X131290000Y-68335436D02*
X131290000Y-68789564D01*
X132760000Y-68335436D02*
X132760000Y-68789564D01*
%LPC*%
D15*
X136988407Y-67725204D03*
X136988407Y-69550204D03*
D16*
X134380000Y-96270000D03*
X136920000Y-96270000D03*
X139460000Y-96270000D03*
X142000000Y-96270000D03*
X144540000Y-96270000D03*
X147080000Y-96270000D03*
D17*
X149620000Y-96270000D03*
D18*
X130500000Y-97000000D03*
X130500000Y-120500000D03*
X153500000Y-97000000D03*
X153500000Y-120500000D03*
D19*
X143950000Y-47550000D03*
X145850000Y-47550000D03*
D20*
X139640000Y-50350000D03*
X137100000Y-50350000D03*
X134560000Y-50350000D03*
X134560000Y-59600000D03*
X137100000Y-59600000D03*
X139640000Y-59600000D03*
D21*
X137100000Y-62000000D03*
X135275000Y-62000000D03*
D17*
X162540000Y-80150000D03*
D16*
X160000000Y-80150000D03*
X157460000Y-80150000D03*
X154920000Y-80150000D03*
X152380000Y-80150000D03*
X149840000Y-80150000D03*
X147300000Y-80150000D03*
X144760000Y-80150000D03*
X142220000Y-80150000D03*
X139680000Y-80150000D03*
X137140000Y-80150000D03*
X134600000Y-80150000D03*
X132060000Y-80150000D03*
X129520000Y-80150000D03*
X126980000Y-80150000D03*
X124440000Y-80150000D03*
X121900000Y-80150000D03*
X119360000Y-80150000D03*
X116820000Y-80150000D03*
X114280000Y-80150000D03*
D22*
X166267201Y-103897632D03*
X166267201Y-102072632D03*
D23*
X119000000Y-113600000D03*
X122200000Y-113600000D03*
X124400000Y-113600000D03*
X126600000Y-113600000D03*
X126600000Y-107900000D03*
X124400000Y-107900000D03*
X122200000Y-107900000D03*
X119000000Y-107900000D03*
D24*
X147020321Y-113421541D03*
X148290321Y-113421541D03*
X149560321Y-113421541D03*
X150830321Y-113421541D03*
X150830321Y-108471541D03*
X149560321Y-108471541D03*
X148290321Y-108471541D03*
X147020321Y-108471541D03*
D22*
X130800000Y-105180000D03*
X130800000Y-103355000D03*
D24*
X137525000Y-108650000D03*
X138795000Y-108650000D03*
X140065000Y-108650000D03*
X141335000Y-108650000D03*
X142605000Y-108650000D03*
X143875000Y-108650000D03*
X145145000Y-108650000D03*
X145145000Y-103700000D03*
X143875000Y-103700000D03*
X142605000Y-103700000D03*
X141335000Y-103700000D03*
X140065000Y-103700000D03*
X138795000Y-103700000D03*
X137525000Y-103700000D03*
D22*
X135325000Y-113680000D03*
X135325000Y-111855000D03*
D25*
X158600000Y-116885000D03*
X158600000Y-133115000D03*
X164950000Y-116885000D03*
X164950000Y-133115000D03*
X152250000Y-116885000D03*
X152250000Y-133115000D03*
D26*
X166292201Y-97685132D03*
X166292201Y-99585132D03*
D27*
X161425000Y-59600000D03*
X159525000Y-59600000D03*
D23*
X118950000Y-104300000D03*
X122150000Y-104300000D03*
X124350000Y-104300000D03*
X126550000Y-104300000D03*
X126550000Y-98600000D03*
X124350000Y-98600000D03*
X122150000Y-98600000D03*
X118950000Y-98600000D03*
D27*
X161425000Y-61800000D03*
X159525000Y-61800000D03*
D26*
X146900000Y-42500000D03*
X146900000Y-44400000D03*
D15*
X129475000Y-67650000D03*
X129475000Y-69475000D03*
D28*
X159024898Y-106162837D03*
X160849898Y-106162837D03*
D27*
X125675000Y-61925000D03*
X123775000Y-61925000D03*
D29*
X116100000Y-113900000D03*
X116100000Y-111100000D03*
D15*
X130777126Y-107130000D03*
X130777126Y-108955000D03*
D17*
X114300000Y-64900000D03*
D16*
X116840000Y-64900000D03*
X119380000Y-64900000D03*
X121920000Y-64900000D03*
X124460000Y-64900000D03*
X127000000Y-64900000D03*
X129540000Y-64900000D03*
X132080000Y-64900000D03*
X134620000Y-64900000D03*
X137160000Y-64900000D03*
X139700000Y-64900000D03*
X142240000Y-64900000D03*
X144780000Y-64900000D03*
X147320000Y-64900000D03*
X149860000Y-64900000D03*
X152400000Y-64900000D03*
X154940000Y-64900000D03*
X157480000Y-64900000D03*
X160020000Y-64900000D03*
X162560000Y-64900000D03*
D15*
X159436700Y-92842516D03*
X159436700Y-94667516D03*
D26*
X133027126Y-107092500D03*
X133027126Y-108992500D03*
D19*
X151206405Y-104424876D03*
X153106405Y-104424876D03*
X151566491Y-102363637D03*
X153466491Y-102363637D03*
D15*
X149329718Y-104167585D03*
X149329718Y-105992585D03*
D30*
X155915862Y-108304816D03*
X153375862Y-108304816D03*
X153375862Y-113804816D03*
X155915862Y-113804816D03*
D19*
X167394991Y-113734541D03*
X169294991Y-113734541D03*
D15*
X164017201Y-102085132D03*
X164017201Y-103910132D03*
D27*
X170324146Y-104021394D03*
X168424146Y-104021394D03*
D31*
X133010000Y-105217500D03*
X133010000Y-103317500D03*
X164042201Y-99585132D03*
X164042201Y-97685132D03*
D21*
X157172188Y-106170857D03*
X155347188Y-106170857D03*
D31*
X117275000Y-85125000D03*
X117275000Y-83225000D03*
X153020839Y-57916899D03*
X153020839Y-56016899D03*
D22*
X139450000Y-113525000D03*
X139450000Y-111700000D03*
D27*
X165500715Y-113730073D03*
X163600715Y-113730073D03*
D30*
X160932614Y-108376999D03*
X158392614Y-108376999D03*
X158392614Y-113876999D03*
X160932614Y-113876999D03*
D26*
X149150000Y-42500000D03*
X149150000Y-44400000D03*
D15*
X144800000Y-75475000D03*
X144800000Y-77300000D03*
D32*
X139650000Y-47850000D03*
X136350000Y-47850000D03*
D25*
X125400000Y-133092064D03*
X125400000Y-116862064D03*
X119050000Y-133092064D03*
X119050000Y-116862064D03*
X131750000Y-133092064D03*
X131750000Y-116862064D03*
D33*
X132825000Y-44250000D03*
D34*
X170241595Y-111265963D03*
X170241595Y-108965963D03*
D35*
X163941595Y-108965963D03*
D34*
X170241595Y-106665963D03*
D36*
X136975000Y-44275000D03*
D19*
X141575000Y-113525000D03*
X143475000Y-113525000D03*
D27*
X125675000Y-59825000D03*
X123775000Y-59825000D03*
D29*
X115825000Y-102400000D03*
X115825000Y-99600000D03*
D28*
X128190000Y-46220000D03*
X130015000Y-46220000D03*
D31*
X161792201Y-99585132D03*
X161792201Y-97685132D03*
D26*
X159542201Y-97685132D03*
X159542201Y-99585132D03*
D31*
X153950000Y-85950000D03*
X153950000Y-84050000D03*
D15*
X135277126Y-107130000D03*
X135277126Y-108955000D03*
D26*
X133075000Y-111817500D03*
X133075000Y-113717500D03*
D31*
X155145839Y-57916899D03*
X155145839Y-56016899D03*
D19*
X138800000Y-62000000D03*
X140700000Y-62000000D03*
D31*
X147116091Y-106054146D03*
X147116091Y-104154146D03*
D15*
X161767201Y-102085132D03*
X161767201Y-103910132D03*
X137350000Y-111725000D03*
X137350000Y-113550000D03*
D37*
X147806389Y-53708633D03*
D38*
X147806389Y-56248633D03*
X147806389Y-58788633D03*
D15*
X113200000Y-99200000D03*
X113200000Y-101025000D03*
X142225000Y-75475000D03*
X142225000Y-77300000D03*
D22*
X149620000Y-70345000D03*
X149620000Y-68520000D03*
D28*
X148143610Y-102338660D03*
X149968610Y-102338660D03*
D19*
X143925000Y-49725000D03*
X145825000Y-49725000D03*
D22*
X130825000Y-113680000D03*
X130825000Y-111855000D03*
D19*
X141575000Y-111275000D03*
X143475000Y-111275000D03*
D31*
X151840000Y-85950000D03*
X151840000Y-84050000D03*
D22*
X152160000Y-70345000D03*
X152160000Y-68520000D03*
X135300000Y-105180000D03*
X135300000Y-103355000D03*
X159464112Y-103672740D03*
X159464112Y-101847740D03*
D32*
X144350000Y-43850000D03*
X141050000Y-43850000D03*
D39*
X113825000Y-104250000D03*
X113825000Y-106150000D03*
X116100000Y-105200000D03*
D15*
X161916700Y-92802516D03*
X161916700Y-94627516D03*
D31*
X119385000Y-85125000D03*
X119385000Y-83225000D03*
D17*
X140040000Y-132250000D03*
D16*
X137500000Y-132250000D03*
D40*
X167600000Y-61500000D03*
X152400000Y-61500000D03*
X167600000Y-51400000D03*
X152400000Y-51400000D03*
X165093772Y-48801099D03*
D17*
X124750000Y-125000000D03*
D16*
X122210000Y-125000000D03*
D40*
X119000000Y-91600000D03*
X119000000Y-76400000D03*
X129100000Y-91600000D03*
X129100000Y-76400000D03*
X131698901Y-89093772D03*
X155000000Y-91600000D03*
X155000000Y-76400000D03*
X165100000Y-91600000D03*
X165100000Y-76400000D03*
X167698901Y-89093772D03*
D17*
X161775000Y-125000000D03*
D16*
X159235000Y-125000000D03*
D40*
X131600000Y-61500000D03*
X116400000Y-61500000D03*
X131600000Y-51400000D03*
X116400000Y-51400000D03*
X129093772Y-48801099D03*
D17*
X146500000Y-132250000D03*
D16*
X143960000Y-132250000D03*
D41*
X124000000Y-42834000D03*
X124000000Y-49834000D03*
D42*
X126300000Y-47434000D03*
X126300000Y-44434000D03*
X121700000Y-52534000D03*
X126300000Y-51434000D03*
D15*
X134525000Y-67675000D03*
X134525000Y-69500000D03*
X132025000Y-67650000D03*
X132025000Y-69475000D03*
%LPD*%
M02*
