%TF.GenerationSoftware,KiCad,Pcbnew,9.0.6*%
%TF.CreationDate,2026-03-17T16:47:10+13:00*%
%TF.ProjectId,DaisySeedPedal125b_potty,44616973-7953-4656-9564-506564616c31,rev?*%
%TF.SameCoordinates,Original*%
%TF.FileFunction,Legend,Bot*%
%TF.FilePolarity,Positive*%
%FSLAX46Y46*%
G04 Gerber Fmt 4.6, Leading zero omitted, Abs format (unit mm)*
G04 Created by KiCad (PCBNEW 9.0.6) date 2026-03-17 16:47:10*
%MOMM*%
%LPD*%
G01*
G04 APERTURE LIST*
%ADD10C,0.150000*%
%ADD11C,0.100000*%
%ADD12C,0.120000*%
%ADD13C,0.200000*%
%ADD14O,1.700000X1.700000*%
%ADD15R,1.700000X1.700000*%
%ADD16C,3.000000*%
%ADD17C,2.100000*%
%ADD18R,2.000000X2.000000*%
%ADD19C,2.000000*%
%ADD20R,2.000000X1.905000*%
%ADD21O,2.000000X1.905000*%
%ADD22C,1.500000*%
%ADD23C,0.800000*%
%ADD24O,1.600000X2.000000*%
G04 APERTURE END LIST*
D10*
X142761904Y-119704819D02*
X142761904Y-120514342D01*
X142761904Y-120514342D02*
X142714285Y-120609580D01*
X142714285Y-120609580D02*
X142666666Y-120657200D01*
X142666666Y-120657200D02*
X142571428Y-120704819D01*
X142571428Y-120704819D02*
X142380952Y-120704819D01*
X142380952Y-120704819D02*
X142285714Y-120657200D01*
X142285714Y-120657200D02*
X142238095Y-120609580D01*
X142238095Y-120609580D02*
X142190476Y-120514342D01*
X142190476Y-120514342D02*
X142190476Y-119704819D01*
X141809523Y-119704819D02*
X141142857Y-119704819D01*
X141142857Y-119704819D02*
X141571428Y-120704819D01*
X139599523Y-129431009D02*
X139932856Y-129431009D01*
X139932856Y-129954819D02*
X139932856Y-128954819D01*
X139932856Y-128954819D02*
X139456666Y-128954819D01*
X139123332Y-129907200D02*
X138980475Y-129954819D01*
X138980475Y-129954819D02*
X138742380Y-129954819D01*
X138742380Y-129954819D02*
X138647142Y-129907200D01*
X138647142Y-129907200D02*
X138599523Y-129859580D01*
X138599523Y-129859580D02*
X138551904Y-129764342D01*
X138551904Y-129764342D02*
X138551904Y-129669104D01*
X138551904Y-129669104D02*
X138599523Y-129573866D01*
X138599523Y-129573866D02*
X138647142Y-129526247D01*
X138647142Y-129526247D02*
X138742380Y-129478628D01*
X138742380Y-129478628D02*
X138932856Y-129431009D01*
X138932856Y-129431009D02*
X139028094Y-129383390D01*
X139028094Y-129383390D02*
X139075713Y-129335771D01*
X139075713Y-129335771D02*
X139123332Y-129240533D01*
X139123332Y-129240533D02*
X139123332Y-129145295D01*
X139123332Y-129145295D02*
X139075713Y-129050057D01*
X139075713Y-129050057D02*
X139028094Y-129002438D01*
X139028094Y-129002438D02*
X138932856Y-128954819D01*
X138932856Y-128954819D02*
X138694761Y-128954819D01*
X138694761Y-128954819D02*
X138551904Y-129002438D01*
X137599523Y-129954819D02*
X138170951Y-129954819D01*
X137885237Y-129954819D02*
X137885237Y-128954819D01*
X137885237Y-128954819D02*
X137980475Y-129097676D01*
X137980475Y-129097676D02*
X138075713Y-129192914D01*
X138075713Y-129192914D02*
X138170951Y-129240533D01*
D11*
X162045239Y-56180751D02*
X162045239Y-57180751D01*
X162045239Y-56228370D02*
X161950001Y-56180751D01*
X161950001Y-56180751D02*
X161759525Y-56180751D01*
X161759525Y-56180751D02*
X161664287Y-56228370D01*
X161664287Y-56228370D02*
X161616668Y-56275989D01*
X161616668Y-56275989D02*
X161569049Y-56371227D01*
X161569049Y-56371227D02*
X161569049Y-56656941D01*
X161569049Y-56656941D02*
X161616668Y-56752179D01*
X161616668Y-56752179D02*
X161664287Y-56799799D01*
X161664287Y-56799799D02*
X161759525Y-56847418D01*
X161759525Y-56847418D02*
X161950001Y-56847418D01*
X161950001Y-56847418D02*
X162045239Y-56799799D01*
X160997620Y-56847418D02*
X161092858Y-56799799D01*
X161092858Y-56799799D02*
X161140477Y-56752179D01*
X161140477Y-56752179D02*
X161188096Y-56656941D01*
X161188096Y-56656941D02*
X161188096Y-56371227D01*
X161188096Y-56371227D02*
X161140477Y-56275989D01*
X161140477Y-56275989D02*
X161092858Y-56228370D01*
X161092858Y-56228370D02*
X160997620Y-56180751D01*
X160997620Y-56180751D02*
X160854763Y-56180751D01*
X160854763Y-56180751D02*
X160759525Y-56228370D01*
X160759525Y-56228370D02*
X160711906Y-56275989D01*
X160711906Y-56275989D02*
X160664287Y-56371227D01*
X160664287Y-56371227D02*
X160664287Y-56656941D01*
X160664287Y-56656941D02*
X160711906Y-56752179D01*
X160711906Y-56752179D02*
X160759525Y-56799799D01*
X160759525Y-56799799D02*
X160854763Y-56847418D01*
X160854763Y-56847418D02*
X160997620Y-56847418D01*
X160378572Y-56180751D02*
X159997620Y-56180751D01*
X160235715Y-55847418D02*
X160235715Y-56704560D01*
X160235715Y-56704560D02*
X160188096Y-56799799D01*
X160188096Y-56799799D02*
X160092858Y-56847418D01*
X160092858Y-56847418D02*
X159997620Y-56847418D01*
X159807143Y-56180751D02*
X159426191Y-56180751D01*
X159664286Y-55847418D02*
X159664286Y-56704560D01*
X159664286Y-56704560D02*
X159616667Y-56799799D01*
X159616667Y-56799799D02*
X159521429Y-56847418D01*
X159521429Y-56847418D02*
X159426191Y-56847418D01*
X159188095Y-56180751D02*
X158950000Y-56847418D01*
X158711905Y-56180751D02*
X158950000Y-56847418D01*
X158950000Y-56847418D02*
X159045238Y-57085513D01*
X159045238Y-57085513D02*
X159092857Y-57133132D01*
X159092857Y-57133132D02*
X159188095Y-57180751D01*
X157807143Y-56847418D02*
X158378571Y-56847418D01*
X158092857Y-56847418D02*
X158092857Y-55847418D01*
X158092857Y-55847418D02*
X158188095Y-55990275D01*
X158188095Y-55990275D02*
X158283333Y-56085513D01*
X158283333Y-56085513D02*
X158378571Y-56133132D01*
X166611831Y-53258799D02*
X166497545Y-53296894D01*
X166497545Y-53296894D02*
X166307069Y-53296894D01*
X166307069Y-53296894D02*
X166230878Y-53258799D01*
X166230878Y-53258799D02*
X166192783Y-53220703D01*
X166192783Y-53220703D02*
X166154688Y-53144513D01*
X166154688Y-53144513D02*
X166154688Y-53068322D01*
X166154688Y-53068322D02*
X166192783Y-52992132D01*
X166192783Y-52992132D02*
X166230878Y-52954037D01*
X166230878Y-52954037D02*
X166307069Y-52915941D01*
X166307069Y-52915941D02*
X166459450Y-52877846D01*
X166459450Y-52877846D02*
X166535640Y-52839751D01*
X166535640Y-52839751D02*
X166573735Y-52801656D01*
X166573735Y-52801656D02*
X166611831Y-52725465D01*
X166611831Y-52725465D02*
X166611831Y-52649275D01*
X166611831Y-52649275D02*
X166573735Y-52573084D01*
X166573735Y-52573084D02*
X166535640Y-52534989D01*
X166535640Y-52534989D02*
X166459450Y-52496894D01*
X166459450Y-52496894D02*
X166268973Y-52496894D01*
X166268973Y-52496894D02*
X166154688Y-52534989D01*
X165811830Y-53296894D02*
X165811830Y-52496894D01*
X165811830Y-52496894D02*
X165621354Y-52496894D01*
X165621354Y-52496894D02*
X165507068Y-52534989D01*
X165507068Y-52534989D02*
X165430878Y-52611179D01*
X165430878Y-52611179D02*
X165392783Y-52687370D01*
X165392783Y-52687370D02*
X165354687Y-52839751D01*
X165354687Y-52839751D02*
X165354687Y-52954037D01*
X165354687Y-52954037D02*
X165392783Y-53106418D01*
X165392783Y-53106418D02*
X165430878Y-53182608D01*
X165430878Y-53182608D02*
X165507068Y-53258799D01*
X165507068Y-53258799D02*
X165621354Y-53296894D01*
X165621354Y-53296894D02*
X165811830Y-53296894D01*
X165049926Y-53068322D02*
X164668973Y-53068322D01*
X165126116Y-53296894D02*
X164859449Y-52496894D01*
X164859449Y-52496894D02*
X164592783Y-53296894D01*
X155718021Y-62236894D02*
X155451354Y-63036894D01*
X155451354Y-63036894D02*
X155184688Y-62236894D01*
X154460878Y-62960703D02*
X154498974Y-62998799D01*
X154498974Y-62998799D02*
X154613259Y-63036894D01*
X154613259Y-63036894D02*
X154689450Y-63036894D01*
X154689450Y-63036894D02*
X154803736Y-62998799D01*
X154803736Y-62998799D02*
X154879926Y-62922608D01*
X154879926Y-62922608D02*
X154918021Y-62846418D01*
X154918021Y-62846418D02*
X154956117Y-62694037D01*
X154956117Y-62694037D02*
X154956117Y-62579751D01*
X154956117Y-62579751D02*
X154918021Y-62427370D01*
X154918021Y-62427370D02*
X154879926Y-62351179D01*
X154879926Y-62351179D02*
X154803736Y-62274989D01*
X154803736Y-62274989D02*
X154689450Y-62236894D01*
X154689450Y-62236894D02*
X154613259Y-62236894D01*
X154613259Y-62236894D02*
X154498974Y-62274989D01*
X154498974Y-62274989D02*
X154460878Y-62313084D01*
X153660878Y-62960703D02*
X153698974Y-62998799D01*
X153698974Y-62998799D02*
X153813259Y-63036894D01*
X153813259Y-63036894D02*
X153889450Y-63036894D01*
X153889450Y-63036894D02*
X154003736Y-62998799D01*
X154003736Y-62998799D02*
X154079926Y-62922608D01*
X154079926Y-62922608D02*
X154118021Y-62846418D01*
X154118021Y-62846418D02*
X154156117Y-62694037D01*
X154156117Y-62694037D02*
X154156117Y-62579751D01*
X154156117Y-62579751D02*
X154118021Y-62427370D01*
X154118021Y-62427370D02*
X154079926Y-62351179D01*
X154079926Y-62351179D02*
X154003736Y-62274989D01*
X154003736Y-62274989D02*
X153889450Y-62236894D01*
X153889450Y-62236894D02*
X153813259Y-62236894D01*
X153813259Y-62236894D02*
X153698974Y-62274989D01*
X153698974Y-62274989D02*
X153660878Y-62313084D01*
X155241831Y-50048799D02*
X155127545Y-50086894D01*
X155127545Y-50086894D02*
X154937069Y-50086894D01*
X154937069Y-50086894D02*
X154860878Y-50048799D01*
X154860878Y-50048799D02*
X154822783Y-50010703D01*
X154822783Y-50010703D02*
X154784688Y-49934513D01*
X154784688Y-49934513D02*
X154784688Y-49858322D01*
X154784688Y-49858322D02*
X154822783Y-49782132D01*
X154822783Y-49782132D02*
X154860878Y-49744037D01*
X154860878Y-49744037D02*
X154937069Y-49705941D01*
X154937069Y-49705941D02*
X155089450Y-49667846D01*
X155089450Y-49667846D02*
X155165640Y-49629751D01*
X155165640Y-49629751D02*
X155203735Y-49591656D01*
X155203735Y-49591656D02*
X155241831Y-49515465D01*
X155241831Y-49515465D02*
X155241831Y-49439275D01*
X155241831Y-49439275D02*
X155203735Y-49363084D01*
X155203735Y-49363084D02*
X155165640Y-49324989D01*
X155165640Y-49324989D02*
X155089450Y-49286894D01*
X155089450Y-49286894D02*
X154898973Y-49286894D01*
X154898973Y-49286894D02*
X154784688Y-49324989D01*
X153984687Y-50010703D02*
X154022783Y-50048799D01*
X154022783Y-50048799D02*
X154137068Y-50086894D01*
X154137068Y-50086894D02*
X154213259Y-50086894D01*
X154213259Y-50086894D02*
X154327545Y-50048799D01*
X154327545Y-50048799D02*
X154403735Y-49972608D01*
X154403735Y-49972608D02*
X154441830Y-49896418D01*
X154441830Y-49896418D02*
X154479926Y-49744037D01*
X154479926Y-49744037D02*
X154479926Y-49629751D01*
X154479926Y-49629751D02*
X154441830Y-49477370D01*
X154441830Y-49477370D02*
X154403735Y-49401179D01*
X154403735Y-49401179D02*
X154327545Y-49324989D01*
X154327545Y-49324989D02*
X154213259Y-49286894D01*
X154213259Y-49286894D02*
X154137068Y-49286894D01*
X154137068Y-49286894D02*
X154022783Y-49324989D01*
X154022783Y-49324989D02*
X153984687Y-49363084D01*
X153260878Y-50086894D02*
X153641830Y-50086894D01*
X153641830Y-50086894D02*
X153641830Y-49286894D01*
X165724688Y-59964989D02*
X165800878Y-59926894D01*
X165800878Y-59926894D02*
X165915164Y-59926894D01*
X165915164Y-59926894D02*
X166029450Y-59964989D01*
X166029450Y-59964989D02*
X166105640Y-60041179D01*
X166105640Y-60041179D02*
X166143735Y-60117370D01*
X166143735Y-60117370D02*
X166181831Y-60269751D01*
X166181831Y-60269751D02*
X166181831Y-60384037D01*
X166181831Y-60384037D02*
X166143735Y-60536418D01*
X166143735Y-60536418D02*
X166105640Y-60612608D01*
X166105640Y-60612608D02*
X166029450Y-60688799D01*
X166029450Y-60688799D02*
X165915164Y-60726894D01*
X165915164Y-60726894D02*
X165838973Y-60726894D01*
X165838973Y-60726894D02*
X165724688Y-60688799D01*
X165724688Y-60688799D02*
X165686592Y-60650703D01*
X165686592Y-60650703D02*
X165686592Y-60384037D01*
X165686592Y-60384037D02*
X165838973Y-60384037D01*
X165343735Y-60726894D02*
X165343735Y-59926894D01*
X165343735Y-59926894D02*
X164886592Y-60726894D01*
X164886592Y-60726894D02*
X164886592Y-59926894D01*
X164505640Y-60726894D02*
X164505640Y-59926894D01*
X164505640Y-59926894D02*
X164315164Y-59926894D01*
X164315164Y-59926894D02*
X164200878Y-59964989D01*
X164200878Y-59964989D02*
X164124688Y-60041179D01*
X164124688Y-60041179D02*
X164086593Y-60117370D01*
X164086593Y-60117370D02*
X164048497Y-60269751D01*
X164048497Y-60269751D02*
X164048497Y-60384037D01*
X164048497Y-60384037D02*
X164086593Y-60536418D01*
X164086593Y-60536418D02*
X164124688Y-60612608D01*
X164124688Y-60612608D02*
X164200878Y-60688799D01*
X164200878Y-60688799D02*
X164315164Y-60726894D01*
X164315164Y-60726894D02*
X164505640Y-60726894D01*
X163333735Y-47336894D02*
X163333735Y-47984513D01*
X163333735Y-47984513D02*
X163295640Y-48060703D01*
X163295640Y-48060703D02*
X163257545Y-48098799D01*
X163257545Y-48098799D02*
X163181354Y-48136894D01*
X163181354Y-48136894D02*
X163028973Y-48136894D01*
X163028973Y-48136894D02*
X162952783Y-48098799D01*
X162952783Y-48098799D02*
X162914688Y-48060703D01*
X162914688Y-48060703D02*
X162876592Y-47984513D01*
X162876592Y-47984513D02*
X162876592Y-47336894D01*
X162495640Y-48136894D02*
X162495640Y-47336894D01*
X162495640Y-47336894D02*
X162190878Y-47336894D01*
X162190878Y-47336894D02*
X162114688Y-47374989D01*
X162114688Y-47374989D02*
X162076593Y-47413084D01*
X162076593Y-47413084D02*
X162038497Y-47489275D01*
X162038497Y-47489275D02*
X162038497Y-47603560D01*
X162038497Y-47603560D02*
X162076593Y-47679751D01*
X162076593Y-47679751D02*
X162114688Y-47717846D01*
X162114688Y-47717846D02*
X162190878Y-47755941D01*
X162190878Y-47755941D02*
X162495640Y-47755941D01*
X161695640Y-48136894D02*
X161695640Y-47336894D01*
X161695640Y-47336894D02*
X161505164Y-47336894D01*
X161505164Y-47336894D02*
X161390878Y-47374989D01*
X161390878Y-47374989D02*
X161314688Y-47451179D01*
X161314688Y-47451179D02*
X161276593Y-47527370D01*
X161276593Y-47527370D02*
X161238497Y-47679751D01*
X161238497Y-47679751D02*
X161238497Y-47794037D01*
X161238497Y-47794037D02*
X161276593Y-47946418D01*
X161276593Y-47946418D02*
X161314688Y-48022608D01*
X161314688Y-48022608D02*
X161390878Y-48098799D01*
X161390878Y-48098799D02*
X161505164Y-48136894D01*
X161505164Y-48136894D02*
X161695640Y-48136894D01*
X160895640Y-48136894D02*
X160895640Y-47336894D01*
D10*
X124594047Y-128454819D02*
X125070237Y-128454819D01*
X125070237Y-128454819D02*
X125070237Y-127454819D01*
X124260713Y-127931009D02*
X123927380Y-127931009D01*
X123784523Y-128454819D02*
X124260713Y-128454819D01*
X124260713Y-128454819D02*
X124260713Y-127454819D01*
X124260713Y-127454819D02*
X123784523Y-127454819D01*
X123355951Y-128454819D02*
X123355951Y-127454819D01*
X123355951Y-127454819D02*
X123117856Y-127454819D01*
X123117856Y-127454819D02*
X122974999Y-127502438D01*
X122974999Y-127502438D02*
X122879761Y-127597676D01*
X122879761Y-127597676D02*
X122832142Y-127692914D01*
X122832142Y-127692914D02*
X122784523Y-127883390D01*
X122784523Y-127883390D02*
X122784523Y-128026247D01*
X122784523Y-128026247D02*
X122832142Y-128216723D01*
X122832142Y-128216723D02*
X122879761Y-128311961D01*
X122879761Y-128311961D02*
X122974999Y-128407200D01*
X122974999Y-128407200D02*
X123117856Y-128454819D01*
X123117856Y-128454819D02*
X123355951Y-128454819D01*
X121832142Y-128454819D02*
X122403570Y-128454819D01*
X122117856Y-128454819D02*
X122117856Y-127454819D01*
X122117856Y-127454819D02*
X122213094Y-127597676D01*
X122213094Y-127597676D02*
X122308332Y-127692914D01*
X122308332Y-127692914D02*
X122403570Y-127740533D01*
D11*
X125705238Y-83740752D02*
X125705238Y-84740752D01*
X125705238Y-83788371D02*
X125610000Y-83740752D01*
X125610000Y-83740752D02*
X125419524Y-83740752D01*
X125419524Y-83740752D02*
X125324286Y-83788371D01*
X125324286Y-83788371D02*
X125276667Y-83835990D01*
X125276667Y-83835990D02*
X125229048Y-83931228D01*
X125229048Y-83931228D02*
X125229048Y-84216942D01*
X125229048Y-84216942D02*
X125276667Y-84312180D01*
X125276667Y-84312180D02*
X125324286Y-84359800D01*
X125324286Y-84359800D02*
X125419524Y-84407419D01*
X125419524Y-84407419D02*
X125610000Y-84407419D01*
X125610000Y-84407419D02*
X125705238Y-84359800D01*
X124657619Y-84407419D02*
X124752857Y-84359800D01*
X124752857Y-84359800D02*
X124800476Y-84312180D01*
X124800476Y-84312180D02*
X124848095Y-84216942D01*
X124848095Y-84216942D02*
X124848095Y-83931228D01*
X124848095Y-83931228D02*
X124800476Y-83835990D01*
X124800476Y-83835990D02*
X124752857Y-83788371D01*
X124752857Y-83788371D02*
X124657619Y-83740752D01*
X124657619Y-83740752D02*
X124514762Y-83740752D01*
X124514762Y-83740752D02*
X124419524Y-83788371D01*
X124419524Y-83788371D02*
X124371905Y-83835990D01*
X124371905Y-83835990D02*
X124324286Y-83931228D01*
X124324286Y-83931228D02*
X124324286Y-84216942D01*
X124324286Y-84216942D02*
X124371905Y-84312180D01*
X124371905Y-84312180D02*
X124419524Y-84359800D01*
X124419524Y-84359800D02*
X124514762Y-84407419D01*
X124514762Y-84407419D02*
X124657619Y-84407419D01*
X124038571Y-83740752D02*
X123657619Y-83740752D01*
X123895714Y-83407419D02*
X123895714Y-84264561D01*
X123895714Y-84264561D02*
X123848095Y-84359800D01*
X123848095Y-84359800D02*
X123752857Y-84407419D01*
X123752857Y-84407419D02*
X123657619Y-84407419D01*
X123467142Y-83740752D02*
X123086190Y-83740752D01*
X123324285Y-83407419D02*
X123324285Y-84264561D01*
X123324285Y-84264561D02*
X123276666Y-84359800D01*
X123276666Y-84359800D02*
X123181428Y-84407419D01*
X123181428Y-84407419D02*
X123086190Y-84407419D01*
X122848094Y-83740752D02*
X122609999Y-84407419D01*
X122371904Y-83740752D02*
X122609999Y-84407419D01*
X122609999Y-84407419D02*
X122705237Y-84645514D01*
X122705237Y-84645514D02*
X122752856Y-84693133D01*
X122752856Y-84693133D02*
X122848094Y-84740752D01*
X121562380Y-83740752D02*
X121562380Y-84407419D01*
X121800475Y-83359800D02*
X122038570Y-84074085D01*
X122038570Y-84074085D02*
X121419523Y-84074085D01*
X133323734Y-86416895D02*
X133323734Y-87064514D01*
X133323734Y-87064514D02*
X133285639Y-87140704D01*
X133285639Y-87140704D02*
X133247544Y-87178800D01*
X133247544Y-87178800D02*
X133171353Y-87216895D01*
X133171353Y-87216895D02*
X133018972Y-87216895D01*
X133018972Y-87216895D02*
X132942782Y-87178800D01*
X132942782Y-87178800D02*
X132904687Y-87140704D01*
X132904687Y-87140704D02*
X132866591Y-87064514D01*
X132866591Y-87064514D02*
X132866591Y-86416895D01*
X132485639Y-87216895D02*
X132485639Y-86416895D01*
X132485639Y-86416895D02*
X132180877Y-86416895D01*
X132180877Y-86416895D02*
X132104687Y-86454990D01*
X132104687Y-86454990D02*
X132066592Y-86493085D01*
X132066592Y-86493085D02*
X132028496Y-86569276D01*
X132028496Y-86569276D02*
X132028496Y-86683561D01*
X132028496Y-86683561D02*
X132066592Y-86759752D01*
X132066592Y-86759752D02*
X132104687Y-86797847D01*
X132104687Y-86797847D02*
X132180877Y-86835942D01*
X132180877Y-86835942D02*
X132485639Y-86835942D01*
X131685639Y-87216895D02*
X131685639Y-86416895D01*
X131685639Y-86416895D02*
X131495163Y-86416895D01*
X131495163Y-86416895D02*
X131380877Y-86454990D01*
X131380877Y-86454990D02*
X131304687Y-86531180D01*
X131304687Y-86531180D02*
X131266592Y-86607371D01*
X131266592Y-86607371D02*
X131228496Y-86759752D01*
X131228496Y-86759752D02*
X131228496Y-86874038D01*
X131228496Y-86874038D02*
X131266592Y-87026419D01*
X131266592Y-87026419D02*
X131304687Y-87102609D01*
X131304687Y-87102609D02*
X131380877Y-87178800D01*
X131380877Y-87178800D02*
X131495163Y-87216895D01*
X131495163Y-87216895D02*
X131685639Y-87216895D01*
X130885639Y-87216895D02*
X130885639Y-86416895D01*
X117494687Y-89644990D02*
X117570877Y-89606895D01*
X117570877Y-89606895D02*
X117685163Y-89606895D01*
X117685163Y-89606895D02*
X117799449Y-89644990D01*
X117799449Y-89644990D02*
X117875639Y-89721180D01*
X117875639Y-89721180D02*
X117913734Y-89797371D01*
X117913734Y-89797371D02*
X117951830Y-89949752D01*
X117951830Y-89949752D02*
X117951830Y-90064038D01*
X117951830Y-90064038D02*
X117913734Y-90216419D01*
X117913734Y-90216419D02*
X117875639Y-90292609D01*
X117875639Y-90292609D02*
X117799449Y-90368800D01*
X117799449Y-90368800D02*
X117685163Y-90406895D01*
X117685163Y-90406895D02*
X117608972Y-90406895D01*
X117608972Y-90406895D02*
X117494687Y-90368800D01*
X117494687Y-90368800D02*
X117456591Y-90330704D01*
X117456591Y-90330704D02*
X117456591Y-90064038D01*
X117456591Y-90064038D02*
X117608972Y-90064038D01*
X117113734Y-90406895D02*
X117113734Y-89606895D01*
X117113734Y-89606895D02*
X116656591Y-90406895D01*
X116656591Y-90406895D02*
X116656591Y-89606895D01*
X116275639Y-90406895D02*
X116275639Y-89606895D01*
X116275639Y-89606895D02*
X116085163Y-89606895D01*
X116085163Y-89606895D02*
X115970877Y-89644990D01*
X115970877Y-89644990D02*
X115894687Y-89721180D01*
X115894687Y-89721180D02*
X115856592Y-89797371D01*
X115856592Y-89797371D02*
X115818496Y-89949752D01*
X115818496Y-89949752D02*
X115818496Y-90064038D01*
X115818496Y-90064038D02*
X115856592Y-90216419D01*
X115856592Y-90216419D02*
X115894687Y-90292609D01*
X115894687Y-90292609D02*
X115970877Y-90368800D01*
X115970877Y-90368800D02*
X116085163Y-90406895D01*
X116085163Y-90406895D02*
X116275639Y-90406895D01*
X131871830Y-78188800D02*
X131757544Y-78226895D01*
X131757544Y-78226895D02*
X131567068Y-78226895D01*
X131567068Y-78226895D02*
X131490877Y-78188800D01*
X131490877Y-78188800D02*
X131452782Y-78150704D01*
X131452782Y-78150704D02*
X131414687Y-78074514D01*
X131414687Y-78074514D02*
X131414687Y-77998323D01*
X131414687Y-77998323D02*
X131452782Y-77922133D01*
X131452782Y-77922133D02*
X131490877Y-77884038D01*
X131490877Y-77884038D02*
X131567068Y-77845942D01*
X131567068Y-77845942D02*
X131719449Y-77807847D01*
X131719449Y-77807847D02*
X131795639Y-77769752D01*
X131795639Y-77769752D02*
X131833734Y-77731657D01*
X131833734Y-77731657D02*
X131871830Y-77655466D01*
X131871830Y-77655466D02*
X131871830Y-77579276D01*
X131871830Y-77579276D02*
X131833734Y-77503085D01*
X131833734Y-77503085D02*
X131795639Y-77464990D01*
X131795639Y-77464990D02*
X131719449Y-77426895D01*
X131719449Y-77426895D02*
X131528972Y-77426895D01*
X131528972Y-77426895D02*
X131414687Y-77464990D01*
X130614686Y-78150704D02*
X130652782Y-78188800D01*
X130652782Y-78188800D02*
X130767067Y-78226895D01*
X130767067Y-78226895D02*
X130843258Y-78226895D01*
X130843258Y-78226895D02*
X130957544Y-78188800D01*
X130957544Y-78188800D02*
X131033734Y-78112609D01*
X131033734Y-78112609D02*
X131071829Y-78036419D01*
X131071829Y-78036419D02*
X131109925Y-77884038D01*
X131109925Y-77884038D02*
X131109925Y-77769752D01*
X131109925Y-77769752D02*
X131071829Y-77617371D01*
X131071829Y-77617371D02*
X131033734Y-77541180D01*
X131033734Y-77541180D02*
X130957544Y-77464990D01*
X130957544Y-77464990D02*
X130843258Y-77426895D01*
X130843258Y-77426895D02*
X130767067Y-77426895D01*
X130767067Y-77426895D02*
X130652782Y-77464990D01*
X130652782Y-77464990D02*
X130614686Y-77503085D01*
X129890877Y-78226895D02*
X130271829Y-78226895D01*
X130271829Y-78226895D02*
X130271829Y-77426895D01*
X128111830Y-90328800D02*
X127997544Y-90366895D01*
X127997544Y-90366895D02*
X127807068Y-90366895D01*
X127807068Y-90366895D02*
X127730877Y-90328800D01*
X127730877Y-90328800D02*
X127692782Y-90290704D01*
X127692782Y-90290704D02*
X127654687Y-90214514D01*
X127654687Y-90214514D02*
X127654687Y-90138323D01*
X127654687Y-90138323D02*
X127692782Y-90062133D01*
X127692782Y-90062133D02*
X127730877Y-90024038D01*
X127730877Y-90024038D02*
X127807068Y-89985942D01*
X127807068Y-89985942D02*
X127959449Y-89947847D01*
X127959449Y-89947847D02*
X128035639Y-89909752D01*
X128035639Y-89909752D02*
X128073734Y-89871657D01*
X128073734Y-89871657D02*
X128111830Y-89795466D01*
X128111830Y-89795466D02*
X128111830Y-89719276D01*
X128111830Y-89719276D02*
X128073734Y-89643085D01*
X128073734Y-89643085D02*
X128035639Y-89604990D01*
X128035639Y-89604990D02*
X127959449Y-89566895D01*
X127959449Y-89566895D02*
X127768972Y-89566895D01*
X127768972Y-89566895D02*
X127654687Y-89604990D01*
X127311829Y-90366895D02*
X127311829Y-89566895D01*
X127311829Y-89566895D02*
X127121353Y-89566895D01*
X127121353Y-89566895D02*
X127007067Y-89604990D01*
X127007067Y-89604990D02*
X126930877Y-89681180D01*
X126930877Y-89681180D02*
X126892782Y-89757371D01*
X126892782Y-89757371D02*
X126854686Y-89909752D01*
X126854686Y-89909752D02*
X126854686Y-90024038D01*
X126854686Y-90024038D02*
X126892782Y-90176419D01*
X126892782Y-90176419D02*
X126930877Y-90252609D01*
X126930877Y-90252609D02*
X127007067Y-90328800D01*
X127007067Y-90328800D02*
X127121353Y-90366895D01*
X127121353Y-90366895D02*
X127311829Y-90366895D01*
X126549925Y-90138323D02*
X126168972Y-90138323D01*
X126626115Y-90366895D02*
X126359448Y-89566895D01*
X126359448Y-89566895D02*
X126092782Y-90366895D01*
X117788020Y-77306895D02*
X117521353Y-78106895D01*
X117521353Y-78106895D02*
X117254687Y-77306895D01*
X116530877Y-78030704D02*
X116568973Y-78068800D01*
X116568973Y-78068800D02*
X116683258Y-78106895D01*
X116683258Y-78106895D02*
X116759449Y-78106895D01*
X116759449Y-78106895D02*
X116873735Y-78068800D01*
X116873735Y-78068800D02*
X116949925Y-77992609D01*
X116949925Y-77992609D02*
X116988020Y-77916419D01*
X116988020Y-77916419D02*
X117026116Y-77764038D01*
X117026116Y-77764038D02*
X117026116Y-77649752D01*
X117026116Y-77649752D02*
X116988020Y-77497371D01*
X116988020Y-77497371D02*
X116949925Y-77421180D01*
X116949925Y-77421180D02*
X116873735Y-77344990D01*
X116873735Y-77344990D02*
X116759449Y-77306895D01*
X116759449Y-77306895D02*
X116683258Y-77306895D01*
X116683258Y-77306895D02*
X116568973Y-77344990D01*
X116568973Y-77344990D02*
X116530877Y-77383085D01*
X115730877Y-78030704D02*
X115768973Y-78068800D01*
X115768973Y-78068800D02*
X115883258Y-78106895D01*
X115883258Y-78106895D02*
X115959449Y-78106895D01*
X115959449Y-78106895D02*
X116073735Y-78068800D01*
X116073735Y-78068800D02*
X116149925Y-77992609D01*
X116149925Y-77992609D02*
X116188020Y-77916419D01*
X116188020Y-77916419D02*
X116226116Y-77764038D01*
X116226116Y-77764038D02*
X116226116Y-77649752D01*
X116226116Y-77649752D02*
X116188020Y-77497371D01*
X116188020Y-77497371D02*
X116149925Y-77421180D01*
X116149925Y-77421180D02*
X116073735Y-77344990D01*
X116073735Y-77344990D02*
X115959449Y-77306895D01*
X115959449Y-77306895D02*
X115883258Y-77306895D01*
X115883258Y-77306895D02*
X115768973Y-77344990D01*
X115768973Y-77344990D02*
X115730877Y-77383085D01*
X162095238Y-83790752D02*
X162095238Y-84790752D01*
X162095238Y-83838371D02*
X162000000Y-83790752D01*
X162000000Y-83790752D02*
X161809524Y-83790752D01*
X161809524Y-83790752D02*
X161714286Y-83838371D01*
X161714286Y-83838371D02*
X161666667Y-83885990D01*
X161666667Y-83885990D02*
X161619048Y-83981228D01*
X161619048Y-83981228D02*
X161619048Y-84266942D01*
X161619048Y-84266942D02*
X161666667Y-84362180D01*
X161666667Y-84362180D02*
X161714286Y-84409800D01*
X161714286Y-84409800D02*
X161809524Y-84457419D01*
X161809524Y-84457419D02*
X162000000Y-84457419D01*
X162000000Y-84457419D02*
X162095238Y-84409800D01*
X161047619Y-84457419D02*
X161142857Y-84409800D01*
X161142857Y-84409800D02*
X161190476Y-84362180D01*
X161190476Y-84362180D02*
X161238095Y-84266942D01*
X161238095Y-84266942D02*
X161238095Y-83981228D01*
X161238095Y-83981228D02*
X161190476Y-83885990D01*
X161190476Y-83885990D02*
X161142857Y-83838371D01*
X161142857Y-83838371D02*
X161047619Y-83790752D01*
X161047619Y-83790752D02*
X160904762Y-83790752D01*
X160904762Y-83790752D02*
X160809524Y-83838371D01*
X160809524Y-83838371D02*
X160761905Y-83885990D01*
X160761905Y-83885990D02*
X160714286Y-83981228D01*
X160714286Y-83981228D02*
X160714286Y-84266942D01*
X160714286Y-84266942D02*
X160761905Y-84362180D01*
X160761905Y-84362180D02*
X160809524Y-84409800D01*
X160809524Y-84409800D02*
X160904762Y-84457419D01*
X160904762Y-84457419D02*
X161047619Y-84457419D01*
X160428571Y-83790752D02*
X160047619Y-83790752D01*
X160285714Y-83457419D02*
X160285714Y-84314561D01*
X160285714Y-84314561D02*
X160238095Y-84409800D01*
X160238095Y-84409800D02*
X160142857Y-84457419D01*
X160142857Y-84457419D02*
X160047619Y-84457419D01*
X159857142Y-83790752D02*
X159476190Y-83790752D01*
X159714285Y-83457419D02*
X159714285Y-84314561D01*
X159714285Y-84314561D02*
X159666666Y-84409800D01*
X159666666Y-84409800D02*
X159571428Y-84457419D01*
X159571428Y-84457419D02*
X159476190Y-84457419D01*
X159238094Y-83790752D02*
X158999999Y-84457419D01*
X158761904Y-83790752D02*
X158999999Y-84457419D01*
X158999999Y-84457419D02*
X159095237Y-84695514D01*
X159095237Y-84695514D02*
X159142856Y-84743133D01*
X159142856Y-84743133D02*
X159238094Y-84790752D01*
X158476189Y-83457419D02*
X157857142Y-83457419D01*
X157857142Y-83457419D02*
X158190475Y-83838371D01*
X158190475Y-83838371D02*
X158047618Y-83838371D01*
X158047618Y-83838371D02*
X157952380Y-83885990D01*
X157952380Y-83885990D02*
X157904761Y-83933609D01*
X157904761Y-83933609D02*
X157857142Y-84028847D01*
X157857142Y-84028847D02*
X157857142Y-84266942D01*
X157857142Y-84266942D02*
X157904761Y-84362180D01*
X157904761Y-84362180D02*
X157952380Y-84409800D01*
X157952380Y-84409800D02*
X158047618Y-84457419D01*
X158047618Y-84457419D02*
X158333332Y-84457419D01*
X158333332Y-84457419D02*
X158428570Y-84409800D01*
X158428570Y-84409800D02*
X158476189Y-84362180D01*
X153988020Y-77476895D02*
X153721353Y-78276895D01*
X153721353Y-78276895D02*
X153454687Y-77476895D01*
X152730877Y-78200704D02*
X152768973Y-78238800D01*
X152768973Y-78238800D02*
X152883258Y-78276895D01*
X152883258Y-78276895D02*
X152959449Y-78276895D01*
X152959449Y-78276895D02*
X153073735Y-78238800D01*
X153073735Y-78238800D02*
X153149925Y-78162609D01*
X153149925Y-78162609D02*
X153188020Y-78086419D01*
X153188020Y-78086419D02*
X153226116Y-77934038D01*
X153226116Y-77934038D02*
X153226116Y-77819752D01*
X153226116Y-77819752D02*
X153188020Y-77667371D01*
X153188020Y-77667371D02*
X153149925Y-77591180D01*
X153149925Y-77591180D02*
X153073735Y-77514990D01*
X153073735Y-77514990D02*
X152959449Y-77476895D01*
X152959449Y-77476895D02*
X152883258Y-77476895D01*
X152883258Y-77476895D02*
X152768973Y-77514990D01*
X152768973Y-77514990D02*
X152730877Y-77553085D01*
X151930877Y-78200704D02*
X151968973Y-78238800D01*
X151968973Y-78238800D02*
X152083258Y-78276895D01*
X152083258Y-78276895D02*
X152159449Y-78276895D01*
X152159449Y-78276895D02*
X152273735Y-78238800D01*
X152273735Y-78238800D02*
X152349925Y-78162609D01*
X152349925Y-78162609D02*
X152388020Y-78086419D01*
X152388020Y-78086419D02*
X152426116Y-77934038D01*
X152426116Y-77934038D02*
X152426116Y-77819752D01*
X152426116Y-77819752D02*
X152388020Y-77667371D01*
X152388020Y-77667371D02*
X152349925Y-77591180D01*
X152349925Y-77591180D02*
X152273735Y-77514990D01*
X152273735Y-77514990D02*
X152159449Y-77476895D01*
X152159449Y-77476895D02*
X152083258Y-77476895D01*
X152083258Y-77476895D02*
X151968973Y-77514990D01*
X151968973Y-77514990D02*
X151930877Y-77553085D01*
X170023734Y-86406895D02*
X170023734Y-87054514D01*
X170023734Y-87054514D02*
X169985639Y-87130704D01*
X169985639Y-87130704D02*
X169947544Y-87168800D01*
X169947544Y-87168800D02*
X169871353Y-87206895D01*
X169871353Y-87206895D02*
X169718972Y-87206895D01*
X169718972Y-87206895D02*
X169642782Y-87168800D01*
X169642782Y-87168800D02*
X169604687Y-87130704D01*
X169604687Y-87130704D02*
X169566591Y-87054514D01*
X169566591Y-87054514D02*
X169566591Y-86406895D01*
X169185639Y-87206895D02*
X169185639Y-86406895D01*
X169185639Y-86406895D02*
X168880877Y-86406895D01*
X168880877Y-86406895D02*
X168804687Y-86444990D01*
X168804687Y-86444990D02*
X168766592Y-86483085D01*
X168766592Y-86483085D02*
X168728496Y-86559276D01*
X168728496Y-86559276D02*
X168728496Y-86673561D01*
X168728496Y-86673561D02*
X168766592Y-86749752D01*
X168766592Y-86749752D02*
X168804687Y-86787847D01*
X168804687Y-86787847D02*
X168880877Y-86825942D01*
X168880877Y-86825942D02*
X169185639Y-86825942D01*
X168385639Y-87206895D02*
X168385639Y-86406895D01*
X168385639Y-86406895D02*
X168195163Y-86406895D01*
X168195163Y-86406895D02*
X168080877Y-86444990D01*
X168080877Y-86444990D02*
X168004687Y-86521180D01*
X168004687Y-86521180D02*
X167966592Y-86597371D01*
X167966592Y-86597371D02*
X167928496Y-86749752D01*
X167928496Y-86749752D02*
X167928496Y-86864038D01*
X167928496Y-86864038D02*
X167966592Y-87016419D01*
X167966592Y-87016419D02*
X168004687Y-87092609D01*
X168004687Y-87092609D02*
X168080877Y-87168800D01*
X168080877Y-87168800D02*
X168195163Y-87206895D01*
X168195163Y-87206895D02*
X168385639Y-87206895D01*
X167585639Y-87206895D02*
X167585639Y-86406895D01*
X153414687Y-89514990D02*
X153490877Y-89476895D01*
X153490877Y-89476895D02*
X153605163Y-89476895D01*
X153605163Y-89476895D02*
X153719449Y-89514990D01*
X153719449Y-89514990D02*
X153795639Y-89591180D01*
X153795639Y-89591180D02*
X153833734Y-89667371D01*
X153833734Y-89667371D02*
X153871830Y-89819752D01*
X153871830Y-89819752D02*
X153871830Y-89934038D01*
X153871830Y-89934038D02*
X153833734Y-90086419D01*
X153833734Y-90086419D02*
X153795639Y-90162609D01*
X153795639Y-90162609D02*
X153719449Y-90238800D01*
X153719449Y-90238800D02*
X153605163Y-90276895D01*
X153605163Y-90276895D02*
X153528972Y-90276895D01*
X153528972Y-90276895D02*
X153414687Y-90238800D01*
X153414687Y-90238800D02*
X153376591Y-90200704D01*
X153376591Y-90200704D02*
X153376591Y-89934038D01*
X153376591Y-89934038D02*
X153528972Y-89934038D01*
X153033734Y-90276895D02*
X153033734Y-89476895D01*
X153033734Y-89476895D02*
X152576591Y-90276895D01*
X152576591Y-90276895D02*
X152576591Y-89476895D01*
X152195639Y-90276895D02*
X152195639Y-89476895D01*
X152195639Y-89476895D02*
X152005163Y-89476895D01*
X152005163Y-89476895D02*
X151890877Y-89514990D01*
X151890877Y-89514990D02*
X151814687Y-89591180D01*
X151814687Y-89591180D02*
X151776592Y-89667371D01*
X151776592Y-89667371D02*
X151738496Y-89819752D01*
X151738496Y-89819752D02*
X151738496Y-89934038D01*
X151738496Y-89934038D02*
X151776592Y-90086419D01*
X151776592Y-90086419D02*
X151814687Y-90162609D01*
X151814687Y-90162609D02*
X151890877Y-90238800D01*
X151890877Y-90238800D02*
X152005163Y-90276895D01*
X152005163Y-90276895D02*
X152195639Y-90276895D01*
X163851830Y-90468800D02*
X163737544Y-90506895D01*
X163737544Y-90506895D02*
X163547068Y-90506895D01*
X163547068Y-90506895D02*
X163470877Y-90468800D01*
X163470877Y-90468800D02*
X163432782Y-90430704D01*
X163432782Y-90430704D02*
X163394687Y-90354514D01*
X163394687Y-90354514D02*
X163394687Y-90278323D01*
X163394687Y-90278323D02*
X163432782Y-90202133D01*
X163432782Y-90202133D02*
X163470877Y-90164038D01*
X163470877Y-90164038D02*
X163547068Y-90125942D01*
X163547068Y-90125942D02*
X163699449Y-90087847D01*
X163699449Y-90087847D02*
X163775639Y-90049752D01*
X163775639Y-90049752D02*
X163813734Y-90011657D01*
X163813734Y-90011657D02*
X163851830Y-89935466D01*
X163851830Y-89935466D02*
X163851830Y-89859276D01*
X163851830Y-89859276D02*
X163813734Y-89783085D01*
X163813734Y-89783085D02*
X163775639Y-89744990D01*
X163775639Y-89744990D02*
X163699449Y-89706895D01*
X163699449Y-89706895D02*
X163508972Y-89706895D01*
X163508972Y-89706895D02*
X163394687Y-89744990D01*
X163051829Y-90506895D02*
X163051829Y-89706895D01*
X163051829Y-89706895D02*
X162861353Y-89706895D01*
X162861353Y-89706895D02*
X162747067Y-89744990D01*
X162747067Y-89744990D02*
X162670877Y-89821180D01*
X162670877Y-89821180D02*
X162632782Y-89897371D01*
X162632782Y-89897371D02*
X162594686Y-90049752D01*
X162594686Y-90049752D02*
X162594686Y-90164038D01*
X162594686Y-90164038D02*
X162632782Y-90316419D01*
X162632782Y-90316419D02*
X162670877Y-90392609D01*
X162670877Y-90392609D02*
X162747067Y-90468800D01*
X162747067Y-90468800D02*
X162861353Y-90506895D01*
X162861353Y-90506895D02*
X163051829Y-90506895D01*
X162289925Y-90278323D02*
X161908972Y-90278323D01*
X162366115Y-90506895D02*
X162099448Y-89706895D01*
X162099448Y-89706895D02*
X161832782Y-90506895D01*
X167921830Y-77738800D02*
X167807544Y-77776895D01*
X167807544Y-77776895D02*
X167617068Y-77776895D01*
X167617068Y-77776895D02*
X167540877Y-77738800D01*
X167540877Y-77738800D02*
X167502782Y-77700704D01*
X167502782Y-77700704D02*
X167464687Y-77624514D01*
X167464687Y-77624514D02*
X167464687Y-77548323D01*
X167464687Y-77548323D02*
X167502782Y-77472133D01*
X167502782Y-77472133D02*
X167540877Y-77434038D01*
X167540877Y-77434038D02*
X167617068Y-77395942D01*
X167617068Y-77395942D02*
X167769449Y-77357847D01*
X167769449Y-77357847D02*
X167845639Y-77319752D01*
X167845639Y-77319752D02*
X167883734Y-77281657D01*
X167883734Y-77281657D02*
X167921830Y-77205466D01*
X167921830Y-77205466D02*
X167921830Y-77129276D01*
X167921830Y-77129276D02*
X167883734Y-77053085D01*
X167883734Y-77053085D02*
X167845639Y-77014990D01*
X167845639Y-77014990D02*
X167769449Y-76976895D01*
X167769449Y-76976895D02*
X167578972Y-76976895D01*
X167578972Y-76976895D02*
X167464687Y-77014990D01*
X166664686Y-77700704D02*
X166702782Y-77738800D01*
X166702782Y-77738800D02*
X166817067Y-77776895D01*
X166817067Y-77776895D02*
X166893258Y-77776895D01*
X166893258Y-77776895D02*
X167007544Y-77738800D01*
X167007544Y-77738800D02*
X167083734Y-77662609D01*
X167083734Y-77662609D02*
X167121829Y-77586419D01*
X167121829Y-77586419D02*
X167159925Y-77434038D01*
X167159925Y-77434038D02*
X167159925Y-77319752D01*
X167159925Y-77319752D02*
X167121829Y-77167371D01*
X167121829Y-77167371D02*
X167083734Y-77091180D01*
X167083734Y-77091180D02*
X167007544Y-77014990D01*
X167007544Y-77014990D02*
X166893258Y-76976895D01*
X166893258Y-76976895D02*
X166817067Y-76976895D01*
X166817067Y-76976895D02*
X166702782Y-77014990D01*
X166702782Y-77014990D02*
X166664686Y-77053085D01*
X165940877Y-77776895D02*
X166321829Y-77776895D01*
X166321829Y-77776895D02*
X166321829Y-76976895D01*
D10*
X161644047Y-128454819D02*
X162120237Y-128454819D01*
X162120237Y-128454819D02*
X162120237Y-127454819D01*
X161310713Y-127931009D02*
X160977380Y-127931009D01*
X160834523Y-128454819D02*
X161310713Y-128454819D01*
X161310713Y-128454819D02*
X161310713Y-127454819D01*
X161310713Y-127454819D02*
X160834523Y-127454819D01*
X160405951Y-128454819D02*
X160405951Y-127454819D01*
X160405951Y-127454819D02*
X160167856Y-127454819D01*
X160167856Y-127454819D02*
X160024999Y-127502438D01*
X160024999Y-127502438D02*
X159929761Y-127597676D01*
X159929761Y-127597676D02*
X159882142Y-127692914D01*
X159882142Y-127692914D02*
X159834523Y-127883390D01*
X159834523Y-127883390D02*
X159834523Y-128026247D01*
X159834523Y-128026247D02*
X159882142Y-128216723D01*
X159882142Y-128216723D02*
X159929761Y-128311961D01*
X159929761Y-128311961D02*
X160024999Y-128407200D01*
X160024999Y-128407200D02*
X160167856Y-128454819D01*
X160167856Y-128454819D02*
X160405951Y-128454819D01*
X159453570Y-127550057D02*
X159405951Y-127502438D01*
X159405951Y-127502438D02*
X159310713Y-127454819D01*
X159310713Y-127454819D02*
X159072618Y-127454819D01*
X159072618Y-127454819D02*
X158977380Y-127502438D01*
X158977380Y-127502438D02*
X158929761Y-127550057D01*
X158929761Y-127550057D02*
X158882142Y-127645295D01*
X158882142Y-127645295D02*
X158882142Y-127740533D01*
X158882142Y-127740533D02*
X158929761Y-127883390D01*
X158929761Y-127883390D02*
X159501189Y-128454819D01*
X159501189Y-128454819D02*
X158882142Y-128454819D01*
D11*
X126105238Y-56050752D02*
X126105238Y-57050752D01*
X126105238Y-56098371D02*
X126010000Y-56050752D01*
X126010000Y-56050752D02*
X125819524Y-56050752D01*
X125819524Y-56050752D02*
X125724286Y-56098371D01*
X125724286Y-56098371D02*
X125676667Y-56145990D01*
X125676667Y-56145990D02*
X125629048Y-56241228D01*
X125629048Y-56241228D02*
X125629048Y-56526942D01*
X125629048Y-56526942D02*
X125676667Y-56622180D01*
X125676667Y-56622180D02*
X125724286Y-56669800D01*
X125724286Y-56669800D02*
X125819524Y-56717419D01*
X125819524Y-56717419D02*
X126010000Y-56717419D01*
X126010000Y-56717419D02*
X126105238Y-56669800D01*
X125057619Y-56717419D02*
X125152857Y-56669800D01*
X125152857Y-56669800D02*
X125200476Y-56622180D01*
X125200476Y-56622180D02*
X125248095Y-56526942D01*
X125248095Y-56526942D02*
X125248095Y-56241228D01*
X125248095Y-56241228D02*
X125200476Y-56145990D01*
X125200476Y-56145990D02*
X125152857Y-56098371D01*
X125152857Y-56098371D02*
X125057619Y-56050752D01*
X125057619Y-56050752D02*
X124914762Y-56050752D01*
X124914762Y-56050752D02*
X124819524Y-56098371D01*
X124819524Y-56098371D02*
X124771905Y-56145990D01*
X124771905Y-56145990D02*
X124724286Y-56241228D01*
X124724286Y-56241228D02*
X124724286Y-56526942D01*
X124724286Y-56526942D02*
X124771905Y-56622180D01*
X124771905Y-56622180D02*
X124819524Y-56669800D01*
X124819524Y-56669800D02*
X124914762Y-56717419D01*
X124914762Y-56717419D02*
X125057619Y-56717419D01*
X124438571Y-56050752D02*
X124057619Y-56050752D01*
X124295714Y-55717419D02*
X124295714Y-56574561D01*
X124295714Y-56574561D02*
X124248095Y-56669800D01*
X124248095Y-56669800D02*
X124152857Y-56717419D01*
X124152857Y-56717419D02*
X124057619Y-56717419D01*
X123867142Y-56050752D02*
X123486190Y-56050752D01*
X123724285Y-55717419D02*
X123724285Y-56574561D01*
X123724285Y-56574561D02*
X123676666Y-56669800D01*
X123676666Y-56669800D02*
X123581428Y-56717419D01*
X123581428Y-56717419D02*
X123486190Y-56717419D01*
X123248094Y-56050752D02*
X123009999Y-56717419D01*
X122771904Y-56050752D02*
X123009999Y-56717419D01*
X123009999Y-56717419D02*
X123105237Y-56955514D01*
X123105237Y-56955514D02*
X123152856Y-57003133D01*
X123152856Y-57003133D02*
X123248094Y-57050752D01*
X122438570Y-55812657D02*
X122390951Y-55765038D01*
X122390951Y-55765038D02*
X122295713Y-55717419D01*
X122295713Y-55717419D02*
X122057618Y-55717419D01*
X122057618Y-55717419D02*
X121962380Y-55765038D01*
X121962380Y-55765038D02*
X121914761Y-55812657D01*
X121914761Y-55812657D02*
X121867142Y-55907895D01*
X121867142Y-55907895D02*
X121867142Y-56003133D01*
X121867142Y-56003133D02*
X121914761Y-56145990D01*
X121914761Y-56145990D02*
X122486189Y-56717419D01*
X122486189Y-56717419D02*
X121867142Y-56717419D01*
X119958020Y-61836895D02*
X119691353Y-62636895D01*
X119691353Y-62636895D02*
X119424687Y-61836895D01*
X118700877Y-62560704D02*
X118738973Y-62598800D01*
X118738973Y-62598800D02*
X118853258Y-62636895D01*
X118853258Y-62636895D02*
X118929449Y-62636895D01*
X118929449Y-62636895D02*
X119043735Y-62598800D01*
X119043735Y-62598800D02*
X119119925Y-62522609D01*
X119119925Y-62522609D02*
X119158020Y-62446419D01*
X119158020Y-62446419D02*
X119196116Y-62294038D01*
X119196116Y-62294038D02*
X119196116Y-62179752D01*
X119196116Y-62179752D02*
X119158020Y-62027371D01*
X119158020Y-62027371D02*
X119119925Y-61951180D01*
X119119925Y-61951180D02*
X119043735Y-61874990D01*
X119043735Y-61874990D02*
X118929449Y-61836895D01*
X118929449Y-61836895D02*
X118853258Y-61836895D01*
X118853258Y-61836895D02*
X118738973Y-61874990D01*
X118738973Y-61874990D02*
X118700877Y-61913085D01*
X117900877Y-62560704D02*
X117938973Y-62598800D01*
X117938973Y-62598800D02*
X118053258Y-62636895D01*
X118053258Y-62636895D02*
X118129449Y-62636895D01*
X118129449Y-62636895D02*
X118243735Y-62598800D01*
X118243735Y-62598800D02*
X118319925Y-62522609D01*
X118319925Y-62522609D02*
X118358020Y-62446419D01*
X118358020Y-62446419D02*
X118396116Y-62294038D01*
X118396116Y-62294038D02*
X118396116Y-62179752D01*
X118396116Y-62179752D02*
X118358020Y-62027371D01*
X118358020Y-62027371D02*
X118319925Y-61951180D01*
X118319925Y-61951180D02*
X118243735Y-61874990D01*
X118243735Y-61874990D02*
X118129449Y-61836895D01*
X118129449Y-61836895D02*
X118053258Y-61836895D01*
X118053258Y-61836895D02*
X117938973Y-61874990D01*
X117938973Y-61874990D02*
X117900877Y-61913085D01*
X127193734Y-48136895D02*
X127193734Y-48784514D01*
X127193734Y-48784514D02*
X127155639Y-48860704D01*
X127155639Y-48860704D02*
X127117544Y-48898800D01*
X127117544Y-48898800D02*
X127041353Y-48936895D01*
X127041353Y-48936895D02*
X126888972Y-48936895D01*
X126888972Y-48936895D02*
X126812782Y-48898800D01*
X126812782Y-48898800D02*
X126774687Y-48860704D01*
X126774687Y-48860704D02*
X126736591Y-48784514D01*
X126736591Y-48784514D02*
X126736591Y-48136895D01*
X126355639Y-48936895D02*
X126355639Y-48136895D01*
X126355639Y-48136895D02*
X126050877Y-48136895D01*
X126050877Y-48136895D02*
X125974687Y-48174990D01*
X125974687Y-48174990D02*
X125936592Y-48213085D01*
X125936592Y-48213085D02*
X125898496Y-48289276D01*
X125898496Y-48289276D02*
X125898496Y-48403561D01*
X125898496Y-48403561D02*
X125936592Y-48479752D01*
X125936592Y-48479752D02*
X125974687Y-48517847D01*
X125974687Y-48517847D02*
X126050877Y-48555942D01*
X126050877Y-48555942D02*
X126355639Y-48555942D01*
X125555639Y-48936895D02*
X125555639Y-48136895D01*
X125555639Y-48136895D02*
X125365163Y-48136895D01*
X125365163Y-48136895D02*
X125250877Y-48174990D01*
X125250877Y-48174990D02*
X125174687Y-48251180D01*
X125174687Y-48251180D02*
X125136592Y-48327371D01*
X125136592Y-48327371D02*
X125098496Y-48479752D01*
X125098496Y-48479752D02*
X125098496Y-48594038D01*
X125098496Y-48594038D02*
X125136592Y-48746419D01*
X125136592Y-48746419D02*
X125174687Y-48822609D01*
X125174687Y-48822609D02*
X125250877Y-48898800D01*
X125250877Y-48898800D02*
X125365163Y-48936895D01*
X125365163Y-48936895D02*
X125555639Y-48936895D01*
X124755639Y-48936895D02*
X124755639Y-48136895D01*
X129644687Y-60144990D02*
X129720877Y-60106895D01*
X129720877Y-60106895D02*
X129835163Y-60106895D01*
X129835163Y-60106895D02*
X129949449Y-60144990D01*
X129949449Y-60144990D02*
X130025639Y-60221180D01*
X130025639Y-60221180D02*
X130063734Y-60297371D01*
X130063734Y-60297371D02*
X130101830Y-60449752D01*
X130101830Y-60449752D02*
X130101830Y-60564038D01*
X130101830Y-60564038D02*
X130063734Y-60716419D01*
X130063734Y-60716419D02*
X130025639Y-60792609D01*
X130025639Y-60792609D02*
X129949449Y-60868800D01*
X129949449Y-60868800D02*
X129835163Y-60906895D01*
X129835163Y-60906895D02*
X129758972Y-60906895D01*
X129758972Y-60906895D02*
X129644687Y-60868800D01*
X129644687Y-60868800D02*
X129606591Y-60830704D01*
X129606591Y-60830704D02*
X129606591Y-60564038D01*
X129606591Y-60564038D02*
X129758972Y-60564038D01*
X129263734Y-60906895D02*
X129263734Y-60106895D01*
X129263734Y-60106895D02*
X128806591Y-60906895D01*
X128806591Y-60906895D02*
X128806591Y-60106895D01*
X128425639Y-60906895D02*
X128425639Y-60106895D01*
X128425639Y-60106895D02*
X128235163Y-60106895D01*
X128235163Y-60106895D02*
X128120877Y-60144990D01*
X128120877Y-60144990D02*
X128044687Y-60221180D01*
X128044687Y-60221180D02*
X128006592Y-60297371D01*
X128006592Y-60297371D02*
X127968496Y-60449752D01*
X127968496Y-60449752D02*
X127968496Y-60564038D01*
X127968496Y-60564038D02*
X128006592Y-60716419D01*
X128006592Y-60716419D02*
X128044687Y-60792609D01*
X128044687Y-60792609D02*
X128120877Y-60868800D01*
X128120877Y-60868800D02*
X128235163Y-60906895D01*
X128235163Y-60906895D02*
X128425639Y-60906895D01*
X130511830Y-53068800D02*
X130397544Y-53106895D01*
X130397544Y-53106895D02*
X130207068Y-53106895D01*
X130207068Y-53106895D02*
X130130877Y-53068800D01*
X130130877Y-53068800D02*
X130092782Y-53030704D01*
X130092782Y-53030704D02*
X130054687Y-52954514D01*
X130054687Y-52954514D02*
X130054687Y-52878323D01*
X130054687Y-52878323D02*
X130092782Y-52802133D01*
X130092782Y-52802133D02*
X130130877Y-52764038D01*
X130130877Y-52764038D02*
X130207068Y-52725942D01*
X130207068Y-52725942D02*
X130359449Y-52687847D01*
X130359449Y-52687847D02*
X130435639Y-52649752D01*
X130435639Y-52649752D02*
X130473734Y-52611657D01*
X130473734Y-52611657D02*
X130511830Y-52535466D01*
X130511830Y-52535466D02*
X130511830Y-52459276D01*
X130511830Y-52459276D02*
X130473734Y-52383085D01*
X130473734Y-52383085D02*
X130435639Y-52344990D01*
X130435639Y-52344990D02*
X130359449Y-52306895D01*
X130359449Y-52306895D02*
X130168972Y-52306895D01*
X130168972Y-52306895D02*
X130054687Y-52344990D01*
X129711829Y-53106895D02*
X129711829Y-52306895D01*
X129711829Y-52306895D02*
X129521353Y-52306895D01*
X129521353Y-52306895D02*
X129407067Y-52344990D01*
X129407067Y-52344990D02*
X129330877Y-52421180D01*
X129330877Y-52421180D02*
X129292782Y-52497371D01*
X129292782Y-52497371D02*
X129254686Y-52649752D01*
X129254686Y-52649752D02*
X129254686Y-52764038D01*
X129254686Y-52764038D02*
X129292782Y-52916419D01*
X129292782Y-52916419D02*
X129330877Y-52992609D01*
X129330877Y-52992609D02*
X129407067Y-53068800D01*
X129407067Y-53068800D02*
X129521353Y-53106895D01*
X129521353Y-53106895D02*
X129711829Y-53106895D01*
X128949925Y-52878323D02*
X128568972Y-52878323D01*
X129026115Y-53106895D02*
X128759448Y-52306895D01*
X128759448Y-52306895D02*
X128492782Y-53106895D01*
X118701830Y-49788800D02*
X118587544Y-49826895D01*
X118587544Y-49826895D02*
X118397068Y-49826895D01*
X118397068Y-49826895D02*
X118320877Y-49788800D01*
X118320877Y-49788800D02*
X118282782Y-49750704D01*
X118282782Y-49750704D02*
X118244687Y-49674514D01*
X118244687Y-49674514D02*
X118244687Y-49598323D01*
X118244687Y-49598323D02*
X118282782Y-49522133D01*
X118282782Y-49522133D02*
X118320877Y-49484038D01*
X118320877Y-49484038D02*
X118397068Y-49445942D01*
X118397068Y-49445942D02*
X118549449Y-49407847D01*
X118549449Y-49407847D02*
X118625639Y-49369752D01*
X118625639Y-49369752D02*
X118663734Y-49331657D01*
X118663734Y-49331657D02*
X118701830Y-49255466D01*
X118701830Y-49255466D02*
X118701830Y-49179276D01*
X118701830Y-49179276D02*
X118663734Y-49103085D01*
X118663734Y-49103085D02*
X118625639Y-49064990D01*
X118625639Y-49064990D02*
X118549449Y-49026895D01*
X118549449Y-49026895D02*
X118358972Y-49026895D01*
X118358972Y-49026895D02*
X118244687Y-49064990D01*
X117444686Y-49750704D02*
X117482782Y-49788800D01*
X117482782Y-49788800D02*
X117597067Y-49826895D01*
X117597067Y-49826895D02*
X117673258Y-49826895D01*
X117673258Y-49826895D02*
X117787544Y-49788800D01*
X117787544Y-49788800D02*
X117863734Y-49712609D01*
X117863734Y-49712609D02*
X117901829Y-49636419D01*
X117901829Y-49636419D02*
X117939925Y-49484038D01*
X117939925Y-49484038D02*
X117939925Y-49369752D01*
X117939925Y-49369752D02*
X117901829Y-49217371D01*
X117901829Y-49217371D02*
X117863734Y-49141180D01*
X117863734Y-49141180D02*
X117787544Y-49064990D01*
X117787544Y-49064990D02*
X117673258Y-49026895D01*
X117673258Y-49026895D02*
X117597067Y-49026895D01*
X117597067Y-49026895D02*
X117482782Y-49064990D01*
X117482782Y-49064990D02*
X117444686Y-49103085D01*
X116720877Y-49826895D02*
X117101829Y-49826895D01*
X117101829Y-49826895D02*
X117101829Y-49026895D01*
D10*
X146059523Y-129431009D02*
X146392856Y-129431009D01*
X146392856Y-129954819D02*
X146392856Y-128954819D01*
X146392856Y-128954819D02*
X145916666Y-128954819D01*
X145583332Y-129907200D02*
X145440475Y-129954819D01*
X145440475Y-129954819D02*
X145202380Y-129954819D01*
X145202380Y-129954819D02*
X145107142Y-129907200D01*
X145107142Y-129907200D02*
X145059523Y-129859580D01*
X145059523Y-129859580D02*
X145011904Y-129764342D01*
X145011904Y-129764342D02*
X145011904Y-129669104D01*
X145011904Y-129669104D02*
X145059523Y-129573866D01*
X145059523Y-129573866D02*
X145107142Y-129526247D01*
X145107142Y-129526247D02*
X145202380Y-129478628D01*
X145202380Y-129478628D02*
X145392856Y-129431009D01*
X145392856Y-129431009D02*
X145488094Y-129383390D01*
X145488094Y-129383390D02*
X145535713Y-129335771D01*
X145535713Y-129335771D02*
X145583332Y-129240533D01*
X145583332Y-129240533D02*
X145583332Y-129145295D01*
X145583332Y-129145295D02*
X145535713Y-129050057D01*
X145535713Y-129050057D02*
X145488094Y-129002438D01*
X145488094Y-129002438D02*
X145392856Y-128954819D01*
X145392856Y-128954819D02*
X145154761Y-128954819D01*
X145154761Y-128954819D02*
X145011904Y-129002438D01*
X144630951Y-129050057D02*
X144583332Y-129002438D01*
X144583332Y-129002438D02*
X144488094Y-128954819D01*
X144488094Y-128954819D02*
X144249999Y-128954819D01*
X144249999Y-128954819D02*
X144154761Y-129002438D01*
X144154761Y-129002438D02*
X144107142Y-129050057D01*
X144107142Y-129050057D02*
X144059523Y-129145295D01*
X144059523Y-129145295D02*
X144059523Y-129240533D01*
X144059523Y-129240533D02*
X144107142Y-129383390D01*
X144107142Y-129383390D02*
X144678570Y-129954819D01*
X144678570Y-129954819D02*
X144059523Y-129954819D01*
D12*
X154500000Y-120500000D02*
G75*
G02*
X152500000Y-120500000I-1000000J0D01*
G01*
X152500000Y-120500000D02*
G75*
G02*
X154500000Y-120500000I1000000J0D01*
G01*
X155000000Y-120500000D02*
G75*
G02*
X152000000Y-120500000I-1500000J0D01*
G01*
X152000000Y-120500000D02*
G75*
G02*
X155000000Y-120500000I1500000J0D01*
G01*
X155000000Y-97000000D02*
G75*
G02*
X152000000Y-97000000I-1500000J0D01*
G01*
X152000000Y-97000000D02*
G75*
G02*
X155000000Y-97000000I1500000J0D01*
G01*
X154500000Y-97000000D02*
G75*
G02*
X152500000Y-97000000I-1000000J0D01*
G01*
X152500000Y-97000000D02*
G75*
G02*
X154500000Y-97000000I1000000J0D01*
G01*
X131500000Y-120500000D02*
G75*
G02*
X129500000Y-120500000I-1000000J0D01*
G01*
X129500000Y-120500000D02*
G75*
G02*
X131500000Y-120500000I1000000J0D01*
G01*
X132000000Y-120500000D02*
G75*
G02*
X129000000Y-120500000I-1500000J0D01*
G01*
X129000000Y-120500000D02*
G75*
G02*
X132000000Y-120500000I1500000J0D01*
G01*
X131500000Y-97000000D02*
G75*
G02*
X129500000Y-97000000I-1000000J0D01*
G01*
X129500000Y-97000000D02*
G75*
G02*
X131500000Y-97000000I1000000J0D01*
G01*
X132000000Y-97000000D02*
G75*
G02*
X129000000Y-97000000I-1500000J0D01*
G01*
X129000000Y-97000000D02*
G75*
G02*
X132000000Y-97000000I1500000J0D01*
G01*
X155500000Y-95000000D02*
X128500000Y-95000000D01*
X128500000Y-122250000D01*
X155500000Y-122250000D01*
X155500000Y-95000000D01*
X153000000Y-101500000D02*
X131000000Y-101500000D01*
X131000000Y-112500000D01*
X153000000Y-112500000D01*
X153000000Y-101500000D01*
X155500000Y-118700000D02*
X128500000Y-118700000D01*
X155500000Y-99000000D02*
X128500000Y-99000000D01*
X150950000Y-97600000D02*
X150950000Y-96270000D01*
X149620000Y-97600000D02*
X150950000Y-97600000D01*
X148350000Y-97600000D02*
X148350000Y-95000000D01*
X148350000Y-97600000D02*
X133050000Y-97600000D01*
X148350000Y-95000000D02*
X133050000Y-95000000D01*
X133050000Y-97600000D02*
X133050000Y-95000000D01*
X136170000Y-133580000D02*
X136170000Y-130920000D01*
X138770000Y-130920000D02*
X136170000Y-130920000D01*
X138770000Y-133580000D02*
X136170000Y-133580000D01*
X138770000Y-133580000D02*
X138770000Y-130920000D01*
X140040000Y-133580000D02*
X141370000Y-133580000D01*
X141370000Y-133580000D02*
X141370000Y-132250000D01*
D13*
X171000000Y-56500000D02*
X170999581Y-56595992D01*
X170999581Y-56595992D02*
X170998325Y-56691976D01*
X170998325Y-56691976D02*
X170996231Y-56787946D01*
X170996231Y-56787946D02*
X170993299Y-56883894D01*
X170993299Y-56883894D02*
X170989530Y-56979813D01*
X170989530Y-56979813D02*
X170984925Y-57075696D01*
X170984925Y-57075696D02*
X170979483Y-57171534D01*
X170979483Y-57171534D02*
X170973205Y-57267321D01*
X170973205Y-57267321D02*
X170966091Y-57363050D01*
X170966091Y-57363050D02*
X170958142Y-57458713D01*
X170958142Y-57458713D02*
X170949358Y-57554303D01*
X170949358Y-57554303D02*
X170939741Y-57649813D01*
X170939741Y-57649813D02*
X170929290Y-57745235D01*
X170929290Y-57745235D02*
X170918008Y-57840563D01*
X170918008Y-57840563D02*
X170905893Y-57935788D01*
X170905893Y-57935788D02*
X170892949Y-58030904D01*
X170892949Y-58030904D02*
X170879174Y-58125904D01*
X170879174Y-58125904D02*
X170864572Y-58220779D01*
X170864572Y-58220779D02*
X170849142Y-58315524D01*
X170849142Y-58315524D02*
X170832885Y-58410130D01*
X170832885Y-58410130D02*
X170815804Y-58504591D01*
X170815804Y-58504591D02*
X170797899Y-58598899D01*
X170797899Y-58598899D02*
X170780732Y-58685363D01*
X170593438Y-59462948D02*
X170567179Y-59555279D01*
X170567179Y-59555279D02*
X170540114Y-59647378D01*
X170540114Y-59647378D02*
X170512247Y-59739237D01*
X170512247Y-59739237D02*
X170483580Y-59830849D01*
X170483580Y-59830849D02*
X170454114Y-59922207D01*
X170454114Y-59922207D02*
X170423852Y-60013305D01*
X170423852Y-60013305D02*
X170392796Y-60104135D01*
X170392796Y-60104135D02*
X170360949Y-60194691D01*
X170360949Y-60194691D02*
X170328312Y-60284966D01*
X170328312Y-60284966D02*
X170294889Y-60374952D01*
X170294889Y-60374952D02*
X170260682Y-60464643D01*
X170260682Y-60464643D02*
X170225694Y-60554032D01*
X170225694Y-60554032D02*
X170189927Y-60643113D01*
X170189927Y-60643113D02*
X170153384Y-60731878D01*
X170153384Y-60731878D02*
X170116068Y-60820321D01*
X170116068Y-60820321D02*
X170077981Y-60908434D01*
X170077981Y-60908434D02*
X170039127Y-60996212D01*
X170039127Y-60996212D02*
X169999509Y-61083648D01*
X169999509Y-61083648D02*
X169959128Y-61170735D01*
X169959128Y-61170735D02*
X169917990Y-61257465D01*
X169917990Y-61257465D02*
X169876096Y-61343834D01*
X169876096Y-61343834D02*
X169833450Y-61429834D01*
X169833450Y-61429834D02*
X169793628Y-61508478D01*
X169403807Y-62206874D02*
X169353648Y-62288719D01*
X169353648Y-62288719D02*
X169302776Y-62370124D01*
X169302776Y-62370124D02*
X169251196Y-62451081D01*
X169251196Y-62451081D02*
X169198912Y-62531586D01*
X169198912Y-62531586D02*
X169145926Y-62611631D01*
X169145926Y-62611631D02*
X169092245Y-62691210D01*
X169092245Y-62691210D02*
X169037871Y-62770318D01*
X169037871Y-62770318D02*
X168982809Y-62848949D01*
X168982809Y-62848949D02*
X168927062Y-62927096D01*
X168927062Y-62927096D02*
X168870636Y-63004753D01*
X168870636Y-63004753D02*
X168813534Y-63081916D01*
X168813534Y-63081916D02*
X168755761Y-63158577D01*
X168755761Y-63158577D02*
X168697322Y-63234731D01*
X168697322Y-63234731D02*
X168638220Y-63310372D01*
X168638220Y-63310372D02*
X168578460Y-63385494D01*
X168578460Y-63385494D02*
X168518047Y-63460092D01*
X168518047Y-63460092D02*
X168456985Y-63534160D01*
X168456985Y-63534160D02*
X168395279Y-63607692D01*
X168395279Y-63607692D02*
X168332934Y-63680684D01*
X168332934Y-63680684D02*
X168269954Y-63753128D01*
X168269954Y-63753128D02*
X168206344Y-63825020D01*
X168206344Y-63825020D02*
X168142110Y-63896354D01*
X168142110Y-63896354D02*
X168082576Y-63961365D01*
X167519044Y-64528946D02*
X167448693Y-64594256D01*
X167448693Y-64594256D02*
X167377774Y-64658949D01*
X167377774Y-64658949D02*
X167306294Y-64723021D01*
X167306294Y-64723021D02*
X167234257Y-64786466D01*
X167234257Y-64786466D02*
X167161670Y-64849281D01*
X167161670Y-64849281D02*
X167088537Y-64911459D01*
X167088537Y-64911459D02*
X167014864Y-64972997D01*
X167014864Y-64972997D02*
X166940657Y-65033890D01*
X166940657Y-65033890D02*
X166865921Y-65094133D01*
X166865921Y-65094133D02*
X166790663Y-65153722D01*
X166790663Y-65153722D02*
X166714887Y-65212651D01*
X166714887Y-65212651D02*
X166638600Y-65270917D01*
X166638600Y-65270917D02*
X166561808Y-65328515D01*
X166561808Y-65328515D02*
X166484516Y-65385441D01*
X166484516Y-65385441D02*
X166406730Y-65441690D01*
X166406730Y-65441690D02*
X166328456Y-65497258D01*
X166328456Y-65497258D02*
X166249700Y-65552141D01*
X166249700Y-65552141D02*
X166170468Y-65606334D01*
X166170468Y-65606334D02*
X166090766Y-65659834D01*
X166090766Y-65659834D02*
X166010601Y-65712637D01*
X166010601Y-65712637D02*
X165929977Y-65764738D01*
X165929977Y-65764738D02*
X165848903Y-65816133D01*
X165848903Y-65816133D02*
X165774058Y-65862705D01*
X165078471Y-66257517D02*
X164993128Y-66301463D01*
X164993128Y-66301463D02*
X164907405Y-66344662D01*
X164907405Y-66344662D02*
X164821308Y-66387112D01*
X164821308Y-66387112D02*
X164734845Y-66428809D01*
X164734845Y-66428809D02*
X164648020Y-66469750D01*
X164648020Y-66469750D02*
X164560842Y-66509931D01*
X164560842Y-66509931D02*
X164473316Y-66549350D01*
X164473316Y-66549350D02*
X164385450Y-66588004D01*
X164385450Y-66588004D02*
X164297249Y-66625890D01*
X164297249Y-66625890D02*
X164208722Y-66663004D01*
X164208722Y-66663004D02*
X164119874Y-66699345D01*
X164119874Y-66699345D02*
X164030712Y-66734909D01*
X164030712Y-66734909D02*
X163941243Y-66769693D01*
X163941243Y-66769693D02*
X163851474Y-66803696D01*
X163851474Y-66803696D02*
X163761412Y-66836913D01*
X163761412Y-66836913D02*
X163671063Y-66869344D01*
X163671063Y-66869344D02*
X163580435Y-66900985D01*
X163580435Y-66900985D02*
X163489534Y-66931833D01*
X163489534Y-66931833D02*
X163398368Y-66961888D01*
X163398368Y-66961888D02*
X163306942Y-66991145D01*
X163306942Y-66991145D02*
X163215265Y-67019604D01*
X163215265Y-67019604D02*
X163123343Y-67047262D01*
X163123343Y-67047262D02*
X163038720Y-67071953D01*
X162262496Y-67264809D02*
X162168470Y-67284143D01*
X162168470Y-67284143D02*
X162074279Y-67302655D01*
X162074279Y-67302655D02*
X161979930Y-67320345D01*
X161979930Y-67320345D02*
X161885431Y-67337211D01*
X161885431Y-67337211D02*
X161790788Y-67353252D01*
X161790788Y-67353252D02*
X161696008Y-67368466D01*
X161696008Y-67368466D02*
X161601100Y-67382853D01*
X161601100Y-67382853D02*
X161506069Y-67396410D01*
X161506069Y-67396410D02*
X161410924Y-67409138D01*
X161410924Y-67409138D02*
X161315671Y-67421035D01*
X161315671Y-67421035D02*
X161220318Y-67432101D01*
X161220318Y-67432101D02*
X161124872Y-67442333D01*
X161124872Y-67442333D02*
X161029341Y-67451733D01*
X161029341Y-67451733D02*
X160933731Y-67460299D01*
X160933731Y-67460299D02*
X160838050Y-67468030D01*
X160838050Y-67468030D02*
X160742305Y-67474925D01*
X160742305Y-67474925D02*
X160646504Y-67480985D01*
X160646504Y-67480985D02*
X160550653Y-67486209D01*
X160550653Y-67486209D02*
X160454761Y-67490596D01*
X160454761Y-67490596D02*
X160358834Y-67494146D01*
X160358834Y-67494146D02*
X160262879Y-67496858D01*
X160262879Y-67496858D02*
X160166905Y-67498734D01*
X160166905Y-67498734D02*
X160078759Y-67499718D01*
X159279276Y-67476364D02*
X159183518Y-67469656D01*
X159183518Y-67469656D02*
X159087822Y-67462113D01*
X159087822Y-67462113D02*
X158992196Y-67453736D01*
X158992196Y-67453736D02*
X158896646Y-67444524D01*
X158896646Y-67444524D02*
X158801180Y-67434479D01*
X158801180Y-67434479D02*
X158705806Y-67423601D01*
X158705806Y-67423601D02*
X158610530Y-67411891D01*
X158610530Y-67411891D02*
X158515359Y-67399351D01*
X158515359Y-67399351D02*
X158420302Y-67385980D01*
X158420302Y-67385980D02*
X158325366Y-67371780D01*
X158325366Y-67371780D02*
X158230557Y-67356752D01*
X158230557Y-67356752D02*
X158135882Y-67340898D01*
X158135882Y-67340898D02*
X158041350Y-67324218D01*
X158041350Y-67324218D02*
X157946966Y-67306713D01*
X157946966Y-67306713D02*
X157852739Y-67288386D01*
X157852739Y-67288386D02*
X157758676Y-67269237D01*
X157758676Y-67269237D02*
X157664783Y-67249268D01*
X157664783Y-67249268D02*
X157571068Y-67228480D01*
X157571068Y-67228480D02*
X157477538Y-67206876D01*
X157477538Y-67206876D02*
X157384200Y-67184456D01*
X157384200Y-67184456D02*
X157291061Y-67161222D01*
X157291061Y-67161222D02*
X157198129Y-67137176D01*
X157198129Y-67137176D02*
X157112976Y-67114381D01*
X156349333Y-66876542D02*
X156258921Y-66844290D01*
X156258921Y-66844290D02*
X156168793Y-66811249D01*
X156168793Y-66811249D02*
X156078958Y-66777423D01*
X156078958Y-66777423D02*
X155989421Y-66742815D01*
X155989421Y-66742815D02*
X155900189Y-66707426D01*
X155900189Y-66707426D02*
X155811270Y-66671260D01*
X155811270Y-66671260D02*
X155722669Y-66634320D01*
X155722669Y-66634320D02*
X155634395Y-66596608D01*
X155634395Y-66596608D02*
X155546453Y-66558127D01*
X155546453Y-66558127D02*
X155458850Y-66518880D01*
X155458850Y-66518880D02*
X155371592Y-66478870D01*
X155371592Y-66478870D02*
X155284688Y-66438100D01*
X155284688Y-66438100D02*
X155198142Y-66396573D01*
X155198142Y-66396573D02*
X155111962Y-66354293D01*
X155111962Y-66354293D02*
X155026154Y-66311262D01*
X155026154Y-66311262D02*
X154940725Y-66267484D01*
X154940725Y-66267484D02*
X154855682Y-66222962D01*
X154855682Y-66222962D02*
X154771030Y-66177700D01*
X154771030Y-66177700D02*
X154686776Y-66131700D01*
X154686776Y-66131700D02*
X154602927Y-66084968D01*
X154602927Y-66084968D02*
X154519489Y-66037505D01*
X154519489Y-66037505D02*
X154436468Y-65989316D01*
X154436468Y-65989316D02*
X154360603Y-65944427D01*
X153689248Y-65509684D02*
X153610865Y-65454270D01*
X153610865Y-65454270D02*
X153532969Y-65398174D01*
X153532969Y-65398174D02*
X153455565Y-65341401D01*
X153455565Y-65341401D02*
X153378659Y-65283954D01*
X153378659Y-65283954D02*
X153302258Y-65225838D01*
X153302258Y-65225838D02*
X153226366Y-65167058D01*
X153226366Y-65167058D02*
X153150991Y-65107617D01*
X153150991Y-65107617D02*
X153076137Y-65047521D01*
X153076137Y-65047521D02*
X153001810Y-64986774D01*
X153001810Y-64986774D02*
X152928017Y-64925381D01*
X152928017Y-64925381D02*
X152854762Y-64863347D01*
X152854762Y-64863347D02*
X152782051Y-64800675D01*
X152782051Y-64800675D02*
X152709889Y-64737371D01*
X152709889Y-64737371D02*
X152638283Y-64673440D01*
X152638283Y-64673440D02*
X152567238Y-64608887D01*
X152567238Y-64608887D02*
X152496758Y-64543716D01*
X152496758Y-64543716D02*
X152426850Y-64477932D01*
X152426850Y-64477932D02*
X152357519Y-64411541D01*
X152357519Y-64411541D02*
X152288769Y-64344547D01*
X152288769Y-64344547D02*
X152220607Y-64276956D01*
X152220607Y-64276956D02*
X152153038Y-64208773D01*
X152153038Y-64208773D02*
X152086066Y-64140003D01*
X152086066Y-64140003D02*
X152025095Y-64076338D01*
X151495656Y-63476828D02*
X151435096Y-63402349D01*
X151435096Y-63402349D02*
X151375188Y-63327344D01*
X151375188Y-63327344D02*
X151315938Y-63251819D01*
X151315938Y-63251819D02*
X151257348Y-63175780D01*
X151257348Y-63175780D02*
X151199425Y-63099233D01*
X151199425Y-63099233D02*
X151142172Y-63022183D01*
X151142172Y-63022183D02*
X151085593Y-62944637D01*
X151085593Y-62944637D02*
X151029693Y-62866600D01*
X151029693Y-62866600D02*
X150974476Y-62788077D01*
X150974476Y-62788077D02*
X150919947Y-62709076D01*
X150919947Y-62709076D02*
X150866109Y-62629603D01*
X150866109Y-62629603D02*
X150812966Y-62549662D01*
X150812966Y-62549662D02*
X150760523Y-62469261D01*
X150760523Y-62469261D02*
X150708784Y-62388405D01*
X150708784Y-62388405D02*
X150657753Y-62307100D01*
X150657753Y-62307100D02*
X150607433Y-62225354D01*
X150607433Y-62225354D02*
X150557828Y-62143171D01*
X150557828Y-62143171D02*
X150508942Y-62060559D01*
X150508942Y-62060559D02*
X150460779Y-61977523D01*
X150460779Y-61977523D02*
X150413342Y-61894070D01*
X150413342Y-61894070D02*
X150366636Y-61810207D01*
X150366636Y-61810207D02*
X150320663Y-61725938D01*
X150320663Y-61725938D02*
X150279095Y-61648203D01*
X149930707Y-60928242D02*
X149892447Y-60840204D01*
X149892447Y-60840204D02*
X149854957Y-60751835D01*
X149854957Y-60751835D02*
X149818239Y-60663142D01*
X149818239Y-60663142D02*
X149782297Y-60574132D01*
X149782297Y-60574132D02*
X149747133Y-60484811D01*
X149747133Y-60484811D02*
X149712750Y-60395188D01*
X149712750Y-60395188D02*
X149679150Y-60305267D01*
X149679150Y-60305267D02*
X149646336Y-60215057D01*
X149646336Y-60215057D02*
X149614311Y-60124564D01*
X149614311Y-60124564D02*
X149583077Y-60033795D01*
X149583077Y-60033795D02*
X149552635Y-59942757D01*
X149552635Y-59942757D02*
X149522990Y-59851456D01*
X149522990Y-59851456D02*
X149494142Y-59759901D01*
X149494142Y-59759901D02*
X149466095Y-59668097D01*
X149466095Y-59668097D02*
X149438849Y-59576052D01*
X149438849Y-59576052D02*
X149412408Y-59483772D01*
X149412408Y-59483772D02*
X149386773Y-59391266D01*
X149386773Y-59391266D02*
X149361947Y-59298539D01*
X149361947Y-59298539D02*
X149337930Y-59205599D01*
X149337930Y-59205599D02*
X149314726Y-59112453D01*
X149314726Y-59112453D02*
X149292335Y-59019108D01*
X149292335Y-59019108D02*
X149270759Y-58925571D01*
X149270759Y-58925571D02*
X149251666Y-58839513D01*
X149110083Y-58052320D02*
X149096951Y-57957230D01*
X149096951Y-57957230D02*
X149084649Y-57862028D01*
X149084649Y-57862028D02*
X149073179Y-57766723D01*
X149073179Y-57766723D02*
X149062541Y-57671322D01*
X149062541Y-57671322D02*
X149052736Y-57575831D01*
X149052736Y-57575831D02*
X149043765Y-57480258D01*
X149043765Y-57480258D02*
X149035628Y-57384611D01*
X149035628Y-57384611D02*
X149028325Y-57288896D01*
X149028325Y-57288896D02*
X149021859Y-57193122D01*
X149021859Y-57193122D02*
X149016228Y-57097294D01*
X149016228Y-57097294D02*
X149011434Y-57001421D01*
X149011434Y-57001421D02*
X149007477Y-56905510D01*
X149007477Y-56905510D02*
X149004357Y-56809568D01*
X149004357Y-56809568D02*
X149002074Y-56713602D01*
X149002074Y-56713602D02*
X149000629Y-56617620D01*
X149000629Y-56617620D02*
X149000021Y-56521629D01*
X149000021Y-56521629D02*
X149000251Y-56425637D01*
X149000251Y-56425637D02*
X149001319Y-56329650D01*
X149001319Y-56329650D02*
X149003224Y-56233676D01*
X149003224Y-56233676D02*
X149005967Y-56137723D01*
X149005967Y-56137723D02*
X149009547Y-56041797D01*
X149009547Y-56041797D02*
X149013964Y-55945905D01*
X149013964Y-55945905D02*
X149018757Y-55857884D01*
X149094444Y-55061650D02*
X149107411Y-54966537D01*
X149107411Y-54966537D02*
X149121208Y-54871541D01*
X149121208Y-54871541D02*
X149135833Y-54776669D01*
X149135833Y-54776669D02*
X149151285Y-54681928D01*
X149151285Y-54681928D02*
X149167564Y-54587325D01*
X149167564Y-54587325D02*
X149184667Y-54492868D01*
X149184667Y-54492868D02*
X149202594Y-54398564D01*
X149202594Y-54398564D02*
X149221344Y-54304420D01*
X149221344Y-54304420D02*
X149240914Y-54210444D01*
X149240914Y-54210444D02*
X149261304Y-54116641D01*
X149261304Y-54116641D02*
X149282511Y-54023021D01*
X149282511Y-54023021D02*
X149304534Y-53929588D01*
X149304534Y-53929588D02*
X149327372Y-53836352D01*
X149327372Y-53836352D02*
X149351023Y-53743318D01*
X149351023Y-53743318D02*
X149375485Y-53650494D01*
X149375485Y-53650494D02*
X149400756Y-53557888D01*
X149400756Y-53557888D02*
X149426834Y-53465505D01*
X149426834Y-53465505D02*
X149453717Y-53373354D01*
X149453717Y-53373354D02*
X149481404Y-53281440D01*
X149481404Y-53281440D02*
X149509891Y-53189772D01*
X149509891Y-53189772D02*
X149539177Y-53098355D01*
X149539177Y-53098355D02*
X149569260Y-53007198D01*
X149569260Y-53007198D02*
X149597585Y-52923722D01*
X149884947Y-52177303D02*
X149923055Y-52089198D01*
X149923055Y-52089198D02*
X149961929Y-52001429D01*
X149961929Y-52001429D02*
X150001569Y-51914003D01*
X150001569Y-51914003D02*
X150041969Y-51826926D01*
X150041969Y-51826926D02*
X150083128Y-51740205D01*
X150083128Y-51740205D02*
X150125042Y-51653846D01*
X150125042Y-51653846D02*
X150167708Y-51567856D01*
X150167708Y-51567856D02*
X150211123Y-51482242D01*
X150211123Y-51482242D02*
X150255284Y-51397010D01*
X150255284Y-51397010D02*
X150300186Y-51312167D01*
X150300186Y-51312167D02*
X150345827Y-51227719D01*
X150345827Y-51227719D02*
X150392204Y-51143672D01*
X150392204Y-51143672D02*
X150439312Y-51060033D01*
X150439312Y-51060033D02*
X150487148Y-50976809D01*
X150487148Y-50976809D02*
X150535708Y-50894005D01*
X150535708Y-50894005D02*
X150584990Y-50811628D01*
X150584990Y-50811628D02*
X150634988Y-50729684D01*
X150634988Y-50729684D02*
X150685699Y-50648180D01*
X150685699Y-50648180D02*
X150737120Y-50567121D01*
X150737120Y-50567121D02*
X150789246Y-50486514D01*
X150789246Y-50486514D02*
X150842074Y-50406365D01*
X150842074Y-50406365D02*
X150895599Y-50326680D01*
X150895599Y-50326680D02*
X150945362Y-50253918D01*
X151423158Y-49612491D02*
X151483589Y-49537907D01*
X151483589Y-49537907D02*
X151544668Y-49463853D01*
X151544668Y-49463853D02*
X151606391Y-49390335D01*
X151606391Y-49390335D02*
X151668753Y-49317359D01*
X151668753Y-49317359D02*
X151731750Y-49244930D01*
X151731750Y-49244930D02*
X151795377Y-49173053D01*
X151795377Y-49173053D02*
X151859628Y-49101734D01*
X151859628Y-49101734D02*
X151924499Y-49030978D01*
X151924499Y-49030978D02*
X151989985Y-48960791D01*
X151989985Y-48960791D02*
X152056082Y-48891179D01*
X152056082Y-48891179D02*
X152122783Y-48822146D01*
X152122783Y-48822146D02*
X152190084Y-48753697D01*
X152190084Y-48753697D02*
X152257979Y-48685839D01*
X152257979Y-48685839D02*
X152326465Y-48618575D01*
X152326465Y-48618575D02*
X152395535Y-48551912D01*
X152395535Y-48551912D02*
X152465183Y-48485854D01*
X152465183Y-48485854D02*
X152535406Y-48420406D01*
X152535406Y-48420406D02*
X152606197Y-48355574D01*
X152606197Y-48355574D02*
X152677551Y-48291362D01*
X152677551Y-48291362D02*
X152749463Y-48227775D01*
X152749463Y-48227775D02*
X152821927Y-48164817D01*
X152821927Y-48164817D02*
X152894938Y-48102495D01*
X152894938Y-48102495D02*
X152962461Y-48045827D01*
X153595371Y-47556805D02*
X153673658Y-47501256D01*
X153673658Y-47501256D02*
X153752427Y-47446391D01*
X153752427Y-47446391D02*
X153831672Y-47392216D01*
X153831672Y-47392216D02*
X153911386Y-47338735D01*
X153911386Y-47338735D02*
X153991564Y-47285951D01*
X153991564Y-47285951D02*
X154072199Y-47233869D01*
X154072199Y-47233869D02*
X154153286Y-47182493D01*
X154153286Y-47182493D02*
X154234818Y-47131826D01*
X154234818Y-47131826D02*
X154316790Y-47081873D01*
X154316790Y-47081873D02*
X154399194Y-47032637D01*
X154399194Y-47032637D02*
X154482024Y-46984122D01*
X154482024Y-46984122D02*
X154565275Y-46936331D01*
X154565275Y-46936331D02*
X154648940Y-46889269D01*
X154648940Y-46889269D02*
X154733012Y-46842939D01*
X154733012Y-46842939D02*
X154817485Y-46797344D01*
X154817485Y-46797344D02*
X154902353Y-46752488D01*
X154902353Y-46752488D02*
X154987609Y-46708374D01*
X154987609Y-46708374D02*
X155073247Y-46665006D01*
X155073247Y-46665006D02*
X155159260Y-46622387D01*
X155159260Y-46622387D02*
X155245641Y-46580520D01*
X155245641Y-46580520D02*
X155332385Y-46539409D01*
X155332385Y-46539409D02*
X155419484Y-46499056D01*
X155419484Y-46499056D02*
X155499776Y-46462670D01*
X156241016Y-46162203D02*
X156331373Y-46129794D01*
X156331373Y-46129794D02*
X156422008Y-46098174D01*
X156422008Y-46098174D02*
X156512916Y-46067347D01*
X156512916Y-46067347D02*
X156604090Y-46037314D01*
X156604090Y-46037314D02*
X156695522Y-46008078D01*
X156695522Y-46008078D02*
X156787206Y-45979641D01*
X156787206Y-45979641D02*
X156879135Y-45952005D01*
X156879135Y-45952005D02*
X156971301Y-45925172D01*
X156971301Y-45925172D02*
X157063698Y-45899145D01*
X157063698Y-45899145D02*
X157156319Y-45873925D01*
X157156319Y-45873925D02*
X157249156Y-45849514D01*
X157249156Y-45849514D02*
X157342203Y-45825914D01*
X157342203Y-45825914D02*
X157435451Y-45803127D01*
X157435451Y-45803127D02*
X157528896Y-45781155D01*
X157528896Y-45781155D02*
X157622528Y-45759999D01*
X157622528Y-45759999D02*
X157716342Y-45739661D01*
X157716342Y-45739661D02*
X157810329Y-45720142D01*
X157810329Y-45720142D02*
X157904483Y-45701444D01*
X157904483Y-45701444D02*
X157998797Y-45683569D01*
X157998797Y-45683569D02*
X158093263Y-45666517D01*
X158093263Y-45666517D02*
X158187875Y-45650290D01*
X158187875Y-45650290D02*
X158282624Y-45634890D01*
X158282624Y-45634890D02*
X158369749Y-45621476D01*
X159164527Y-45531774D02*
X159260273Y-45524901D01*
X159260273Y-45524901D02*
X159356076Y-45518863D01*
X159356076Y-45518863D02*
X159451928Y-45513662D01*
X159451928Y-45513662D02*
X159547821Y-45509298D01*
X159547821Y-45509298D02*
X159643749Y-45505770D01*
X159643749Y-45505770D02*
X159739704Y-45503080D01*
X159739704Y-45503080D02*
X159835679Y-45501227D01*
X159835679Y-45501227D02*
X159931667Y-45500212D01*
X159931667Y-45500212D02*
X160027659Y-45500035D01*
X160027659Y-45500035D02*
X160123650Y-45500695D01*
X160123650Y-45500695D02*
X160219631Y-45502193D01*
X160219631Y-45502193D02*
X160315595Y-45504528D01*
X160315595Y-45504528D02*
X160411536Y-45507701D01*
X160411536Y-45507701D02*
X160507445Y-45511711D01*
X160507445Y-45511711D02*
X160603315Y-45516557D01*
X160603315Y-45516557D02*
X160699139Y-45522240D01*
X160699139Y-45522240D02*
X160794911Y-45528760D01*
X160794911Y-45528760D02*
X160890621Y-45536114D01*
X160890621Y-45536114D02*
X160986264Y-45544304D01*
X160986264Y-45544304D02*
X161081832Y-45553327D01*
X161081832Y-45553327D02*
X161177317Y-45563185D01*
X161177317Y-45563185D02*
X161272713Y-45573875D01*
X161272713Y-45573875D02*
X161360231Y-45584425D01*
X162149795Y-45712119D02*
X162243854Y-45731290D01*
X162243854Y-45731290D02*
X162337742Y-45751281D01*
X162337742Y-45751281D02*
X162431452Y-45772091D01*
X162431452Y-45772091D02*
X162524977Y-45793717D01*
X162524977Y-45793717D02*
X162618310Y-45816159D01*
X162618310Y-45816159D02*
X162711443Y-45839415D01*
X162711443Y-45839415D02*
X162804370Y-45863482D01*
X162804370Y-45863482D02*
X162897083Y-45888360D01*
X162897083Y-45888360D02*
X162989575Y-45914045D01*
X162989575Y-45914045D02*
X163081840Y-45940537D01*
X163081840Y-45940537D02*
X163173871Y-45967833D01*
X163173871Y-45967833D02*
X163265659Y-45995931D01*
X163265659Y-45995931D02*
X163357199Y-46024829D01*
X163357199Y-46024829D02*
X163448483Y-46054524D01*
X163448483Y-46054524D02*
X163539504Y-46085015D01*
X163539504Y-46085015D02*
X163630256Y-46116299D01*
X163630256Y-46116299D02*
X163720732Y-46148374D01*
X163720732Y-46148374D02*
X163810924Y-46181238D01*
X163810924Y-46181238D02*
X163900826Y-46214887D01*
X163900826Y-46214887D02*
X163990431Y-46249319D01*
X163990431Y-46249319D02*
X164079732Y-46284532D01*
X164079732Y-46284532D02*
X164168722Y-46320523D01*
X164168722Y-46320523D02*
X164250164Y-46354257D01*
X164976150Y-46689907D02*
X165061569Y-46733705D01*
X165061569Y-46733705D02*
X165146602Y-46778247D01*
X165146602Y-46778247D02*
X165231243Y-46823529D01*
X165231243Y-46823529D02*
X165315486Y-46869548D01*
X165315486Y-46869548D02*
X165399324Y-46916301D01*
X165399324Y-46916301D02*
X165482751Y-46963783D01*
X165482751Y-46963783D02*
X165565761Y-47011991D01*
X165565761Y-47011991D02*
X165648346Y-47060922D01*
X165648346Y-47060922D02*
X165730502Y-47110572D01*
X165730502Y-47110572D02*
X165812221Y-47160937D01*
X165812221Y-47160937D02*
X165893497Y-47212013D01*
X165893497Y-47212013D02*
X165974324Y-47263797D01*
X165974324Y-47263797D02*
X166054697Y-47316284D01*
X166054697Y-47316284D02*
X166134609Y-47369470D01*
X166134609Y-47369470D02*
X166214053Y-47423352D01*
X166214053Y-47423352D02*
X166293024Y-47477924D01*
X166293024Y-47477924D02*
X166371516Y-47533184D01*
X166371516Y-47533184D02*
X166449522Y-47589127D01*
X166449522Y-47589127D02*
X166527038Y-47645748D01*
X166527038Y-47645748D02*
X166604056Y-47703044D01*
X166604056Y-47703044D02*
X166680572Y-47761009D01*
X166680572Y-47761009D02*
X166756578Y-47819640D01*
X166756578Y-47819640D02*
X166825923Y-47874064D01*
X167434667Y-48392860D02*
X167505131Y-48458047D01*
X167505131Y-48458047D02*
X167575024Y-48523847D01*
X167575024Y-48523847D02*
X167644340Y-48590255D01*
X167644340Y-48590255D02*
X167713073Y-48657264D01*
X167713073Y-48657264D02*
X167781219Y-48724871D01*
X167781219Y-48724871D02*
X167848773Y-48793071D01*
X167848773Y-48793071D02*
X167915729Y-48861857D01*
X167915729Y-48861857D02*
X167982082Y-48931224D01*
X167982082Y-48931224D02*
X168047827Y-49001169D01*
X168047827Y-49001169D02*
X168112960Y-49071684D01*
X168112960Y-49071684D02*
X168177474Y-49142765D01*
X168177474Y-49142765D02*
X168241366Y-49214406D01*
X168241366Y-49214406D02*
X168304630Y-49286602D01*
X168304630Y-49286602D02*
X168367262Y-49359347D01*
X168367262Y-49359347D02*
X168429257Y-49432636D01*
X168429257Y-49432636D02*
X168490609Y-49506463D01*
X168490609Y-49506463D02*
X168551315Y-49580823D01*
X168551315Y-49580823D02*
X168611370Y-49655710D01*
X168611370Y-49655710D02*
X168670769Y-49731118D01*
X168670769Y-49731118D02*
X168729508Y-49807042D01*
X168729508Y-49807042D02*
X168787582Y-49883475D01*
X168787582Y-49883475D02*
X168844987Y-49960412D01*
X168844987Y-49960412D02*
X168897109Y-50031503D01*
X169343611Y-50695094D02*
X169393912Y-50776853D01*
X169393912Y-50776853D02*
X169443498Y-50859047D01*
X169443498Y-50859047D02*
X169492364Y-50941671D01*
X169492364Y-50941671D02*
X169540508Y-51024718D01*
X169540508Y-51024718D02*
X169587925Y-51108182D01*
X169587925Y-51108182D02*
X169634611Y-51192057D01*
X169634611Y-51192057D02*
X169680565Y-51276336D01*
X169680565Y-51276336D02*
X169725780Y-51361012D01*
X169725780Y-51361012D02*
X169770256Y-51446080D01*
X169770256Y-51446080D02*
X169813987Y-51531533D01*
X169813987Y-51531533D02*
X169856971Y-51617365D01*
X169856971Y-51617365D02*
X169899204Y-51703568D01*
X169899204Y-51703568D02*
X169940683Y-51790136D01*
X169940683Y-51790136D02*
X169981405Y-51877063D01*
X169981405Y-51877063D02*
X170021368Y-51964342D01*
X170021368Y-51964342D02*
X170060567Y-52051967D01*
X170060567Y-52051967D02*
X170098999Y-52139930D01*
X170098999Y-52139930D02*
X170136663Y-52228225D01*
X170136663Y-52228225D02*
X170173555Y-52316846D01*
X170173555Y-52316846D02*
X170209672Y-52405785D01*
X170209672Y-52405785D02*
X170245012Y-52495036D01*
X170245012Y-52495036D02*
X170279571Y-52584592D01*
X170279571Y-52584592D02*
X170310618Y-52667095D01*
X170561873Y-53426430D02*
X170588293Y-53518715D01*
X170588293Y-53518715D02*
X170613906Y-53611228D01*
X170613906Y-53611228D02*
X170638711Y-53703960D01*
X170638711Y-53703960D02*
X170662705Y-53796906D01*
X170662705Y-53796906D02*
X170685888Y-53890057D01*
X170685888Y-53890057D02*
X170708257Y-53983407D01*
X170708257Y-53983407D02*
X170729810Y-54076949D01*
X170729810Y-54076949D02*
X170750546Y-54170676D01*
X170750546Y-54170676D02*
X170770464Y-54264579D01*
X170770464Y-54264579D02*
X170789561Y-54358653D01*
X170789561Y-54358653D02*
X170807837Y-54452890D01*
X170807837Y-54452890D02*
X170825290Y-54547283D01*
X170825290Y-54547283D02*
X170841918Y-54641825D01*
X170841918Y-54641825D02*
X170857721Y-54736508D01*
X170857721Y-54736508D02*
X170872696Y-54831325D01*
X170872696Y-54831325D02*
X170886844Y-54926270D01*
X170886844Y-54926270D02*
X170900163Y-55021334D01*
X170900163Y-55021334D02*
X170912651Y-55116511D01*
X170912651Y-55116511D02*
X170924309Y-55211794D01*
X170924309Y-55211794D02*
X170935134Y-55307174D01*
X170935134Y-55307174D02*
X170945127Y-55402645D01*
X170945127Y-55402645D02*
X170954287Y-55498200D01*
X170954287Y-55498200D02*
X170961963Y-55586017D01*
X170999398Y-56384964D02*
X170999984Y-56480955D01*
X170999984Y-56480955D02*
X171000000Y-56500000D01*
D12*
X120880000Y-126330000D02*
X120880000Y-123670000D01*
X123480000Y-123670000D02*
X120880000Y-123670000D01*
X123480000Y-126330000D02*
X120880000Y-126330000D01*
X123480000Y-126330000D02*
X123480000Y-123670000D01*
X124750000Y-126330000D02*
X126080000Y-126330000D01*
X126080000Y-126330000D02*
X126080000Y-125000000D01*
D13*
X124000000Y-95000000D02*
X123904008Y-94999581D01*
X123904008Y-94999581D02*
X123808024Y-94998325D01*
X123808024Y-94998325D02*
X123712054Y-94996231D01*
X123712054Y-94996231D02*
X123616106Y-94993299D01*
X123616106Y-94993299D02*
X123520187Y-94989530D01*
X123520187Y-94989530D02*
X123424304Y-94984925D01*
X123424304Y-94984925D02*
X123328466Y-94979483D01*
X123328466Y-94979483D02*
X123232679Y-94973205D01*
X123232679Y-94973205D02*
X123136950Y-94966091D01*
X123136950Y-94966091D02*
X123041287Y-94958142D01*
X123041287Y-94958142D02*
X122945697Y-94949358D01*
X122945697Y-94949358D02*
X122850187Y-94939741D01*
X122850187Y-94939741D02*
X122754765Y-94929290D01*
X122754765Y-94929290D02*
X122659437Y-94918008D01*
X122659437Y-94918008D02*
X122564212Y-94905893D01*
X122564212Y-94905893D02*
X122469096Y-94892949D01*
X122469096Y-94892949D02*
X122374096Y-94879174D01*
X122374096Y-94879174D02*
X122279221Y-94864572D01*
X122279221Y-94864572D02*
X122184476Y-94849142D01*
X122184476Y-94849142D02*
X122089870Y-94832885D01*
X122089870Y-94832885D02*
X121995409Y-94815804D01*
X121995409Y-94815804D02*
X121901101Y-94797899D01*
X121901101Y-94797899D02*
X121814637Y-94780732D01*
X121037052Y-94593438D02*
X120944721Y-94567179D01*
X120944721Y-94567179D02*
X120852622Y-94540114D01*
X120852622Y-94540114D02*
X120760763Y-94512247D01*
X120760763Y-94512247D02*
X120669151Y-94483580D01*
X120669151Y-94483580D02*
X120577793Y-94454114D01*
X120577793Y-94454114D02*
X120486695Y-94423852D01*
X120486695Y-94423852D02*
X120395865Y-94392796D01*
X120395865Y-94392796D02*
X120305309Y-94360949D01*
X120305309Y-94360949D02*
X120215034Y-94328312D01*
X120215034Y-94328312D02*
X120125048Y-94294889D01*
X120125048Y-94294889D02*
X120035357Y-94260682D01*
X120035357Y-94260682D02*
X119945968Y-94225694D01*
X119945968Y-94225694D02*
X119856887Y-94189927D01*
X119856887Y-94189927D02*
X119768122Y-94153384D01*
X119768122Y-94153384D02*
X119679679Y-94116068D01*
X119679679Y-94116068D02*
X119591566Y-94077981D01*
X119591566Y-94077981D02*
X119503788Y-94039127D01*
X119503788Y-94039127D02*
X119416352Y-93999509D01*
X119416352Y-93999509D02*
X119329265Y-93959128D01*
X119329265Y-93959128D02*
X119242535Y-93917990D01*
X119242535Y-93917990D02*
X119156166Y-93876096D01*
X119156166Y-93876096D02*
X119070166Y-93833450D01*
X119070166Y-93833450D02*
X118991522Y-93793628D01*
X118293126Y-93403807D02*
X118211281Y-93353648D01*
X118211281Y-93353648D02*
X118129876Y-93302776D01*
X118129876Y-93302776D02*
X118048919Y-93251196D01*
X118048919Y-93251196D02*
X117968414Y-93198912D01*
X117968414Y-93198912D02*
X117888369Y-93145926D01*
X117888369Y-93145926D02*
X117808790Y-93092245D01*
X117808790Y-93092245D02*
X117729682Y-93037871D01*
X117729682Y-93037871D02*
X117651051Y-92982809D01*
X117651051Y-92982809D02*
X117572904Y-92927062D01*
X117572904Y-92927062D02*
X117495247Y-92870636D01*
X117495247Y-92870636D02*
X117418084Y-92813534D01*
X117418084Y-92813534D02*
X117341423Y-92755761D01*
X117341423Y-92755761D02*
X117265269Y-92697322D01*
X117265269Y-92697322D02*
X117189628Y-92638220D01*
X117189628Y-92638220D02*
X117114506Y-92578460D01*
X117114506Y-92578460D02*
X117039908Y-92518047D01*
X117039908Y-92518047D02*
X116965840Y-92456985D01*
X116965840Y-92456985D02*
X116892308Y-92395279D01*
X116892308Y-92395279D02*
X116819316Y-92332934D01*
X116819316Y-92332934D02*
X116746872Y-92269954D01*
X116746872Y-92269954D02*
X116674980Y-92206344D01*
X116674980Y-92206344D02*
X116603646Y-92142110D01*
X116603646Y-92142110D02*
X116538635Y-92082576D01*
X115971054Y-91519044D02*
X115905744Y-91448693D01*
X115905744Y-91448693D02*
X115841051Y-91377774D01*
X115841051Y-91377774D02*
X115776979Y-91306294D01*
X115776979Y-91306294D02*
X115713534Y-91234257D01*
X115713534Y-91234257D02*
X115650719Y-91161670D01*
X115650719Y-91161670D02*
X115588541Y-91088537D01*
X115588541Y-91088537D02*
X115527003Y-91014864D01*
X115527003Y-91014864D02*
X115466110Y-90940657D01*
X115466110Y-90940657D02*
X115405867Y-90865921D01*
X115405867Y-90865921D02*
X115346278Y-90790663D01*
X115346278Y-90790663D02*
X115287349Y-90714887D01*
X115287349Y-90714887D02*
X115229083Y-90638600D01*
X115229083Y-90638600D02*
X115171485Y-90561808D01*
X115171485Y-90561808D02*
X115114559Y-90484516D01*
X115114559Y-90484516D02*
X115058310Y-90406730D01*
X115058310Y-90406730D02*
X115002742Y-90328456D01*
X115002742Y-90328456D02*
X114947859Y-90249700D01*
X114947859Y-90249700D02*
X114893666Y-90170468D01*
X114893666Y-90170468D02*
X114840166Y-90090766D01*
X114840166Y-90090766D02*
X114787363Y-90010601D01*
X114787363Y-90010601D02*
X114735262Y-89929977D01*
X114735262Y-89929977D02*
X114683867Y-89848903D01*
X114683867Y-89848903D02*
X114637295Y-89774058D01*
X114242483Y-89078471D02*
X114198537Y-88993128D01*
X114198537Y-88993128D02*
X114155338Y-88907405D01*
X114155338Y-88907405D02*
X114112888Y-88821308D01*
X114112888Y-88821308D02*
X114071191Y-88734845D01*
X114071191Y-88734845D02*
X114030250Y-88648020D01*
X114030250Y-88648020D02*
X113990069Y-88560842D01*
X113990069Y-88560842D02*
X113950650Y-88473316D01*
X113950650Y-88473316D02*
X113911996Y-88385450D01*
X113911996Y-88385450D02*
X113874110Y-88297249D01*
X113874110Y-88297249D02*
X113836996Y-88208722D01*
X113836996Y-88208722D02*
X113800655Y-88119874D01*
X113800655Y-88119874D02*
X113765091Y-88030712D01*
X113765091Y-88030712D02*
X113730307Y-87941243D01*
X113730307Y-87941243D02*
X113696304Y-87851474D01*
X113696304Y-87851474D02*
X113663087Y-87761412D01*
X113663087Y-87761412D02*
X113630656Y-87671063D01*
X113630656Y-87671063D02*
X113599015Y-87580435D01*
X113599015Y-87580435D02*
X113568167Y-87489534D01*
X113568167Y-87489534D02*
X113538112Y-87398368D01*
X113538112Y-87398368D02*
X113508855Y-87306942D01*
X113508855Y-87306942D02*
X113480396Y-87215265D01*
X113480396Y-87215265D02*
X113452738Y-87123343D01*
X113452738Y-87123343D02*
X113428047Y-87038720D01*
X113235191Y-86262496D02*
X113215857Y-86168470D01*
X113215857Y-86168470D02*
X113197345Y-86074279D01*
X113197345Y-86074279D02*
X113179655Y-85979930D01*
X113179655Y-85979930D02*
X113162789Y-85885431D01*
X113162789Y-85885431D02*
X113146748Y-85790788D01*
X113146748Y-85790788D02*
X113131534Y-85696008D01*
X113131534Y-85696008D02*
X113117147Y-85601100D01*
X113117147Y-85601100D02*
X113103590Y-85506069D01*
X113103590Y-85506069D02*
X113090862Y-85410924D01*
X113090862Y-85410924D02*
X113078965Y-85315671D01*
X113078965Y-85315671D02*
X113067899Y-85220318D01*
X113067899Y-85220318D02*
X113057667Y-85124872D01*
X113057667Y-85124872D02*
X113048267Y-85029341D01*
X113048267Y-85029341D02*
X113039701Y-84933731D01*
X113039701Y-84933731D02*
X113031970Y-84838050D01*
X113031970Y-84838050D02*
X113025075Y-84742305D01*
X113025075Y-84742305D02*
X113019015Y-84646504D01*
X113019015Y-84646504D02*
X113013791Y-84550653D01*
X113013791Y-84550653D02*
X113009404Y-84454761D01*
X113009404Y-84454761D02*
X113005854Y-84358834D01*
X113005854Y-84358834D02*
X113003142Y-84262879D01*
X113003142Y-84262879D02*
X113001266Y-84166905D01*
X113001266Y-84166905D02*
X113000282Y-84078759D01*
X113023636Y-83279276D02*
X113030344Y-83183518D01*
X113030344Y-83183518D02*
X113037887Y-83087822D01*
X113037887Y-83087822D02*
X113046264Y-82992196D01*
X113046264Y-82992196D02*
X113055476Y-82896646D01*
X113055476Y-82896646D02*
X113065521Y-82801180D01*
X113065521Y-82801180D02*
X113076399Y-82705806D01*
X113076399Y-82705806D02*
X113088109Y-82610530D01*
X113088109Y-82610530D02*
X113100649Y-82515359D01*
X113100649Y-82515359D02*
X113114020Y-82420302D01*
X113114020Y-82420302D02*
X113128220Y-82325366D01*
X113128220Y-82325366D02*
X113143248Y-82230557D01*
X113143248Y-82230557D02*
X113159102Y-82135882D01*
X113159102Y-82135882D02*
X113175782Y-82041350D01*
X113175782Y-82041350D02*
X113193287Y-81946966D01*
X113193287Y-81946966D02*
X113211614Y-81852739D01*
X113211614Y-81852739D02*
X113230763Y-81758676D01*
X113230763Y-81758676D02*
X113250732Y-81664783D01*
X113250732Y-81664783D02*
X113271520Y-81571068D01*
X113271520Y-81571068D02*
X113293124Y-81477538D01*
X113293124Y-81477538D02*
X113315544Y-81384200D01*
X113315544Y-81384200D02*
X113338778Y-81291061D01*
X113338778Y-81291061D02*
X113362824Y-81198129D01*
X113362824Y-81198129D02*
X113385619Y-81112976D01*
X113623458Y-80349333D02*
X113655710Y-80258921D01*
X113655710Y-80258921D02*
X113688751Y-80168793D01*
X113688751Y-80168793D02*
X113722577Y-80078958D01*
X113722577Y-80078958D02*
X113757185Y-79989421D01*
X113757185Y-79989421D02*
X113792574Y-79900189D01*
X113792574Y-79900189D02*
X113828740Y-79811270D01*
X113828740Y-79811270D02*
X113865680Y-79722669D01*
X113865680Y-79722669D02*
X113903392Y-79634395D01*
X113903392Y-79634395D02*
X113941873Y-79546453D01*
X113941873Y-79546453D02*
X113981120Y-79458850D01*
X113981120Y-79458850D02*
X114021130Y-79371592D01*
X114021130Y-79371592D02*
X114061900Y-79284688D01*
X114061900Y-79284688D02*
X114103427Y-79198142D01*
X114103427Y-79198142D02*
X114145707Y-79111962D01*
X114145707Y-79111962D02*
X114188738Y-79026154D01*
X114188738Y-79026154D02*
X114232516Y-78940725D01*
X114232516Y-78940725D02*
X114277038Y-78855682D01*
X114277038Y-78855682D02*
X114322300Y-78771030D01*
X114322300Y-78771030D02*
X114368300Y-78686776D01*
X114368300Y-78686776D02*
X114415032Y-78602927D01*
X114415032Y-78602927D02*
X114462495Y-78519489D01*
X114462495Y-78519489D02*
X114510684Y-78436468D01*
X114510684Y-78436468D02*
X114555573Y-78360603D01*
X114990316Y-77689248D02*
X115045730Y-77610865D01*
X115045730Y-77610865D02*
X115101826Y-77532969D01*
X115101826Y-77532969D02*
X115158599Y-77455565D01*
X115158599Y-77455565D02*
X115216046Y-77378659D01*
X115216046Y-77378659D02*
X115274162Y-77302258D01*
X115274162Y-77302258D02*
X115332942Y-77226366D01*
X115332942Y-77226366D02*
X115392383Y-77150991D01*
X115392383Y-77150991D02*
X115452479Y-77076137D01*
X115452479Y-77076137D02*
X115513226Y-77001810D01*
X115513226Y-77001810D02*
X115574619Y-76928017D01*
X115574619Y-76928017D02*
X115636653Y-76854762D01*
X115636653Y-76854762D02*
X115699325Y-76782051D01*
X115699325Y-76782051D02*
X115762629Y-76709889D01*
X115762629Y-76709889D02*
X115826560Y-76638283D01*
X115826560Y-76638283D02*
X115891113Y-76567238D01*
X115891113Y-76567238D02*
X115956284Y-76496758D01*
X115956284Y-76496758D02*
X116022068Y-76426850D01*
X116022068Y-76426850D02*
X116088459Y-76357519D01*
X116088459Y-76357519D02*
X116155453Y-76288769D01*
X116155453Y-76288769D02*
X116223044Y-76220607D01*
X116223044Y-76220607D02*
X116291227Y-76153038D01*
X116291227Y-76153038D02*
X116359997Y-76086066D01*
X116359997Y-76086066D02*
X116423662Y-76025095D01*
X117023172Y-75495656D02*
X117097651Y-75435096D01*
X117097651Y-75435096D02*
X117172656Y-75375188D01*
X117172656Y-75375188D02*
X117248181Y-75315938D01*
X117248181Y-75315938D02*
X117324220Y-75257348D01*
X117324220Y-75257348D02*
X117400767Y-75199425D01*
X117400767Y-75199425D02*
X117477817Y-75142172D01*
X117477817Y-75142172D02*
X117555363Y-75085593D01*
X117555363Y-75085593D02*
X117633400Y-75029693D01*
X117633400Y-75029693D02*
X117711923Y-74974476D01*
X117711923Y-74974476D02*
X117790924Y-74919947D01*
X117790924Y-74919947D02*
X117870397Y-74866109D01*
X117870397Y-74866109D02*
X117950338Y-74812966D01*
X117950338Y-74812966D02*
X118030739Y-74760523D01*
X118030739Y-74760523D02*
X118111595Y-74708784D01*
X118111595Y-74708784D02*
X118192900Y-74657753D01*
X118192900Y-74657753D02*
X118274646Y-74607433D01*
X118274646Y-74607433D02*
X118356829Y-74557828D01*
X118356829Y-74557828D02*
X118439441Y-74508942D01*
X118439441Y-74508942D02*
X118522477Y-74460779D01*
X118522477Y-74460779D02*
X118605930Y-74413342D01*
X118605930Y-74413342D02*
X118689793Y-74366636D01*
X118689793Y-74366636D02*
X118774062Y-74320663D01*
X118774062Y-74320663D02*
X118851797Y-74279095D01*
X119571758Y-73930707D02*
X119659796Y-73892447D01*
X119659796Y-73892447D02*
X119748165Y-73854957D01*
X119748165Y-73854957D02*
X119836858Y-73818239D01*
X119836858Y-73818239D02*
X119925868Y-73782297D01*
X119925868Y-73782297D02*
X120015189Y-73747133D01*
X120015189Y-73747133D02*
X120104812Y-73712750D01*
X120104812Y-73712750D02*
X120194733Y-73679150D01*
X120194733Y-73679150D02*
X120284943Y-73646336D01*
X120284943Y-73646336D02*
X120375436Y-73614311D01*
X120375436Y-73614311D02*
X120466205Y-73583077D01*
X120466205Y-73583077D02*
X120557243Y-73552635D01*
X120557243Y-73552635D02*
X120648544Y-73522990D01*
X120648544Y-73522990D02*
X120740099Y-73494142D01*
X120740099Y-73494142D02*
X120831903Y-73466095D01*
X120831903Y-73466095D02*
X120923948Y-73438849D01*
X120923948Y-73438849D02*
X121016228Y-73412408D01*
X121016228Y-73412408D02*
X121108734Y-73386773D01*
X121108734Y-73386773D02*
X121201461Y-73361947D01*
X121201461Y-73361947D02*
X121294401Y-73337930D01*
X121294401Y-73337930D02*
X121387547Y-73314726D01*
X121387547Y-73314726D02*
X121480892Y-73292335D01*
X121480892Y-73292335D02*
X121574429Y-73270759D01*
X121574429Y-73270759D02*
X121660487Y-73251666D01*
X122447680Y-73110083D02*
X122542770Y-73096951D01*
X122542770Y-73096951D02*
X122637972Y-73084649D01*
X122637972Y-73084649D02*
X122733277Y-73073179D01*
X122733277Y-73073179D02*
X122828678Y-73062541D01*
X122828678Y-73062541D02*
X122924169Y-73052736D01*
X122924169Y-73052736D02*
X123019742Y-73043765D01*
X123019742Y-73043765D02*
X123115389Y-73035628D01*
X123115389Y-73035628D02*
X123211104Y-73028325D01*
X123211104Y-73028325D02*
X123306878Y-73021859D01*
X123306878Y-73021859D02*
X123402706Y-73016228D01*
X123402706Y-73016228D02*
X123498579Y-73011434D01*
X123498579Y-73011434D02*
X123594490Y-73007477D01*
X123594490Y-73007477D02*
X123690432Y-73004357D01*
X123690432Y-73004357D02*
X123786398Y-73002074D01*
X123786398Y-73002074D02*
X123882380Y-73000629D01*
X123882380Y-73000629D02*
X123978371Y-73000021D01*
X123978371Y-73000021D02*
X124074363Y-73000251D01*
X124074363Y-73000251D02*
X124170350Y-73001319D01*
X124170350Y-73001319D02*
X124266324Y-73003224D01*
X124266324Y-73003224D02*
X124362277Y-73005967D01*
X124362277Y-73005967D02*
X124458203Y-73009547D01*
X124458203Y-73009547D02*
X124554095Y-73013964D01*
X124554095Y-73013964D02*
X124642116Y-73018757D01*
X125438350Y-73094444D02*
X125533463Y-73107411D01*
X125533463Y-73107411D02*
X125628459Y-73121208D01*
X125628459Y-73121208D02*
X125723331Y-73135833D01*
X125723331Y-73135833D02*
X125818072Y-73151285D01*
X125818072Y-73151285D02*
X125912675Y-73167564D01*
X125912675Y-73167564D02*
X126007132Y-73184667D01*
X126007132Y-73184667D02*
X126101436Y-73202594D01*
X126101436Y-73202594D02*
X126195580Y-73221344D01*
X126195580Y-73221344D02*
X126289556Y-73240914D01*
X126289556Y-73240914D02*
X126383359Y-73261304D01*
X126383359Y-73261304D02*
X126476979Y-73282511D01*
X126476979Y-73282511D02*
X126570412Y-73304534D01*
X126570412Y-73304534D02*
X126663648Y-73327372D01*
X126663648Y-73327372D02*
X126756682Y-73351023D01*
X126756682Y-73351023D02*
X126849506Y-73375485D01*
X126849506Y-73375485D02*
X126942112Y-73400756D01*
X126942112Y-73400756D02*
X127034495Y-73426834D01*
X127034495Y-73426834D02*
X127126646Y-73453717D01*
X127126646Y-73453717D02*
X127218560Y-73481404D01*
X127218560Y-73481404D02*
X127310228Y-73509891D01*
X127310228Y-73509891D02*
X127401645Y-73539177D01*
X127401645Y-73539177D02*
X127492802Y-73569260D01*
X127492802Y-73569260D02*
X127576278Y-73597585D01*
X128322697Y-73884947D02*
X128410802Y-73923055D01*
X128410802Y-73923055D02*
X128498571Y-73961929D01*
X128498571Y-73961929D02*
X128585997Y-74001569D01*
X128585997Y-74001569D02*
X128673074Y-74041969D01*
X128673074Y-74041969D02*
X128759795Y-74083128D01*
X128759795Y-74083128D02*
X128846154Y-74125042D01*
X128846154Y-74125042D02*
X128932144Y-74167708D01*
X128932144Y-74167708D02*
X129017758Y-74211123D01*
X129017758Y-74211123D02*
X129102990Y-74255284D01*
X129102990Y-74255284D02*
X129187833Y-74300186D01*
X129187833Y-74300186D02*
X129272281Y-74345827D01*
X129272281Y-74345827D02*
X129356328Y-74392204D01*
X129356328Y-74392204D02*
X129439967Y-74439312D01*
X129439967Y-74439312D02*
X129523191Y-74487148D01*
X129523191Y-74487148D02*
X129605995Y-74535708D01*
X129605995Y-74535708D02*
X129688372Y-74584990D01*
X129688372Y-74584990D02*
X129770316Y-74634988D01*
X129770316Y-74634988D02*
X129851820Y-74685699D01*
X129851820Y-74685699D02*
X129932879Y-74737120D01*
X129932879Y-74737120D02*
X130013486Y-74789246D01*
X130013486Y-74789246D02*
X130093635Y-74842074D01*
X130093635Y-74842074D02*
X130173320Y-74895599D01*
X130173320Y-74895599D02*
X130246082Y-74945362D01*
X130887509Y-75423158D02*
X130962093Y-75483589D01*
X130962093Y-75483589D02*
X131036147Y-75544668D01*
X131036147Y-75544668D02*
X131109665Y-75606391D01*
X131109665Y-75606391D02*
X131182641Y-75668753D01*
X131182641Y-75668753D02*
X131255070Y-75731750D01*
X131255070Y-75731750D02*
X131326947Y-75795377D01*
X131326947Y-75795377D02*
X131398266Y-75859628D01*
X131398266Y-75859628D02*
X131469022Y-75924499D01*
X131469022Y-75924499D02*
X131539209Y-75989985D01*
X131539209Y-75989985D02*
X131608821Y-76056082D01*
X131608821Y-76056082D02*
X131677854Y-76122783D01*
X131677854Y-76122783D02*
X131746303Y-76190084D01*
X131746303Y-76190084D02*
X131814161Y-76257979D01*
X131814161Y-76257979D02*
X131881425Y-76326465D01*
X131881425Y-76326465D02*
X131948088Y-76395535D01*
X131948088Y-76395535D02*
X132014146Y-76465183D01*
X132014146Y-76465183D02*
X132079594Y-76535406D01*
X132079594Y-76535406D02*
X132144426Y-76606197D01*
X132144426Y-76606197D02*
X132208638Y-76677551D01*
X132208638Y-76677551D02*
X132272225Y-76749463D01*
X132272225Y-76749463D02*
X132335183Y-76821927D01*
X132335183Y-76821927D02*
X132397505Y-76894938D01*
X132397505Y-76894938D02*
X132454173Y-76962461D01*
X132943195Y-77595371D02*
X132998744Y-77673658D01*
X132998744Y-77673658D02*
X133053609Y-77752427D01*
X133053609Y-77752427D02*
X133107784Y-77831672D01*
X133107784Y-77831672D02*
X133161265Y-77911386D01*
X133161265Y-77911386D02*
X133214049Y-77991564D01*
X133214049Y-77991564D02*
X133266131Y-78072199D01*
X133266131Y-78072199D02*
X133317507Y-78153286D01*
X133317507Y-78153286D02*
X133368174Y-78234818D01*
X133368174Y-78234818D02*
X133418127Y-78316790D01*
X133418127Y-78316790D02*
X133467363Y-78399194D01*
X133467363Y-78399194D02*
X133515878Y-78482024D01*
X133515878Y-78482024D02*
X133563669Y-78565275D01*
X133563669Y-78565275D02*
X133610731Y-78648940D01*
X133610731Y-78648940D02*
X133657061Y-78733012D01*
X133657061Y-78733012D02*
X133702656Y-78817485D01*
X133702656Y-78817485D02*
X133747512Y-78902353D01*
X133747512Y-78902353D02*
X133791626Y-78987609D01*
X133791626Y-78987609D02*
X133834994Y-79073247D01*
X133834994Y-79073247D02*
X133877613Y-79159260D01*
X133877613Y-79159260D02*
X133919480Y-79245641D01*
X133919480Y-79245641D02*
X133960591Y-79332385D01*
X133960591Y-79332385D02*
X134000944Y-79419484D01*
X134000944Y-79419484D02*
X134037330Y-79499776D01*
X134337797Y-80241016D02*
X134370206Y-80331373D01*
X134370206Y-80331373D02*
X134401826Y-80422008D01*
X134401826Y-80422008D02*
X134432653Y-80512916D01*
X134432653Y-80512916D02*
X134462686Y-80604090D01*
X134462686Y-80604090D02*
X134491922Y-80695522D01*
X134491922Y-80695522D02*
X134520359Y-80787206D01*
X134520359Y-80787206D02*
X134547995Y-80879135D01*
X134547995Y-80879135D02*
X134574828Y-80971301D01*
X134574828Y-80971301D02*
X134600855Y-81063698D01*
X134600855Y-81063698D02*
X134626075Y-81156319D01*
X134626075Y-81156319D02*
X134650486Y-81249156D01*
X134650486Y-81249156D02*
X134674086Y-81342203D01*
X134674086Y-81342203D02*
X134696873Y-81435451D01*
X134696873Y-81435451D02*
X134718845Y-81528896D01*
X134718845Y-81528896D02*
X134740001Y-81622528D01*
X134740001Y-81622528D02*
X134760339Y-81716342D01*
X134760339Y-81716342D02*
X134779858Y-81810329D01*
X134779858Y-81810329D02*
X134798556Y-81904483D01*
X134798556Y-81904483D02*
X134816431Y-81998797D01*
X134816431Y-81998797D02*
X134833483Y-82093263D01*
X134833483Y-82093263D02*
X134849710Y-82187875D01*
X134849710Y-82187875D02*
X134865110Y-82282624D01*
X134865110Y-82282624D02*
X134878524Y-82369749D01*
X134968226Y-83164527D02*
X134975099Y-83260273D01*
X134975099Y-83260273D02*
X134981137Y-83356076D01*
X134981137Y-83356076D02*
X134986338Y-83451928D01*
X134986338Y-83451928D02*
X134990702Y-83547821D01*
X134990702Y-83547821D02*
X134994230Y-83643749D01*
X134994230Y-83643749D02*
X134996920Y-83739704D01*
X134996920Y-83739704D02*
X134998773Y-83835679D01*
X134998773Y-83835679D02*
X134999788Y-83931667D01*
X134999788Y-83931667D02*
X134999965Y-84027659D01*
X134999965Y-84027659D02*
X134999305Y-84123650D01*
X134999305Y-84123650D02*
X134997807Y-84219631D01*
X134997807Y-84219631D02*
X134995472Y-84315595D01*
X134995472Y-84315595D02*
X134992299Y-84411536D01*
X134992299Y-84411536D02*
X134988289Y-84507445D01*
X134988289Y-84507445D02*
X134983443Y-84603315D01*
X134983443Y-84603315D02*
X134977760Y-84699139D01*
X134977760Y-84699139D02*
X134971240Y-84794911D01*
X134971240Y-84794911D02*
X134963886Y-84890621D01*
X134963886Y-84890621D02*
X134955696Y-84986264D01*
X134955696Y-84986264D02*
X134946673Y-85081832D01*
X134946673Y-85081832D02*
X134936815Y-85177317D01*
X134936815Y-85177317D02*
X134926125Y-85272713D01*
X134926125Y-85272713D02*
X134915575Y-85360231D01*
X134787881Y-86149795D02*
X134768710Y-86243854D01*
X134768710Y-86243854D02*
X134748719Y-86337742D01*
X134748719Y-86337742D02*
X134727909Y-86431452D01*
X134727909Y-86431452D02*
X134706283Y-86524977D01*
X134706283Y-86524977D02*
X134683841Y-86618310D01*
X134683841Y-86618310D02*
X134660585Y-86711443D01*
X134660585Y-86711443D02*
X134636518Y-86804370D01*
X134636518Y-86804370D02*
X134611640Y-86897083D01*
X134611640Y-86897083D02*
X134585955Y-86989575D01*
X134585955Y-86989575D02*
X134559463Y-87081840D01*
X134559463Y-87081840D02*
X134532167Y-87173871D01*
X134532167Y-87173871D02*
X134504069Y-87265659D01*
X134504069Y-87265659D02*
X134475171Y-87357199D01*
X134475171Y-87357199D02*
X134445476Y-87448483D01*
X134445476Y-87448483D02*
X134414985Y-87539504D01*
X134414985Y-87539504D02*
X134383701Y-87630256D01*
X134383701Y-87630256D02*
X134351626Y-87720732D01*
X134351626Y-87720732D02*
X134318762Y-87810924D01*
X134318762Y-87810924D02*
X134285113Y-87900826D01*
X134285113Y-87900826D02*
X134250681Y-87990431D01*
X134250681Y-87990431D02*
X134215468Y-88079732D01*
X134215468Y-88079732D02*
X134179477Y-88168722D01*
X134179477Y-88168722D02*
X134145743Y-88250164D01*
X133810093Y-88976150D02*
X133766295Y-89061569D01*
X133766295Y-89061569D02*
X133721753Y-89146602D01*
X133721753Y-89146602D02*
X133676471Y-89231243D01*
X133676471Y-89231243D02*
X133630452Y-89315486D01*
X133630452Y-89315486D02*
X133583699Y-89399324D01*
X133583699Y-89399324D02*
X133536217Y-89482751D01*
X133536217Y-89482751D02*
X133488009Y-89565761D01*
X133488009Y-89565761D02*
X133439078Y-89648346D01*
X133439078Y-89648346D02*
X133389428Y-89730502D01*
X133389428Y-89730502D02*
X133339063Y-89812221D01*
X133339063Y-89812221D02*
X133287987Y-89893497D01*
X133287987Y-89893497D02*
X133236203Y-89974324D01*
X133236203Y-89974324D02*
X133183716Y-90054697D01*
X133183716Y-90054697D02*
X133130530Y-90134609D01*
X133130530Y-90134609D02*
X133076648Y-90214053D01*
X133076648Y-90214053D02*
X133022076Y-90293024D01*
X133022076Y-90293024D02*
X132966816Y-90371516D01*
X132966816Y-90371516D02*
X132910873Y-90449522D01*
X132910873Y-90449522D02*
X132854252Y-90527038D01*
X132854252Y-90527038D02*
X132796956Y-90604056D01*
X132796956Y-90604056D02*
X132738991Y-90680572D01*
X132738991Y-90680572D02*
X132680360Y-90756578D01*
X132680360Y-90756578D02*
X132625936Y-90825923D01*
X132107140Y-91434667D02*
X132041953Y-91505131D01*
X132041953Y-91505131D02*
X131976153Y-91575024D01*
X131976153Y-91575024D02*
X131909745Y-91644340D01*
X131909745Y-91644340D02*
X131842736Y-91713073D01*
X131842736Y-91713073D02*
X131775129Y-91781219D01*
X131775129Y-91781219D02*
X131706929Y-91848773D01*
X131706929Y-91848773D02*
X131638143Y-91915729D01*
X131638143Y-91915729D02*
X131568776Y-91982082D01*
X131568776Y-91982082D02*
X131498831Y-92047827D01*
X131498831Y-92047827D02*
X131428316Y-92112960D01*
X131428316Y-92112960D02*
X131357235Y-92177474D01*
X131357235Y-92177474D02*
X131285594Y-92241366D01*
X131285594Y-92241366D02*
X131213398Y-92304630D01*
X131213398Y-92304630D02*
X131140653Y-92367262D01*
X131140653Y-92367262D02*
X131067364Y-92429257D01*
X131067364Y-92429257D02*
X130993537Y-92490609D01*
X130993537Y-92490609D02*
X130919177Y-92551315D01*
X130919177Y-92551315D02*
X130844290Y-92611370D01*
X130844290Y-92611370D02*
X130768882Y-92670769D01*
X130768882Y-92670769D02*
X130692958Y-92729508D01*
X130692958Y-92729508D02*
X130616525Y-92787582D01*
X130616525Y-92787582D02*
X130539588Y-92844987D01*
X130539588Y-92844987D02*
X130468497Y-92897109D01*
X129804906Y-93343611D02*
X129723147Y-93393912D01*
X129723147Y-93393912D02*
X129640953Y-93443498D01*
X129640953Y-93443498D02*
X129558329Y-93492364D01*
X129558329Y-93492364D02*
X129475282Y-93540508D01*
X129475282Y-93540508D02*
X129391818Y-93587925D01*
X129391818Y-93587925D02*
X129307943Y-93634611D01*
X129307943Y-93634611D02*
X129223664Y-93680565D01*
X129223664Y-93680565D02*
X129138988Y-93725780D01*
X129138988Y-93725780D02*
X129053920Y-93770256D01*
X129053920Y-93770256D02*
X128968467Y-93813987D01*
X128968467Y-93813987D02*
X128882635Y-93856971D01*
X128882635Y-93856971D02*
X128796432Y-93899204D01*
X128796432Y-93899204D02*
X128709864Y-93940683D01*
X128709864Y-93940683D02*
X128622937Y-93981405D01*
X128622937Y-93981405D02*
X128535658Y-94021368D01*
X128535658Y-94021368D02*
X128448033Y-94060567D01*
X128448033Y-94060567D02*
X128360070Y-94098999D01*
X128360070Y-94098999D02*
X128271775Y-94136663D01*
X128271775Y-94136663D02*
X128183154Y-94173555D01*
X128183154Y-94173555D02*
X128094215Y-94209672D01*
X128094215Y-94209672D02*
X128004964Y-94245012D01*
X128004964Y-94245012D02*
X127915408Y-94279571D01*
X127915408Y-94279571D02*
X127832905Y-94310618D01*
X127073570Y-94561873D02*
X126981285Y-94588293D01*
X126981285Y-94588293D02*
X126888772Y-94613906D01*
X126888772Y-94613906D02*
X126796040Y-94638711D01*
X126796040Y-94638711D02*
X126703094Y-94662705D01*
X126703094Y-94662705D02*
X126609943Y-94685888D01*
X126609943Y-94685888D02*
X126516593Y-94708257D01*
X126516593Y-94708257D02*
X126423051Y-94729810D01*
X126423051Y-94729810D02*
X126329324Y-94750546D01*
X126329324Y-94750546D02*
X126235421Y-94770464D01*
X126235421Y-94770464D02*
X126141347Y-94789561D01*
X126141347Y-94789561D02*
X126047110Y-94807837D01*
X126047110Y-94807837D02*
X125952717Y-94825290D01*
X125952717Y-94825290D02*
X125858175Y-94841918D01*
X125858175Y-94841918D02*
X125763492Y-94857721D01*
X125763492Y-94857721D02*
X125668675Y-94872696D01*
X125668675Y-94872696D02*
X125573730Y-94886844D01*
X125573730Y-94886844D02*
X125478666Y-94900163D01*
X125478666Y-94900163D02*
X125383489Y-94912651D01*
X125383489Y-94912651D02*
X125288206Y-94924309D01*
X125288206Y-94924309D02*
X125192826Y-94935134D01*
X125192826Y-94935134D02*
X125097355Y-94945127D01*
X125097355Y-94945127D02*
X125001800Y-94954287D01*
X125001800Y-94954287D02*
X124913983Y-94961963D01*
X124115036Y-94999398D02*
X124019045Y-94999984D01*
X124019045Y-94999984D02*
X124000000Y-95000000D01*
X160000000Y-95000000D02*
X159904008Y-94999581D01*
X159904008Y-94999581D02*
X159808024Y-94998325D01*
X159808024Y-94998325D02*
X159712054Y-94996231D01*
X159712054Y-94996231D02*
X159616106Y-94993299D01*
X159616106Y-94993299D02*
X159520187Y-94989530D01*
X159520187Y-94989530D02*
X159424304Y-94984925D01*
X159424304Y-94984925D02*
X159328466Y-94979483D01*
X159328466Y-94979483D02*
X159232679Y-94973205D01*
X159232679Y-94973205D02*
X159136950Y-94966091D01*
X159136950Y-94966091D02*
X159041287Y-94958142D01*
X159041287Y-94958142D02*
X158945697Y-94949358D01*
X158945697Y-94949358D02*
X158850187Y-94939741D01*
X158850187Y-94939741D02*
X158754765Y-94929290D01*
X158754765Y-94929290D02*
X158659437Y-94918008D01*
X158659437Y-94918008D02*
X158564212Y-94905893D01*
X158564212Y-94905893D02*
X158469096Y-94892949D01*
X158469096Y-94892949D02*
X158374096Y-94879174D01*
X158374096Y-94879174D02*
X158279221Y-94864572D01*
X158279221Y-94864572D02*
X158184476Y-94849142D01*
X158184476Y-94849142D02*
X158089870Y-94832885D01*
X158089870Y-94832885D02*
X157995409Y-94815804D01*
X157995409Y-94815804D02*
X157901101Y-94797899D01*
X157901101Y-94797899D02*
X157814637Y-94780732D01*
X157037052Y-94593438D02*
X156944721Y-94567179D01*
X156944721Y-94567179D02*
X156852622Y-94540114D01*
X156852622Y-94540114D02*
X156760763Y-94512247D01*
X156760763Y-94512247D02*
X156669151Y-94483580D01*
X156669151Y-94483580D02*
X156577793Y-94454114D01*
X156577793Y-94454114D02*
X156486695Y-94423852D01*
X156486695Y-94423852D02*
X156395865Y-94392796D01*
X156395865Y-94392796D02*
X156305309Y-94360949D01*
X156305309Y-94360949D02*
X156215034Y-94328312D01*
X156215034Y-94328312D02*
X156125048Y-94294889D01*
X156125048Y-94294889D02*
X156035357Y-94260682D01*
X156035357Y-94260682D02*
X155945968Y-94225694D01*
X155945968Y-94225694D02*
X155856887Y-94189927D01*
X155856887Y-94189927D02*
X155768122Y-94153384D01*
X155768122Y-94153384D02*
X155679679Y-94116068D01*
X155679679Y-94116068D02*
X155591566Y-94077981D01*
X155591566Y-94077981D02*
X155503788Y-94039127D01*
X155503788Y-94039127D02*
X155416352Y-93999509D01*
X155416352Y-93999509D02*
X155329265Y-93959128D01*
X155329265Y-93959128D02*
X155242535Y-93917990D01*
X155242535Y-93917990D02*
X155156166Y-93876096D01*
X155156166Y-93876096D02*
X155070166Y-93833450D01*
X155070166Y-93833450D02*
X154991522Y-93793628D01*
X154293126Y-93403807D02*
X154211281Y-93353648D01*
X154211281Y-93353648D02*
X154129876Y-93302776D01*
X154129876Y-93302776D02*
X154048919Y-93251196D01*
X154048919Y-93251196D02*
X153968414Y-93198912D01*
X153968414Y-93198912D02*
X153888369Y-93145926D01*
X153888369Y-93145926D02*
X153808790Y-93092245D01*
X153808790Y-93092245D02*
X153729682Y-93037871D01*
X153729682Y-93037871D02*
X153651051Y-92982809D01*
X153651051Y-92982809D02*
X153572904Y-92927062D01*
X153572904Y-92927062D02*
X153495247Y-92870636D01*
X153495247Y-92870636D02*
X153418084Y-92813534D01*
X153418084Y-92813534D02*
X153341423Y-92755761D01*
X153341423Y-92755761D02*
X153265269Y-92697322D01*
X153265269Y-92697322D02*
X153189628Y-92638220D01*
X153189628Y-92638220D02*
X153114506Y-92578460D01*
X153114506Y-92578460D02*
X153039908Y-92518047D01*
X153039908Y-92518047D02*
X152965840Y-92456985D01*
X152965840Y-92456985D02*
X152892308Y-92395279D01*
X152892308Y-92395279D02*
X152819316Y-92332934D01*
X152819316Y-92332934D02*
X152746872Y-92269954D01*
X152746872Y-92269954D02*
X152674980Y-92206344D01*
X152674980Y-92206344D02*
X152603646Y-92142110D01*
X152603646Y-92142110D02*
X152538635Y-92082576D01*
X151971054Y-91519044D02*
X151905744Y-91448693D01*
X151905744Y-91448693D02*
X151841051Y-91377774D01*
X151841051Y-91377774D02*
X151776979Y-91306294D01*
X151776979Y-91306294D02*
X151713534Y-91234257D01*
X151713534Y-91234257D02*
X151650719Y-91161670D01*
X151650719Y-91161670D02*
X151588541Y-91088537D01*
X151588541Y-91088537D02*
X151527003Y-91014864D01*
X151527003Y-91014864D02*
X151466110Y-90940657D01*
X151466110Y-90940657D02*
X151405867Y-90865921D01*
X151405867Y-90865921D02*
X151346278Y-90790663D01*
X151346278Y-90790663D02*
X151287349Y-90714887D01*
X151287349Y-90714887D02*
X151229083Y-90638600D01*
X151229083Y-90638600D02*
X151171485Y-90561808D01*
X151171485Y-90561808D02*
X151114559Y-90484516D01*
X151114559Y-90484516D02*
X151058310Y-90406730D01*
X151058310Y-90406730D02*
X151002742Y-90328456D01*
X151002742Y-90328456D02*
X150947859Y-90249700D01*
X150947859Y-90249700D02*
X150893666Y-90170468D01*
X150893666Y-90170468D02*
X150840166Y-90090766D01*
X150840166Y-90090766D02*
X150787363Y-90010601D01*
X150787363Y-90010601D02*
X150735262Y-89929977D01*
X150735262Y-89929977D02*
X150683867Y-89848903D01*
X150683867Y-89848903D02*
X150637295Y-89774058D01*
X150242483Y-89078471D02*
X150198537Y-88993128D01*
X150198537Y-88993128D02*
X150155338Y-88907405D01*
X150155338Y-88907405D02*
X150112888Y-88821308D01*
X150112888Y-88821308D02*
X150071191Y-88734845D01*
X150071191Y-88734845D02*
X150030250Y-88648020D01*
X150030250Y-88648020D02*
X149990069Y-88560842D01*
X149990069Y-88560842D02*
X149950650Y-88473316D01*
X149950650Y-88473316D02*
X149911996Y-88385450D01*
X149911996Y-88385450D02*
X149874110Y-88297249D01*
X149874110Y-88297249D02*
X149836996Y-88208722D01*
X149836996Y-88208722D02*
X149800655Y-88119874D01*
X149800655Y-88119874D02*
X149765091Y-88030712D01*
X149765091Y-88030712D02*
X149730307Y-87941243D01*
X149730307Y-87941243D02*
X149696304Y-87851474D01*
X149696304Y-87851474D02*
X149663087Y-87761412D01*
X149663087Y-87761412D02*
X149630656Y-87671063D01*
X149630656Y-87671063D02*
X149599015Y-87580435D01*
X149599015Y-87580435D02*
X149568167Y-87489534D01*
X149568167Y-87489534D02*
X149538112Y-87398368D01*
X149538112Y-87398368D02*
X149508855Y-87306942D01*
X149508855Y-87306942D02*
X149480396Y-87215265D01*
X149480396Y-87215265D02*
X149452738Y-87123343D01*
X149452738Y-87123343D02*
X149428047Y-87038720D01*
X149235191Y-86262496D02*
X149215857Y-86168470D01*
X149215857Y-86168470D02*
X149197345Y-86074279D01*
X149197345Y-86074279D02*
X149179655Y-85979930D01*
X149179655Y-85979930D02*
X149162789Y-85885431D01*
X149162789Y-85885431D02*
X149146748Y-85790788D01*
X149146748Y-85790788D02*
X149131534Y-85696008D01*
X149131534Y-85696008D02*
X149117147Y-85601100D01*
X149117147Y-85601100D02*
X149103590Y-85506069D01*
X149103590Y-85506069D02*
X149090862Y-85410924D01*
X149090862Y-85410924D02*
X149078965Y-85315671D01*
X149078965Y-85315671D02*
X149067899Y-85220318D01*
X149067899Y-85220318D02*
X149057667Y-85124872D01*
X149057667Y-85124872D02*
X149048267Y-85029341D01*
X149048267Y-85029341D02*
X149039701Y-84933731D01*
X149039701Y-84933731D02*
X149031970Y-84838050D01*
X149031970Y-84838050D02*
X149025075Y-84742305D01*
X149025075Y-84742305D02*
X149019015Y-84646504D01*
X149019015Y-84646504D02*
X149013791Y-84550653D01*
X149013791Y-84550653D02*
X149009404Y-84454761D01*
X149009404Y-84454761D02*
X149005854Y-84358834D01*
X149005854Y-84358834D02*
X149003142Y-84262879D01*
X149003142Y-84262879D02*
X149001266Y-84166905D01*
X149001266Y-84166905D02*
X149000282Y-84078759D01*
X149023636Y-83279276D02*
X149030344Y-83183518D01*
X149030344Y-83183518D02*
X149037887Y-83087822D01*
X149037887Y-83087822D02*
X149046264Y-82992196D01*
X149046264Y-82992196D02*
X149055476Y-82896646D01*
X149055476Y-82896646D02*
X149065521Y-82801180D01*
X149065521Y-82801180D02*
X149076399Y-82705806D01*
X149076399Y-82705806D02*
X149088109Y-82610530D01*
X149088109Y-82610530D02*
X149100649Y-82515359D01*
X149100649Y-82515359D02*
X149114020Y-82420302D01*
X149114020Y-82420302D02*
X149128220Y-82325366D01*
X149128220Y-82325366D02*
X149143248Y-82230557D01*
X149143248Y-82230557D02*
X149159102Y-82135882D01*
X149159102Y-82135882D02*
X149175782Y-82041350D01*
X149175782Y-82041350D02*
X149193287Y-81946966D01*
X149193287Y-81946966D02*
X149211614Y-81852739D01*
X149211614Y-81852739D02*
X149230763Y-81758676D01*
X149230763Y-81758676D02*
X149250732Y-81664783D01*
X149250732Y-81664783D02*
X149271520Y-81571068D01*
X149271520Y-81571068D02*
X149293124Y-81477538D01*
X149293124Y-81477538D02*
X149315544Y-81384200D01*
X149315544Y-81384200D02*
X149338778Y-81291061D01*
X149338778Y-81291061D02*
X149362824Y-81198129D01*
X149362824Y-81198129D02*
X149385619Y-81112976D01*
X149623458Y-80349333D02*
X149655710Y-80258921D01*
X149655710Y-80258921D02*
X149688751Y-80168793D01*
X149688751Y-80168793D02*
X149722577Y-80078958D01*
X149722577Y-80078958D02*
X149757185Y-79989421D01*
X149757185Y-79989421D02*
X149792574Y-79900189D01*
X149792574Y-79900189D02*
X149828740Y-79811270D01*
X149828740Y-79811270D02*
X149865680Y-79722669D01*
X149865680Y-79722669D02*
X149903392Y-79634395D01*
X149903392Y-79634395D02*
X149941873Y-79546453D01*
X149941873Y-79546453D02*
X149981120Y-79458850D01*
X149981120Y-79458850D02*
X150021130Y-79371592D01*
X150021130Y-79371592D02*
X150061900Y-79284688D01*
X150061900Y-79284688D02*
X150103427Y-79198142D01*
X150103427Y-79198142D02*
X150145707Y-79111962D01*
X150145707Y-79111962D02*
X150188738Y-79026154D01*
X150188738Y-79026154D02*
X150232516Y-78940725D01*
X150232516Y-78940725D02*
X150277038Y-78855682D01*
X150277038Y-78855682D02*
X150322300Y-78771030D01*
X150322300Y-78771030D02*
X150368300Y-78686776D01*
X150368300Y-78686776D02*
X150415032Y-78602927D01*
X150415032Y-78602927D02*
X150462495Y-78519489D01*
X150462495Y-78519489D02*
X150510684Y-78436468D01*
X150510684Y-78436468D02*
X150555573Y-78360603D01*
X150990316Y-77689248D02*
X151045730Y-77610865D01*
X151045730Y-77610865D02*
X151101826Y-77532969D01*
X151101826Y-77532969D02*
X151158599Y-77455565D01*
X151158599Y-77455565D02*
X151216046Y-77378659D01*
X151216046Y-77378659D02*
X151274162Y-77302258D01*
X151274162Y-77302258D02*
X151332942Y-77226366D01*
X151332942Y-77226366D02*
X151392383Y-77150991D01*
X151392383Y-77150991D02*
X151452479Y-77076137D01*
X151452479Y-77076137D02*
X151513226Y-77001810D01*
X151513226Y-77001810D02*
X151574619Y-76928017D01*
X151574619Y-76928017D02*
X151636653Y-76854762D01*
X151636653Y-76854762D02*
X151699325Y-76782051D01*
X151699325Y-76782051D02*
X151762629Y-76709889D01*
X151762629Y-76709889D02*
X151826560Y-76638283D01*
X151826560Y-76638283D02*
X151891113Y-76567238D01*
X151891113Y-76567238D02*
X151956284Y-76496758D01*
X151956284Y-76496758D02*
X152022068Y-76426850D01*
X152022068Y-76426850D02*
X152088459Y-76357519D01*
X152088459Y-76357519D02*
X152155453Y-76288769D01*
X152155453Y-76288769D02*
X152223044Y-76220607D01*
X152223044Y-76220607D02*
X152291227Y-76153038D01*
X152291227Y-76153038D02*
X152359997Y-76086066D01*
X152359997Y-76086066D02*
X152423662Y-76025095D01*
X153023172Y-75495656D02*
X153097651Y-75435096D01*
X153097651Y-75435096D02*
X153172656Y-75375188D01*
X153172656Y-75375188D02*
X153248181Y-75315938D01*
X153248181Y-75315938D02*
X153324220Y-75257348D01*
X153324220Y-75257348D02*
X153400767Y-75199425D01*
X153400767Y-75199425D02*
X153477817Y-75142172D01*
X153477817Y-75142172D02*
X153555363Y-75085593D01*
X153555363Y-75085593D02*
X153633400Y-75029693D01*
X153633400Y-75029693D02*
X153711923Y-74974476D01*
X153711923Y-74974476D02*
X153790924Y-74919947D01*
X153790924Y-74919947D02*
X153870397Y-74866109D01*
X153870397Y-74866109D02*
X153950338Y-74812966D01*
X153950338Y-74812966D02*
X154030739Y-74760523D01*
X154030739Y-74760523D02*
X154111595Y-74708784D01*
X154111595Y-74708784D02*
X154192900Y-74657753D01*
X154192900Y-74657753D02*
X154274646Y-74607433D01*
X154274646Y-74607433D02*
X154356829Y-74557828D01*
X154356829Y-74557828D02*
X154439441Y-74508942D01*
X154439441Y-74508942D02*
X154522477Y-74460779D01*
X154522477Y-74460779D02*
X154605930Y-74413342D01*
X154605930Y-74413342D02*
X154689793Y-74366636D01*
X154689793Y-74366636D02*
X154774062Y-74320663D01*
X154774062Y-74320663D02*
X154851797Y-74279095D01*
X155571758Y-73930707D02*
X155659796Y-73892447D01*
X155659796Y-73892447D02*
X155748165Y-73854957D01*
X155748165Y-73854957D02*
X155836858Y-73818239D01*
X155836858Y-73818239D02*
X155925868Y-73782297D01*
X155925868Y-73782297D02*
X156015189Y-73747133D01*
X156015189Y-73747133D02*
X156104812Y-73712750D01*
X156104812Y-73712750D02*
X156194733Y-73679150D01*
X156194733Y-73679150D02*
X156284943Y-73646336D01*
X156284943Y-73646336D02*
X156375436Y-73614311D01*
X156375436Y-73614311D02*
X156466205Y-73583077D01*
X156466205Y-73583077D02*
X156557243Y-73552635D01*
X156557243Y-73552635D02*
X156648544Y-73522990D01*
X156648544Y-73522990D02*
X156740099Y-73494142D01*
X156740099Y-73494142D02*
X156831903Y-73466095D01*
X156831903Y-73466095D02*
X156923948Y-73438849D01*
X156923948Y-73438849D02*
X157016228Y-73412408D01*
X157016228Y-73412408D02*
X157108734Y-73386773D01*
X157108734Y-73386773D02*
X157201461Y-73361947D01*
X157201461Y-73361947D02*
X157294401Y-73337930D01*
X157294401Y-73337930D02*
X157387547Y-73314726D01*
X157387547Y-73314726D02*
X157480892Y-73292335D01*
X157480892Y-73292335D02*
X157574429Y-73270759D01*
X157574429Y-73270759D02*
X157660487Y-73251666D01*
X158447680Y-73110083D02*
X158542770Y-73096951D01*
X158542770Y-73096951D02*
X158637972Y-73084649D01*
X158637972Y-73084649D02*
X158733277Y-73073179D01*
X158733277Y-73073179D02*
X158828678Y-73062541D01*
X158828678Y-73062541D02*
X158924169Y-73052736D01*
X158924169Y-73052736D02*
X159019742Y-73043765D01*
X159019742Y-73043765D02*
X159115389Y-73035628D01*
X159115389Y-73035628D02*
X159211104Y-73028325D01*
X159211104Y-73028325D02*
X159306878Y-73021859D01*
X159306878Y-73021859D02*
X159402706Y-73016228D01*
X159402706Y-73016228D02*
X159498579Y-73011434D01*
X159498579Y-73011434D02*
X159594490Y-73007477D01*
X159594490Y-73007477D02*
X159690432Y-73004357D01*
X159690432Y-73004357D02*
X159786398Y-73002074D01*
X159786398Y-73002074D02*
X159882380Y-73000629D01*
X159882380Y-73000629D02*
X159978371Y-73000021D01*
X159978371Y-73000021D02*
X160074363Y-73000251D01*
X160074363Y-73000251D02*
X160170350Y-73001319D01*
X160170350Y-73001319D02*
X160266324Y-73003224D01*
X160266324Y-73003224D02*
X160362277Y-73005967D01*
X160362277Y-73005967D02*
X160458203Y-73009547D01*
X160458203Y-73009547D02*
X160554095Y-73013964D01*
X160554095Y-73013964D02*
X160642116Y-73018757D01*
X161438350Y-73094444D02*
X161533463Y-73107411D01*
X161533463Y-73107411D02*
X161628459Y-73121208D01*
X161628459Y-73121208D02*
X161723331Y-73135833D01*
X161723331Y-73135833D02*
X161818072Y-73151285D01*
X161818072Y-73151285D02*
X161912675Y-73167564D01*
X161912675Y-73167564D02*
X162007132Y-73184667D01*
X162007132Y-73184667D02*
X162101436Y-73202594D01*
X162101436Y-73202594D02*
X162195580Y-73221344D01*
X162195580Y-73221344D02*
X162289556Y-73240914D01*
X162289556Y-73240914D02*
X162383359Y-73261304D01*
X162383359Y-73261304D02*
X162476979Y-73282511D01*
X162476979Y-73282511D02*
X162570412Y-73304534D01*
X162570412Y-73304534D02*
X162663648Y-73327372D01*
X162663648Y-73327372D02*
X162756682Y-73351023D01*
X162756682Y-73351023D02*
X162849506Y-73375485D01*
X162849506Y-73375485D02*
X162942112Y-73400756D01*
X162942112Y-73400756D02*
X163034495Y-73426834D01*
X163034495Y-73426834D02*
X163126646Y-73453717D01*
X163126646Y-73453717D02*
X163218560Y-73481404D01*
X163218560Y-73481404D02*
X163310228Y-73509891D01*
X163310228Y-73509891D02*
X163401645Y-73539177D01*
X163401645Y-73539177D02*
X163492802Y-73569260D01*
X163492802Y-73569260D02*
X163576278Y-73597585D01*
X164322697Y-73884947D02*
X164410802Y-73923055D01*
X164410802Y-73923055D02*
X164498571Y-73961929D01*
X164498571Y-73961929D02*
X164585997Y-74001569D01*
X164585997Y-74001569D02*
X164673074Y-74041969D01*
X164673074Y-74041969D02*
X164759795Y-74083128D01*
X164759795Y-74083128D02*
X164846154Y-74125042D01*
X164846154Y-74125042D02*
X164932144Y-74167708D01*
X164932144Y-74167708D02*
X165017758Y-74211123D01*
X165017758Y-74211123D02*
X165102990Y-74255284D01*
X165102990Y-74255284D02*
X165187833Y-74300186D01*
X165187833Y-74300186D02*
X165272281Y-74345827D01*
X165272281Y-74345827D02*
X165356328Y-74392204D01*
X165356328Y-74392204D02*
X165439967Y-74439312D01*
X165439967Y-74439312D02*
X165523191Y-74487148D01*
X165523191Y-74487148D02*
X165605995Y-74535708D01*
X165605995Y-74535708D02*
X165688372Y-74584990D01*
X165688372Y-74584990D02*
X165770316Y-74634988D01*
X165770316Y-74634988D02*
X165851820Y-74685699D01*
X165851820Y-74685699D02*
X165932879Y-74737120D01*
X165932879Y-74737120D02*
X166013486Y-74789246D01*
X166013486Y-74789246D02*
X166093635Y-74842074D01*
X166093635Y-74842074D02*
X166173320Y-74895599D01*
X166173320Y-74895599D02*
X166246082Y-74945362D01*
X166887509Y-75423158D02*
X166962093Y-75483589D01*
X166962093Y-75483589D02*
X167036147Y-75544668D01*
X167036147Y-75544668D02*
X167109665Y-75606391D01*
X167109665Y-75606391D02*
X167182641Y-75668753D01*
X167182641Y-75668753D02*
X167255070Y-75731750D01*
X167255070Y-75731750D02*
X167326947Y-75795377D01*
X167326947Y-75795377D02*
X167398266Y-75859628D01*
X167398266Y-75859628D02*
X167469022Y-75924499D01*
X167469022Y-75924499D02*
X167539209Y-75989985D01*
X167539209Y-75989985D02*
X167608821Y-76056082D01*
X167608821Y-76056082D02*
X167677854Y-76122783D01*
X167677854Y-76122783D02*
X167746303Y-76190084D01*
X167746303Y-76190084D02*
X167814161Y-76257979D01*
X167814161Y-76257979D02*
X167881425Y-76326465D01*
X167881425Y-76326465D02*
X167948088Y-76395535D01*
X167948088Y-76395535D02*
X168014146Y-76465183D01*
X168014146Y-76465183D02*
X168079594Y-76535406D01*
X168079594Y-76535406D02*
X168144426Y-76606197D01*
X168144426Y-76606197D02*
X168208638Y-76677551D01*
X168208638Y-76677551D02*
X168272225Y-76749463D01*
X168272225Y-76749463D02*
X168335183Y-76821927D01*
X168335183Y-76821927D02*
X168397505Y-76894938D01*
X168397505Y-76894938D02*
X168454173Y-76962461D01*
X168943195Y-77595371D02*
X168998744Y-77673658D01*
X168998744Y-77673658D02*
X169053609Y-77752427D01*
X169053609Y-77752427D02*
X169107784Y-77831672D01*
X169107784Y-77831672D02*
X169161265Y-77911386D01*
X169161265Y-77911386D02*
X169214049Y-77991564D01*
X169214049Y-77991564D02*
X169266131Y-78072199D01*
X169266131Y-78072199D02*
X169317507Y-78153286D01*
X169317507Y-78153286D02*
X169368174Y-78234818D01*
X169368174Y-78234818D02*
X169418127Y-78316790D01*
X169418127Y-78316790D02*
X169467363Y-78399194D01*
X169467363Y-78399194D02*
X169515878Y-78482024D01*
X169515878Y-78482024D02*
X169563669Y-78565275D01*
X169563669Y-78565275D02*
X169610731Y-78648940D01*
X169610731Y-78648940D02*
X169657061Y-78733012D01*
X169657061Y-78733012D02*
X169702656Y-78817485D01*
X169702656Y-78817485D02*
X169747512Y-78902353D01*
X169747512Y-78902353D02*
X169791626Y-78987609D01*
X169791626Y-78987609D02*
X169834994Y-79073247D01*
X169834994Y-79073247D02*
X169877613Y-79159260D01*
X169877613Y-79159260D02*
X169919480Y-79245641D01*
X169919480Y-79245641D02*
X169960591Y-79332385D01*
X169960591Y-79332385D02*
X170000944Y-79419484D01*
X170000944Y-79419484D02*
X170037330Y-79499776D01*
X170337797Y-80241016D02*
X170370206Y-80331373D01*
X170370206Y-80331373D02*
X170401826Y-80422008D01*
X170401826Y-80422008D02*
X170432653Y-80512916D01*
X170432653Y-80512916D02*
X170462686Y-80604090D01*
X170462686Y-80604090D02*
X170491922Y-80695522D01*
X170491922Y-80695522D02*
X170520359Y-80787206D01*
X170520359Y-80787206D02*
X170547995Y-80879135D01*
X170547995Y-80879135D02*
X170574828Y-80971301D01*
X170574828Y-80971301D02*
X170600855Y-81063698D01*
X170600855Y-81063698D02*
X170626075Y-81156319D01*
X170626075Y-81156319D02*
X170650486Y-81249156D01*
X170650486Y-81249156D02*
X170674086Y-81342203D01*
X170674086Y-81342203D02*
X170696873Y-81435451D01*
X170696873Y-81435451D02*
X170718845Y-81528896D01*
X170718845Y-81528896D02*
X170740001Y-81622528D01*
X170740001Y-81622528D02*
X170760339Y-81716342D01*
X170760339Y-81716342D02*
X170779858Y-81810329D01*
X170779858Y-81810329D02*
X170798556Y-81904483D01*
X170798556Y-81904483D02*
X170816431Y-81998797D01*
X170816431Y-81998797D02*
X170833483Y-82093263D01*
X170833483Y-82093263D02*
X170849710Y-82187875D01*
X170849710Y-82187875D02*
X170865110Y-82282624D01*
X170865110Y-82282624D02*
X170878524Y-82369749D01*
X170968226Y-83164527D02*
X170975099Y-83260273D01*
X170975099Y-83260273D02*
X170981137Y-83356076D01*
X170981137Y-83356076D02*
X170986338Y-83451928D01*
X170986338Y-83451928D02*
X170990702Y-83547821D01*
X170990702Y-83547821D02*
X170994230Y-83643749D01*
X170994230Y-83643749D02*
X170996920Y-83739704D01*
X170996920Y-83739704D02*
X170998773Y-83835679D01*
X170998773Y-83835679D02*
X170999788Y-83931667D01*
X170999788Y-83931667D02*
X170999965Y-84027659D01*
X170999965Y-84027659D02*
X170999305Y-84123650D01*
X170999305Y-84123650D02*
X170997807Y-84219631D01*
X170997807Y-84219631D02*
X170995472Y-84315595D01*
X170995472Y-84315595D02*
X170992299Y-84411536D01*
X170992299Y-84411536D02*
X170988289Y-84507445D01*
X170988289Y-84507445D02*
X170983443Y-84603315D01*
X170983443Y-84603315D02*
X170977760Y-84699139D01*
X170977760Y-84699139D02*
X170971240Y-84794911D01*
X170971240Y-84794911D02*
X170963886Y-84890621D01*
X170963886Y-84890621D02*
X170955696Y-84986264D01*
X170955696Y-84986264D02*
X170946673Y-85081832D01*
X170946673Y-85081832D02*
X170936815Y-85177317D01*
X170936815Y-85177317D02*
X170926125Y-85272713D01*
X170926125Y-85272713D02*
X170915575Y-85360231D01*
X170787881Y-86149795D02*
X170768710Y-86243854D01*
X170768710Y-86243854D02*
X170748719Y-86337742D01*
X170748719Y-86337742D02*
X170727909Y-86431452D01*
X170727909Y-86431452D02*
X170706283Y-86524977D01*
X170706283Y-86524977D02*
X170683841Y-86618310D01*
X170683841Y-86618310D02*
X170660585Y-86711443D01*
X170660585Y-86711443D02*
X170636518Y-86804370D01*
X170636518Y-86804370D02*
X170611640Y-86897083D01*
X170611640Y-86897083D02*
X170585955Y-86989575D01*
X170585955Y-86989575D02*
X170559463Y-87081840D01*
X170559463Y-87081840D02*
X170532167Y-87173871D01*
X170532167Y-87173871D02*
X170504069Y-87265659D01*
X170504069Y-87265659D02*
X170475171Y-87357199D01*
X170475171Y-87357199D02*
X170445476Y-87448483D01*
X170445476Y-87448483D02*
X170414985Y-87539504D01*
X170414985Y-87539504D02*
X170383701Y-87630256D01*
X170383701Y-87630256D02*
X170351626Y-87720732D01*
X170351626Y-87720732D02*
X170318762Y-87810924D01*
X170318762Y-87810924D02*
X170285113Y-87900826D01*
X170285113Y-87900826D02*
X170250681Y-87990431D01*
X170250681Y-87990431D02*
X170215468Y-88079732D01*
X170215468Y-88079732D02*
X170179477Y-88168722D01*
X170179477Y-88168722D02*
X170145743Y-88250164D01*
X169810093Y-88976150D02*
X169766295Y-89061569D01*
X169766295Y-89061569D02*
X169721753Y-89146602D01*
X169721753Y-89146602D02*
X169676471Y-89231243D01*
X169676471Y-89231243D02*
X169630452Y-89315486D01*
X169630452Y-89315486D02*
X169583699Y-89399324D01*
X169583699Y-89399324D02*
X169536217Y-89482751D01*
X169536217Y-89482751D02*
X169488009Y-89565761D01*
X169488009Y-89565761D02*
X169439078Y-89648346D01*
X169439078Y-89648346D02*
X169389428Y-89730502D01*
X169389428Y-89730502D02*
X169339063Y-89812221D01*
X169339063Y-89812221D02*
X169287987Y-89893497D01*
X169287987Y-89893497D02*
X169236203Y-89974324D01*
X169236203Y-89974324D02*
X169183716Y-90054697D01*
X169183716Y-90054697D02*
X169130530Y-90134609D01*
X169130530Y-90134609D02*
X169076648Y-90214053D01*
X169076648Y-90214053D02*
X169022076Y-90293024D01*
X169022076Y-90293024D02*
X168966816Y-90371516D01*
X168966816Y-90371516D02*
X168910873Y-90449522D01*
X168910873Y-90449522D02*
X168854252Y-90527038D01*
X168854252Y-90527038D02*
X168796956Y-90604056D01*
X168796956Y-90604056D02*
X168738991Y-90680572D01*
X168738991Y-90680572D02*
X168680360Y-90756578D01*
X168680360Y-90756578D02*
X168625936Y-90825923D01*
X168107140Y-91434667D02*
X168041953Y-91505131D01*
X168041953Y-91505131D02*
X167976153Y-91575024D01*
X167976153Y-91575024D02*
X167909745Y-91644340D01*
X167909745Y-91644340D02*
X167842736Y-91713073D01*
X167842736Y-91713073D02*
X167775129Y-91781219D01*
X167775129Y-91781219D02*
X167706929Y-91848773D01*
X167706929Y-91848773D02*
X167638143Y-91915729D01*
X167638143Y-91915729D02*
X167568776Y-91982082D01*
X167568776Y-91982082D02*
X167498831Y-92047827D01*
X167498831Y-92047827D02*
X167428316Y-92112960D01*
X167428316Y-92112960D02*
X167357235Y-92177474D01*
X167357235Y-92177474D02*
X167285594Y-92241366D01*
X167285594Y-92241366D02*
X167213398Y-92304630D01*
X167213398Y-92304630D02*
X167140653Y-92367262D01*
X167140653Y-92367262D02*
X167067364Y-92429257D01*
X167067364Y-92429257D02*
X166993537Y-92490609D01*
X166993537Y-92490609D02*
X166919177Y-92551315D01*
X166919177Y-92551315D02*
X166844290Y-92611370D01*
X166844290Y-92611370D02*
X166768882Y-92670769D01*
X166768882Y-92670769D02*
X166692958Y-92729508D01*
X166692958Y-92729508D02*
X166616525Y-92787582D01*
X166616525Y-92787582D02*
X166539588Y-92844987D01*
X166539588Y-92844987D02*
X166468497Y-92897109D01*
X165804906Y-93343611D02*
X165723147Y-93393912D01*
X165723147Y-93393912D02*
X165640953Y-93443498D01*
X165640953Y-93443498D02*
X165558329Y-93492364D01*
X165558329Y-93492364D02*
X165475282Y-93540508D01*
X165475282Y-93540508D02*
X165391818Y-93587925D01*
X165391818Y-93587925D02*
X165307943Y-93634611D01*
X165307943Y-93634611D02*
X165223664Y-93680565D01*
X165223664Y-93680565D02*
X165138988Y-93725780D01*
X165138988Y-93725780D02*
X165053920Y-93770256D01*
X165053920Y-93770256D02*
X164968467Y-93813987D01*
X164968467Y-93813987D02*
X164882635Y-93856971D01*
X164882635Y-93856971D02*
X164796432Y-93899204D01*
X164796432Y-93899204D02*
X164709864Y-93940683D01*
X164709864Y-93940683D02*
X164622937Y-93981405D01*
X164622937Y-93981405D02*
X164535658Y-94021368D01*
X164535658Y-94021368D02*
X164448033Y-94060567D01*
X164448033Y-94060567D02*
X164360070Y-94098999D01*
X164360070Y-94098999D02*
X164271775Y-94136663D01*
X164271775Y-94136663D02*
X164183154Y-94173555D01*
X164183154Y-94173555D02*
X164094215Y-94209672D01*
X164094215Y-94209672D02*
X164004964Y-94245012D01*
X164004964Y-94245012D02*
X163915408Y-94279571D01*
X163915408Y-94279571D02*
X163832905Y-94310618D01*
X163073570Y-94561873D02*
X162981285Y-94588293D01*
X162981285Y-94588293D02*
X162888772Y-94613906D01*
X162888772Y-94613906D02*
X162796040Y-94638711D01*
X162796040Y-94638711D02*
X162703094Y-94662705D01*
X162703094Y-94662705D02*
X162609943Y-94685888D01*
X162609943Y-94685888D02*
X162516593Y-94708257D01*
X162516593Y-94708257D02*
X162423051Y-94729810D01*
X162423051Y-94729810D02*
X162329324Y-94750546D01*
X162329324Y-94750546D02*
X162235421Y-94770464D01*
X162235421Y-94770464D02*
X162141347Y-94789561D01*
X162141347Y-94789561D02*
X162047110Y-94807837D01*
X162047110Y-94807837D02*
X161952717Y-94825290D01*
X161952717Y-94825290D02*
X161858175Y-94841918D01*
X161858175Y-94841918D02*
X161763492Y-94857721D01*
X161763492Y-94857721D02*
X161668675Y-94872696D01*
X161668675Y-94872696D02*
X161573730Y-94886844D01*
X161573730Y-94886844D02*
X161478666Y-94900163D01*
X161478666Y-94900163D02*
X161383489Y-94912651D01*
X161383489Y-94912651D02*
X161288206Y-94924309D01*
X161288206Y-94924309D02*
X161192826Y-94935134D01*
X161192826Y-94935134D02*
X161097355Y-94945127D01*
X161097355Y-94945127D02*
X161001800Y-94954287D01*
X161001800Y-94954287D02*
X160913983Y-94961963D01*
X160115036Y-94999398D02*
X160019045Y-94999984D01*
X160019045Y-94999984D02*
X160000000Y-95000000D01*
D12*
X157905000Y-126330000D02*
X157905000Y-123670000D01*
X160505000Y-123670000D02*
X157905000Y-123670000D01*
X160505000Y-126330000D02*
X157905000Y-126330000D01*
X160505000Y-126330000D02*
X160505000Y-123670000D01*
X161775000Y-126330000D02*
X163105000Y-126330000D01*
X163105000Y-126330000D02*
X163105000Y-125000000D01*
D13*
X135000000Y-56500000D02*
X134999581Y-56595992D01*
X134999581Y-56595992D02*
X134998325Y-56691976D01*
X134998325Y-56691976D02*
X134996231Y-56787946D01*
X134996231Y-56787946D02*
X134993299Y-56883894D01*
X134993299Y-56883894D02*
X134989530Y-56979813D01*
X134989530Y-56979813D02*
X134984925Y-57075696D01*
X134984925Y-57075696D02*
X134979483Y-57171534D01*
X134979483Y-57171534D02*
X134973205Y-57267321D01*
X134973205Y-57267321D02*
X134966091Y-57363050D01*
X134966091Y-57363050D02*
X134958142Y-57458713D01*
X134958142Y-57458713D02*
X134949358Y-57554303D01*
X134949358Y-57554303D02*
X134939741Y-57649813D01*
X134939741Y-57649813D02*
X134929290Y-57745235D01*
X134929290Y-57745235D02*
X134918008Y-57840563D01*
X134918008Y-57840563D02*
X134905893Y-57935788D01*
X134905893Y-57935788D02*
X134892949Y-58030904D01*
X134892949Y-58030904D02*
X134879174Y-58125904D01*
X134879174Y-58125904D02*
X134864572Y-58220779D01*
X134864572Y-58220779D02*
X134849142Y-58315524D01*
X134849142Y-58315524D02*
X134832885Y-58410130D01*
X134832885Y-58410130D02*
X134815804Y-58504591D01*
X134815804Y-58504591D02*
X134797899Y-58598899D01*
X134797899Y-58598899D02*
X134780732Y-58685363D01*
X134593438Y-59462948D02*
X134567179Y-59555279D01*
X134567179Y-59555279D02*
X134540114Y-59647378D01*
X134540114Y-59647378D02*
X134512247Y-59739237D01*
X134512247Y-59739237D02*
X134483580Y-59830849D01*
X134483580Y-59830849D02*
X134454114Y-59922207D01*
X134454114Y-59922207D02*
X134423852Y-60013305D01*
X134423852Y-60013305D02*
X134392796Y-60104135D01*
X134392796Y-60104135D02*
X134360949Y-60194691D01*
X134360949Y-60194691D02*
X134328312Y-60284966D01*
X134328312Y-60284966D02*
X134294889Y-60374952D01*
X134294889Y-60374952D02*
X134260682Y-60464643D01*
X134260682Y-60464643D02*
X134225694Y-60554032D01*
X134225694Y-60554032D02*
X134189927Y-60643113D01*
X134189927Y-60643113D02*
X134153384Y-60731878D01*
X134153384Y-60731878D02*
X134116068Y-60820321D01*
X134116068Y-60820321D02*
X134077981Y-60908434D01*
X134077981Y-60908434D02*
X134039127Y-60996212D01*
X134039127Y-60996212D02*
X133999509Y-61083648D01*
X133999509Y-61083648D02*
X133959128Y-61170735D01*
X133959128Y-61170735D02*
X133917990Y-61257465D01*
X133917990Y-61257465D02*
X133876096Y-61343834D01*
X133876096Y-61343834D02*
X133833450Y-61429834D01*
X133833450Y-61429834D02*
X133793628Y-61508478D01*
X133403807Y-62206874D02*
X133353648Y-62288719D01*
X133353648Y-62288719D02*
X133302776Y-62370124D01*
X133302776Y-62370124D02*
X133251196Y-62451081D01*
X133251196Y-62451081D02*
X133198912Y-62531586D01*
X133198912Y-62531586D02*
X133145926Y-62611631D01*
X133145926Y-62611631D02*
X133092245Y-62691210D01*
X133092245Y-62691210D02*
X133037871Y-62770318D01*
X133037871Y-62770318D02*
X132982809Y-62848949D01*
X132982809Y-62848949D02*
X132927062Y-62927096D01*
X132927062Y-62927096D02*
X132870636Y-63004753D01*
X132870636Y-63004753D02*
X132813534Y-63081916D01*
X132813534Y-63081916D02*
X132755761Y-63158577D01*
X132755761Y-63158577D02*
X132697322Y-63234731D01*
X132697322Y-63234731D02*
X132638220Y-63310372D01*
X132638220Y-63310372D02*
X132578460Y-63385494D01*
X132578460Y-63385494D02*
X132518047Y-63460092D01*
X132518047Y-63460092D02*
X132456985Y-63534160D01*
X132456985Y-63534160D02*
X132395279Y-63607692D01*
X132395279Y-63607692D02*
X132332934Y-63680684D01*
X132332934Y-63680684D02*
X132269954Y-63753128D01*
X132269954Y-63753128D02*
X132206344Y-63825020D01*
X132206344Y-63825020D02*
X132142110Y-63896354D01*
X132142110Y-63896354D02*
X132082576Y-63961365D01*
X131519044Y-64528946D02*
X131448693Y-64594256D01*
X131448693Y-64594256D02*
X131377774Y-64658949D01*
X131377774Y-64658949D02*
X131306294Y-64723021D01*
X131306294Y-64723021D02*
X131234257Y-64786466D01*
X131234257Y-64786466D02*
X131161670Y-64849281D01*
X131161670Y-64849281D02*
X131088537Y-64911459D01*
X131088537Y-64911459D02*
X131014864Y-64972997D01*
X131014864Y-64972997D02*
X130940657Y-65033890D01*
X130940657Y-65033890D02*
X130865921Y-65094133D01*
X130865921Y-65094133D02*
X130790663Y-65153722D01*
X130790663Y-65153722D02*
X130714887Y-65212651D01*
X130714887Y-65212651D02*
X130638600Y-65270917D01*
X130638600Y-65270917D02*
X130561808Y-65328515D01*
X130561808Y-65328515D02*
X130484516Y-65385441D01*
X130484516Y-65385441D02*
X130406730Y-65441690D01*
X130406730Y-65441690D02*
X130328456Y-65497258D01*
X130328456Y-65497258D02*
X130249700Y-65552141D01*
X130249700Y-65552141D02*
X130170468Y-65606334D01*
X130170468Y-65606334D02*
X130090766Y-65659834D01*
X130090766Y-65659834D02*
X130010601Y-65712637D01*
X130010601Y-65712637D02*
X129929977Y-65764738D01*
X129929977Y-65764738D02*
X129848903Y-65816133D01*
X129848903Y-65816133D02*
X129774058Y-65862705D01*
X129078471Y-66257517D02*
X128993128Y-66301463D01*
X128993128Y-66301463D02*
X128907405Y-66344662D01*
X128907405Y-66344662D02*
X128821308Y-66387112D01*
X128821308Y-66387112D02*
X128734845Y-66428809D01*
X128734845Y-66428809D02*
X128648020Y-66469750D01*
X128648020Y-66469750D02*
X128560842Y-66509931D01*
X128560842Y-66509931D02*
X128473316Y-66549350D01*
X128473316Y-66549350D02*
X128385450Y-66588004D01*
X128385450Y-66588004D02*
X128297249Y-66625890D01*
X128297249Y-66625890D02*
X128208722Y-66663004D01*
X128208722Y-66663004D02*
X128119874Y-66699345D01*
X128119874Y-66699345D02*
X128030712Y-66734909D01*
X128030712Y-66734909D02*
X127941243Y-66769693D01*
X127941243Y-66769693D02*
X127851474Y-66803696D01*
X127851474Y-66803696D02*
X127761412Y-66836913D01*
X127761412Y-66836913D02*
X127671063Y-66869344D01*
X127671063Y-66869344D02*
X127580435Y-66900985D01*
X127580435Y-66900985D02*
X127489534Y-66931833D01*
X127489534Y-66931833D02*
X127398368Y-66961888D01*
X127398368Y-66961888D02*
X127306942Y-66991145D01*
X127306942Y-66991145D02*
X127215265Y-67019604D01*
X127215265Y-67019604D02*
X127123343Y-67047262D01*
X127123343Y-67047262D02*
X127038720Y-67071953D01*
X126262496Y-67264809D02*
X126168470Y-67284143D01*
X126168470Y-67284143D02*
X126074279Y-67302655D01*
X126074279Y-67302655D02*
X125979930Y-67320345D01*
X125979930Y-67320345D02*
X125885431Y-67337211D01*
X125885431Y-67337211D02*
X125790788Y-67353252D01*
X125790788Y-67353252D02*
X125696008Y-67368466D01*
X125696008Y-67368466D02*
X125601100Y-67382853D01*
X125601100Y-67382853D02*
X125506069Y-67396410D01*
X125506069Y-67396410D02*
X125410924Y-67409138D01*
X125410924Y-67409138D02*
X125315671Y-67421035D01*
X125315671Y-67421035D02*
X125220318Y-67432101D01*
X125220318Y-67432101D02*
X125124872Y-67442333D01*
X125124872Y-67442333D02*
X125029341Y-67451733D01*
X125029341Y-67451733D02*
X124933731Y-67460299D01*
X124933731Y-67460299D02*
X124838050Y-67468030D01*
X124838050Y-67468030D02*
X124742305Y-67474925D01*
X124742305Y-67474925D02*
X124646504Y-67480985D01*
X124646504Y-67480985D02*
X124550653Y-67486209D01*
X124550653Y-67486209D02*
X124454761Y-67490596D01*
X124454761Y-67490596D02*
X124358834Y-67494146D01*
X124358834Y-67494146D02*
X124262879Y-67496858D01*
X124262879Y-67496858D02*
X124166905Y-67498734D01*
X124166905Y-67498734D02*
X124078759Y-67499718D01*
X123279276Y-67476364D02*
X123183518Y-67469656D01*
X123183518Y-67469656D02*
X123087822Y-67462113D01*
X123087822Y-67462113D02*
X122992196Y-67453736D01*
X122992196Y-67453736D02*
X122896646Y-67444524D01*
X122896646Y-67444524D02*
X122801180Y-67434479D01*
X122801180Y-67434479D02*
X122705806Y-67423601D01*
X122705806Y-67423601D02*
X122610530Y-67411891D01*
X122610530Y-67411891D02*
X122515359Y-67399351D01*
X122515359Y-67399351D02*
X122420302Y-67385980D01*
X122420302Y-67385980D02*
X122325366Y-67371780D01*
X122325366Y-67371780D02*
X122230557Y-67356752D01*
X122230557Y-67356752D02*
X122135882Y-67340898D01*
X122135882Y-67340898D02*
X122041350Y-67324218D01*
X122041350Y-67324218D02*
X121946966Y-67306713D01*
X121946966Y-67306713D02*
X121852739Y-67288386D01*
X121852739Y-67288386D02*
X121758676Y-67269237D01*
X121758676Y-67269237D02*
X121664783Y-67249268D01*
X121664783Y-67249268D02*
X121571068Y-67228480D01*
X121571068Y-67228480D02*
X121477538Y-67206876D01*
X121477538Y-67206876D02*
X121384200Y-67184456D01*
X121384200Y-67184456D02*
X121291061Y-67161222D01*
X121291061Y-67161222D02*
X121198129Y-67137176D01*
X121198129Y-67137176D02*
X121112976Y-67114381D01*
X120349333Y-66876542D02*
X120258921Y-66844290D01*
X120258921Y-66844290D02*
X120168793Y-66811249D01*
X120168793Y-66811249D02*
X120078958Y-66777423D01*
X120078958Y-66777423D02*
X119989421Y-66742815D01*
X119989421Y-66742815D02*
X119900189Y-66707426D01*
X119900189Y-66707426D02*
X119811270Y-66671260D01*
X119811270Y-66671260D02*
X119722669Y-66634320D01*
X119722669Y-66634320D02*
X119634395Y-66596608D01*
X119634395Y-66596608D02*
X119546453Y-66558127D01*
X119546453Y-66558127D02*
X119458850Y-66518880D01*
X119458850Y-66518880D02*
X119371592Y-66478870D01*
X119371592Y-66478870D02*
X119284688Y-66438100D01*
X119284688Y-66438100D02*
X119198142Y-66396573D01*
X119198142Y-66396573D02*
X119111962Y-66354293D01*
X119111962Y-66354293D02*
X119026154Y-66311262D01*
X119026154Y-66311262D02*
X118940725Y-66267484D01*
X118940725Y-66267484D02*
X118855682Y-66222962D01*
X118855682Y-66222962D02*
X118771030Y-66177700D01*
X118771030Y-66177700D02*
X118686776Y-66131700D01*
X118686776Y-66131700D02*
X118602927Y-66084968D01*
X118602927Y-66084968D02*
X118519489Y-66037505D01*
X118519489Y-66037505D02*
X118436468Y-65989316D01*
X118436468Y-65989316D02*
X118360603Y-65944427D01*
X117689248Y-65509684D02*
X117610865Y-65454270D01*
X117610865Y-65454270D02*
X117532969Y-65398174D01*
X117532969Y-65398174D02*
X117455565Y-65341401D01*
X117455565Y-65341401D02*
X117378659Y-65283954D01*
X117378659Y-65283954D02*
X117302258Y-65225838D01*
X117302258Y-65225838D02*
X117226366Y-65167058D01*
X117226366Y-65167058D02*
X117150991Y-65107617D01*
X117150991Y-65107617D02*
X117076137Y-65047521D01*
X117076137Y-65047521D02*
X117001810Y-64986774D01*
X117001810Y-64986774D02*
X116928017Y-64925381D01*
X116928017Y-64925381D02*
X116854762Y-64863347D01*
X116854762Y-64863347D02*
X116782051Y-64800675D01*
X116782051Y-64800675D02*
X116709889Y-64737371D01*
X116709889Y-64737371D02*
X116638283Y-64673440D01*
X116638283Y-64673440D02*
X116567238Y-64608887D01*
X116567238Y-64608887D02*
X116496758Y-64543716D01*
X116496758Y-64543716D02*
X116426850Y-64477932D01*
X116426850Y-64477932D02*
X116357519Y-64411541D01*
X116357519Y-64411541D02*
X116288769Y-64344547D01*
X116288769Y-64344547D02*
X116220607Y-64276956D01*
X116220607Y-64276956D02*
X116153038Y-64208773D01*
X116153038Y-64208773D02*
X116086066Y-64140003D01*
X116086066Y-64140003D02*
X116025095Y-64076338D01*
X115495656Y-63476828D02*
X115435096Y-63402349D01*
X115435096Y-63402349D02*
X115375188Y-63327344D01*
X115375188Y-63327344D02*
X115315938Y-63251819D01*
X115315938Y-63251819D02*
X115257348Y-63175780D01*
X115257348Y-63175780D02*
X115199425Y-63099233D01*
X115199425Y-63099233D02*
X115142172Y-63022183D01*
X115142172Y-63022183D02*
X115085593Y-62944637D01*
X115085593Y-62944637D02*
X115029693Y-62866600D01*
X115029693Y-62866600D02*
X114974476Y-62788077D01*
X114974476Y-62788077D02*
X114919947Y-62709076D01*
X114919947Y-62709076D02*
X114866109Y-62629603D01*
X114866109Y-62629603D02*
X114812966Y-62549662D01*
X114812966Y-62549662D02*
X114760523Y-62469261D01*
X114760523Y-62469261D02*
X114708784Y-62388405D01*
X114708784Y-62388405D02*
X114657753Y-62307100D01*
X114657753Y-62307100D02*
X114607433Y-62225354D01*
X114607433Y-62225354D02*
X114557828Y-62143171D01*
X114557828Y-62143171D02*
X114508942Y-62060559D01*
X114508942Y-62060559D02*
X114460779Y-61977523D01*
X114460779Y-61977523D02*
X114413342Y-61894070D01*
X114413342Y-61894070D02*
X114366636Y-61810207D01*
X114366636Y-61810207D02*
X114320663Y-61725938D01*
X114320663Y-61725938D02*
X114279095Y-61648203D01*
X113930707Y-60928242D02*
X113892447Y-60840204D01*
X113892447Y-60840204D02*
X113854957Y-60751835D01*
X113854957Y-60751835D02*
X113818239Y-60663142D01*
X113818239Y-60663142D02*
X113782297Y-60574132D01*
X113782297Y-60574132D02*
X113747133Y-60484811D01*
X113747133Y-60484811D02*
X113712750Y-60395188D01*
X113712750Y-60395188D02*
X113679150Y-60305267D01*
X113679150Y-60305267D02*
X113646336Y-60215057D01*
X113646336Y-60215057D02*
X113614311Y-60124564D01*
X113614311Y-60124564D02*
X113583077Y-60033795D01*
X113583077Y-60033795D02*
X113552635Y-59942757D01*
X113552635Y-59942757D02*
X113522990Y-59851456D01*
X113522990Y-59851456D02*
X113494142Y-59759901D01*
X113494142Y-59759901D02*
X113466095Y-59668097D01*
X113466095Y-59668097D02*
X113438849Y-59576052D01*
X113438849Y-59576052D02*
X113412408Y-59483772D01*
X113412408Y-59483772D02*
X113386773Y-59391266D01*
X113386773Y-59391266D02*
X113361947Y-59298539D01*
X113361947Y-59298539D02*
X113337930Y-59205599D01*
X113337930Y-59205599D02*
X113314726Y-59112453D01*
X113314726Y-59112453D02*
X113292335Y-59019108D01*
X113292335Y-59019108D02*
X113270759Y-58925571D01*
X113270759Y-58925571D02*
X113251666Y-58839513D01*
X113110083Y-58052320D02*
X113096951Y-57957230D01*
X113096951Y-57957230D02*
X113084649Y-57862028D01*
X113084649Y-57862028D02*
X113073179Y-57766723D01*
X113073179Y-57766723D02*
X113062541Y-57671322D01*
X113062541Y-57671322D02*
X113052736Y-57575831D01*
X113052736Y-57575831D02*
X113043765Y-57480258D01*
X113043765Y-57480258D02*
X113035628Y-57384611D01*
X113035628Y-57384611D02*
X113028325Y-57288896D01*
X113028325Y-57288896D02*
X113021859Y-57193122D01*
X113021859Y-57193122D02*
X113016228Y-57097294D01*
X113016228Y-57097294D02*
X113011434Y-57001421D01*
X113011434Y-57001421D02*
X113007477Y-56905510D01*
X113007477Y-56905510D02*
X113004357Y-56809568D01*
X113004357Y-56809568D02*
X113002074Y-56713602D01*
X113002074Y-56713602D02*
X113000629Y-56617620D01*
X113000629Y-56617620D02*
X113000021Y-56521629D01*
X113000021Y-56521629D02*
X113000251Y-56425637D01*
X113000251Y-56425637D02*
X113001319Y-56329650D01*
X113001319Y-56329650D02*
X113003224Y-56233676D01*
X113003224Y-56233676D02*
X113005967Y-56137723D01*
X113005967Y-56137723D02*
X113009547Y-56041797D01*
X113009547Y-56041797D02*
X113013964Y-55945905D01*
X113013964Y-55945905D02*
X113018757Y-55857884D01*
X113094444Y-55061650D02*
X113107411Y-54966537D01*
X113107411Y-54966537D02*
X113121208Y-54871541D01*
X113121208Y-54871541D02*
X113135833Y-54776669D01*
X113135833Y-54776669D02*
X113151285Y-54681928D01*
X113151285Y-54681928D02*
X113167564Y-54587325D01*
X113167564Y-54587325D02*
X113184667Y-54492868D01*
X113184667Y-54492868D02*
X113202594Y-54398564D01*
X113202594Y-54398564D02*
X113221344Y-54304420D01*
X113221344Y-54304420D02*
X113240914Y-54210444D01*
X113240914Y-54210444D02*
X113261304Y-54116641D01*
X113261304Y-54116641D02*
X113282511Y-54023021D01*
X113282511Y-54023021D02*
X113304534Y-53929588D01*
X113304534Y-53929588D02*
X113327372Y-53836352D01*
X113327372Y-53836352D02*
X113351023Y-53743318D01*
X113351023Y-53743318D02*
X113375485Y-53650494D01*
X113375485Y-53650494D02*
X113400756Y-53557888D01*
X113400756Y-53557888D02*
X113426834Y-53465505D01*
X113426834Y-53465505D02*
X113453717Y-53373354D01*
X113453717Y-53373354D02*
X113481404Y-53281440D01*
X113481404Y-53281440D02*
X113509891Y-53189772D01*
X113509891Y-53189772D02*
X113539177Y-53098355D01*
X113539177Y-53098355D02*
X113569260Y-53007198D01*
X113569260Y-53007198D02*
X113597585Y-52923722D01*
X113884947Y-52177303D02*
X113923055Y-52089198D01*
X113923055Y-52089198D02*
X113961929Y-52001429D01*
X113961929Y-52001429D02*
X114001569Y-51914003D01*
X114001569Y-51914003D02*
X114041969Y-51826926D01*
X114041969Y-51826926D02*
X114083128Y-51740205D01*
X114083128Y-51740205D02*
X114125042Y-51653846D01*
X114125042Y-51653846D02*
X114167708Y-51567856D01*
X114167708Y-51567856D02*
X114211123Y-51482242D01*
X114211123Y-51482242D02*
X114255284Y-51397010D01*
X114255284Y-51397010D02*
X114300186Y-51312167D01*
X114300186Y-51312167D02*
X114345827Y-51227719D01*
X114345827Y-51227719D02*
X114392204Y-51143672D01*
X114392204Y-51143672D02*
X114439312Y-51060033D01*
X114439312Y-51060033D02*
X114487148Y-50976809D01*
X114487148Y-50976809D02*
X114535708Y-50894005D01*
X114535708Y-50894005D02*
X114584990Y-50811628D01*
X114584990Y-50811628D02*
X114634988Y-50729684D01*
X114634988Y-50729684D02*
X114685699Y-50648180D01*
X114685699Y-50648180D02*
X114737120Y-50567121D01*
X114737120Y-50567121D02*
X114789246Y-50486514D01*
X114789246Y-50486514D02*
X114842074Y-50406365D01*
X114842074Y-50406365D02*
X114895599Y-50326680D01*
X114895599Y-50326680D02*
X114945362Y-50253918D01*
X115423158Y-49612491D02*
X115483589Y-49537907D01*
X115483589Y-49537907D02*
X115544668Y-49463853D01*
X115544668Y-49463853D02*
X115606391Y-49390335D01*
X115606391Y-49390335D02*
X115668753Y-49317359D01*
X115668753Y-49317359D02*
X115731750Y-49244930D01*
X115731750Y-49244930D02*
X115795377Y-49173053D01*
X115795377Y-49173053D02*
X115859628Y-49101734D01*
X115859628Y-49101734D02*
X115924499Y-49030978D01*
X115924499Y-49030978D02*
X115989985Y-48960791D01*
X115989985Y-48960791D02*
X116056082Y-48891179D01*
X116056082Y-48891179D02*
X116122783Y-48822146D01*
X116122783Y-48822146D02*
X116190084Y-48753697D01*
X116190084Y-48753697D02*
X116257979Y-48685839D01*
X116257979Y-48685839D02*
X116326465Y-48618575D01*
X116326465Y-48618575D02*
X116395535Y-48551912D01*
X116395535Y-48551912D02*
X116465183Y-48485854D01*
X116465183Y-48485854D02*
X116535406Y-48420406D01*
X116535406Y-48420406D02*
X116606197Y-48355574D01*
X116606197Y-48355574D02*
X116677551Y-48291362D01*
X116677551Y-48291362D02*
X116749463Y-48227775D01*
X116749463Y-48227775D02*
X116821927Y-48164817D01*
X116821927Y-48164817D02*
X116894938Y-48102495D01*
X116894938Y-48102495D02*
X116962461Y-48045827D01*
X117595371Y-47556805D02*
X117673658Y-47501256D01*
X117673658Y-47501256D02*
X117752427Y-47446391D01*
X117752427Y-47446391D02*
X117831672Y-47392216D01*
X117831672Y-47392216D02*
X117911386Y-47338735D01*
X117911386Y-47338735D02*
X117991564Y-47285951D01*
X117991564Y-47285951D02*
X118072199Y-47233869D01*
X118072199Y-47233869D02*
X118153286Y-47182493D01*
X118153286Y-47182493D02*
X118234818Y-47131826D01*
X118234818Y-47131826D02*
X118316790Y-47081873D01*
X118316790Y-47081873D02*
X118399194Y-47032637D01*
X118399194Y-47032637D02*
X118482024Y-46984122D01*
X118482024Y-46984122D02*
X118565275Y-46936331D01*
X118565275Y-46936331D02*
X118648940Y-46889269D01*
X118648940Y-46889269D02*
X118733012Y-46842939D01*
X118733012Y-46842939D02*
X118817485Y-46797344D01*
X118817485Y-46797344D02*
X118902353Y-46752488D01*
X118902353Y-46752488D02*
X118987609Y-46708374D01*
X118987609Y-46708374D02*
X119073247Y-46665006D01*
X119073247Y-46665006D02*
X119159260Y-46622387D01*
X119159260Y-46622387D02*
X119245641Y-46580520D01*
X119245641Y-46580520D02*
X119332385Y-46539409D01*
X119332385Y-46539409D02*
X119419484Y-46499056D01*
X119419484Y-46499056D02*
X119499776Y-46462670D01*
X120241016Y-46162203D02*
X120331373Y-46129794D01*
X120331373Y-46129794D02*
X120422008Y-46098174D01*
X120422008Y-46098174D02*
X120512916Y-46067347D01*
X120512916Y-46067347D02*
X120604090Y-46037314D01*
X120604090Y-46037314D02*
X120695522Y-46008078D01*
X120695522Y-46008078D02*
X120787206Y-45979641D01*
X120787206Y-45979641D02*
X120879135Y-45952005D01*
X120879135Y-45952005D02*
X120971301Y-45925172D01*
X120971301Y-45925172D02*
X121063698Y-45899145D01*
X121063698Y-45899145D02*
X121156319Y-45873925D01*
X121156319Y-45873925D02*
X121249156Y-45849514D01*
X121249156Y-45849514D02*
X121342203Y-45825914D01*
X121342203Y-45825914D02*
X121435451Y-45803127D01*
X121435451Y-45803127D02*
X121528896Y-45781155D01*
X121528896Y-45781155D02*
X121622528Y-45759999D01*
X121622528Y-45759999D02*
X121716342Y-45739661D01*
X121716342Y-45739661D02*
X121810329Y-45720142D01*
X121810329Y-45720142D02*
X121904483Y-45701444D01*
X121904483Y-45701444D02*
X121998797Y-45683569D01*
X121998797Y-45683569D02*
X122093263Y-45666517D01*
X122093263Y-45666517D02*
X122187875Y-45650290D01*
X122187875Y-45650290D02*
X122282624Y-45634890D01*
X122282624Y-45634890D02*
X122369749Y-45621476D01*
X123164527Y-45531774D02*
X123260273Y-45524901D01*
X123260273Y-45524901D02*
X123356076Y-45518863D01*
X123356076Y-45518863D02*
X123451928Y-45513662D01*
X123451928Y-45513662D02*
X123547821Y-45509298D01*
X123547821Y-45509298D02*
X123643749Y-45505770D01*
X123643749Y-45505770D02*
X123739704Y-45503080D01*
X123739704Y-45503080D02*
X123835679Y-45501227D01*
X123835679Y-45501227D02*
X123931667Y-45500212D01*
X123931667Y-45500212D02*
X124027659Y-45500035D01*
X124027659Y-45500035D02*
X124123650Y-45500695D01*
X124123650Y-45500695D02*
X124219631Y-45502193D01*
X124219631Y-45502193D02*
X124315595Y-45504528D01*
X124315595Y-45504528D02*
X124411536Y-45507701D01*
X124411536Y-45507701D02*
X124507445Y-45511711D01*
X124507445Y-45511711D02*
X124603315Y-45516557D01*
X124603315Y-45516557D02*
X124699139Y-45522240D01*
X124699139Y-45522240D02*
X124794911Y-45528760D01*
X124794911Y-45528760D02*
X124890621Y-45536114D01*
X124890621Y-45536114D02*
X124986264Y-45544304D01*
X124986264Y-45544304D02*
X125081832Y-45553327D01*
X125081832Y-45553327D02*
X125177317Y-45563185D01*
X125177317Y-45563185D02*
X125272713Y-45573875D01*
X125272713Y-45573875D02*
X125360231Y-45584425D01*
X126149795Y-45712119D02*
X126243854Y-45731290D01*
X126243854Y-45731290D02*
X126337742Y-45751281D01*
X126337742Y-45751281D02*
X126431452Y-45772091D01*
X126431452Y-45772091D02*
X126524977Y-45793717D01*
X126524977Y-45793717D02*
X126618310Y-45816159D01*
X126618310Y-45816159D02*
X126711443Y-45839415D01*
X126711443Y-45839415D02*
X126804370Y-45863482D01*
X126804370Y-45863482D02*
X126897083Y-45888360D01*
X126897083Y-45888360D02*
X126989575Y-45914045D01*
X126989575Y-45914045D02*
X127081840Y-45940537D01*
X127081840Y-45940537D02*
X127173871Y-45967833D01*
X127173871Y-45967833D02*
X127265659Y-45995931D01*
X127265659Y-45995931D02*
X127357199Y-46024829D01*
X127357199Y-46024829D02*
X127448483Y-46054524D01*
X127448483Y-46054524D02*
X127539504Y-46085015D01*
X127539504Y-46085015D02*
X127630256Y-46116299D01*
X127630256Y-46116299D02*
X127720732Y-46148374D01*
X127720732Y-46148374D02*
X127810924Y-46181238D01*
X127810924Y-46181238D02*
X127900826Y-46214887D01*
X127900826Y-46214887D02*
X127990431Y-46249319D01*
X127990431Y-46249319D02*
X128079732Y-46284532D01*
X128079732Y-46284532D02*
X128168722Y-46320523D01*
X128168722Y-46320523D02*
X128250164Y-46354257D01*
X128976150Y-46689907D02*
X129061569Y-46733705D01*
X129061569Y-46733705D02*
X129146602Y-46778247D01*
X129146602Y-46778247D02*
X129231243Y-46823529D01*
X129231243Y-46823529D02*
X129315486Y-46869548D01*
X129315486Y-46869548D02*
X129399324Y-46916301D01*
X129399324Y-46916301D02*
X129482751Y-46963783D01*
X129482751Y-46963783D02*
X129565761Y-47011991D01*
X129565761Y-47011991D02*
X129648346Y-47060922D01*
X129648346Y-47060922D02*
X129730502Y-47110572D01*
X129730502Y-47110572D02*
X129812221Y-47160937D01*
X129812221Y-47160937D02*
X129893497Y-47212013D01*
X129893497Y-47212013D02*
X129974324Y-47263797D01*
X129974324Y-47263797D02*
X130054697Y-47316284D01*
X130054697Y-47316284D02*
X130134609Y-47369470D01*
X130134609Y-47369470D02*
X130214053Y-47423352D01*
X130214053Y-47423352D02*
X130293024Y-47477924D01*
X130293024Y-47477924D02*
X130371516Y-47533184D01*
X130371516Y-47533184D02*
X130449522Y-47589127D01*
X130449522Y-47589127D02*
X130527038Y-47645748D01*
X130527038Y-47645748D02*
X130604056Y-47703044D01*
X130604056Y-47703044D02*
X130680572Y-47761009D01*
X130680572Y-47761009D02*
X130756578Y-47819640D01*
X130756578Y-47819640D02*
X130825923Y-47874064D01*
X131434667Y-48392860D02*
X131505131Y-48458047D01*
X131505131Y-48458047D02*
X131575024Y-48523847D01*
X131575024Y-48523847D02*
X131644340Y-48590255D01*
X131644340Y-48590255D02*
X131713073Y-48657264D01*
X131713073Y-48657264D02*
X131781219Y-48724871D01*
X131781219Y-48724871D02*
X131848773Y-48793071D01*
X131848773Y-48793071D02*
X131915729Y-48861857D01*
X131915729Y-48861857D02*
X131982082Y-48931224D01*
X131982082Y-48931224D02*
X132047827Y-49001169D01*
X132047827Y-49001169D02*
X132112960Y-49071684D01*
X132112960Y-49071684D02*
X132177474Y-49142765D01*
X132177474Y-49142765D02*
X132241366Y-49214406D01*
X132241366Y-49214406D02*
X132304630Y-49286602D01*
X132304630Y-49286602D02*
X132367262Y-49359347D01*
X132367262Y-49359347D02*
X132429257Y-49432636D01*
X132429257Y-49432636D02*
X132490609Y-49506463D01*
X132490609Y-49506463D02*
X132551315Y-49580823D01*
X132551315Y-49580823D02*
X132611370Y-49655710D01*
X132611370Y-49655710D02*
X132670769Y-49731118D01*
X132670769Y-49731118D02*
X132729508Y-49807042D01*
X132729508Y-49807042D02*
X132787582Y-49883475D01*
X132787582Y-49883475D02*
X132844987Y-49960412D01*
X132844987Y-49960412D02*
X132897109Y-50031503D01*
X133343611Y-50695094D02*
X133393912Y-50776853D01*
X133393912Y-50776853D02*
X133443498Y-50859047D01*
X133443498Y-50859047D02*
X133492364Y-50941671D01*
X133492364Y-50941671D02*
X133540508Y-51024718D01*
X133540508Y-51024718D02*
X133587925Y-51108182D01*
X133587925Y-51108182D02*
X133634611Y-51192057D01*
X133634611Y-51192057D02*
X133680565Y-51276336D01*
X133680565Y-51276336D02*
X133725780Y-51361012D01*
X133725780Y-51361012D02*
X133770256Y-51446080D01*
X133770256Y-51446080D02*
X133813987Y-51531533D01*
X133813987Y-51531533D02*
X133856971Y-51617365D01*
X133856971Y-51617365D02*
X133899204Y-51703568D01*
X133899204Y-51703568D02*
X133940683Y-51790136D01*
X133940683Y-51790136D02*
X133981405Y-51877063D01*
X133981405Y-51877063D02*
X134021368Y-51964342D01*
X134021368Y-51964342D02*
X134060567Y-52051967D01*
X134060567Y-52051967D02*
X134098999Y-52139930D01*
X134098999Y-52139930D02*
X134136663Y-52228225D01*
X134136663Y-52228225D02*
X134173555Y-52316846D01*
X134173555Y-52316846D02*
X134209672Y-52405785D01*
X134209672Y-52405785D02*
X134245012Y-52495036D01*
X134245012Y-52495036D02*
X134279571Y-52584592D01*
X134279571Y-52584592D02*
X134310618Y-52667095D01*
X134561873Y-53426430D02*
X134588293Y-53518715D01*
X134588293Y-53518715D02*
X134613906Y-53611228D01*
X134613906Y-53611228D02*
X134638711Y-53703960D01*
X134638711Y-53703960D02*
X134662705Y-53796906D01*
X134662705Y-53796906D02*
X134685888Y-53890057D01*
X134685888Y-53890057D02*
X134708257Y-53983407D01*
X134708257Y-53983407D02*
X134729810Y-54076949D01*
X134729810Y-54076949D02*
X134750546Y-54170676D01*
X134750546Y-54170676D02*
X134770464Y-54264579D01*
X134770464Y-54264579D02*
X134789561Y-54358653D01*
X134789561Y-54358653D02*
X134807837Y-54452890D01*
X134807837Y-54452890D02*
X134825290Y-54547283D01*
X134825290Y-54547283D02*
X134841918Y-54641825D01*
X134841918Y-54641825D02*
X134857721Y-54736508D01*
X134857721Y-54736508D02*
X134872696Y-54831325D01*
X134872696Y-54831325D02*
X134886844Y-54926270D01*
X134886844Y-54926270D02*
X134900163Y-55021334D01*
X134900163Y-55021334D02*
X134912651Y-55116511D01*
X134912651Y-55116511D02*
X134924309Y-55211794D01*
X134924309Y-55211794D02*
X134935134Y-55307174D01*
X134935134Y-55307174D02*
X134945127Y-55402645D01*
X134945127Y-55402645D02*
X134954287Y-55498200D01*
X134954287Y-55498200D02*
X134961963Y-55586017D01*
X134999398Y-56384964D02*
X134999984Y-56480955D01*
X134999984Y-56480955D02*
X135000000Y-56500000D01*
D12*
X142630000Y-133580000D02*
X142630000Y-130920000D01*
X145230000Y-130920000D02*
X142630000Y-130920000D01*
X145230000Y-133580000D02*
X142630000Y-133580000D01*
X145230000Y-133580000D02*
X145230000Y-130920000D01*
X146500000Y-133580000D02*
X147830000Y-133580000D01*
X147830000Y-133580000D02*
X147830000Y-132250000D01*
%LPC*%
D14*
X134380000Y-96270000D03*
X136920000Y-96270000D03*
X139460000Y-96270000D03*
X142000000Y-96270000D03*
X144540000Y-96270000D03*
X147080000Y-96270000D03*
D15*
X149620000Y-96270000D03*
D16*
X130500000Y-97000000D03*
X130500000Y-120500000D03*
X153500000Y-97000000D03*
X153500000Y-120500000D03*
D15*
X162540000Y-80150000D03*
D14*
X160000000Y-80150000D03*
X157460000Y-80150000D03*
X154920000Y-80150000D03*
X152380000Y-80150000D03*
X149840000Y-80150000D03*
X147300000Y-80150000D03*
X144760000Y-80150000D03*
X142220000Y-80150000D03*
X139680000Y-80150000D03*
X137140000Y-80150000D03*
X134600000Y-80150000D03*
X132060000Y-80150000D03*
X129520000Y-80150000D03*
X126980000Y-80150000D03*
X124440000Y-80150000D03*
X121900000Y-80150000D03*
X119360000Y-80150000D03*
X116820000Y-80150000D03*
X114280000Y-80150000D03*
D17*
X158600000Y-116885000D03*
X158600000Y-133115000D03*
X164950000Y-116885000D03*
X164950000Y-133115000D03*
X152250000Y-116885000D03*
X152250000Y-133115000D03*
D15*
X114300000Y-64900000D03*
D14*
X116840000Y-64900000D03*
X119380000Y-64900000D03*
X121920000Y-64900000D03*
X124460000Y-64900000D03*
X127000000Y-64900000D03*
X129540000Y-64900000D03*
X132080000Y-64900000D03*
X134620000Y-64900000D03*
X137160000Y-64900000D03*
X139700000Y-64900000D03*
X142240000Y-64900000D03*
X144780000Y-64900000D03*
X147320000Y-64900000D03*
X149860000Y-64900000D03*
X152400000Y-64900000D03*
X154940000Y-64900000D03*
X157480000Y-64900000D03*
X160020000Y-64900000D03*
X162560000Y-64900000D03*
D17*
X125400000Y-133092064D03*
X125400000Y-116862064D03*
X119050000Y-133092064D03*
X119050000Y-116862064D03*
X131750000Y-133092064D03*
X131750000Y-116862064D03*
D18*
X132825000Y-44250000D03*
D19*
X136975000Y-44275000D03*
D20*
X147806389Y-53708633D03*
D21*
X147806389Y-56248633D03*
X147806389Y-58788633D03*
D15*
X140040000Y-132250000D03*
D14*
X137500000Y-132250000D03*
D22*
X167600000Y-61500000D03*
X152400000Y-61500000D03*
X167600000Y-51400000D03*
X152400000Y-51400000D03*
X165093772Y-48801099D03*
D15*
X124750000Y-125000000D03*
D14*
X122210000Y-125000000D03*
D22*
X119000000Y-91600000D03*
X119000000Y-76400000D03*
X129100000Y-91600000D03*
X129100000Y-76400000D03*
X131698901Y-89093772D03*
X155000000Y-91600000D03*
X155000000Y-76400000D03*
X165100000Y-91600000D03*
X165100000Y-76400000D03*
X167698901Y-89093772D03*
D15*
X161775000Y-125000000D03*
D14*
X159235000Y-125000000D03*
D22*
X131600000Y-61500000D03*
X116400000Y-61500000D03*
X131600000Y-51400000D03*
X116400000Y-51400000D03*
X129093772Y-48801099D03*
D15*
X146500000Y-132250000D03*
D14*
X143960000Y-132250000D03*
D23*
X124000000Y-42834000D03*
X124000000Y-49834000D03*
D24*
X126300000Y-47434000D03*
X126300000Y-44434000D03*
X121700000Y-52534000D03*
X126300000Y-51434000D03*
%LPD*%
M02*
