%TF.GenerationSoftware,KiCad,Pcbnew,9.0.6*%
%TF.CreationDate,2026-03-17T16:47:10+13:00*%
%TF.ProjectId,DaisySeedPedal125b_potty,44616973-7953-4656-9564-506564616c31,rev?*%
%TF.SameCoordinates,Original*%
%TF.FileFunction,Paste,Top*%
%TF.FilePolarity,Positive*%
%FSLAX46Y46*%
G04 Gerber Fmt 4.6, Leading zero omitted, Abs format (unit mm)*
G04 Created by KiCad (PCBNEW 9.0.6) date 2026-03-17 16:47:10*
%MOMM*%
%LPD*%
G01*
G04 APERTURE LIST*
G04 Aperture macros list*
%AMRoundRect*
0 Rectangle with rounded corners*
0 $1 Rounding radius*
0 $2 $3 $4 $5 $6 $7 $8 $9 X,Y pos of 4 corners*
0 Add a 4 corners polygon primitive as box body*
4,1,4,$2,$3,$4,$5,$6,$7,$8,$9,$2,$3,0*
0 Add four circle primitives for the rounded corners*
1,1,$1+$1,$2,$3*
1,1,$1+$1,$4,$5*
1,1,$1+$1,$6,$7*
1,1,$1+$1,$8,$9*
0 Add four rect primitives between the rounded corners*
20,1,$1+$1,$2,$3,$4,$5,0*
20,1,$1+$1,$4,$5,$6,$7,0*
20,1,$1+$1,$6,$7,$8,$9,0*
20,1,$1+$1,$8,$9,$2,$3,0*%
G04 Aperture macros list end*
%ADD10RoundRect,0.250000X-0.450000X0.262500X-0.450000X-0.262500X0.450000X-0.262500X0.450000X0.262500X0*%
%ADD11RoundRect,0.250000X-0.250000X-0.475000X0.250000X-0.475000X0.250000X0.475000X-0.250000X0.475000X0*%
%ADD12R,1.780000X2.000000*%
%ADD13RoundRect,0.250000X0.262500X0.450000X-0.262500X0.450000X-0.262500X-0.450000X0.262500X-0.450000X0*%
%ADD14RoundRect,0.250000X0.450000X-0.262500X0.450000X0.262500X-0.450000X0.262500X-0.450000X-0.262500X0*%
%ADD15R,0.800000X1.800000*%
%ADD16RoundRect,0.150000X0.150000X-0.825000X0.150000X0.825000X-0.150000X0.825000X-0.150000X-0.825000X0*%
%ADD17RoundRect,0.250000X-0.475000X0.250000X-0.475000X-0.250000X0.475000X-0.250000X0.475000X0.250000X0*%
%ADD18RoundRect,0.250000X0.250000X0.475000X-0.250000X0.475000X-0.250000X-0.475000X0.250000X-0.475000X0*%
%ADD19RoundRect,0.250000X-0.262500X-0.450000X0.262500X-0.450000X0.262500X0.450000X-0.262500X0.450000X0*%
%ADD20RoundRect,0.250000X0.300000X-0.300000X0.300000X0.300000X-0.300000X0.300000X-0.300000X-0.300000X0*%
%ADD21RoundRect,0.137500X-0.137500X0.587500X-0.137500X-0.587500X0.137500X-0.587500X0.137500X0.587500X0*%
%ADD22RoundRect,0.250000X0.475000X-0.250000X0.475000X0.250000X-0.475000X0.250000X-0.475000X-0.250000X0*%
%ADD23RoundRect,0.225000X0.225000X0.375000X-0.225000X0.375000X-0.225000X-0.375000X0.225000X-0.375000X0*%
%ADD24R,2.000000X1.500000*%
%ADD25R,2.000000X3.800000*%
%ADD26RoundRect,0.150000X-0.512500X-0.150000X0.512500X-0.150000X0.512500X0.150000X-0.512500X0.150000X0*%
G04 APERTURE END LIST*
D10*
X136988407Y-67725204D03*
X136988407Y-69550204D03*
D11*
X143950000Y-47550000D03*
X145850000Y-47550000D03*
D12*
X139640000Y-50350000D03*
X137100000Y-50350000D03*
X134560000Y-50350000D03*
X134560000Y-59600000D03*
X137100000Y-59600000D03*
X139640000Y-59600000D03*
D13*
X137100000Y-62000000D03*
X135275000Y-62000000D03*
D14*
X166267201Y-103897632D03*
X166267201Y-102072632D03*
D15*
X119000000Y-113600000D03*
X122200000Y-113600000D03*
X124400000Y-113600000D03*
X126600000Y-113600000D03*
X126600000Y-107900000D03*
X124400000Y-107900000D03*
X122200000Y-107900000D03*
X119000000Y-107900000D03*
D16*
X147020321Y-113421541D03*
X148290321Y-113421541D03*
X149560321Y-113421541D03*
X150830321Y-113421541D03*
X150830321Y-108471541D03*
X149560321Y-108471541D03*
X148290321Y-108471541D03*
X147020321Y-108471541D03*
D14*
X130800000Y-105180000D03*
X130800000Y-103355000D03*
D16*
X137525000Y-108650000D03*
X138795000Y-108650000D03*
X140065000Y-108650000D03*
X141335000Y-108650000D03*
X142605000Y-108650000D03*
X143875000Y-108650000D03*
X145145000Y-108650000D03*
X145145000Y-103700000D03*
X143875000Y-103700000D03*
X142605000Y-103700000D03*
X141335000Y-103700000D03*
X140065000Y-103700000D03*
X138795000Y-103700000D03*
X137525000Y-103700000D03*
D14*
X135325000Y-113680000D03*
X135325000Y-111855000D03*
D17*
X166292201Y-97685132D03*
X166292201Y-99585132D03*
D18*
X161425000Y-59600000D03*
X159525000Y-59600000D03*
D15*
X118950000Y-104300000D03*
X122150000Y-104300000D03*
X124350000Y-104300000D03*
X126550000Y-104300000D03*
X126550000Y-98600000D03*
X124350000Y-98600000D03*
X122150000Y-98600000D03*
X118950000Y-98600000D03*
D18*
X161425000Y-61800000D03*
X159525000Y-61800000D03*
D17*
X146900000Y-42500000D03*
X146900000Y-44400000D03*
D10*
X129475000Y-67650000D03*
X129475000Y-69475000D03*
D19*
X159024898Y-106162837D03*
X160849898Y-106162837D03*
D18*
X125675000Y-61925000D03*
X123775000Y-61925000D03*
D20*
X116100000Y-113900000D03*
X116100000Y-111100000D03*
D10*
X130777126Y-107130000D03*
X130777126Y-108955000D03*
X159436700Y-92842516D03*
X159436700Y-94667516D03*
D17*
X133027126Y-107092500D03*
X133027126Y-108992500D03*
D11*
X151206405Y-104424876D03*
X153106405Y-104424876D03*
X151566491Y-102363637D03*
X153466491Y-102363637D03*
D10*
X149329718Y-104167585D03*
X149329718Y-105992585D03*
D21*
X155915862Y-108304816D03*
X153375862Y-108304816D03*
X153375862Y-113804816D03*
X155915862Y-113804816D03*
D11*
X167394991Y-113734541D03*
X169294991Y-113734541D03*
D10*
X164017201Y-102085132D03*
X164017201Y-103910132D03*
D18*
X170324146Y-104021394D03*
X168424146Y-104021394D03*
D22*
X133010000Y-105217500D03*
X133010000Y-103317500D03*
X164042201Y-99585132D03*
X164042201Y-97685132D03*
D13*
X157172188Y-106170857D03*
X155347188Y-106170857D03*
D22*
X117275000Y-85125000D03*
X117275000Y-83225000D03*
X153020839Y-57916899D03*
X153020839Y-56016899D03*
D14*
X139450000Y-113525000D03*
X139450000Y-111700000D03*
D18*
X165500715Y-113730073D03*
X163600715Y-113730073D03*
D21*
X160932614Y-108376999D03*
X158392614Y-108376999D03*
X158392614Y-113876999D03*
X160932614Y-113876999D03*
D17*
X149150000Y-42500000D03*
X149150000Y-44400000D03*
D10*
X144800000Y-75475000D03*
X144800000Y-77300000D03*
D23*
X139650000Y-47850000D03*
X136350000Y-47850000D03*
D24*
X170241595Y-111265963D03*
X170241595Y-108965963D03*
D25*
X163941595Y-108965963D03*
D24*
X170241595Y-106665963D03*
D11*
X141575000Y-113525000D03*
X143475000Y-113525000D03*
D18*
X125675000Y-59825000D03*
X123775000Y-59825000D03*
D20*
X115825000Y-102400000D03*
X115825000Y-99600000D03*
D19*
X128190000Y-46220000D03*
X130015000Y-46220000D03*
D22*
X161792201Y-99585132D03*
X161792201Y-97685132D03*
D17*
X159542201Y-97685132D03*
X159542201Y-99585132D03*
D22*
X153950000Y-85950000D03*
X153950000Y-84050000D03*
D10*
X135277126Y-107130000D03*
X135277126Y-108955000D03*
D17*
X133075000Y-111817500D03*
X133075000Y-113717500D03*
D22*
X155145839Y-57916899D03*
X155145839Y-56016899D03*
D11*
X138800000Y-62000000D03*
X140700000Y-62000000D03*
D22*
X147116091Y-106054146D03*
X147116091Y-104154146D03*
D10*
X161767201Y-102085132D03*
X161767201Y-103910132D03*
X137350000Y-111725000D03*
X137350000Y-113550000D03*
X113200000Y-99200000D03*
X113200000Y-101025000D03*
X142225000Y-75475000D03*
X142225000Y-77300000D03*
D14*
X149620000Y-70345000D03*
X149620000Y-68520000D03*
D19*
X148143610Y-102338660D03*
X149968610Y-102338660D03*
D11*
X143925000Y-49725000D03*
X145825000Y-49725000D03*
D14*
X130825000Y-113680000D03*
X130825000Y-111855000D03*
D11*
X141575000Y-111275000D03*
X143475000Y-111275000D03*
D22*
X151840000Y-85950000D03*
X151840000Y-84050000D03*
D14*
X152160000Y-70345000D03*
X152160000Y-68520000D03*
X135300000Y-105180000D03*
X135300000Y-103355000D03*
X159464112Y-103672740D03*
X159464112Y-101847740D03*
D23*
X144350000Y-43850000D03*
X141050000Y-43850000D03*
D26*
X113825000Y-104250000D03*
X113825000Y-106150000D03*
X116100000Y-105200000D03*
D10*
X161916700Y-92802516D03*
X161916700Y-94627516D03*
D22*
X119385000Y-85125000D03*
X119385000Y-83225000D03*
D10*
X134525000Y-67675000D03*
X134525000Y-69500000D03*
X132025000Y-67650000D03*
X132025000Y-69475000D03*
M02*
